  0
SECTION
  2
HEADER
  9
$ACADVER
  1
AC1027
  9
$ACADMAINTVER
 70
     8
  9
$DWGCODEPAGE
  3
ANSI_1252
  9
$REQUIREDVERSIONS
160
                 0
  9
$INSBASE
 10
0.0
 20
0.0
 30
0.0
  9
$EXTMIN
 10
1.000000000000000E+20
 20
1.000000000000000E+20
 30
1.000000000000000E+20
  9
$EXTMAX
 10
-1.000000000000000E+20
 20
-1.000000000000000E+20
 30
-1.000000000000000E+20
  9
$LIMMIN
 10
0.0
 20
0.0
  9
$LIMMAX
 10
12.0
 20
9.0
  9
$ORTHOMODE
 70
     0
  9
$REGENMODE
 70
     1
  9
$FILLMODE
 70
     1
  9
$QTEXTMODE
 70
     0
  9
$MIRRTEXT
 70
     1
  9
$LTSCALE
 40
1.0
  9
$ATTMODE
 70
     1
  9
$TEXTSIZE
 40
0.2
  9
$TRACEWID
 40
0.05
  9
$TEXTSTYLE
  7
Standard
  9
$CLAYER
  8
0
  9
$CELTYPE
  6
ByLayer
  9
$CECOLOR
 62
   178
  9
$CELTSCALE
 40
1.0
  9
$DISPSILH
 70
     0
  9
$DIMSCALE
 40
1.0
  9
$DIMASZ
 40
0.3
  9
$DIMEXO
 40
0.075
  9
$DIMDLI
 40
0.38
  9
$DIMRND
 40
0.0
  9
$DIMDLE
 40
0.0
  9
$DIMEXE
 40
0.15
  9
$DIMTP
 40
0.0
  9
$DIMTM
 40
0.0
  9
$DIMTXT
 40
0.3
  9
$DIMCEN
 40
0.09
  9
$DIMTSZ
 40
0.0
  9
$DIMTOL
 70
     0
  9
$DIMLIM
 70
     0
  9
$DIMTIH
 70
     1
  9
$DIMTOH
 70
     1
  9
$DIMSE1
 70
     0
  9
$DIMSE2
 70
     0
  9
$DIMTAD
 70
     0
  9
$DIMZIN
 70
     8
  9
$DIMBLK
  1

  9
$DIMASO
 70
     1
  9
$DIMSHO
 70
     1
  9
$DIMPOST
  1

  9
$DIMAPOST
  1

  9
$DIMALT
 70
     0
  9
$DIMALTD
 70
     2
  9
$DIMALTF
 40
25.4
  9
$DIMLFAC
 40
1.0
  9
$DIMTOFL
 70
     0
  9
$DIMTVP
 40
0.0
  9
$DIMTIX
 70
     0
  9
$DIMSOXD
 70
     0
  9
$DIMSAH
 70
     0
  9
$DIMBLK1
  1

  9
$DIMBLK2
  1

  9
$DIMSTYLE
  2
Standard
  9
$DIMCLRD
 70
   178
  9
$DIMCLRE
 70
   178
  9
$DIMCLRT
 70
   178
  9
$DIMTFAC
 40
1.0
  9
$DIMGAP
 40
0.075
  9
$DIMJUST
 70
     0
  9
$DIMSD1
 70
     0
  9
$DIMSD2
 70
     0
  9
$DIMTOLJ
 70
     1
  9
$DIMTZIN
 70
     0
  9
$DIMALTZ
 70
     0
  9
$DIMALTTZ
 70
     0
  9
$DIMUPT
 70
     0
  9
$DIMDEC
 70
     4
  9
$DIMTDEC
 70
     4
  9
$DIMALTU
 70
     2
  9
$DIMALTTD
 70
     2
  9
$DIMTXSTY
  7
Standard
  9
$DIMAUNIT
 70
     0
  9
$DIMADEC
 70
     0
  9
$DIMALTRND
 40
0.0
  9
$DIMAZIN
 70
     2
  9
$DIMDSEP
 70
    46
  9
$DIMATFIT
 70
     3
  9
$DIMFRAC
 70
     0
  9
$DIMLDRBLK
  1

  9
$DIMLUNIT
 70
     2
  9
$DIMLWD
 70
    -2
  9
$DIMLWE
 70
    -2
  9
$DIMTMOVE
 70
     0
  9
$DIMFXL
 40
1.0
  9
$DIMFXLON
 70
     0
  9
$DIMJOGANG
 40
0.7853981633974483
  9
$DIMTFILL
 70
     0
  9
$DIMTFILLCLR
 70
     0
  9
$DIMARCSYM
 70
     0
  9
$DIMLTYPE
  6

  9
$DIMLTEX1
  6

  9
$DIMLTEX2
  6

  9
$DIMTXTDIRECTION
 70
     0
  9
$LUNITS
 70
     2
  9
$LUPREC
 70
     4
  9
$SKETCHINC
 40
0.1
  9
$FILLETRAD
 40
0.5
  9
$AUNITS
 70
     0
  9
$AUPREC
 70
     0
  9
$MENU
  1
.
  9
$ELEVATION
 40
0.0
  9
$PELEVATION
 40
0.0
  9
$THICKNESS
 40
0.0
  9
$LIMCHECK
 70
     0
  9
$CHAMFERA
 40
0.0
  9
$CHAMFERB
 40
0.0
  9
$CHAMFERC
 40
0.0
  9
$CHAMFERD
 40
0.0
  9
$SKPOLY
 70
     0
  9
$TDCREATE
 40
2457880.091539352
  9
$TDUCREATE
 40
2457880.049872685
  9
$TDUPDATE
 40
2457880.091539352
  9
$TDUUPDATE
 40
2457880.049872685
  9
$TDINDWG
 40
0.0000000116
  9
$TDUSRTIMER
 40
0.0000000116
  9
$USRTIMER
 70
     1
  9
$ANGBASE
 50
0.0
  9
$ANGDIR
 70
     0
  9
$PDMODE
 70
     0
  9
$PDSIZE
 40
0.0
  9
$PLINEWID
 40
0.0
  9
$SPLFRAME
 70
     0
  9
$SPLINETYPE
 70
     6
  9
$SPLINESEGS
 70
     8
  9
$HANDSEED
  5
1036
  9
$SURFTAB1
 70
     6
  9
$SURFTAB2
 70
     6
  9
$SURFTYPE
 70
     6
  9
$SURFU
 70
     6
  9
$SURFV
 70
     6
  9
$UCSBASE
  2

  9
$UCSNAME
  2

  9
$UCSORG
 10
0.0
 20
0.0
 30
0.0
  9
$UCSXDIR
 10
1.0
 20
0.0
 30
0.0
  9
$UCSYDIR
 10
0.0
 20
1.0
 30
0.0
  9
$UCSORTHOREF
  2

  9
$UCSORTHOVIEW
 70
     0
  9
$UCSORGTOP
 10
0.0
 20
0.0
 30
0.0
  9
$UCSORGBOTTOM
 10
0.0
 20
0.0
 30
0.0
  9
$UCSORGLEFT
 10
0.0
 20
0.0
 30
0.0
  9
$UCSORGRIGHT
 10
0.0
 20
0.0
 30
0.0
  9
$UCSORGFRONT
 10
0.0
 20
0.0
 30
0.0
  9
$UCSORGBACK
 10
0.0
 20
0.0
 30
0.0
  9
$PUCSBASE
  2

  9
$PUCSNAME
  2

  9
$PUCSORG
 10
0.0
 20
0.0
 30
0.0
  9
$PUCSXDIR
 10
1.0
 20
0.0
 30
0.0
  9
$PUCSYDIR
 10
0.0
 20
1.0
 30
0.0
  9
$PUCSORTHOREF
  2

  9
$PUCSORTHOVIEW
 70
     0
  9
$PUCSORGTOP
 10
0.0
 20
0.0
 30
0.0
  9
$PUCSORGBOTTOM
 10
0.0
 20
0.0
 30
0.0
  9
$PUCSORGLEFT
 10
0.0
 20
0.0
 30
0.0
  9
$PUCSORGRIGHT
 10
0.0
 20
0.0
 30
0.0
  9
$PUCSORGFRONT
 10
0.0
 20
0.0
 30
0.0
  9
$PUCSORGBACK
 10
0.0
 20
0.0
 30
0.0
  9
$USERI1
 70
     0
  9
$USERI2
 70
     0
  9
$USERI3
 70
     0
  9
$USERI4
 70
     0
  9
$USERI5
 70
     0
  9
$USERR1
 40
0.0
  9
$USERR2
 40
0.0
  9
$USERR3
 40
0.0
  9
$USERR4
 40
0.0
  9
$USERR5
 40
0.0
  9
$WORLDVIEW
 70
     1
  9
$SHADEDGE
 70
     3
  9
$SHADEDIF
 70
    70
  9
$TILEMODE
 70
     1
  9
$MAXACTVP
 70
     2
  9
$PINSBASE
 10
0.0
 20
0.0
 30
0.0
  9
$PLIMCHECK
 70
     0
  9
$PEXTMIN
 10
0.0
 20
0.0
 30
0.0
  9
$PEXTMAX
 10
0.0
 20
0.0
 30
0.0
  9
$PLIMMIN
 10
-20.0
 20
-7.5
  9
$PLIMMAX
 10
277.0
 20
202.5
  9
$UNITMODE
 70
     0
  9
$VISRETAIN
 70
     1
  9
$PLINEGEN
 70
     0
  9
$PSLTSCALE
 70
     1
  9
$TREEDEPTH
 70
  3020
  9
$CMLSTYLE
  2
Standard
  9
$CMLJUST
 70
     0
  9
$CMLSCALE
 40
1.0
  9
$PROXYGRAPHICS
 70
     1
  9
$MEASUREMENT
 70
     1
  9
$CELWEIGHT
370
    -1
  9
$ENDCAPS
280
     0
  9
$JOINSTYLE
280
     0
  9
$LWDISPLAY
290
     0
  9
$INSUNITS
 70
     6
  9
$HYPERLINKBASE
  1

  9
$STYLESHEET
  1

  9
$XEDIT
290
     1
  9
$CEPSNTYPE
380
     0
  9
$PSTYLEMODE
290
     1
  9
$FINGERPRINTGUID
  2
{E0C0C1AC-0558-C168-38FD-290ED4D8C3B1}
  9
$VERSIONGUID
  2
{FAEB1C32-E019-11D5-929B-00C0DF256EC4}
  9
$EXTNAMES
290
     1
  9
$PSVPSCALE
 40
0.0
  9
$OLESTARTUP
290
     0
  9
$SORTENTS
280
   127
  9
$INDEXCTL
280
     0
  9
$HIDETEXT
280
     1
  9
$XCLIPFRAME
280
     2
  9
$HALOGAP
280
     0
  9
$OBSCOLOR
 70
   257
  9
$OBSLTYPE
280
     0
  9
$INTERSECTIONDISPLAY
280
     0
  9
$INTERSECTIONCOLOR
 70
   257
  9
$DIMASSOC
280
     2
  9
$PROJECTNAME
  1

  9
$CAMERADISPLAY
290
     0
  9
$LENSLENGTH
 40
50.0
  9
$CAMERAHEIGHT
 40
0.0
  9
$STEPSPERSEC
 40
2.0
  9
$STEPSIZE
 40
6.0
  9
$3DDWFPREC
 40
2.0
  9
$PSOLWIDTH
 40
0.25
  9
$PSOLHEIGHT
 40
4.0
  9
$LOFTANG1
 40
1.570796326794897
  9
$LOFTANG2
 40
1.570796326794897
  9
$LOFTMAG1
 40
0.0
  9
$LOFTMAG2
 40
0.0
  9
$LOFTPARAM
 70
     7
  9
$LOFTNORMALS
280
     1
  9
$LATITUDE
 40
37.795
  9
$LONGITUDE
 40
-122.394
  9
$NORTHDIRECTION
 40
0.0
  9
$TIMEZONE
 70
 -8000
  9
$LIGHTGLYPHDISPLAY
280
     1
  9
$TILEMODELIGHTSYNCH
280
     1
  9
$CMATERIAL
347
F81
  9
$SOLIDHIST
280
     0
  9
$SHOWHIST
280
     1
  9
$DWFFRAME
280
     2
  9
$DGNFRAME
280
     2
  9
$REALWORLDSCALE
290
     1
  9
$INTERFERECOLOR
 62
   256
  9
$CSHADOW
280
     0
  9
$SHADOWPLANELOCATION
 40
0.0
  0
ENDSEC
  0
SECTION
  2
CLASSES
  0
CLASS
  1
ACDBDICTIONARYWDFLT
  2
AcDbDictionaryWithDefault
  3
ObjectDBX Classes
 90
        0
 91
        4
280
     0
281
     0
  0
CLASS
  1
VISUALSTYLE
  2
AcDbVisualStyle
  3
ObjectDBX Classes
 90
     4095
 91
        4
280
     0
281
     0
  0
CLASS
  1
MATERIAL
  2
AcDbMaterial
  3
ObjectDBX Classes
 90
     1153
 91
        4
280
     0
281
     0
  0
CLASS
  1
SCALE
  2
AcDbScale
  3
ObjectDBX Classes
 90
     1153
 91
        4
280
     0
281
     0
  0
CLASS
  1
TABLESTYLE
  2
AcDbTableStyle
  3
ObjectDBX Classes
 90
     4095
 91
        4
280
     0
281
     0
  0
CLASS
  1
MLEADERSTYLE
  2
AcDbMLeaderStyle
  3
ACDB_MLEADERSTYLE_CLASS
 90
     4095
 91
        4
280
     0
281
     0
  0
CLASS
  1
SUN
  2
AcDbSun
  3
SCENEOE
 90
     1153
 91
        4
280
     0
281
     0
  0
CLASS
  1
DICTIONARYVAR
  2
AcDbDictionaryVar
  3
ObjectDBX Classes
 90
        0
 91
        4
280
     0
281
     0
  0
CLASS
  1
CELLSTYLEMAP
  2
AcDbCellStyleMap
  3
ObjectDBX Classes
 90
     1152
 91
        4
280
     0
281
     0
  0
ENDSEC
  0
SECTION
  2
TABLES
  0
TABLE
  2
VPORT
  5
F46
330
0
100
AcDbSymbolTable
 70
     1
  0
VPORT
  5
F66
330
F46
100
AcDbSymbolTableRecord
100
AcDbViewportTableRecord
  2
*Active
 70
     0
 10
0.0
 20
0.0
 11
1.0
 21
1.0
 12
20.0
 22
13.0
 13
0.0
 23
0.0
 14
0.5
 24
0.5
 15
0.5
 25
0.5
 16
0.0
 26
0.0
 36
1.0
 17
0.0
 27
0.0
 37
0.0
 40
31.87102473498233
 41
1.341094295692666
 42
50.0
 43
0.0
 44
0.0
 50
0.0
 51
0.0
 71
     0
 72
   100
 73
     1
 74
     3
 75
     0
 76
     0
 77
     0
 78
     0
281
     0
 65
     1
110
0.0
120
0.0
130
0.0
111
1.0
121
0.0
131
0.0
112
0.0
122
1.0
132
0.0
 79
     0
146
0.0
 60
     3
 61
     5
292
     1
282
     1
141
0.0
142
0.0
 63
   250
361
FAA
  0
ENDTAB
  0
TABLE
  2
LTYPE
  5
F43
330
0
100
AcDbSymbolTable
 70
    48
  0
LTYPE
  5
F51
330
F43
100
AcDbSymbolTableRecord
100
AcDbLinetypeTableRecord
  2
ByBlock
 70
     0
  3

 72
    65
 73
     0
 40
0.0
  0
LTYPE
  5
F52
330
F43
100
AcDbSymbolTableRecord
100
AcDbLinetypeTableRecord
  2
ByLayer
 70
     0
  3

 72
    65
 73
     0
 40
0.0
  0
LTYPE
  5
F53
330
F43
100
AcDbSymbolTableRecord
100
AcDbLinetypeTableRecord
  2
Continuous
 70
     0
  3
Solid line
 72
    65
 73
     0
 40
0.0
  0
LTYPE
  5
FE7
330
F43
100
AcDbSymbolTableRecord
100
AcDbLinetypeTableRecord
  2
ACAD_ISO02W100
 70
     0
  3
ISO dash __ __ __ __ __ __ __ __ __ __ __ __ __
 72
    65
 73
     2
 40
15.0
 49
12.0
 74
     0
 49
-3.0
 74
     0
  0
LTYPE
  5
FE8
330
F43
100
AcDbSymbolTableRecord
100
AcDbLinetypeTableRecord
  2
ACAD_ISO03W100
 70
     0
  3
ISO dash space __    __    __    __    __    __
 72
    65
 73
     2
 40
30.0
 49
12.0
 74
     0
 49
-18.0
 74
     0
  0
LTYPE
  5
FE9
330
F43
100
AcDbSymbolTableRecord
100
AcDbLinetypeTableRecord
  2
ACAD_ISO04W100
 70
     0
  3
ISO long-dash dot ____ . ____ . ____ . ____ . _
 72
    65
 73
     4
 40
30.0
 49
24.0
 74
     0
 49
-3.0
 74
     0
 49
0.0
 74
     0
 49
-3.0
 74
     0
  0
LTYPE
  5
FEA
330
F43
100
AcDbSymbolTableRecord
100
AcDbLinetypeTableRecord
  2
ACAD_ISO05W100
 70
     0
  3
ISO long-dash double-dot ____ .. ____ .. ____ . 
 72
    65
 73
     6
 40
33.0
 49
24.0
 74
     0
 49
-3.0
 74
     0
 49
0.0
 74
     0
 49
-3.0
 74
     0
 49
0.0
 74
     0
 49
-3.0
 74
     0
  0
LTYPE
  5
FEB
330
F43
100
AcDbSymbolTableRecord
100
AcDbLinetypeTableRecord
  2
ACAD_ISO06W100
 70
     0
  3
ISO long-dash triple-dot ____ ... ____ ... ____
 72
    65
 73
     8
 40
36.0
 49
24.0
 74
     0
 49
-3.0
 74
     0
 49
0.0
 74
     0
 49
-3.0
 74
     0
 49
0.0
 74
     0
 49
-3.0
 74
     0
 49
0.0
 74
     0
 49
-3.0
 74
     0
  0
LTYPE
  5
FEC
330
F43
100
AcDbSymbolTableRecord
100
AcDbLinetypeTableRecord
  2
ACAD_ISO07W100
 70
     0
  3
ISO dot . . . . . . . . . . . . . . . . . . . . 
 72
    65
 73
     2
 40
3.0
 49
0.0
 74
     0
 49
-3.0
 74
     0
  0
LTYPE
  5
FED
330
F43
100
AcDbSymbolTableRecord
100
AcDbLinetypeTableRecord
  2
ACAD_ISO08W100
 70
     0
  3
ISO long-dash short-dash ____ __ ____ __ ____ _
 72
    65
 73
     4
 40
36.0
 49
24.0
 74
     0
 49
-3.0
 74
     0
 49
6.0
 74
     0
 49
-3.0
 74
     0
  0
LTYPE
  5
FEE
330
F43
100
AcDbSymbolTableRecord
100
AcDbLinetypeTableRecord
  2
ACAD_ISO09W100
 70
     0
  3
ISO long-dash double-short-dash ____ __ __ ____
 72
    65
 73
     6
 40
45.0
 49
24.0
 74
     0
 49
-3.0
 74
     0
 49
6.0
 74
     0
 49
-3.0
 74
     0
 49
6.0
 74
     0
 49
-3.0
 74
     0
  0
LTYPE
  5
FEF
330
F43
100
AcDbSymbolTableRecord
100
AcDbLinetypeTableRecord
  2
ACAD_ISO10W100
 70
     0
  3
ISO dash dot __ . __ . __ . __ . __ . __ . __ . 
 72
    65
 73
     4
 40
18.0
 49
12.0
 74
     0
 49
-3.0
 74
     0
 49
0.0
 74
     0
 49
-3.0
 74
     0
  0
LTYPE
  5
FF0
330
F43
100
AcDbSymbolTableRecord
100
AcDbLinetypeTableRecord
  2
ACAD_ISO11W100
 70
     0
  3
ISO double-dash dot __ __ . __ __ . __ __ . __ _
 72
    65
 73
     6
 40
33.0
 49
12.0
 74
     0
 49
-3.0
 74
     0
 49
12.0
 74
     0
 49
-3.0
 74
     0
 49
0.0
 74
     0
 49
-3.0
 74
     0
  0
LTYPE
  5
FF1
330
F43
100
AcDbSymbolTableRecord
100
AcDbLinetypeTableRecord
  2
ACAD_ISO12W100
 70
     0
  3
ISO dash double-dot __ . . __ . . __ . . __ . . 
 72
    65
 73
     6
 40
21.0
 49
12.0
 74
     0
 49
-3.0
 74
     0
 49
0.0
 74
     0
 49
-3.0
 74
     0
 49
0.0
 74
     0
 49
-3.0
 74
     0
  0
LTYPE
  5
FF2
330
F43
100
AcDbSymbolTableRecord
100
AcDbLinetypeTableRecord
  2
ACAD_ISO13W100
 70
     0
  3
ISO double-dash double-dot __ __ . . __ __ . . _
 72
    65
 73
     8
 40
36.0
 49
12.0
 74
     0
 49
-3.0
 74
     0
 49
12.0
 74
     0
 49
-3.0
 74
     0
 49
0.0
 74
     0
 49
-3.0
 74
     0
 49
0.0
 74
     0
 49
-3.0
 74
     0
  0
LTYPE
  5
FF3
330
F43
100
AcDbSymbolTableRecord
100
AcDbLinetypeTableRecord
  2
ACAD_ISO14W100
 70
     0
  3
ISO dash triple-dot __ . . . __ . . . __ . . . _
 72
    65
 73
     8
 40
24.0
 49
12.0
 74
     0
 49
-3.0
 74
     0
 49
0.0
 74
     0
 49
-3.0
 74
     0
 49
0.0
 74
     0
 49
-3.0
 74
     0
 49
0.0
 74
     0
 49
-3.0
 74
     0
  0
LTYPE
  5
FF4
330
F43
100
AcDbSymbolTableRecord
100
AcDbLinetypeTableRecord
  2
ACAD_ISO15W100
 70
     0
  3
ISO double-dash triple-dot __ __ . . . __ __ . .
 72
    65
 73
    10
 40
39.0
 49
12.0
 74
     0
 49
-3.0
 74
     0
 49
12.0
 74
     0
 49
-3.0
 74
     0
 49
0.0
 74
     0
 49
-3.0
 74
     0
 49
0.0
 74
     0
 49
-3.0
 74
     0
 49
0.0
 74
     0
 49
-3.0
 74
     0
  0
LTYPE
  5
FF7
330
F43
100
AcDbSymbolTableRecord
100
AcDbLinetypeTableRecord
  2
BATTING
 70
     0
  3
Batting SSSSSSSSSSSSSSSSSSSSSSSSSSSSSSSSSSSSSSSSSSSSSSS
 72
    65
 73
     4
 40
10.16254
 49
0.00254
 74
     0
 49
-2.54
 74
     2
 75
     0
340
FF5
 46
2.54
 50
0.0
 44
-2.54
 45
0.0
  9
BAT
 49
-5.08
 74
     2
 75
     0
340
FF6
 46
2.54
 50
180.0
 44
2.54
 45
0.0
  9
BAT
 49
-2.54
 74
     0
  0
LTYPE
  5
FF8
330
F43
100
AcDbSymbolTableRecord
100
AcDbLinetypeTableRecord
  2
BORDER
 70
     0
  3
Border __ __ . __ __ . __ __ . __ __ . __ __ .
 72
    65
 73
     6
 40
44.45
 49
12.7
 74
     0
 49
-6.35
 74
     0
 49
12.7
 74
     0
 49
-6.35
 74
     0
 49
0.0
 74
     0
 49
-6.35
 74
     0
  0
LTYPE
  5
FF9
330
F43
100
AcDbSymbolTableRecord
100
AcDbLinetypeTableRecord
  2
BORDER2
 70
     0
  3
Border (.5x) __.__.__.__.__.__.__.__.__.__.__.
 72
    65
 73
     6
 40
22.225
 49
6.35
 74
     0
 49
-3.175
 74
     0
 49
6.35
 74
     0
 49
-3.175
 74
     0
 49
0.0
 74
     0
 49
-3.175
 74
     0
  0
LTYPE
  5
FFA
330
F43
100
AcDbSymbolTableRecord
100
AcDbLinetypeTableRecord
  2
BORDERX2
 70
     0
  3
Border (2x) ____  ____  .  ____  ____  .  ___
 72
    65
 73
     6
 40
88.89999999999999
 49
25.4
 74
     0
 49
-12.7
 74
     0
 49
25.4
 74
     0
 49
-12.7
 74
     0
 49
0.0
 74
     0
 49
-12.7
 74
     0
  0
LTYPE
  5
FFB
330
F43
100
AcDbSymbolTableRecord
100
AcDbLinetypeTableRecord
  2
CENTER
 70
     0
  3
Center ____ _ ____ _ ____ _ ____ _ ____ _ ____
 72
    65
 73
     4
 40
50.8
 49
31.75
 74
     0
 49
-6.35
 74
     0
 49
6.35
 74
     0
 49
-6.35
 74
     0
  0
LTYPE
  5
FFC
330
F43
100
AcDbSymbolTableRecord
100
AcDbLinetypeTableRecord
  2
CENTER2
 70
     0
  3
Center (.5x) ___ _ ___ _ ___ _ ___ _ ___ _ ___
 72
    65
 73
     4
 40
28.575
 49
19.05
 74
     0
 49
-3.175
 74
     0
 49
3.175
 74
     0
 49
-3.175
 74
     0
  0
LTYPE
  5
FFD
330
F43
100
AcDbSymbolTableRecord
100
AcDbLinetypeTableRecord
  2
CENTERX2
 70
     0
  3
Center (2x) ________  __  ________  __  _____
 72
    65
 73
     4
 40
101.6
 49
63.5
 74
     0
 49
-12.7
 74
     0
 49
12.7
 74
     0
 49
-12.7
 74
     0
  0
LTYPE
  5
FFE
330
F43
100
AcDbSymbolTableRecord
100
AcDbLinetypeTableRecord
  2
DASHDOT
 70
     0
  3
Dash dot __ . __ . __ . __ . __ . __ . __ . __
 72
    65
 73
     4
 40
25.4
 49
12.7
 74
     0
 49
-6.35
 74
     0
 49
0.0
 74
     0
 49
-6.35
 74
     0
  0
LTYPE
  5
FFF
330
F43
100
AcDbSymbolTableRecord
100
AcDbLinetypeTableRecord
  2
DASHDOT2
 70
     0
  3
Dash dot (.5x) _._._._._._._._._._._._._._._.
 72
    65
 73
     4
 40
12.7
 49
6.35
 74
     0
 49
-3.175
 74
     0
 49
0.0
 74
     0
 49
-3.175
 74
     0
  0
LTYPE
  5
1000
330
F43
100
AcDbSymbolTableRecord
100
AcDbLinetypeTableRecord
  2
DASHDOTX2
 70
     0
  3
Dash dot (2x) ____  .  ____  .  ____  .  ___
 72
    65
 73
     4
 40
50.8
 49
25.4
 74
     0
 49
-12.7
 74
     0
 49
0.0
 74
     0
 49
-12.7
 74
     0
  0
LTYPE
  5
1001
330
F43
100
AcDbSymbolTableRecord
100
AcDbLinetypeTableRecord
  2
DASHED
 70
     0
  3
Dashed __ __ __ __ __ __ __ __ __ __ __ __ __ _
 72
    65
 73
     2
 40
19.05
 49
12.7
 74
     0
 49
-6.35
 74
     0
  0
LTYPE
  5
1002
330
F43
100
AcDbSymbolTableRecord
100
AcDbLinetypeTableRecord
  2
DASHED2
 70
     0
  3
Dashed (.5x) _ _ _ _ _ _ _ _ _ _ _ _ _ _ _ _ _ 
 72
    65
 73
     2
 40
9.524999999999999
 49
6.35
 74
     0
 49
-3.175
 74
     0
  0
LTYPE
  5
1003
330
F43
100
AcDbSymbolTableRecord
100
AcDbLinetypeTableRecord
  2
DASHEDX2
 70
     0
  3
Dashed (2x) ____  ____  ____  ____  ____  ___
 72
    65
 73
     2
 40
38.09999999999999
 49
25.4
 74
     0
 49
-12.7
 74
     0
  0
LTYPE
  5
1004
330
F43
100
AcDbSymbolTableRecord
100
AcDbLinetypeTableRecord
  2
DIVIDE
 70
     0
  3
Divide ____ . . ____ . . ____ . . ____ . . ____
 72
    65
 73
     6
 40
31.75
 49
12.7
 74
     0
 49
-6.35
 74
     0
 49
0.0
 74
     0
 49
-6.35
 74
     0
 49
0.0
 74
     0
 49
-6.35
 74
     0
  0
LTYPE
  5
1005
330
F43
100
AcDbSymbolTableRecord
100
AcDbLinetypeTableRecord
  2
DIVIDE2
 70
     0
  3
Divide (.5x) __..__..__..__..__..__..__..__.._
 72
    65
 73
     6
 40
15.875
 49
6.35
 74
     0
 49
-3.175
 74
     0
 49
0.0
 74
     0
 49
-3.175
 74
     0
 49
0.0
 74
     0
 49
-3.175
 74
     0
  0
LTYPE
  5
1006
330
F43
100
AcDbSymbolTableRecord
100
AcDbLinetypeTableRecord
  2
DIVIDEX2
 70
     0
  3
Divide (2x) ________  .  .  ________  .  .  _
 72
    65
 73
     6
 40
63.5
 49
25.4
 74
     0
 49
-12.7
 74
     0
 49
0.0
 74
     0
 49
-12.7
 74
     0
 49
0.0
 74
     0
 49
-12.7
 74
     0
  0
LTYPE
  5
1007
330
F43
100
AcDbSymbolTableRecord
100
AcDbLinetypeTableRecord
  2
DOT
 70
     0
  3
Dot . . . . . . . . . . . . . . . . . . . . . . . .
 72
    65
 73
     2
 40
6.35
 49
0.0
 74
     0
 49
-6.35
 74
     0
  0
LTYPE
  5
1008
330
F43
100
AcDbSymbolTableRecord
100
AcDbLinetypeTableRecord
  2
DOT2
 70
     0
  3
Dot (.5x) ........................................
 72
    65
 73
     2
 40
3.175
 49
0.0
 74
     0
 49
-3.175
 74
     0
  0
LTYPE
  5
1009
330
F43
100
AcDbSymbolTableRecord
100
AcDbLinetypeTableRecord
  2
DOTX2
 70
     0
  3
Dot (2x) .  .  .  .  .  .  .  .  .  .  .  .  .  .
 72
    65
 73
     2
 40
12.7
 49
0.0
 74
     0
 49
-12.7
 74
     0
  0
LTYPE
  5
100B
330
F43
100
AcDbSymbolTableRecord
100
AcDbLinetypeTableRecord
  2
DRAINAGE
 70
     0
  3
Drainage ---->---->---->----
 72
    65
 73
     2
 40
10.16
 49
5.08
 74
     2
 75
     0
340
100A
 46
2.54
 50
180.0
 44
0.0
 45
0.0
  9
RIGHT_ARROW
 49
5.08
 74
     0
  0
LTYPE
  5
100D
330
F43
100
AcDbSymbolTableRecord
100
AcDbLinetypeTableRecord
  2
DRAINAGE2
 70
     0
  3
Drainage reversed----<----<----<----
 72
    65
 73
     2
 40
10.16
 49
5.08
 74
     2
 75
     0
340
100C
 46
2.54
 50
0.0
 44
0.0
 45
0.0
  9
RIGHT_ARROW
 49
5.08
 74
     0
  0
LTYPE
  5
100F
330
F43
100
AcDbSymbolTableRecord
100
AcDbLinetypeTableRecord
  2
FENCELINE1
 70
     0
  3
Fenceline circle ----0-----0----0-----0----0-----0--
 72
    65
 73
     4
 40
36.83
 49
6.35
 74
     0
 49
-2.54
 74
     2
 75
     0
340
100E
 46
2.54
 50
0.0
 44
-2.54
 45
0.0
  9
CIRC1
 49
-2.54
 74
     0
 49
25.4
 74
     0
  0
LTYPE
  5
1011
330
F43
100
AcDbSymbolTableRecord
100
AcDbLinetypeTableRecord
  2
FENCELINE2
 70
     0
  3
Fenceline square ----[]-----[]----[]-----[]----[]---
 72
    65
 73
     4
 40
36.83
 49
6.35
 74
     0
 49
-2.54
 74
     2
 75
     0
340
1010
 46
2.54
 50
0.0
 44
-2.54
 45
0.0
  9
BOX
 49
-2.54
 74
     0
 49
25.4
 74
     0
  0
LTYPE
  5
1013
330
F43
100
AcDbSymbolTableRecord
100
AcDbLinetypeTableRecord
  2
GAS_LINE
 70
     0
  3
Gas line ----GAS----GAS----GAS----GAS----GAS----GAS--
 72
    65
 73
     3
 40
24.13
 49
12.7
 74
     0
 49
-5.08
 74
     2
 75
     0
340
1012
 46
2.54
 50
0.0
 44
-2.54
 45
-1.27
  9
GAS
 49
-6.35
 74
     0
  0
LTYPE
  5
1014
330
F43
100
AcDbSymbolTableRecord
100
AcDbLinetypeTableRecord
  2
HIDDEN
 70
     0
  3
Hidden __ __ __ __ __ __ __ __ __ __ __ __ __ __
 72
    65
 73
     2
 40
9.524999999999999
 49
6.35
 74
     0
 49
-3.175
 74
     0
  0
LTYPE
  5
1015
330
F43
100
AcDbSymbolTableRecord
100
AcDbLinetypeTableRecord
  2
HIDDEN2
 70
     0
  3
Hidden (.5x) _ _ _ _ _ _ _ _ _ _ _ _ _ _ _ _ _ 
 72
    65
 73
     2
 40
4.762499999999999
 49
3.175
 74
     0
 49
-1.5875
 74
     0
  0
LTYPE
  5
1016
330
F43
100
AcDbSymbolTableRecord
100
AcDbLinetypeTableRecord
  2
HIDDENX2
 70
     0
  3
Hidden (2x) ____ ____ ____ ____ ____ ____ ____ 
 72
    65
 73
     2
 40
19.05
 49
12.7
 74
     0
 49
-6.35
 74
     0
  0
LTYPE
  5
1018
330
F43
100
AcDbSymbolTableRecord
100
AcDbLinetypeTableRecord
  2
HOT_WATER_SUPPLY
 70
     0
  3
Hot water supply ---- HW ---- HW ---- HW ----
 72
    65
 73
     3
 40
22.86
 49
12.7
 74
     0
 49
-5.08
 74
     2
 75
     0
340
1017
 46
2.54
 50
0.0
 44
-2.54
 45
-1.27
  9
HW
 49
-5.08
 74
     0
  0
LTYPE
  5
1019
330
F43
100
AcDbSymbolTableRecord
100
AcDbLinetypeTableRecord
  2
PHANTOM
 70
     0
  3
Phantom ______  __  __  ______  __  __  ______ 
 72
    65
 73
     6
 40
63.50000000000001
 49
31.75
 74
     0
 49
-6.35
 74
     0
 49
6.35
 74
     0
 49
-6.35
 74
     0
 49
6.35
 74
     0
 49
-6.35
 74
     0
  0
LTYPE
  5
101A
330
F43
100
AcDbSymbolTableRecord
100
AcDbLinetypeTableRecord
  2
PHANTOM2
 70
     0
  3
Phantom (.5x) ___ _ _ ___ _ _ ___ _ _ ___ _ _
 72
    65
 73
     6
 40
31.75
 49
15.875
 74
     0
 49
-3.175
 74
     0
 49
3.175
 74
     0
 49
-3.175
 74
     0
 49
3.175
 74
     0
 49
-3.175
 74
     0
  0
LTYPE
  5
101B
330
F43
100
AcDbSymbolTableRecord
100
AcDbLinetypeTableRecord
  2
PHANTOMX2
 70
     0
  3
Phantom (2x) ____________    ____    ____   _
 72
    65
 73
     6
 40
127.0
 49
63.5
 74
     0
 49
-12.7
 74
     0
 49
12.7
 74
     0
 49
-12.7
 74
     0
 49
12.7
 74
     0
 49
-12.7
 74
     0
  0
LTYPE
  5
101D
330
F43
100
AcDbSymbolTableRecord
100
AcDbLinetypeTableRecord
  2
TRACKS
 70
     0
  3
Tracks -|-|-|-|-|-|-|-|-|-|-|-|-|-|-|-|-|-|-|-|-|-|-|-|-
 72
    65
 73
     2
 40
7.62
 49
3.81
 74
     2
 75
     0
340
101C
 46
6.35
 50
0.0
 44
0.0
 45
0.0
  9
TRACK1
 49
3.81
 74
     0
  0
LTYPE
  5
1020
330
F43
100
AcDbSymbolTableRecord
100
AcDbLinetypeTableRecord
  2
ZIGZAG
 70
     0
  3
Zig zag /\/\/\/\/\/\/\/\/\/\/\/\/\/\/\/\/\/\/\/\/\/\/\/
 72
    65
 73
     4
 40
20.32254
 49
0.00254
 74
     0
 49
-5.08
 74
     2
 75
     0
340
101E
 46
5.08
 50
0.0
 44
-5.08
 45
0.0
  9
ZIG
 49
-10.16
 74
     2
 75
     0
340
101F
 46
5.08
 50
180.0
 44
5.08
 45
0.0
  9
ZIG
 49
-5.08
 74
     0
  0
ENDTAB
  0
TABLE
  2
LAYER
  5
F40
330
0
100
AcDbSymbolTable
 70
     7
  0
LAYER
  5
F4E
330
F40
100
AcDbSymbolTableRecord
100
AcDbLayerTableRecord
  2
0
 70
     0
 62
   178
420
        0
  6
Continuous
370
    25
390
F4D
347
F83
348
0
  0
LAYER
  5
1021
330
F40
100
AcDbSymbolTableRecord
100
AcDbLayerTableRecord
  2
Tent
 70
     0
 62
   178
420
        0
  6
Continuous
370
     0
390
F4D
347
F83
348
0
  0
LAYER
  5
1022
330
F40
100
AcDbSymbolTableRecord
100
AcDbLayerTableRecord
  2
Meta
 70
     0
 62
   178
420
        0
  6
Continuous
370
     0
390
F4D
347
F83
348
0
  0
LAYER
  5
1023
330
F40
100
AcDbSymbolTableRecord
100
AcDbLayerTableRecord
  2
Dimensions
 70
     0
 62
   178
420
        0
  6
Continuous
370
     0
390
F4D
347
F83
348
0
  0
LAYER
  5
1024
330
F40
100
AcDbSymbolTableRecord
100
AcDbLayerTableRecord
  2
Interior
 70
     0
 62
     6
420
 16711935
  6
Continuous
370
     0
390
F4D
347
F83
348
0
  0
LAYER
  5
1025
330
F40
100
AcDbSymbolTableRecord
100
AcDbLayerTableRecord
  2
Symbols
 70
     0
 62
     5
420
      255
  6
Continuous
370
     0
390
F4D
347
F83
348
0
  0
LAYER
  5
1026
330
F40
100
AcDbSymbolTableRecord
100
AcDbLayerTableRecord
  2
Defpoints
 70
     0
 62
     7
420
 16777215
  6
Continuous
290
     0
370
    -3
390
F4D
347
F83
348
0
  0
ENDTAB
  0
TABLE
  2
STYLE
  5
F41
330
0
100
AcDbSymbolTable
 70
    17
  0
STYLE
  5
F4F
330
F41
100
AcDbSymbolTableRecord
100
AcDbTextStyleTableRecord
  2
Standard
 70
     0
 40
0.0
 41
1.0
 50
0.0
 71
     0
 42
0.2
  3
txt
  4

  0
STYLE
  5
FE5
330
F41
100
AcDbSymbolTableRecord
100
AcDbTextStyleTableRecord
  2
QCADDimTextStyle
 70
     0
 40
0.0
 41
1.0
 50
0.0
 71
     0
 42
0.2
  3
txt
  4

  0
STYLE
  5
FF5
330
F41
100
AcDbSymbolTableRecord
100
AcDbTextStyleTableRecord
  2
textstyle0
 70
     0
 40
0.0
 41
1.0
 50
0.0
 71
     0
 42
0.2
  3
ltypeshp.shx
  4

  0
STYLE
  5
FF6
330
F41
100
AcDbSymbolTableRecord
100
AcDbTextStyleTableRecord
  2
textstyle1
 70
     0
 40
0.0
 41
1.0
 50
0.0
 71
     0
 42
0.2
  3
ltypeshp.shx
  4

  0
STYLE
  5
100A
330
F41
100
AcDbSymbolTableRecord
100
AcDbTextStyleTableRecord
  2
textstyle2
 70
     0
 40
0.0
 41
1.0
 50
0.0
 71
     0
 42
0.2
  3
qcadshp.shx
  4

  0
STYLE
  5
100C
330
F41
100
AcDbSymbolTableRecord
100
AcDbTextStyleTableRecord
  2
textstyle3
 70
     0
 40
0.0
 41
1.0
 50
0.0
 71
     0
 42
0.2
  3
qcadshp.shx
  4

  0
STYLE
  5
100E
330
F41
100
AcDbSymbolTableRecord
100
AcDbTextStyleTableRecord
  2
textstyle4
 70
     0
 40
0.0
 41
1.0
 50
0.0
 71
     0
 42
0.2
  3
ltypeshp.shx
  4

  0
STYLE
  5
1010
330
F41
100
AcDbSymbolTableRecord
100
AcDbTextStyleTableRecord
  2
textstyle5
 70
     0
 40
0.0
 41
1.0
 50
0.0
 71
     0
 42
0.2
  3
ltypeshp.shx
  4

  0
STYLE
  5
1012
330
F41
100
AcDbSymbolTableRecord
100
AcDbTextStyleTableRecord
  2
textstyle6
 70
     0
 40
0.0
 41
1.0
 50
0.0
 71
     0
 42
0.2
  3
STANDARD
  4

  0
STYLE
  5
1017
330
F41
100
AcDbSymbolTableRecord
100
AcDbTextStyleTableRecord
  2
textstyle7
 70
     0
 40
0.0
 41
1.0
 50
0.0
 71
     0
 42
0.2
  3
STANDARD
  4

  0
STYLE
  5
101C
330
F41
100
AcDbSymbolTableRecord
100
AcDbTextStyleTableRecord
  2
textstyle8
 70
     0
 40
0.0
 41
1.0
 50
0.0
 71
     0
 42
0.2
  3
ltypeshp.shx
  4

  0
STYLE
  5
101E
330
F41
100
AcDbSymbolTableRecord
100
AcDbTextStyleTableRecord
  2
textstyle9
 70
     0
 40
0.0
 41
1.0
 50
0.0
 71
     0
 42
0.2
  3
ltypeshp.shx
  4

  0
STYLE
  5
101F
330
F41
100
AcDbSymbolTableRecord
100
AcDbTextStyleTableRecord
  2
textstyle10
 70
     0
 40
0.0
 41
1.0
 50
0.0
 71
     0
 42
0.2
  3
ltypeshp.shx
  4

  0
STYLE
  5
1029
330
F41
100
AcDbSymbolTableRecord
100
AcDbTextStyleTableRecord
  2
textstyle11
 70
     0
 40
0.0
 41
1.0
 50
0.0
 71
     0
 42
0.2
  3

  4

1001
ACAD
1000
Liberation Sans
1071
        0
  0
STYLE
  5
102A
330
F41
100
AcDbSymbolTableRecord
100
AcDbTextStyleTableRecord
  2
textstyle12
 70
     0
 40
0.0
 41
1.0
 50
0.0
 71
     0
 42
0.2
  3

  4

1001
ACAD
1000
Liberation Sans
1071
        0
  0
STYLE
  5
102B
330
F41
100
AcDbSymbolTableRecord
100
AcDbTextStyleTableRecord
  2
textstyle13
 70
     0
 40
0.0
 41
1.0
 50
0.0
 71
     0
 42
0.2
  3

  4

1001
ACAD
1000
Liberation Sans
1071
        0
  0
STYLE
  5
102C
330
F41
100
AcDbSymbolTableRecord
100
AcDbTextStyleTableRecord
  2
textstyle14
 70
     0
 40
0.0
 41
1.0
 50
0.0
 71
     0
 42
0.2
  3

  4

1001
ACAD
1000
Liberation Sans
1071
        0
  0
ENDTAB
  0
TABLE
  2
VIEW
  5
F44
330
0
100
AcDbSymbolTable
 70
     0
  0
ENDTAB
  0
TABLE
  2
UCS
  5
F45
330
0
100
AcDbSymbolTable
 70
     0
  0
ENDTAB
  0
TABLE
  2
APPID
  5
F47
330
0
100
AcDbSymbolTable
 70
     2
  0
APPID
  5
F50
330
F47
100
AcDbSymbolTableRecord
100
AcDbRegAppTableRecord
  2
ACAD
 70
     0
  0
APPID
  5
FAB
330
F47
100
AcDbSymbolTableRecord
100
AcDbRegAppTableRecord
  2
QCAD
 70
     0
  0
ENDTAB
  0
TABLE
  2
DIMSTYLE
  5
F48
330
0
100
AcDbSymbolTable
 70
     2
100
AcDbDimStyleTable
  0
DIMSTYLE
105
F64
330
F48
100
AcDbSymbolTableRecord
100
AcDbDimStyleTableRecord
  2
Standard
 70
     0
178
     0
340
F4F
  0
DIMSTYLE
105
FE6
102
{ACAD_REACTORS
330
BC7
330
BCA
330
BB0
330
BC1
330
BB1
102
}
330
F48
100
AcDbSymbolTableRecord
100
AcDbDimStyleTableRecord
  2
QCADDimStyle
 70
     0
 41
0.3
 42
0.075
 44
0.15
 73
     0
 77
     1
140
0.3
147
0.075
178
     0
340
FE5
  0
ENDTAB
  0
TABLE
  2
BLOCK_RECORD
  5
F3F
330
0
100
AcDbSymbolTable
 70
     1
  0
BLOCK_RECORD
  5
F5C
330
F3F
100
AcDbSymbolTableRecord
100
AcDbBlockTableRecord
  2
*Model_Space
340
F5F
 70
     0
280
     1
281
     0
  0
BLOCK_RECORD
  5
F58
330
F3F
100
AcDbSymbolTableRecord
100
AcDbBlockTableRecord
  2
*Paper_Space
340
F5B
 70
     0
280
     1
281
     0
  0
ENDTAB
  0
ENDSEC
  0
SECTION
  2
BLOCKS
  0
BLOCK
  5
F5D
330
F5C
100
AcDbEntity
  8
0
100
AcDbBlockBegin
  2
*Model_Space
 70
     0
 10
0.0
 20
0.0
 30
0.0
  3
*Model_Space
  1
*Model_Space
  0
ENDBLK
  5
F5E
330
F5C
100
AcDbEntity
  8
0
100
AcDbBlockEnd
  0
BLOCK
  5
F59
330
F58
100
AcDbEntity
 67
     1
  8
0
100
AcDbBlockBegin
  2
*Paper_Space
 70
     0
 10
0.0
 20
0.0
 30
0.0
  3
*Paper_Space
  1
*Paper_Space
  0
ENDBLK
  5
F5A
330
F58
100
AcDbEntity
 67
     1
  8
0
100
AcDbBlockEnd
  0
ENDSEC
  0
SECTION
  2
ENTITIES
  0
LINE
  5
C99
330
F5C
100
AcDbEntity
  8
Tent
100
AcDbLine
 10
17.8
 20
16.8
 30
0.0
 11
17.8
 21
17.2
 31
0.0
  0
LINE
  5
C91
330
F5C
100
AcDbEntity
  8
Tent
100
AcDbLine
 10
22.8
 20
16.8
 30
0.0
 11
22.8
 21
17.2
 31
0.0
  0
LINE
  5
C89
330
F5C
100
AcDbEntity
  8
Tent
100
AcDbLine
 10
22.8
 20
11.8
 30
0.0
 11
22.8
 21
12.2
 31
0.0
  0
LINE
  5
C81
330
F5C
100
AcDbEntity
  8
Tent
100
AcDbLine
 10
17.8
 20
11.8
 30
0.0
 11
17.8
 21
12.2
 31
0.0
  0
MTEXT
  5
39
330
F5C
100
AcDbEntity
  8
Meta
100
AcDbMText
 10
29.99999999999564
 20
3.499999999999864
 30
0.0
 40
0.5
 41
0.0
 46
0.0
 71
     4
 72
     1
  1
Project: SHA2017
  7
textstyle11
 73
     1
 44
1.0
  0
MTEXT
  5
3A
330
F5C
100
AcDbEntity
  8
Meta
100
AcDbMText
 10
30.0
 20
2.499999999997518
 30
0.0
 40
0.5
 41
0.0
 46
0.0
 71
     4
 72
     1
  1
Tekening: Arcade
  7
textstyle12
 73
     1
 44
1.0
  0
MTEXT
  5
3B
330
F5C
100
AcDbEntity
  8
Meta
100
AcDbMText
 10
30.00000000000436
 20
1.499999999994896
 30
0.0
 40
0.5
 41
0.0
 46
0.0
 71
     4
 72
     1
  1
Tekenaar: Ruud Koolen
  7
textstyle13
 73
     1
 44
1.0
  0
MTEXT
  5
3C
330
F5C
100
AcDbEntity
  8
Meta
100
AcDbMText
 10
30.0
 20
0.4999999999999999
 30
0.0
 40
0.5
 41
0.0
 46
0.0
 71
     4
 72
     1
  1
Datum: 2017-04-28
  7
textstyle14
 73
     1
 44
1.0
  0
LINE
  5
3D
330
F5C
100
AcDbEntity
  8
Meta
100
AcDbLine
 10
0.0
 20
0.0
 30
0.0
 11
40.0
 21
0.0
 31
0.0
  0
LINE
  5
3E
330
F5C
100
AcDbEntity
  8
Meta
100
AcDbLine
 10
0.0000000000000053
 20
26.0
 30
0.0
 11
0.0
 21
0.0
 31
0.0
  0
LINE
  5
C9A
330
F5C
100
AcDbEntity
  8
Tent
100
AcDbLine
 10
17.8
 20
17.2
 30
0.0
 11
18.2
 21
17.2
 31
0.0
  0
LINE
  5
C92
330
F5C
100
AcDbEntity
  8
Tent
100
AcDbLine
 10
22.8
 20
17.2
 30
0.0
 11
23.2
 21
17.2
 31
0.0
  0
LINE
  5
C8A
330
F5C
100
AcDbEntity
  8
Tent
100
AcDbLine
 10
22.8
 20
12.2
 30
0.0
 11
23.2
 21
12.2
 31
0.0
  0
LINE
  5
C82
330
F5C
100
AcDbEntity
  8
Tent
100
AcDbLine
 10
17.8
 20
12.2
 30
0.0
 11
18.2
 21
12.2
 31
0.0
  0
LINE
  5
3F
330
F5C
100
AcDbEntity
  8
Meta
100
AcDbLine
 10
40.00000000000001
 20
25.99999999999999
 30
0.0
 11
0.0000000000000053
 21
26.0
 31
0.0
  0
LINE
  5
40
330
F5C
100
AcDbEntity
  8
Meta
100
AcDbLine
 10
40.0
 20
0.0
 30
0.0
 11
40.0
 21
26.0
 31
0.0
  0
LINE
  5
41
330
F5C
100
AcDbEntity
  8
Meta
100
AcDbLine
 10
29.0
 20
2.0
 30
0.0
 11
40.0
 21
2.0
 31
0.0
  0
LINE
  5
42
330
F5C
100
AcDbEntity
  8
Meta
100
AcDbLine
 10
29.0
 20
3.0
 30
0.0
 11
40.0
 21
3.0
 31
0.0
  0
LINE
  5
43
330
F5C
100
AcDbEntity
  8
Meta
100
AcDbLine
 10
29.0
 20
4.0
 30
0.0
 11
40.0
 21
4.0
 31
0.0
  0
LINE
  5
44
330
F5C
100
AcDbEntity
  8
Meta
100
AcDbLine
 10
29.0
 20
1.0
 30
0.0
 11
40.0
 21
1.0
 31
0.0
  0
LINE
  5
C9B
330
F5C
100
AcDbEntity
  8
Tent
100
AcDbLine
 10
18.2
 20
17.2
 30
0.0
 11
18.2
 21
16.8
 31
0.0
  0
LINE
  5
C93
330
F5C
100
AcDbEntity
  8
Tent
100
AcDbLine
 10
23.2
 20
17.2
 30
0.0
 11
23.2
 21
16.8
 31
0.0
  0
LINE
  5
C8B
330
F5C
100
AcDbEntity
  8
Tent
100
AcDbLine
 10
23.2
 20
12.2
 30
0.0
 11
23.2
 21
11.8
 31
0.0
  0
LINE
  5
C83
330
F5C
100
AcDbEntity
  8
Tent
100
AcDbLine
 10
18.2
 20
12.2
 30
0.0
 11
18.2
 21
11.8
 31
0.0
  0
LINE
  5
45
330
F5C
100
AcDbEntity
  8
Meta
100
AcDbLine
 10
29.0
 20
4.0
 30
0.0
 11
29.0
 21
0.0
 31
0.0
  0
LINE
  5
BC5
330
F5C
100
AcDbEntity
  8
Tent
100
AcDbLine
 10
13.0
 20
15.50000000000005
 30
0.0
 11
12.55278640450004
 21
14.60557280900014
 31
0.0
  0
LINE
  5
BC8
330
F5C
100
AcDbEntity
  8
Tent
100
AcDbLine
 10
28.0
 20
15.5
 30
0.0
 11
28.44721359549995
 21
14.60557280900009
 31
0.0
  0
LINE
  5
BC6
330
F5C
100
AcDbEntity
  8
Tent
100
AcDbLine
 10
13.0
 20
13.50000000000005
 30
0.0
 11
12.55278640450004
 21
14.39442719099997
 31
0.0
  0
LINE
  5
BC9
330
F5C
100
AcDbEntity
  8
Tent
100
AcDbLine
 10
28.0
 20
13.5
 30
0.0
 11
28.44721359549996
 21
14.39442719099992
 31
0.0
  0
LINE
  5
C9C
330
F5C
100
AcDbEntity
  8
Tent
100
AcDbLine
 10
18.2
 20
16.8
 30
0.0
 11
17.8
 21
16.8
 31
0.0
  0
LINE
  5
C94
330
F5C
100
AcDbEntity
  8
Tent
100
AcDbLine
 10
23.2
 20
16.8
 30
0.0
 11
22.8
 21
16.8
 31
0.0
  0
LINE
  5
C8C
330
F5C
100
AcDbEntity
  8
Tent
100
AcDbLine
 10
23.2
 20
11.8
 30
0.0
 11
22.8
 21
11.8
 31
0.0
  0
LINE
  5
C84
330
F5C
100
AcDbEntity
  8
Tent
100
AcDbLine
 10
18.2
 20
11.8
 30
0.0
 11
17.8
 21
11.8
 31
0.0
  0
LINE
  5
BED
330
F5C
100
AcDbEntity
  8
Symbols
100
AcDbLine
 10
27.56892000000515
 20
14.52209899999434
 30
0.0
 11
27.56892000000515
 21
14.52209899999434
 31
0.0
  0
LINE
  5
BCB
330
F5C
100
AcDbEntity
  8
Symbols
100
AcDbLine
 10
13.43107999999484
 20
14.52209899999434
 30
0.0
 11
13.43107999999484
 21
14.52209899999434
 31
0.0
  0
LINE
  5
C0F
330
F5C
100
AcDbEntity
  8
Symbols
100
AcDbLine
 10
20.52209899999434
 20
21.56892000000516
 30
0.0
 11
20.52209899999434
 21
21.56892000000516
 31
0.0
  0
LINE
  5
BEE
330
F5C
100
AcDbEntity
  8
Symbols
100
AcDbLine
 10
27.62900000000081
 20
14.60000000003492
 30
0.0
 11
27.72000000000115
 21
14.60000000003492
 31
0.0
  0
LINE
  5
BCC
330
F5C
100
AcDbEntity
  8
Symbols
100
AcDbLine
 10
13.37099999999919
 20
14.60000000003492
 30
0.0
 11
13.27999999999884
 21
14.60000000003492
 31
0.0
  0
LINE
  5
C10
330
F5C
100
AcDbEntity
  8
Symbols
100
AcDbLine
 10
20.60000000003492
 20
21.62900000000081
 30
0.0
 11
20.60000000003492
 21
21.72000000000116
 31
0.0
  0
LINE
  5
BEF
330
F5C
100
AcDbEntity
  8
Symbols
100
AcDbLine
 10
27.72000000000115
 20
14.60000000003492
 30
0.0
 11
27.72000000000115
 21
14.39600000000791
 31
0.0
  0
LINE
  5
BCD
330
F5C
100
AcDbEntity
  8
Symbols
100
AcDbLine
 10
13.27999999999884
 20
14.60000000003492
 30
0.0
 11
13.27999999999884
 21
14.39600000000791
 31
0.0
  0
LINE
  5
C11
330
F5C
100
AcDbEntity
  8
Symbols
100
AcDbLine
 10
20.60000000003492
 20
21.72000000000116
 30
0.0
 11
20.39600000000792
 21
21.72000000000116
 31
0.0
  0
LINE
  5
BF0
330
F5C
100
AcDbEntity
  8
Symbols
100
AcDbLine
 10
27.72000000000115
 20
14.39600000000791
 30
0.0
 11
27.62900000000081
 21
14.39600000000791
 31
0.0
  0
LINE
  5
BCE
330
F5C
100
AcDbEntity
  8
Symbols
100
AcDbLine
 10
13.27999999999884
 20
14.39600000000791
 30
0.0
 11
13.37099999999919
 21
14.39600000000791
 31
0.0
  0
LINE
  5
C12
330
F5C
100
AcDbEntity
  8
Symbols
100
AcDbLine
 10
20.39600000000792
 20
21.72000000000116
 30
0.0
 11
20.39600000000792
 21
21.62900000000081
 31
0.0
  0
LINE
  5
C9D
330
F5C
100
AcDbEntity
  8
Tent
100
AcDbLine
 10
17.8
 20
16.8
 30
0.0
 11
18.0
 21
17.0
 31
0.0
  0
LINE
  5
C95
330
F5C
100
AcDbEntity
  8
Tent
100
AcDbLine
 10
22.8
 20
16.8
 30
0.0
 11
23.0
 21
17.0
 31
0.0
  0
LINE
  5
C8D
330
F5C
100
AcDbEntity
  8
Tent
100
AcDbLine
 10
22.8
 20
11.8
 30
0.0
 11
23.0
 21
12.0
 31
0.0
  0
LINE
  5
C85
330
F5C
100
AcDbEntity
  8
Tent
100
AcDbLine
 10
17.8
 20
11.8
 30
0.0
 11
18.0
 21
12.0
 31
0.0
  0
LINE
  5
BF1
330
F5C
100
AcDbEntity
  8
Symbols
100
AcDbLine
 10
27.62900000000081
 20
14.39600000000791
 30
0.0
 11
27.62900000000081
 21
14.60000000003492
 31
0.0
  0
LINE
  5
BCF
330
F5C
100
AcDbEntity
  8
Symbols
100
AcDbLine
 10
13.37099999999919
 20
14.39600000000791
 30
0.0
 11
13.37099999999919
 21
14.60000000003492
 31
0.0
  0
LINE
  5
C13
330
F5C
100
AcDbEntity
  8
Symbols
100
AcDbLine
 10
20.39600000000792
 20
21.62900000000081
 30
0.0
 11
20.60000000003492
 21
21.62900000000081
 31
0.0
  0
CIRCLE
  5
BF2
330
F5C
100
AcDbEntity
  8
Symbols
100
AcDbCircle
 10
27.41999999999825
 20
14.56685000000289
 30
0.0
 40
0.02315
  0
CIRCLE
  5
BD0
330
F5C
100
AcDbEntity
  8
Symbols
100
AcDbCircle
 10
13.58000000000175
 20
14.56685000000289
 30
0.0
 40
0.02315
  0
CIRCLE
  5
C14
330
F5C
100
AcDbEntity
  8
Symbols
100
AcDbCircle
 10
20.56685000000289
 20
21.41999999999825
 30
0.0
 40
0.02315
  0
LINE
  5
BF3
330
F5C
100
AcDbEntity
  8
Symbols
370
     0
100
AcDbLine
 10
27.27000000000406
 20
14.64000000013038
 30
0.0
 11
27.7554999999993
 21
14.64000000013038
 31
0.0
  0
LINE
  5
BD1
330
F5C
100
AcDbEntity
  8
Symbols
370
     0
100
AcDbLine
 10
13.72999999999593
 20
14.64000000013038
 30
0.0
 11
13.24450000000069
 21
14.64000000013038
 31
0.0
  0
LINE
  5
C15
330
F5C
100
AcDbEntity
  8
Symbols
370
     0
100
AcDbLine
 10
20.64000000013039
 20
21.27000000000407
 30
0.0
 11
20.64000000013039
 21
21.7554999999993
 31
0.0
  0
LINE
  5
C9E
330
F5C
100
AcDbEntity
  8
Tent
100
AcDbLine
 10
18.0
 20
17.0
 30
0.0
 11
18.2
 21
17.2
 31
0.0
  0
LINE
  5
C96
330
F5C
100
AcDbEntity
  8
Tent
100
AcDbLine
 10
23.0
 20
17.0
 30
0.0
 11
23.2
 21
17.2
 31
0.0
  0
LINE
  5
C8E
330
F5C
100
AcDbEntity
  8
Tent
100
AcDbLine
 10
23.0
 20
12.0
 30
0.0
 11
23.2
 21
12.2
 31
0.0
  0
LINE
  5
C86
330
F5C
100
AcDbEntity
  8
Tent
100
AcDbLine
 10
18.0
 20
12.0
 30
0.0
 11
18.2
 21
12.2
 31
0.0
  0
LINE
  5
BF4
330
F5C
100
AcDbEntity
  8
Symbols
370
     0
100
AcDbLine
 10
27.7554999999993
 20
14.64000000013038
 30
0.0
 11
27.7554999999993
 21
14.36149999999907
 31
0.0
  0
LINE
  5
BD2
330
F5C
100
AcDbEntity
  8
Symbols
370
     0
100
AcDbLine
 10
13.24450000000069
 20
14.64000000013038
 30
0.0
 11
13.24450000000069
 21
14.36149999999907
 31
0.0
  0
SPLINE
  5
D4E
330
F5C
100
AcDbEntity
  8
Symbols
100
AcDbSpline
210
0.0
220
0.0
230
1.0
 70
     8
 71
     3
 72
     8
 73
     4
 74
     0
 42
0.000000001
 43
0.001
 40
0.0
 40
0.0
 40
0.0
 40
0.0
 40
1.0
 40
1.0
 40
1.0
 40
1.0
 10
24.82868559987401
 20
8.32930299999862
 30
0.0
 10
24.85168960000738
 20
8.36189100000047
 30
0.0
 10
24.87750560001587
 20
8.40188300000591
 30
0.0
 10
24.95418560001418
 20
8.4210530000055
 30
0.0
  0
SPLINE
  5
D30
330
F5C
100
AcDbEntity
  8
Symbols
100
AcDbSpline
210
0.0
220
0.0
230
1.0
 70
     8
 71
     3
 72
     8
 73
     4
 74
     0
 42
0.000000001
 43
0.001
 40
0.0
 40
0.0
 40
0.0
 40
0.0
 40
1.0
 40
1.0
 40
1.0
 40
1.0
 10
16.128685599874
 20
19.02930299999862
 30
0.0
 10
16.15168960000737
 20
19.06189100000047
 30
0.0
 10
16.17750560001586
 20
19.10188300000591
 30
0.0
 10
16.25418560001418
 20
19.1210530000055
 30
0.0
  0
LINE
  5
C16
330
F5C
100
AcDbEntity
  8
Symbols
370
     0
100
AcDbLine
 10
20.64000000013039
 20
21.7554999999993
 30
0.0
 11
20.36149999999907
 21
21.7554999999993
 31
0.0
  0
LINE
  5
D4F
330
F5C
100
AcDbEntity
  8
Symbols
100
AcDbLine
 10
24.95418560001418
 20
8.4210530000055
 30
0.0
 11
24.9543135999993
 21
8.38730300000316
 31
0.0
  0
LINE
  5
D31
330
F5C
100
AcDbEntity
  8
Symbols
100
AcDbLine
 10
16.25418560001418
 20
19.1210530000055
 30
0.0
 11
16.25431359999929
 21
19.08730300000316
 31
0.0
  0
LINE
  5
D50
330
F5C
100
AcDbEntity
  8
Symbols
100
AcDbLine
 10
24.9543135999993
 20
8.38730300000316
 30
0.0
 11
24.9543135999993
 21
8.38730300000316
 31
0.0
  0
LINE
  5
D32
330
F5C
100
AcDbEntity
  8
Symbols
100
AcDbLine
 10
16.25431359999929
 20
19.08730300000316
 30
0.0
 11
16.25431359999929
 21
19.08730300000316
 31
0.0
  0
LINE
  5
BF5
330
F5C
100
AcDbEntity
  8
Symbols
370
     0
100
AcDbLine
 10
27.7554999999993
 20
14.36149999999907
 30
0.0
 11
27.27000000000407
 21
14.36149999999907
 31
0.0
  0
ARC
  5
D51
330
F5C
100
AcDbEntity
  8
Symbols
100
AcDbCircle
 10
24.94284810431418
 20
8.51594129550358
 30
0.0
 40
0.0330442956979162
100
AcDbArc
 50
270.0060610814934
 51
359.9960197908621
  0
ARC
  5
D33
330
F5C
100
AcDbEntity
  8
Symbols
100
AcDbCircle
 10
16.24284810431418
 20
19.21594129550358
 30
0.0
 40
0.0330442956979162
100
AcDbArc
 50
270.0060610814934
 51
359.9960197908621
  0
LINE
  5
BD3
330
F5C
100
AcDbEntity
  8
Symbols
370
     0
100
AcDbLine
 10
13.24450000000069
 20
14.36149999999907
 30
0.0
 11
13.72999999999593
 21
14.36149999999907
 31
0.0
  0
ARC
  5
D52
330
F5C
100
AcDbEntity
  8
Symbols
100
AcDbCircle
 10
24.9428476774774
 20
8.51593827780016
 30
0.0
 40
0.0330447224271223
100
AcDbArc
 50
0.001252202479757
 51
89.99319897244047
  0
ARC
  5
D34
330
F5C
100
AcDbEntity
  8
Symbols
100
AcDbCircle
 10
16.24284767747741
 20
19.21593827780016
 30
0.0
 40
0.0330447224271223
100
AcDbArc
 50
0.001252202479757
 51
89.99319897244047
  0
LINE
  5
C17
330
F5C
100
AcDbEntity
  8
Symbols
370
     0
100
AcDbLine
 10
20.36149999999907
 20
21.7554999999993
 30
0.0
 11
20.36149999999907
 21
21.27000000000407
 31
0.0
  0
ARC
  5
D53
330
F5C
100
AcDbEntity
  8
Symbols
100
AcDbCircle
 10
24.9428521998634
 20
8.51593640000647
 30
0.0
 40
0.0330466000296638
100
AcDbArc
 50
90.00104014654997
 51
179.9954921107206
  0
ARC
  5
D35
330
F5C
100
AcDbEntity
  8
Symbols
100
AcDbCircle
 10
16.24285219986339
 20
19.21593640000647
 30
0.0
 40
0.0330466000296638
100
AcDbArc
 50
90.00104014654997
 51
179.9954921107206
  0
ARC
  5
D54
330
F5C
100
AcDbEntity
  8
Symbols
100
AcDbCircle
 10
24.94285177320126
 20
8.51594317350101
 30
0.0
 40
0.0330461735163111
100
AcDbArc
 50
180.007236082728
 51
269.9996996126542
  0
ARC
  5
D36
330
F5C
100
AcDbEntity
  8
Symbols
100
AcDbCircle
 10
16.24285177320125
 20
19.21594317350101
 30
0.0
 40
0.0330461735163111
100
AcDbArc
 50
180.007236082728
 51
269.9996996126542
  0
LINE
  5
BF6
330
F5C
100
AcDbEntity
  8
Symbols
370
     0
100
AcDbLine
 10
27.27000000000407
 20
14.36149999999907
 30
0.0
 11
27.27000000000406
 21
14.64000000013038
 31
0.0
  0
LINE
  5
D55
330
F5C
100
AcDbEntity
  8
Symbols
100
AcDbLine
 10
24.94285159997526
 20
8.48289700000168
 30
0.0
 11
24.94285159997526
 21
8.48289700000168
 31
0.0
  0
LINE
  5
D37
330
F5C
100
AcDbEntity
  8
Symbols
100
AcDbLine
 10
16.24285159997525
 20
19.18289700000168
 30
0.0
 11
16.24285159997525
 21
19.18289700000168
 31
0.0
  0
LINE
  5
BD4
330
F5C
100
AcDbEntity
  8
Symbols
370
     0
100
AcDbLine
 10
13.72999999999593
 20
14.36149999999907
 30
0.0
 11
13.72999999999593
 21
14.64000000013038
 31
0.0
  0
SPLINE
  5
D56
330
F5C
100
AcDbEntity
  8
Symbols
100
AcDbSpline
210
0.0
220
0.0
230
1.0
 70
     8
 71
     3
 72
     8
 73
     4
 74
     0
 42
0.000000001
 43
0.001
 40
0.0
 40
0.0
 40
0.0
 40
0.0
 40
1.0
 40
1.0
 40
1.0
 40
1.0
 10
24.9543135999993
 20
8.38730300000316
 30
0.0
 10
24.92268559997319
 20
8.38130299999466
 30
0.0
 10
24.83560560000478
 20
8.32998699999734
 30
0.0
 10
24.83560560000478
 20
8.23030299999665
 30
0.0
  0
SPLINE
  5
D38
330
F5C
100
AcDbEntity
  8
Symbols
100
AcDbSpline
210
0.0
220
0.0
230
1.0
 70
     8
 71
     3
 72
     8
 73
     4
 74
     0
 42
0.000000001
 43
0.001
 40
0.0
 40
0.0
 40
0.0
 40
0.0
 40
1.0
 40
1.0
 40
1.0
 40
1.0
 10
16.25431359999929
 20
19.08730300000316
 30
0.0
 10
16.2226855999732
 20
19.08130299999466
 30
0.0
 10
16.13560560000479
 20
19.02998699999734
 30
0.0
 10
16.13560560000479
 20
18.93030299999665
 30
0.0
  0
LINE
  5
C18
330
F5C
100
AcDbEntity
  8
Symbols
370
     0
100
AcDbLine
 10
20.36149999999907
 20
21.27000000000407
 30
0.0
 11
20.64000000013039
 21
21.27000000000407
 31
0.0
  0
LWPOLYLINE
  5
D57
330
F5C
100
AcDbEntity
  8
Symbols
100
AcDbPolyline
 90
        2
 70
   128
 43
0.0
 10
24.83560560000478
 20
8.23030299999665
 10
24.83560560000478
 20
7.65103699999599
  0
LWPOLYLINE
  5
D39
330
F5C
100
AcDbEntity
  8
Symbols
100
AcDbPolyline
 90
        2
 70
   128
 43
0.0
 10
16.13560560000479
 20
18.93030299999665
 10
16.13560560000479
 20
18.35103699999599
  0
LINE
  5
C9F
330
F5C
100
AcDbEntity
  8
Tent
100
AcDbLine
 10
17.8
 20
17.2
 30
0.0
 11
18.0
 21
17.0
 31
0.0
  0
LINE
  5
C97
330
F5C
100
AcDbEntity
  8
Tent
100
AcDbLine
 10
22.8
 20
17.2
 30
0.0
 11
23.0
 21
17.0
 31
0.0
  0
LINE
  5
C8F
330
F5C
100
AcDbEntity
  8
Tent
100
AcDbLine
 10
22.8
 20
12.2
 30
0.0
 11
23.0
 21
12.0
 31
0.0
  0
LINE
  5
C87
330
F5C
100
AcDbEntity
  8
Tent
100
AcDbLine
 10
17.8
 20
12.2
 30
0.0
 11
18.0
 21
12.0
 31
0.0
  0
SPLINE
  5
D58
330
F5C
100
AcDbEntity
  8
Symbols
100
AcDbSpline
210
0.0
220
0.0
230
1.0
 70
     8
 71
     3
 72
     8
 73
     4
 74
     0
 42
0.000000001
 43
0.001
 40
0.0
 40
0.0
 40
0.0
 40
0.0
 40
1.0
 40
1.0
 40
1.0
 40
1.0
 10
24.83560560000478
 20
7.65103699999599
 30
0.0
 10
24.83560560000478
 20
7.6366610000041
 30
0.0
 10
24.84231559999171
 20
7.612696999996841
 30
0.0
 10
24.87106960001984
 20
7.612696999996841
 30
0.0
  0
SPLINE
  5
D3A
330
F5C
100
AcDbEntity
  8
Symbols
100
AcDbSpline
210
0.0
220
0.0
230
1.0
 70
     8
 71
     3
 72
     8
 73
     4
 74
     0
 42
0.000000001
 43
0.001
 40
0.0
 40
0.0
 40
0.0
 40
0.0
 40
1.0
 40
1.0
 40
1.0
 40
1.0
 10
16.13560560000479
 20
18.35103699999599
 30
0.0
 10
16.13560560000479
 20
18.3366610000041
 30
0.0
 10
16.1423155999917
 20
18.31269699999684
 30
0.0
 10
16.17106960001983
 20
18.31269699999684
 30
0.0
  0
LINE
  5
BF7
330
F5C
100
AcDbEntity
  8
Symbols
370
     0
100
AcDbLine
 10
27.28600000000733
 20
14.6260000000475
 30
0.0
 11
27.74100000000908
 21
14.6260000000475
 31
0.0
  0
LINE
  5
D59
330
F5C
100
AcDbEntity
  8
Symbols
100
AcDbLine
 10
24.87106960001984
 20
7.612696999996841
 30
0.0
 11
25.12622239996563
 21
7.612696999996849
 31
0.0
  0
LINE
  5
D3B
330
F5C
100
AcDbEntity
  8
Symbols
100
AcDbLine
 10
16.17106960001983
 20
18.31269699999684
 30
0.0
 11
16.42622239996562
 21
18.31269699999685
 31
0.0
  0
LINE
  5
BD5
330
F5C
100
AcDbEntity
  8
Symbols
370
     0
100
AcDbLine
 10
13.71399999999267
 20
14.6260000000475
 30
0.0
 11
13.25899999999091
 21
14.6260000000475
 31
0.0
  0
SPLINE
  5
D5A
330
F5C
100
AcDbEntity
  8
Symbols
100
AcDbSpline
210
0.0
220
0.0
230
1.0
 70
     8
 71
     3
 72
     8
 73
     4
 74
     0
 42
0.000000001
 43
0.001
 40
0.0
 40
0.0
 40
0.0
 40
0.0
 40
1.0
 40
1.0
 40
1.0
 40
1.0
 10
25.12622239996563
 20
7.612696999996849
 30
0.0
 10
25.15497840000899
 20
7.612696999996849
 30
0.0
 10
25.1616863999807
 20
7.6366610000041
 30
0.0
 10
25.1616863999807
 20
7.65103699999599
 30
0.0
  0
SPLINE
  5
D3C
330
F5C
100
AcDbEntity
  8
Symbols
100
AcDbSpline
210
0.0
220
0.0
230
1.0
 70
     8
 71
     3
 72
     8
 73
     4
 74
     0
 42
0.000000001
 43
0.001
 40
0.0
 40
0.0
 40
0.0
 40
0.0
 40
1.0
 40
1.0
 40
1.0
 40
1.0
 10
16.42622239996562
 20
18.31269699999685
 30
0.0
 10
16.45497840000898
 20
18.31269699999685
 30
0.0
 10
16.46168639998069
 20
18.3366610000041
 30
0.0
 10
16.46168639998069
 20
18.35103699999599
 30
0.0
  0
LINE
  5
C19
330
F5C
100
AcDbEntity
  8
Symbols
370
     0
100
AcDbLine
 10
20.6260000000475
 20
21.28600000000733
 30
0.0
 11
20.6260000000475
 21
21.74100000000908
 31
0.0
  0
LINE
  5
D5B
330
F5C
100
AcDbEntity
  8
Symbols
100
AcDbLine
 10
25.1616863999807
 20
7.65103699999599
 30
0.0
 11
25.1616863999807
 21
8.23030299999665
 31
0.0
  0
LINE
  5
D3D
330
F5C
100
AcDbEntity
  8
Symbols
100
AcDbLine
 10
16.46168639998069
 20
18.35103699999599
 30
0.0
 11
16.46168639998069
 21
18.93030299999665
 31
0.0
  0
SPLINE
  5
D5C
330
F5C
100
AcDbEntity
  8
Symbols
100
AcDbSpline
210
0.0
220
0.0
230
1.0
 70
     8
 71
     3
 72
     8
 73
     4
 74
     0
 42
0.000000001
 43
0.001
 40
0.0
 40
0.0
 40
0.0
 40
0.0
 40
1.0
 40
1.0
 40
1.0
 40
1.0
 10
25.1616863999807
 20
8.23030299999665
 30
0.0
 10
25.1616863999807
 20
8.32998699999734
 30
0.0
 10
25.07768640000722
 20
8.38130299999466
 30
0.0
 10
25.0456864000007
 20
8.38730300000316
 30
0.0
  0
SPLINE
  5
D3E
330
F5C
100
AcDbEntity
  8
Symbols
100
AcDbSpline
210
0.0
220
0.0
230
1.0
 70
     8
 71
     3
 72
     8
 73
     4
 74
     0
 42
0.000000001
 43
0.001
 40
0.0
 40
0.0
 40
0.0
 40
0.0
 40
1.0
 40
1.0
 40
1.0
 40
1.0
 10
16.46168639998069
 20
18.93030299999665
 30
0.0
 10
16.46168639998069
 20
19.02998699999734
 30
0.0
 10
16.37768640000723
 20
19.08130299999466
 30
0.0
 10
16.3456864000007
 20
19.08730300000316
 30
0.0
  0
LINE
  5
BF8
330
F5C
100
AcDbEntity
  8
Symbols
370
     0
100
AcDbLine
 10
27.74100000000908
 20
14.6260000000475
 30
0.0
 11
27.74100000000908
 21
14.3760000000475
 31
0.0
  0
LINE
  5
D5D
330
F5C
100
AcDbEntity
  8
Symbols
100
AcDbLine
 10
25.0456864000007
 20
8.38730300000316
 30
0.0
 11
25.04583240000647
 21
8.42758500000491
 31
0.0
  0
LINE
  5
D3F
330
F5C
100
AcDbEntity
  8
Symbols
100
AcDbLine
 10
16.3456864000007
 20
19.08730300000316
 30
0.0
 11
16.34583240000647
 21
19.12758500000491
 31
0.0
  0
LINE
  5
BD6
330
F5C
100
AcDbEntity
  8
Symbols
370
     0
100
AcDbLine
 10
13.25899999999091
 20
14.6260000000475
 30
0.0
 11
13.25899999999091
 21
14.3760000000475
 31
0.0
  0
LINE
  5
D5E
330
F5C
100
AcDbEntity
  8
Symbols
100
AcDbLine
 10
25.04583240000647
 20
8.42758500000491
 30
0.0
 11
25.1624103999639
 21
8.42758500000492
 31
0.0
  0
LINE
  5
D40
330
F5C
100
AcDbEntity
  8
Symbols
100
AcDbLine
 10
16.34583240000647
 20
19.12758500000491
 30
0.0
 11
16.46241039996391
 21
19.12758500000492
 31
0.0
  0
LINE
  5
C1A
330
F5C
100
AcDbEntity
  8
Symbols
370
     0
100
AcDbLine
 10
20.6260000000475
 20
21.74100000000908
 30
0.0
 11
20.3760000000475
 21
21.74100000000908
 31
0.0
  0
LINE
  5
D5F
330
F5C
100
AcDbEntity
  8
Symbols
100
AcDbLine
 10
25.1624103999639
 20
8.42758500000492
 30
0.0
 11
25.16241039996378
 21
8.40266300000803
 31
0.0
  0
LINE
  5
D41
330
F5C
100
AcDbEntity
  8
Symbols
100
AcDbLine
 10
16.46241039996391
 20
19.12758500000492
 30
0.0
 11
16.46241039996377
 21
19.10266300000803
 31
0.0
  0
LINE
  5
D60
330
F5C
100
AcDbEntity
  8
Symbols
100
AcDbLine
 10
25.16241039996378
 20
8.40266300000803
 30
0.0
 11
25.44768640000257
 21
8.35953300000256
 31
0.0
  0
LINE
  5
D42
330
F5C
100
AcDbEntity
  8
Symbols
100
AcDbLine
 10
16.46241039996377
 20
19.10266300000803
 30
0.0
 11
16.74768640000256
 21
19.05953300000256
 31
0.0
  0
LINE
  5
BF9
330
F5C
100
AcDbEntity
  8
Symbols
370
     0
100
AcDbLine
 10
27.74100000000908
 20
14.3760000000475
 30
0.0
 11
27.28600000000733
 21
14.3760000000475
 31
0.0
  0
LINE
  5
D61
330
F5C
100
AcDbEntity
  8
Symbols
100
AcDbLine
 10
25.44768640000257
 20
8.35953300000256
 30
0.0
 11
25.44768640000257
 21
8.55530300000828
 31
0.0
  0
LINE
  5
D43
330
F5C
100
AcDbEntity
  8
Symbols
100
AcDbLine
 10
16.74768640000256
 20
19.05953300000256
 30
0.0
 11
16.74768640000256
 21
19.25530300000828
 31
0.0
  0
LINE
  5
BD7
330
F5C
100
AcDbEntity
  8
Symbols
370
     0
100
AcDbLine
 10
13.25899999999091
 20
14.3760000000475
 30
0.0
 11
13.71399999999267
 21
14.3760000000475
 31
0.0
  0
LINE
  5
D62
330
F5C
100
AcDbEntity
  8
Symbols
100
AcDbLine
 10
25.44768640000257
 20
8.55530300000828
 30
0.0
 11
25.16241039996378
 21
8.51384900000266
 31
0.0
  0
LINE
  5
D44
330
F5C
100
AcDbEntity
  8
Symbols
100
AcDbLine
 10
16.74768640000256
 20
19.25530300000828
 30
0.0
 11
16.46241039996377
 21
19.21384900000266
 31
0.0
  0
LINE
  5
C1B
330
F5C
100
AcDbEntity
  8
Symbols
370
     0
100
AcDbLine
 10
20.3760000000475
 20
21.74100000000908
 30
0.0
 11
20.3760000000475
 21
21.28600000000733
 31
0.0
  0
LINE
  5
D63
330
F5C
100
AcDbEntity
  8
Symbols
100
AcDbLine
 10
25.16241039996378
 20
8.51384900000266
 30
0.0
 11
25.16241039996382
 21
8.48701099999744
 31
0.0
  0
LINE
  5
D45
330
F5C
100
AcDbEntity
  8
Symbols
100
AcDbLine
 10
16.46241039996377
 20
19.21384900000266
 30
0.0
 11
16.46241039996381
 21
19.18701099999744
 31
0.0
  0
LINE
  5
CA0
330
F5C
100
AcDbEntity
  8
Tent
100
AcDbLine
 10
18.0
 20
17.0
 30
0.0
 11
18.2
 21
16.8
 31
0.0
  0
LINE
  5
C98
330
F5C
100
AcDbEntity
  8
Tent
100
AcDbLine
 10
23.0
 20
17.0
 30
0.0
 11
23.2
 21
16.8
 31
0.0
  0
LINE
  5
C90
330
F5C
100
AcDbEntity
  8
Tent
100
AcDbLine
 10
23.0
 20
12.0
 30
0.0
 11
23.2
 21
11.8
 31
0.0
  0
LINE
  5
C88
330
F5C
100
AcDbEntity
  8
Tent
100
AcDbLine
 10
18.0
 20
12.0
 30
0.0
 11
18.2
 21
11.8
 31
0.0
  0
LINE
  5
D64
330
F5C
100
AcDbEntity
  8
Symbols
100
AcDbLine
 10
25.16241039996382
 20
8.48701099999744
 30
0.0
 11
25.0463904000062
 21
8.48701099999744
 31
0.0
  0
LINE
  5
D46
330
F5C
100
AcDbEntity
  8
Symbols
100
AcDbLine
 10
16.46241039996381
 20
19.18701099999744
 30
0.0
 11
16.34639040000621
 21
19.18701099999744
 31
0.0
  0
LINE
  5
BFA
330
F5C
100
AcDbEntity
  8
Symbols
370
     0
100
AcDbLine
 10
27.28600000000733
 20
14.3760000000475
 30
0.0
 11
27.28600000000733
 21
14.6260000000475
 31
0.0
  0
LINE
  5
D65
330
F5C
100
AcDbEntity
  8
Symbols
100
AcDbLine
 10
25.0463904000062
 20
8.48701099999744
 30
0.0
 11
25.0463904000062
 21
8.52914500000044
 31
0.0
  0
LINE
  5
D47
330
F5C
100
AcDbEntity
  8
Symbols
100
AcDbLine
 10
16.34639040000621
 20
19.18701099999744
 30
0.0
 11
16.34639040000621
 21
19.22914500000044
 31
0.0
  0
LINE
  5
BD8
330
F5C
100
AcDbEntity
  8
Symbols
370
     0
100
AcDbLine
 10
13.71399999999267
 20
14.3760000000475
 30
0.0
 11
13.71399999999267
 21
14.6260000000475
 31
0.0
  0
LINE
  5
D66
330
F5C
100
AcDbEntity
  8
Symbols
100
AcDbLine
 10
25.0463904000062
 20
8.52914500000044
 30
0.0
 11
25.01284640000085
 21
8.52914500000043
 31
0.0
  0
LINE
  5
D48
330
F5C
100
AcDbEntity
  8
Symbols
100
AcDbLine
 10
16.34639040000621
 20
19.22914500000044
 30
0.0
 11
16.31284640000086
 21
19.22914500000043
 31
0.0
  0
LINE
  5
C1C
330
F5C
100
AcDbEntity
  8
Symbols
370
     0
100
AcDbLine
 10
20.3760000000475
 20
21.28600000000733
 30
0.0
 11
20.6260000000475
 21
21.28600000000733
 31
0.0
  0
SPLINE
  5
D67
330
F5C
100
AcDbEntity
  8
Symbols
100
AcDbSpline
210
0.0
220
0.0
230
1.0
 70
     8
 71
     3
 72
     8
 73
     4
 74
     0
 42
0.000000001
 43
0.001
 40
0.0
 40
0.0
 40
0.0
 40
0.0
 40
1.0
 40
1.0
 40
1.0
 40
1.0
 10
25.01284640000085
 20
8.52914500000043
 30
0.0
 10
25.01284640000085
 20
8.55534300000727
 30
0.0
 10
24.98438639999949
 20
8.58895500000652
 30
0.0
 10
24.9439155998698
 20
8.58895500000654
 30
0.0
  0
SPLINE
  5
D49
330
F5C
100
AcDbEntity
  8
Symbols
100
AcDbSpline
210
0.0
220
0.0
230
1.0
 70
     8
 71
     3
 72
     8
 73
     4
 74
     0
 42
0.000000001
 43
0.001
 40
0.0
 40
0.0
 40
0.0
 40
0.0
 40
1.0
 40
1.0
 40
1.0
 40
1.0
 10
16.31284640000086
 20
19.22914500000043
 30
0.0
 10
16.31284640000086
 20
19.25534300000727
 30
0.0
 10
16.2843863999995
 20
19.28895500000652
 30
0.0
 10
16.24391559986979
 20
19.28895500000654
 30
0.0
  0
SPLINE
  5
D68
330
F5C
100
AcDbEntity
  8
Symbols
100
AcDbSpline
210
0.0
220
0.0
230
1.0
 70
     8
 71
     3
 72
     8
 73
     4
 74
     0
 42
0.000000001
 43
0.001
 40
0.0
 40
0.0
 40
0.0
 40
0.0
 40
1.0
 40
1.0
 40
1.0
 40
1.0
 10
24.9439155998698
 20
8.58895500000654
 30
0.0
 10
24.90451160000521
 20
8.58895500000654
 30
0.0
 10
24.86883359999047
 20
8.55820099999983
 30
0.0
 10
24.86883359999047
 20
8.51176699999632
 30
0.0
  0
SPLINE
  5
D4A
330
F5C
100
AcDbEntity
  8
Symbols
100
AcDbSpline
210
0.0
220
0.0
230
1.0
 70
     8
 71
     3
 72
     8
 73
     4
 74
     0
 42
0.000000001
 43
0.001
 40
0.0
 40
0.0
 40
0.0
 40
0.0
 40
1.0
 40
1.0
 40
1.0
 40
1.0
 10
16.24391559986979
 20
19.28895500000654
 30
0.0
 10
16.2045116000052
 20
19.28895500000654
 30
0.0
 10
16.16883359999046
 20
19.25820099999983
 30
0.0
 10
16.16883359999046
 20
19.21176699999632
 30
0.0
  0
LINE
  5
BFB
330
F5C
100
AcDbEntity
  8
Symbols
370
     0
100
AcDbLine
 10
27.28600000000733
 20
14.6260000000475
 30
0.0
 11
27.28600000000733
 21
14.6260000000475
 31
0.0
  0
SPLINE
  5
D69
330
F5C
100
AcDbEntity
  8
Symbols
100
AcDbSpline
210
0.0
220
0.0
230
1.0
 70
     8
 71
     3
 72
     8
 73
     4
 74
     0
 42
0.000000001
 43
0.001
 40
0.0
 40
0.0
 40
0.0
 40
0.0
 40
1.0
 40
1.0
 40
1.0
 40
1.0
 10
24.86883359999047
 20
8.51176699999632
 30
0.0
 10
24.86883359987405
 20
8.48972099999811
 30
0.0
 10
24.88150160000077
 20
8.47001300000556
 30
0.0
 10
24.89268560000347
 20
8.46330300000409
 30
0.0
  0
SPLINE
  5
D4B
330
F5C
100
AcDbEntity
  8
Symbols
100
AcDbSpline
210
0.0
220
0.0
230
1.0
 70
     8
 71
     3
 72
     8
 73
     4
 74
     0
 42
0.000000001
 43
0.001
 40
0.0
 40
0.0
 40
0.0
 40
0.0
 40
1.0
 40
1.0
 40
1.0
 40
1.0
 10
16.16883359999046
 20
19.21176699999632
 30
0.0
 10
16.16883359987406
 20
19.18972099999811
 30
0.0
 10
16.18150160000077
 20
19.17001300000556
 30
0.0
 10
16.19268560000347
 20
19.16330300000409
 30
0.0
  0
LINE
  5
BD9
330
F5C
100
AcDbEntity
  8
Symbols
370
     0
100
AcDbLine
 10
13.71399999999267
 20
14.6260000000475
 30
0.0
 11
13.71399999999267
 21
14.6260000000475
 31
0.0
  0
SPLINE
  5
D6A
330
F5C
100
AcDbEntity
  8
Symbols
100
AcDbSpline
210
0.0
220
0.0
230
1.0
 70
     8
 71
     3
 72
     8
 73
     4
 74
     0
 42
0.000000001
 43
0.001
 40
0.0
 40
0.0
 40
0.0
 40
0.0
 40
1.0
 40
1.0
 40
1.0
 40
1.0
 10
24.89268560000347
 20
8.46330300000409
 30
0.0
 10
24.84837160000461
 20
8.44692900000518
 30
0.0
 10
24.78894367997418
 20
8.39080499999546
 30
0.0
 10
24.777219679876
 20
8.35661500000424
 30
0.0
  0
SPLINE
  5
D4C
330
F5C
100
AcDbEntity
  8
Symbols
100
AcDbSpline
210
0.0
220
0.0
230
1.0
 70
     8
 71
     3
 72
     8
 73
     4
 74
     0
 42
0.000000001
 43
0.001
 40
0.0
 40
0.0
 40
0.0
 40
0.0
 40
1.0
 40
1.0
 40
1.0
 40
1.0
 10
16.19268560000347
 20
19.16330300000409
 30
0.0
 10
16.14837160000462
 20
19.14692900000518
 30
0.0
 10
16.08894367997419
 20
19.09080499999546
 30
0.0
 10
16.07721967987599
 20
19.05661500000424
 30
0.0
  0
LINE
  5
C1D
330
F5C
100
AcDbEntity
  8
Symbols
370
     0
100
AcDbLine
 10
20.6260000000475
 20
21.28600000000733
 30
0.0
 11
20.6260000000475
 21
21.28600000000733
 31
0.0
  0
SPLINE
  5
D6B
330
F5C
100
AcDbEntity
  8
Symbols
100
AcDbSpline
210
0.0
220
0.0
230
1.0
 70
     8
 71
     3
 72
     8
 73
     4
 74
     0
 42
0.000000001
 43
0.001
 40
0.0
 40
0.0
 40
0.0
 40
0.0
 40
1.0
 40
1.0
 40
1.0
 40
1.0
 10
24.777219679876
 20
8.35661500000424
 30
0.0
 10
24.76092565988075
 20
8.32402700000239
 30
0.0
 10
24.80568159997347
 20
8.29671299999609
 30
0.0
 10
24.82868559987401
 20
8.32930299999862
 30
0.0
  0
SPLINE
  5
D4D
330
F5C
100
AcDbEntity
  8
Symbols
100
AcDbSpline
210
0.0
220
0.0
230
1.0
 70
     8
 71
     3
 72
     8
 73
     4
 74
     0
 42
0.000000001
 43
0.001
 40
0.0
 40
0.0
 40
0.0
 40
0.0
 40
1.0
 40
1.0
 40
1.0
 40
1.0
 10
16.07721967987599
 20
19.05661500000424
 30
0.0
 10
16.06092565988075
 20
19.02402700000239
 30
0.0
 10
16.10568159997346
 20
18.99671299999609
 30
0.0
 10
16.128685599874
 20
19.02930299999862
 30
0.0
  0
LINE
  5
BBD
330
F5C
100
AcDbEntity
  8
Tent
100
AcDbLine
 10
18.5
 20
22.0
 30
0.0
 11
19.39442719099991
 21
22.44721359549995
 31
0.0
  0
LINE
  5
BFC
330
F5C
100
AcDbEntity
  8
Symbols
100
AcDbLine
 10
27.41789599999902
 20
14.50160900014452
 30
0.0
 11
27.46314300000084
 21
14.50160900014452
 31
0.0
  0
LINE
  5
BDA
330
F5C
100
AcDbEntity
  8
Symbols
100
AcDbLine
 10
13.58210400000097
 20
14.50160900014452
 30
0.0
 11
13.53685699999915
 21
14.50160900014452
 31
0.0
  0
LINE
  5
C1E
330
F5C
100
AcDbEntity
  8
Symbols
100
AcDbLine
 10
20.50160900014453
 20
21.41789599999901
 30
0.0
 11
20.50160900014453
 21
21.46314300000085
 31
0.0
  0
LINE
  5
BBE
330
F5C
100
AcDbEntity
  8
Tent
100
AcDbLine
 10
20.5
 20
22.0
 30
0.0
 11
21.39442719099991
 21
22.44721359549995
 31
0.0
  0
LINE
  5
BFD
330
F5C
100
AcDbEntity
  8
Symbols
100
AcDbLine
 10
27.41789599999902
 20
14.54054300009738
 30
0.0
 11
27.41789599999902
 21
14.50160900014452
 31
0.0
  0
LINE
  5
BDB
330
F5C
100
AcDbEntity
  8
Symbols
100
AcDbLine
 10
13.58210400000097
 20
14.54054300009738
 30
0.0
 11
13.58210400000097
 21
14.50160900014452
 31
0.0
  0
LINE
  5
C1F
330
F5C
100
AcDbEntity
  8
Symbols
100
AcDbLine
 10
20.54054300009739
 20
21.41789599999901
 30
0.0
 11
20.50160900014453
 21
21.41789599999901
 31
0.0
  0
LINE
  5
BFE
330
F5C
100
AcDbEntity
  8
Symbols
100
AcDbLine
 10
27.40000700000381
 20
14.54790900013177
 30
0.0
 11
27.41789599999902
 21
14.54054300009738
 31
0.0
  0
LINE
  5
BDC
330
F5C
100
AcDbEntity
  8
Symbols
100
AcDbLine
 10
13.59999299999618
 20
14.54790900013177
 30
0.0
 11
13.58210400000097
 21
14.54054300009738
 31
0.0
  0
LINE
  5
C20
330
F5C
100
AcDbEntity
  8
Symbols
100
AcDbLine
 10
20.54790900013177
 20
21.40000700000382
 30
0.0
 11
20.54054300009739
 21
21.41789599999901
 31
0.0
  0
LINE
  5
BBF
330
F5C
100
AcDbEntity
  8
Tent
100
AcDbLine
 10
20.5
 20
22.0
 30
0.0
 11
19.60557280900008
 21
22.44721359549996
 31
0.0
  0
LINE
  5
BFF
330
F5C
100
AcDbEntity
  8
Symbols
100
AcDbLine
 10
27.35475900000893
 20
14.54790900013177
 30
0.0
 11
27.40000700000381
 21
14.54790900013177
 31
0.0
  0
LINE
  5
BDD
330
F5C
100
AcDbEntity
  8
Symbols
100
AcDbLine
 10
13.64524099999107
 20
14.54790900013177
 30
0.0
 11
13.59999299999618
 21
14.54790900013177
 31
0.0
  0
LINE
  5
C21
330
F5C
100
AcDbEntity
  8
Symbols
100
AcDbLine
 10
20.54790900013177
 20
21.35475900000892
 30
0.0
 11
20.54790900013177
 21
21.40000700000382
 31
0.0
  0
LINE
  5
BC0
330
F5C
100
AcDbEntity
  8
Tent
100
AcDbLine
 10
22.5
 20
22.0
 30
0.0
 11
21.60557280900008
 21
22.44721359549996
 31
0.0
  0
LINE
  5
C00
330
F5C
100
AcDbEntity
  8
Symbols
100
AcDbLine
 10
27.33055700000841
 20
14.51634100003866
 30
0.0
 11
27.35475900000893
 21
14.54790900013177
 31
0.0
  0
LINE
  5
BDE
330
F5C
100
AcDbEntity
  8
Symbols
100
AcDbLine
 10
13.66944299999158
 20
14.51634100003866
 30
0.0
 11
13.64524099999107
 21
14.54790900013177
 31
0.0
  0
LINE
  5
C22
330
F5C
100
AcDbEntity
  8
Symbols
100
AcDbLine
 10
20.51634100003866
 20
21.33055700000841
 30
0.0
 11
20.54790900013177
 21
21.35475900000892
 31
0.0
  0
LINE
  5
C01
330
F5C
100
AcDbEntity
  8
Symbols
100
AcDbLine
 10
27.40947700000834
 20
14.45531099999789
 30
0.0
 11
27.40947700000834
 21
14.40901100001065
 31
0.0
  0
LINE
  5
BDF
330
F5C
100
AcDbEntity
  8
Symbols
100
AcDbLine
 10
13.59052299999165
 20
14.45531099999789
 30
0.0
 11
13.59052299999165
 21
14.40901100001065
 31
0.0
  0
LINE
  5
C23
330
F5C
100
AcDbEntity
  8
Symbols
100
AcDbLine
 10
20.45531099999789
 20
21.40947700000834
 30
0.0
 11
20.40901100001065
 21
21.40947700000834
 31
0.0
  0
LINE
  5
C02
330
F5C
100
AcDbEntity
  8
Symbols
100
AcDbLine
 10
27.36949199999799
 20
14.47951199999079
 30
0.0
 11
27.40947700000834
 21
14.45531099999789
 31
0.0
  0
LINE
  5
BE0
330
F5C
100
AcDbEntity
  8
Symbols
100
AcDbLine
 10
13.630508000002
 20
14.47951199999079
 30
0.0
 11
13.59052299999165
 21
14.45531099999789
 31
0.0
  0
LINE
  5
C24
330
F5C
100
AcDbEntity
  8
Symbols
100
AcDbLine
 10
20.47951199999079
 20
21.36949199999799
 30
0.0
 11
20.45531099999789
 21
21.40947700000834
 31
0.0
  0
LINE
  5
C03
330
F5C
100
AcDbEntity
  8
Symbols
100
AcDbLine
 10
27.35791600000812
 20
14.43426500004717
 30
0.0
 11
27.305303000001
 21
14.43426500004717
 31
0.0
  0
LINE
  5
BE1
330
F5C
100
AcDbEntity
  8
Symbols
100
AcDbLine
 10
13.64208399999188
 20
14.43426500004717
 30
0.0
 11
13.694696999999
 21
14.43426500004717
 31
0.0
  0
LINE
  5
C25
330
F5C
100
AcDbEntity
  8
Symbols
100
AcDbLine
 10
20.43426500004716
 20
21.35791600000812
 30
0.0
 11
20.43426500004716
 21
21.305303000001
 31
0.0
  0
LINE
  5
C04
330
F5C
100
AcDbEntity
  8
Symbols
100
AcDbLine
 10
27.35791600000812
 20
14.48372200003359
 30
0.0
 11
27.35791600000812
 21
14.43426500004717
 31
0.0
  0
LINE
  5
BE2
330
F5C
100
AcDbEntity
  8
Symbols
100
AcDbLine
 10
13.64208399999188
 20
14.48372200003359
 30
0.0
 11
13.64208399999188
 21
14.43426500004717
 31
0.0
  0
LINE
  5
C26
330
F5C
100
AcDbEntity
  8
Symbols
100
AcDbLine
 10
20.48372200003359
 20
21.35791600000812
 30
0.0
 11
20.43426500004716
 21
21.35791600000812
 31
0.0
  0
LINE
  5
C05
330
F5C
100
AcDbEntity
  8
Symbols
100
AcDbLine
 10
27.35055000000284
 20
14.49003500014078
 30
0.0
 11
27.39474499999777
 21
14.54896200000075
 31
0.0
  0
LINE
  5
BE3
330
F5C
100
AcDbEntity
  8
Symbols
100
AcDbLine
 10
13.64944999999715
 20
14.49003500014078
 30
0.0
 11
13.60525500000222
 21
14.54896200000075
 31
0.0
  0
LINE
  5
C27
330
F5C
100
AcDbEntity
  8
Symbols
100
AcDbLine
 10
20.49003500014078
 20
21.35055000000284
 30
0.0
 11
20.54896200000076
 21
21.39474499999778
 31
0.0
  0
LINE
  5
C06
330
F5C
100
AcDbEntity
  8
Symbols
100
AcDbLine
 10
27.3800140000094
 20
14.47004200000083
 30
0.0
 11
27.35055000000284
 21
14.49003500014078
 31
0.0
  0
LINE
  5
BE4
330
F5C
100
AcDbEntity
  8
Symbols
100
AcDbLine
 10
13.6199859999906
 20
14.47004200000083
 30
0.0
 11
13.64944999999715
 21
14.49003500014078
 31
0.0
  0
LINE
  5
C28
330
F5C
100
AcDbEntity
  8
Symbols
100
AcDbLine
 10
20.47004200000083
 20
21.38001400000939
 30
0.0
 11
20.49003500014078
 21
21.35055000000284
 31
0.0
  0
LINE
  5
C07
330
F5C
100
AcDbEntity
  8
Symbols
100
AcDbLine
 10
27.77000000000407
 20
14.54000000003725
 30
0.0
 11
27.77000000000407
 21
14.54000000003725
 31
0.0
  0
LINE
  5
BE5
330
F5C
100
AcDbEntity
  8
Symbols
100
AcDbLine
 10
13.22999999999593
 20
14.54000000003725
 30
0.0
 11
13.22999999999593
 21
14.54000000003725
 31
0.0
  0
LINE
  5
C29
330
F5C
100
AcDbEntity
  8
Symbols
100
AcDbLine
 10
20.54000000003725
 20
21.77000000000407
 30
0.0
 11
20.54000000003725
 21
21.77000000000407
 31
0.0
  0
LINE
  5
C08
330
F5C
100
AcDbEntity
  8
Symbols
100
AcDbLine
 10
27.42105200000515
 20
14.52476000000024
 30
0.0
 11
27.3800140000094
 21
14.47004200000083
 31
0.0
  0
LINE
  5
BE6
330
F5C
100
AcDbEntity
  8
Symbols
100
AcDbLine
 10
13.57894799999485
 20
14.52476000000024
 30
0.0
 11
13.6199859999906
 21
14.47004200000083
 31
0.0
  0
LINE
  5
C2A
330
F5C
100
AcDbEntity
  8
Symbols
100
AcDbLine
 10
20.52476000000024
 20
21.42105200000515
 30
0.0
 11
20.47004200000083
 21
21.38001400000939
 31
0.0
  0
LINE
  5
C09
330
F5C
100
AcDbEntity
  8
Symbols
100
AcDbLine
 10
27.39474499999777
 20
14.54896200000075
 30
0.0
 11
27.42105200000515
 21
14.52476000000024
 31
0.0
  0
LINE
  5
BE7
330
F5C
100
AcDbEntity
  8
Symbols
100
AcDbLine
 10
13.60525500000222
 20
14.54896200000075
 30
0.0
 11
13.57894799999485
 21
14.52476000000024
 31
0.0
  0
LINE
  5
C2B
330
F5C
100
AcDbEntity
  8
Symbols
100
AcDbLine
 10
20.54896200000076
 20
21.39474499999778
 30
0.0
 11
20.52476000000024
 21
21.42105200000515
 31
0.0
  0
LINE
  5
C0A
330
F5C
100
AcDbEntity
  8
Symbols
100
AcDbLine
 10
27.39474499999777
 20
14.54896200000075
 30
0.0
 11
27.39474499999777
 21
14.54896200000075
 31
0.0
  0
LINE
  5
BE8
330
F5C
100
AcDbEntity
  8
Symbols
100
AcDbLine
 10
13.60525500000222
 20
14.54896200000075
 30
0.0
 11
13.60525500000222
 21
14.54896200000075
 31
0.0
  0
LINE
  5
C2C
330
F5C
100
AcDbEntity
  8
Symbols
100
AcDbLine
 10
20.54896200000076
 20
21.39474499999778
 30
0.0
 11
20.54896200000076
 21
21.39474499999778
 31
0.0
  0
LINE
  5
C0B
330
F5C
100
AcDbEntity
  8
Symbols
100
AcDbLine
 10
27.5
 20
14.5
 30
0.0
 11
27.58259900000118
 21
14.5
 31
0.0
  0
LINE
  5
BE9
330
F5C
100
AcDbEntity
  8
Symbols
100
AcDbLine
 10
13.49999999999999
 20
14.5
 30
0.0
 11
13.41740099999879
 21
14.5
 31
0.0
  0
LINE
  5
C2D
330
F5C
100
AcDbEntity
  8
Symbols
100
AcDbLine
 10
20.5
 20
21.5
 30
0.0
 11
20.5
 21
21.5825990000012
 31
0.0
  0
LINE
  5
C0C
330
F5C
100
AcDbEntity
  8
Symbols
100
AcDbLine
 10
27.56892000000515
 20
14.52209899999434
 30
0.0
 11
27.56892000000516
 21
14.4779030001373
 31
0.0
  0
LINE
  5
BEA
330
F5C
100
AcDbEntity
  8
Symbols
100
AcDbLine
 10
13.43107999999484
 20
14.52209899999434
 30
0.0
 11
13.43107999999484
 21
14.4779030001373
 31
0.0
  0
LINE
  5
C2E
330
F5C
100
AcDbEntity
  8
Symbols
100
AcDbLine
 10
20.52209899999434
 20
21.56892000000516
 30
0.0
 11
20.4779030001373
 21
21.56892000000516
 31
0.0
  0
LINE
  5
C0D
330
F5C
100
AcDbEntity
  8
Symbols
100
AcDbLine
 10
27.56892000000516
 20
14.4779030001373
 30
0.0
 11
27.60574900000937
 21
14.5
 31
0.0
  0
LINE
  5
BEB
330
F5C
100
AcDbEntity
  8
Symbols
100
AcDbLine
 10
13.43107999999484
 20
14.4779030001373
 30
0.0
 11
13.39425099999061
 21
14.5
 31
0.0
  0
LINE
  5
C2F
330
F5C
100
AcDbEntity
  8
Symbols
100
AcDbLine
 10
20.4779030001373
 20
21.56892000000516
 30
0.0
 11
20.5
 21
21.60574900000938
 31
0.0
  0
LINE
  5
C0E
330
F5C
100
AcDbEntity
  8
Symbols
100
AcDbLine
 10
27.60574900000937
 20
14.5
 30
0.0
 11
27.56892000000515
 21
14.52209899999434
 31
0.0
  0
LINE
  5
BEC
330
F5C
100
AcDbEntity
  8
Symbols
100
AcDbLine
 10
13.39425099999061
 20
14.5
 30
0.0
 11
13.43107999999484
 21
14.52209899999434
 31
0.0
  0
LINE
  5
C30
330
F5C
100
AcDbEntity
  8
Symbols
100
AcDbLine
 10
20.5
 20
21.60574900000938
 30
0.0
 11
20.52209899999434
 21
21.56892000000516
 31
0.0
  0
LWPOLYLINE
  5
CC8
330
F5C
100
AcDbEntity
  8
Interior
100
AcDbPolyline
 90
        6
 70
   129
 43
0.0
 10
16.36568542494925
 20
20.04852813742387
 10
16.36568542494923
 20
19.76568542494924
 10
15.23431457505076
 20
18.63431457505076
 10
14.95147186257614
 20
18.63431457505076
 10
14.3857864376269
 20
19.2
 10
15.80000000000001
 20
20.61421356237311
  0
LWPOLYLINE
  5
CC4
330
F5C
100
AcDbEntity
  8
Interior
100
AcDbPolyline
 90
        6
 70
   129
 43
0.0
 10
15.2
 20
18.5
 10
15.39999999999999
 20
18.29999999999998
 10
15.39999999999999
 20
16.69999999999999
 10
15.19999999999999
 20
16.49999999999998
 10
14.39999999999999
 20
16.49999999999998
 10
14.39999999999999
 20
18.5
  0
LWPOLYLINE
  5
CB5
330
F5C
100
AcDbEntity
  8
Interior
100
AcDbPolyline
 90
        6
 70
   129
 43
0.0
 10
18.5
 20
19.9
 10
18.29999999999998
 20
19.7
 10
16.7
 20
19.7
 10
16.49999999999999
 20
19.9
 10
16.49999999999999
 20
20.7
 10
18.5
 20
20.7
  0
DIMENSION
  5
BC7
330
F5C
100
AcDbEntity
  8
Dimensions
100
AcDbDimension
280
     0
 10
12.20000000000006
 20
15.5
 30
0.0
 11
11.97500000000005
 21
14.5
 31
0.0
 70
   161
 71
     5
 42
-1.0
 73
     0
 74
     0
 75
     0
  3
QCADDimStyle
100
AcDbAlignedDimension
 13
13.0
 23
15.5
 33
0.0
 14
13.0
 24
13.50000000000004
 34
0.0
1001
ACAD
1000
DSTYLE
1002
{
1070
    41
1040
0.18
1070
    44
1040
0.18
1070
    42
1040
0.0625
1070
   147
1040
0.09
1070
   144
1040
1000.0
1070
    77
1070
     0
1070
    73
1070
     1
1070
   279
1070
     2
1070
   340
1005
0
1070
   140
1040
0.18
1002
}
  0
DIMENSION
  5
BCA
330
F5C
100
AcDbEntity
  8
Dimensions
100
AcDbDimension
280
     0
 10
28.79999999999994
 20
15.49999999999998
 30
0.0
 11
29.02499999999995
 21
14.5
 31
0.0
 70
   161
 71
     5
 42
-1.0
 73
     0
 74
     0
 75
     0
  3
QCADDimStyle
100
AcDbAlignedDimension
 13
28.00000000000003
 23
15.49999999999999
 33
0.0
 14
28.0
 24
13.50000000000003
 34
0.0
1001
ACAD
1000
DSTYLE
1002
{
1070
    41
1040
0.18
1070
    44
1040
0.18
1070
    42
1040
0.0625
1070
   147
1040
0.09
1070
   144
1040
1000.0
1070
    77
1070
     0
1070
    73
1070
     1
1070
   279
1070
     2
1070
   340
1005
0
1070
   140
1040
0.18
1002
}
  0
LWPOLYLINE
  5
CEE
330
F5C
100
AcDbEntity
  8
Interior
100
AcDbPolyline
 90
        6
 70
   129
 43
0.0
 10
23.95
 20
18.275
 10
23.85000000000001
 20
18.375
 10
23.85000000000001
 20
18.625
 10
23.95
 20
18.725
 10
24.3
 20
18.725
 10
24.3
 20
18.275
  0
LWPOLYLINE
  5
CEF
330
F5C
100
AcDbEntity
  8
Interior
100
AcDbPolyline
 90
        6
 70
   129
 43
0.0
 10
27.05
 20
18.275
 10
27.14999999999999
 20
18.375
 10
27.14999999999999
 20
18.625
 10
27.05000000000001
 20
18.725
 10
26.69999999999999
 20
18.725
 10
26.7
 20
18.275
  0
LWPOLYLINE
  5
CF0
330
F5C
100
AcDbEntity
  8
Interior
100
AcDbPolyline
 90
        6
 70
   129
 43
0.0
 10
26.72500000000001
 20
10.15
 10
26.625
 20
10.05000000000001
 10
26.375
 20
10.05000000000001
 10
26.27499999999999
 20
10.15
 10
26.27500000000001
 20
10.5
 10
26.72500000000001
 20
10.5
  0
LWPOLYLINE
  5
CF1
330
F5C
100
AcDbEntity
  8
Interior
100
AcDbPolyline
 90
        6
 70
   129
 43
0.0
 10
26.72500000000001
 20
13.25
 10
26.625
 20
13.34999999999999
 10
26.375
 20
13.34999999999999
 10
26.27499999999999
 20
13.25000000000001
 10
26.27499999999999
 20
12.89999999999999
 10
26.72500000000001
 20
12.89999999999999
  0
LWPOLYLINE
  5
CF2
330
F5C
100
AcDbEntity
  8
Interior
100
AcDbPolyline
 90
        6
 70
   129
 43
0.0
 10
27.05000000000001
 20
21.275
 10
27.14999999999999
 20
21.375
 10
27.15000000000001
 20
21.625
 10
27.05000000000001
 20
21.725
 10
26.7
 20
21.725
 10
26.69999999999999
 20
21.275
  0
LWPOLYLINE
  5
CF3
330
F5C
100
AcDbEntity
  8
Interior
100
AcDbPolyline
 90
        6
 70
   129
 43
0.0
 10
27.05
 20
20.275
 10
27.14999999999999
 20
20.375
 10
27.14999999999999
 20
20.625
 10
27.05
 20
20.725
 10
26.7
 20
20.725
 10
26.69999999999999
 20
20.275
  0
LWPOLYLINE
  5
CF4
330
F5C
100
AcDbEntity
  8
Interior
100
AcDbPolyline
 90
        6
 70
   129
 43
0.0
 10
27.05
 20
19.275
 10
27.14999999999999
 20
19.375
 10
27.14999999999999
 20
19.625
 10
27.05
 20
19.725
 10
26.69999999999999
 20
19.725
 10
26.69999999999999
 20
19.275
  0
LWPOLYLINE
  5
CF5
330
F5C
100
AcDbEntity
  8
Interior
100
AcDbPolyline
 90
        6
 70
   129
 43
0.0
 10
27.72500000000001
 20
13.25000000000001
 10
27.625
 20
13.34999999999998
 10
27.375
 20
13.35000000000001
 10
27.27500000000001
 20
13.25000000000001
 10
27.27500000000001
 20
12.89999999999999
 10
27.72500000000001
 20
12.89999999999999
  0
LWPOLYLINE
  5
CF6
330
F5C
100
AcDbEntity
  8
Interior
100
AcDbPolyline
 90
        6
 70
   129
 43
0.0
 10
23.95
 20
21.275
 10
23.85000000000001
 20
21.375
 10
23.85000000000001
 20
21.625
 10
23.95
 20
21.725
 10
24.3
 20
21.725
 10
24.3
 20
21.275
  0
LWPOLYLINE
  5
CF7
330
F5C
100
AcDbEntity
  8
Interior
100
AcDbPolyline
 90
        6
 70
   129
 43
0.0
 10
23.95
 20
20.275
 10
23.85000000000001
 20
20.375
 10
23.85000000000001
 20
20.625
 10
23.95
 20
20.725
 10
24.3
 20
20.725
 10
24.3
 20
20.275
  0
LWPOLYLINE
  5
CF8
330
F5C
100
AcDbEntity
  8
Interior
100
AcDbPolyline
 90
        6
 70
   129
 43
0.0
 10
23.95
 20
19.275
 10
23.85000000000001
 20
19.375
 10
23.85000000000001
 20
19.625
 10
23.95
 20
19.725
 10
24.3
 20
19.725
 10
24.3
 20
19.275
  0
LWPOLYLINE
  5
CF9
330
F5C
100
AcDbEntity
  8
Interior
100
AcDbPolyline
 90
        6
 70
   129
 43
0.0
 10
27.72500000000001
 20
10.14999999999999
 10
27.625
 20
10.05000000000001
 10
27.375
 20
10.05000000000001
 10
27.27500000000001
 20
10.15
 10
27.27500000000001
 20
10.5
 10
27.72500000000001
 20
10.5
  0
LWPOLYLINE
  5
CFA
330
F5C
100
AcDbEntity
  8
Interior
100
AcDbPolyline
 90
        4
 70
   129
 43
0.0
 10
26.0
 20
12.7
 10
26.0
 20
11.7
 10
28.0
 20
11.7
 10
28.0
 20
12.7
  0
LWPOLYLINE
  5
CFB
330
F5C
100
AcDbEntity
  8
Interior
100
AcDbPolyline
 90
        4
 70
   129
 43
0.0
 10
26.0
 20
11.7
 10
26.0
 20
10.7
 10
28.0
 20
10.7
 10
28.0
 20
11.7
  0
LWPOLYLINE
  5
CFC
330
F5C
100
AcDbEntity
  8
Interior
100
AcDbPolyline
 90
        4
 70
   129
 43
0.0
 10
25.5
 20
20.0
 10
24.5
 20
20.0
 10
24.5
 20
18.0
 10
25.5
 20
18.0
  0
LWPOLYLINE
  5
CFD
330
F5C
100
AcDbEntity
  8
Interior
100
AcDbPolyline
 90
        4
 70
   129
 43
0.0
 10
26.5
 20
20.0
 10
25.5
 20
20.0
 10
25.5
 20
18.0
 10
26.5
 20
18.0
  0
LWPOLYLINE
  5
CFE
330
F5C
100
AcDbEntity
  8
Interior
100
AcDbPolyline
 90
        4
 70
   129
 43
0.0
 10
26.5
 20
22.0
 10
25.5
 20
22.0
 10
25.5
 20
20.0
 10
26.5
 20
20.0
  0
LWPOLYLINE
  5
CFF
330
F5C
100
AcDbEntity
  8
Interior
100
AcDbPolyline
 90
        4
 70
   129
 43
0.0
 10
25.5
 20
22.0
 10
24.5
 20
22.0
 10
24.5
 20
20.0
 10
25.5
 20
20.0
  0
LWPOLYLINE
  5
C7D
330
F5C
100
AcDbEntity
  8
Interior
100
AcDbPolyline
 90
        4
 70
   129
 43
0.0
 10
24.5
 20
9.499999999999998
 10
23.5
 20
9.499999999999998
 10
23.5
 20
7.499999999999996
 10
24.5
 20
7.499999999999996
  0
LWPOLYLINE
  5
C75
330
F5C
100
AcDbEntity
  8
Interior
100
AcDbPolyline
 90
        4
 70
   129
 43
0.0
 10
15.49999999999999
 20
9.999999999999998
 10
15.49999999999999
 20
11.00000000000001
 10
13.49999999999999
 20
11.0
 10
13.49999999999999
 20
9.999999999999998
  0
LWPOLYLINE
  5
C65
330
F5C
100
AcDbEntity
  8
Interior
100
AcDbPolyline
 90
        4
 70
   129
 43
0.0
 10
21.5
 20
9.499999999999998
 10
20.5
 20
9.499999999999998
 10
20.5
 20
7.499999999999996
 10
21.5
 20
7.499999999999996
  0
LWPOLYLINE
  5
C7E
330
F5C
100
AcDbEntity
  8
Interior
100
AcDbPolyline
 90
        4
 70
   129
 43
0.0
 10
23.0
 20
9.499999999999998
 10
22.0
 20
9.499999999999998
 10
22.0
 20
7.499999999999996
 10
23.0
 20
7.499999999999996
  0
LWPOLYLINE
  5
C76
330
F5C
100
AcDbEntity
  8
Interior
100
AcDbPolyline
 90
        4
 70
   129
 43
0.0
 10
15.49999999999999
 20
11.5
 10
15.49999999999999
 20
12.50000000000001
 10
13.49999999999999
 20
12.5
 10
13.49999999999999
 20
11.5
  0
LWPOLYLINE
  5
C66
330
F5C
100
AcDbEntity
  8
Interior
100
AcDbPolyline
 90
        4
 70
   129
 43
0.0
 10
20.0
 20
9.499999999999998
 10
19.0
 20
9.499999999999998
 10
19.0
 20
7.499999999999996
 10
20.0
 20
7.499999999999996
  0
LWPOLYLINE
  5
C67
330
F5C
100
AcDbEntity
  8
Interior
100
AcDbPolyline
 90
        4
 70
   129
 43
0.0
 10
18.5
 20
9.499999999999998
 10
17.5
 20
9.499999999999998
 10
17.5
 20
7.499999999999996
 10
18.5
 20
7.499999999999996
  0
LWPOLYLINE
  5
C68
330
F5C
100
AcDbEntity
  8
Interior
100
AcDbPolyline
 90
        4
 70
   129
 43
0.0
 10
17.0
 20
9.499999999999998
 10
15.99999999999999
 20
9.499999999999998
 10
16.0
 20
7.499999999999996
 10
17.0
 20
7.499999999999996
  0
DIMENSION
  5
BB0
330
F5C
100
AcDbEntity
  8
Dimensions
100
AcDbDimension
280
     0
 10
13.0
 20
24.00000000000001
 30
0.0
 11
20.5
 21
24.22500000000001
 31
0.0
 70
    33
 71
     5
 42
-1.0
 73
     0
 74
     0
 75
     0
  3
QCADDimStyle
100
AcDbAlignedDimension
 13
13.0
 23
22.0
 33
0.0
 14
28.0
 24
22.0
 34
0.0
1001
ACAD
1000
DSTYLE
1002
{
1070
    41
1040
0.18
1070
    44
1040
0.18
1070
    42
1040
0.0625
1070
   147
1040
0.09
1070
   144
1040
1000.0
1070
    77
1070
     0
1070
    73
1070
     1
1070
   279
1070
     2
1070
   340
1005
0
1070
   140
1040
0.18
1002
}
  0
DIMENSION
  5
BC1
330
F5C
100
AcDbEntity
  8
Dimensions
100
AcDbDimension
280
     0
 10
18.5
 20
22.79999999999994
 30
0.0
 11
20.5
 21
23.02499999999994
 31
0.0
 70
    33
 71
     5
 42
-1.0
 73
     0
 74
     0
 75
     0
  3
QCADDimStyle
100
AcDbAlignedDimension
 13
18.5
 23
22.0
 33
0.0
 14
22.5
 24
22.0
 34
0.0
1001
ACAD
1000
DSTYLE
1002
{
1070
    41
1040
0.18
1070
    44
1040
0.18
1070
    42
1040
0.0625
1070
   147
1040
0.09
1070
   144
1040
1000.0
1070
    77
1070
     0
1070
    73
1070
     1
1070
   279
1070
     2
1070
   340
1005
0
1070
   140
1040
0.18
1002
}
  0
DIMENSION
  5
BB1
330
F5C
100
AcDbEntity
  8
Dimensions
100
AcDbDimension
280
     0
 10
10.99999999999999
 20
7.0
 30
0.0
 11
10.77499999999999
 21
14.5
 31
0.0
 70
    33
 71
     5
 42
-1.0
 73
     0
 74
     0
 75
     0
  3
QCADDimStyle
100
AcDbAlignedDimension
 13
13.0
 23
7.0
 33
0.0
 14
13.0
 24
22.0
 34
0.0
1001
ACAD
1000
DSTYLE
1002
{
1070
    41
1040
0.18
1070
    44
1040
0.18
1070
    42
1040
0.0625
1070
   147
1040
0.09
1070
   144
1040
1000.0
1070
    77
1070
     0
1070
    73
1070
     1
1070
   279
1070
     2
1070
   340
1005
0
1070
   140
1040
0.18
1002
}
  0
LINE
  5
C7F
330
F5C
100
AcDbEntity
  8
Interior
100
AcDbLine
 10
24.5
 20
7.899999999999995
 30
0.0
 11
23.5
 21
7.899999999999995
 31
0.0
  0
LINE
  5
C79
330
F5C
100
AcDbEntity
  8
Interior
100
AcDbLine
 10
13.89999999999998
 20
9.999999999999998
 30
0.0
 11
13.89999999999998
 21
11.0
 31
0.0
  0
LINE
  5
C69
330
F5C
100
AcDbEntity
  8
Interior
100
AcDbLine
 10
21.5
 20
7.899999999999995
 30
0.0
 11
20.5
 21
7.899999999999995
 31
0.0
  0
LINE
  5
C80
330
F5C
100
AcDbEntity
  8
Interior
100
AcDbLine
 10
23.0
 20
7.899999999999995
 30
0.0
 11
22.0
 21
7.899999999999995
 31
0.0
  0
LINE
  5
C7A
330
F5C
100
AcDbEntity
  8
Interior
100
AcDbLine
 10
13.89999999999998
 20
11.5
 30
0.0
 11
13.89999999999998
 21
12.50000000000001
 31
0.0
  0
LINE
  5
C6A
330
F5C
100
AcDbEntity
  8
Interior
100
AcDbLine
 10
20.0
 20
7.899999999999995
 30
0.0
 11
19.0
 21
7.899999999999995
 31
0.0
  0
LINE
  5
C6B
330
F5C
100
AcDbEntity
  8
Interior
100
AcDbLine
 10
18.5
 20
7.899999999999995
 30
0.0
 11
17.5
 21
7.899999999999995
 31
0.0
  0
LINE
  5
C6C
330
F5C
100
AcDbEntity
  8
Interior
100
AcDbLine
 10
17.0
 20
7.899999999999995
 30
0.0
 11
15.99999999999999
 21
7.899999999999995
 31
0.0
  0
LINE
  5
C31
330
F5C
100
AcDbEntity
  8
Interior
100
AcDbLine
 10
25.54999999999998
 20
7.649999999999999
 30
0.0
 11
25.84999999999999
 21
7.649999999999999
 31
0.0
  0
LINE
  5
C32
330
F5C
100
AcDbEntity
  8
Interior
100
AcDbLine
 10
26.15000000000001
 20
7.649999999999999
 30
0.0
 11
26.45
 21
7.649999999999999
 31
0.0
  0
LINE
  5
C33
330
F5C
100
AcDbEntity
  8
Interior
100
AcDbLine
 10
25.84999999999999
 20
7.649999999999999
 30
0.0
 11
26.15000000000001
 21
7.649999999999999
 31
0.0
  0
LINE
  5
C34
330
F5C
100
AcDbEntity
  8
Interior
100
AcDbLine
 10
26.54999999999998
 20
7.649999999999999
 30
0.0
 11
26.84999999999999
 21
7.649999999999999
 31
0.0
  0
LINE
  5
C35
330
F5C
100
AcDbEntity
  8
Interior
100
AcDbLine
 10
27.15000000000001
 20
7.649999999999999
 30
0.0
 11
27.45
 21
7.649999999999999
 31
0.0
  0
LINE
  5
C36
330
F5C
100
AcDbEntity
  8
Interior
100
AcDbLine
 10
26.84999999999999
 20
7.649999999999999
 30
0.0
 11
27.15000000000001
 21
7.649999999999999
 31
0.0
  0
LINE
  5
C37
330
F5C
100
AcDbEntity
  8
Interior
100
AcDbLine
 10
25.84999999999999
 20
7.949999999999999
 30
0.0
 11
25.84999999999999
 21
8.249999999999998
 31
0.0
  0
LINE
  5
C38
330
F5C
100
AcDbEntity
  8
Interior
100
AcDbLine
 10
25.84999999999999
 20
7.649999999999999
 30
0.0
 11
25.84999999999999
 21
7.949999999999999
 31
0.0
  0
LINE
  5
C39
330
F5C
100
AcDbEntity
  8
Interior
100
AcDbLine
 10
26.45
 20
7.949999999999999
 30
0.0
 11
26.45
 21
8.249999999999998
 31
0.0
  0
LINE
  5
C3A
330
F5C
100
AcDbEntity
  8
Interior
100
AcDbLine
 10
26.45
 20
7.649999999999999
 30
0.0
 11
26.45
 21
7.949999999999999
 31
0.0
  0
LINE
  5
C3B
330
F5C
100
AcDbEntity
  8
Interior
100
AcDbLine
 10
26.44999999999999
 20
8.249999999999998
 30
0.0
 11
26.44999999999999
 21
8.549999999999999
 31
0.0
  0
LINE
  5
C3C
330
F5C
100
AcDbEntity
  8
Interior
100
AcDbLine
 10
26.15000000000001
 20
7.949999999999999
 30
0.0
 11
26.15000000000001
 21
8.249999999999998
 31
0.0
  0
LINE
  5
C3D
330
F5C
100
AcDbEntity
  8
Interior
100
AcDbLine
 10
26.15000000000001
 20
7.649999999999999
 30
0.0
 11
26.15000000000001
 21
7.949999999999999
 31
0.0
  0
LINE
  5
C3E
330
F5C
100
AcDbEntity
  8
Interior
100
AcDbLine
 10
26.14999999999999
 20
8.249999999999998
 30
0.0
 11
26.14999999999999
 21
8.549999999999999
 31
0.0
  0
LINE
  5
C3F
330
F5C
100
AcDbEntity
  8
Interior
100
AcDbLine
 10
25.84999999999999
 20
8.249999999999998
 30
0.0
 11
25.84999999999999
 21
8.549999999999999
 31
0.0
  0
LINE
  5
C40
330
F5C
100
AcDbEntity
  8
Interior
100
AcDbLine
 10
26.84999999999999
 20
7.949999999999999
 30
0.0
 11
26.84999999999999
 21
8.249999999999998
 31
0.0
  0
LINE
  5
C41
330
F5C
100
AcDbEntity
  8
Interior
100
AcDbLine
 10
26.84999999999999
 20
7.649999999999999
 30
0.0
 11
26.84999999999999
 21
7.949999999999999
 31
0.0
  0
LINE
  5
C42
330
F5C
100
AcDbEntity
  8
Interior
100
AcDbLine
 10
27.45
 20
7.949999999999999
 30
0.0
 11
27.45
 21
8.249999999999998
 31
0.0
  0
LINE
  5
C43
330
F5C
100
AcDbEntity
  8
Interior
100
AcDbLine
 10
27.45
 20
7.649999999999999
 30
0.0
 11
27.45
 21
7.949999999999999
 31
0.0
  0
LINE
  5
C44
330
F5C
100
AcDbEntity
  8
Interior
100
AcDbLine
 10
27.44999999999999
 20
8.249999999999998
 30
0.0
 11
27.44999999999999
 21
8.549999999999999
 31
0.0
  0
LINE
  5
C45
330
F5C
100
AcDbEntity
  8
Interior
100
AcDbLine
 10
27.15000000000001
 20
7.949999999999999
 30
0.0
 11
27.15000000000001
 21
8.249999999999998
 31
0.0
  0
LINE
  5
C46
330
F5C
100
AcDbEntity
  8
Interior
100
AcDbLine
 10
27.15000000000001
 20
7.649999999999999
 30
0.0
 11
27.15000000000001
 21
7.949999999999999
 31
0.0
  0
LINE
  5
C47
330
F5C
100
AcDbEntity
  8
Interior
100
AcDbLine
 10
27.14999999999999
 20
8.249999999999998
 30
0.0
 11
27.14999999999999
 21
8.549999999999999
 31
0.0
  0
LINE
  5
C48
330
F5C
100
AcDbEntity
  8
Interior
100
AcDbLine
 10
26.84999999999999
 20
8.249999999999998
 30
0.0
 11
26.84999999999999
 21
8.549999999999999
 31
0.0
  0
LINE
  5
C49
330
F5C
100
AcDbEntity
  8
Interior
100
AcDbLine
 10
26.15000000000001
 20
8.249999999999998
 30
0.0
 11
25.84999999999999
 21
8.249999999999998
 31
0.0
  0
LINE
  5
C4A
330
F5C
100
AcDbEntity
  8
Interior
100
AcDbLine
 10
26.15000000000001
 20
7.949999999999999
 30
0.0
 11
25.84999999999999
 21
7.949999999999999
 31
0.0
  0
LINE
  5
C4B
330
F5C
100
AcDbEntity
  8
Interior
100
AcDbLine
 10
26.14999999999999
 20
8.549999999999999
 30
0.0
 11
25.84999999999999
 21
8.549999999999999
 31
0.0
  0
LINE
  5
C4C
330
F5C
100
AcDbEntity
  8
Interior
100
AcDbLine
 10
25.84999999999999
 20
8.549999999999999
 30
0.0
 11
25.54999999999998
 21
8.549999999999999
 31
0.0
  0
LINE
  5
C4D
330
F5C
100
AcDbEntity
  8
Interior
100
AcDbLine
 10
25.84999999999999
 20
8.249999999999998
 30
0.0
 11
25.54999999999998
 21
8.249999999999998
 31
0.0
  0
LINE
  5
C4E
330
F5C
100
AcDbEntity
  8
Interior
100
AcDbLine
 10
25.84999999999999
 20
7.949999999999999
 30
0.0
 11
25.54999999999998
 21
7.949999999999999
 31
0.0
  0
LINE
  5
C4F
330
F5C
100
AcDbEntity
  8
Interior
100
AcDbLine
 10
26.45
 20
8.249999999999998
 30
0.0
 11
26.15000000000001
 21
8.249999999999998
 31
0.0
  0
LINE
  5
C50
330
F5C
100
AcDbEntity
  8
Interior
100
AcDbLine
 10
26.45
 20
7.949999999999999
 30
0.0
 11
26.15000000000001
 21
7.949999999999999
 31
0.0
  0
LINE
  5
C51
330
F5C
100
AcDbEntity
  8
Interior
100
AcDbLine
 10
26.44999999999999
 20
8.549999999999999
 30
0.0
 11
26.14999999999999
 21
8.549999999999999
 31
0.0
  0
LINE
  5
C52
330
F5C
100
AcDbEntity
  8
Interior
100
AcDbLine
 10
27.15000000000001
 20
8.249999999999998
 30
0.0
 11
26.84999999999999
 21
8.249999999999998
 31
0.0
  0
LINE
  5
C53
330
F5C
100
AcDbEntity
  8
Interior
100
AcDbLine
 10
27.15000000000001
 20
7.949999999999999
 30
0.0
 11
26.84999999999999
 21
7.949999999999999
 31
0.0
  0
LINE
  5
C54
330
F5C
100
AcDbEntity
  8
Interior
100
AcDbLine
 10
27.14999999999999
 20
8.549999999999999
 30
0.0
 11
26.84999999999999
 21
8.549999999999999
 31
0.0
  0
LINE
  5
C55
330
F5C
100
AcDbEntity
  8
Interior
100
AcDbLine
 10
26.84999999999999
 20
8.549999999999999
 30
0.0
 11
26.54999999999998
 21
8.549999999999999
 31
0.0
  0
LINE
  5
C56
330
F5C
100
AcDbEntity
  8
Interior
100
AcDbLine
 10
26.84999999999999
 20
8.249999999999998
 30
0.0
 11
26.54999999999998
 21
8.249999999999998
 31
0.0
  0
LINE
  5
C57
330
F5C
100
AcDbEntity
  8
Interior
100
AcDbLine
 10
26.84999999999999
 20
7.949999999999999
 30
0.0
 11
26.54999999999998
 21
7.949999999999999
 31
0.0
  0
LINE
  5
C58
330
F5C
100
AcDbEntity
  8
Interior
100
AcDbLine
 10
27.45
 20
8.249999999999998
 30
0.0
 11
27.15000000000001
 21
8.249999999999998
 31
0.0
  0
LINE
  5
C59
330
F5C
100
AcDbEntity
  8
Interior
100
AcDbLine
 10
27.45
 20
7.949999999999999
 30
0.0
 11
27.15000000000001
 21
7.949999999999999
 31
0.0
  0
LINE
  5
C5A
330
F5C
100
AcDbEntity
  8
Interior
100
AcDbLine
 10
27.44999999999999
 20
8.549999999999999
 30
0.0
 11
27.14999999999999
 21
8.549999999999999
 31
0.0
  0
LINE
  5
C5B
330
F5C
100
AcDbEntity
  8
Interior
100
AcDbLine
 10
25.54999999999998
 20
8.249999999999998
 30
0.0
 11
25.54999999999998
 21
7.949999999999999
 31
0.0
  0
LINE
  5
C5C
330
F5C
100
AcDbEntity
  8
Interior
100
AcDbLine
 10
25.54999999999998
 20
7.949999999999999
 30
0.0
 11
25.54999999999998
 21
7.649999999999999
 31
0.0
  0
LINE
  5
C5D
330
F5C
100
AcDbEntity
  8
Interior
100
AcDbLine
 10
25.54999999999998
 20
8.549999999999999
 30
0.0
 11
25.54999999999998
 21
8.249999999999998
 31
0.0
  0
LINE
  5
C5E
330
F5C
100
AcDbEntity
  8
Interior
100
AcDbLine
 10
26.54999999999998
 20
8.249999999999998
 30
0.0
 11
26.54999999999998
 21
7.949999999999999
 31
0.0
  0
LINE
  5
C5F
330
F5C
100
AcDbEntity
  8
Interior
100
AcDbLine
 10
26.54999999999998
 20
7.949999999999999
 30
0.0
 11
26.54999999999998
 21
7.649999999999999
 31
0.0
  0
LINE
  5
C60
330
F5C
100
AcDbEntity
  8
Interior
100
AcDbLine
 10
26.54999999999998
 20
8.549999999999999
 30
0.0
 11
26.54999999999998
 21
8.249999999999998
 31
0.0
  0
LINE
  5
C61
330
F5C
100
AcDbEntity
  8
Interior
100
AcDbLine
 10
25.5
 20
7.299999999999999
 30
0.0
 11
27.5
 21
7.299999999999999
 31
0.0
  0
LWPOLYLINE
  5
D0C
330
F5C
100
AcDbEntity
  8
Interior
100
AcDbPolyline
 90
        4
 70
   129
 43
0.0
 10
22.75
 20
14.5
 10
23.25
 20
14.5
 10
23.25
 20
16.7
 10
22.75
 20
16.7
  0
LWPOLYLINE
  5
D06
330
F5C
100
AcDbEntity
  8
Interior
100
AcDbPolyline
 90
        4
 70
   129
 43
0.0
 10
17.75
 20
14.5
 10
18.25
 20
14.5
 10
18.25
 20
16.7
 10
17.75
 20
16.7
  0
LWPOLYLINE
  5
D0D
330
F5C
100
AcDbEntity
  8
Interior
100
AcDbPolyline
 90
        4
 70
   129
 43
0.0
 10
22.75
 20
12.3
 10
23.25
 20
12.3
 10
23.25
 20
14.5
 10
22.75
 20
14.5
  0
LWPOLYLINE
  5
D07
330
F5C
100
AcDbEntity
  8
Interior
100
AcDbPolyline
 90
        4
 70
   129
 43
0.0
 10
17.75
 20
12.3
 10
18.25
 20
12.3
 10
18.25
 20
14.5
 10
17.75
 20
14.5
  0
LINE
  5
C62
330
F5C
100
AcDbEntity
  8
Interior
100
AcDbLine
 10
27.5
 20
7.299999999999999
 30
0.0
 11
27.5
 21
7.199999999999999
 31
0.0
  0
LINE
  5
C63
330
F5C
100
AcDbEntity
  8
Interior
100
AcDbLine
 10
27.5
 20
7.199999999999999
 30
0.0
 11
25.5
 21
7.199999999999999
 31
0.0
  0
LINE
  5
C64
330
F5C
100
AcDbEntity
  8
Interior
100
AcDbLine
 10
25.5
 20
7.199999999999999
 30
0.0
 11
25.5
 21
7.299999999999999
 31
0.0
  0
LWPOLYLINE
  5
CC9
330
F5C
100
AcDbEntity
  8
Interior
100
AcDbPolyline
 90
        4
 70
   129
 43
0.0
 10
14.03223304703364
 20
20.26066017177983
 10
13.89081169079633
 20
20.40208152801714
 10
14.59791847198288
 20
21.10918830920369
 10
14.73933982822019
 20
20.96776695296638
  0
LWPOLYLINE
  5
CC5
330
F5C
100
AcDbEntity
  8
Interior
100
AcDbPolyline
 90
        4
 70
   129
 43
0.0
 10
13.39999999999999
 20
17.0
 10
13.19999999999999
 20
17.0
 10
13.19999999999999
 20
18.0
 10
13.39999999999999
 20
18.0
  0
LWPOLYLINE
  5
CBB
330
F5C
100
AcDbEntity
  8
Interior
100
AcDbPolyline
 90
        4
 70
   129
 43
0.0
 10
17.0
 20
21.7
 10
17.0
 20
21.9
 10
18.0
 20
21.9
 10
18.0
 20
21.7
  0
LWPOLYLINE
  5
D0E
330
F5C
100
AcDbEntity
  8
Interior
100
AcDbPolyline
 90
        4
 70
   129
 43
0.0
 10
23.69999999999999
 20
14.5
 10
23.44999999999999
 20
14.5
 10
23.44999999999999
 20
16.7
 10
23.69999999999999
 20
16.7
  0
LWPOLYLINE
  5
D08
330
F5C
100
AcDbEntity
  8
Interior
100
AcDbPolyline
 90
        4
 70
   129
 43
0.0
 10
18.69999999999999
 20
14.5
 10
18.44999999999999
 20
14.5
 10
18.44999999999999
 20
16.7
 10
18.69999999999999
 20
16.7
  0
LWPOLYLINE
  5
D0F
330
F5C
100
AcDbEntity
  8
Interior
100
AcDbPolyline
 90
        4
 70
   129
 43
0.0
 10
23.69999999999999
 20
12.3
 10
23.44999999999999
 20
12.3
 10
23.44999999999999
 20
14.5
 10
23.69999999999999
 20
14.5
  0
LWPOLYLINE
  5
D09
330
F5C
100
AcDbEntity
  8
Interior
100
AcDbPolyline
 90
        4
 70
   129
 43
0.0
 10
18.69999999999999
 20
12.3
 10
18.44999999999999
 20
12.3
 10
18.44999999999999
 20
14.5
 10
18.69999999999999
 20
14.5
  0
LWPOLYLINE
  5
D10
330
F5C
100
AcDbEntity
  8
Interior
100
AcDbPolyline
 90
        4
 70
   129
 43
0.0
 10
22.55
 20
14.5
 10
22.3
 20
14.5
 10
22.3
 20
16.7
 10
22.55
 20
16.7
  0
LWPOLYLINE
  5
D0A
330
F5C
100
AcDbEntity
  8
Interior
100
AcDbPolyline
 90
        4
 70
   129
 43
0.0
 10
17.55
 20
14.5
 10
17.3
 20
14.5
 10
17.3
 20
16.7
 10
17.55
 20
16.7
  0
LWPOLYLINE
  5
D11
330
F5C
100
AcDbEntity
  8
Interior
100
AcDbPolyline
 90
        4
 70
   129
 43
0.0
 10
22.55
 20
12.3
 10
22.3
 20
12.3
 10
22.3
 20
14.5
 10
22.55
 20
14.5
  0
LWPOLYLINE
  5
D0B
330
F5C
100
AcDbEntity
  8
Interior
100
AcDbPolyline
 90
        4
 70
   129
 43
0.0
 10
17.55
 20
12.3
 10
17.3
 20
12.3
 10
17.3
 20
14.5
 10
17.55
 20
14.5
  0
LINE
  5
BAC
330
F5C
100
AcDbEntity
  8
Tent
100
AcDbLine
 10
13.0
 20
7.0
 30
0.0
 11
28.0
 21
7.0
 31
0.0
  0
LINE
  5
BAD
330
F5C
100
AcDbEntity
  8
Tent
100
AcDbLine
 10
28.0
 20
7.0
 30
0.0
 11
28.0
 21
22.0
 31
0.0
  0
LINE
  5
BAE
330
F5C
100
AcDbEntity
  8
Tent
100
AcDbLine
 10
28.0
 20
22.0
 30
0.0
 11
13.0
 21
22.0
 31
0.0
  0
LINE
  5
BAF
330
F5C
100
AcDbEntity
  8
Tent
100
AcDbLine
 10
13.0
 20
22.0
 30
0.0
 11
13.0
 21
7.0
 31
0.0
  0
VIEWPORT
  5
1027
330
F58
100
AcDbEntity
 67
     1
  8
0
 62
   178
420
        0
100
AcDbViewport
 10
128.5
 20
97.5
 30
0.0
 40
314.226
 41
222.18
 68
     1
 69
     1
 12
128.5
 22
97.5
 13
0.0
 23
0.0
 14
10.0
 24
10.0
 15
10.0
 25
10.0
 16
0.0
 26
0.0
 36
1.0
 17
0.0
 27
0.0
 37
0.0
 42
50.0
 43
0.0
 44
0.0
 45
222.18
 50
0.0
 51
0.0
 72
   100
 90
   557152
  1

281
     0
 71
     1
 74
     0
110
0.0
120
0.0
130
0.0
111
1.0
121
0.0
131
0.0
112
0.0
122
1.0
132
0.0
 79
     0
146
0.0
170
     0
 61
     5
292
     1
282
     1
141
0.0
142
0.0
 63
   256
361
1028
  0
ENDSEC
  0
SECTION
  2
OBJECTS
  0
DICTIONARY
  5
F4A
330
0
100
AcDbDictionary
281
     1
  3
ACAD_DETAILVIEWSTYLE
350
1034
  3
ACAD_GROUP
350
F4B
  3
ACAD_LAYOUT
350
F57
  3
ACAD_MATERIAL
350
F80
  3
ACAD_MLEADERSTYLE
350
FA8
  3
ACAD_MLINESTYLE
350
F54
  3
ACAD_PLOTSETTINGS
350
F56
  3
ACAD_PLOTSTYLENAME
350
F4C
  3
ACAD_SCALELIST
350
F84
  3
ACAD_SECTIONVIEWSTYLE
350
1035
  3
ACAD_TABLESTYLE
350
FA6
  3
ACAD_VISUALSTYLE
350
F67
  3
ACDB_RECOMPOSE_DATA
350
1031
  3
AcDbVariableDictionary
350
102D
  3
QCAD_OBJECTS
350
FAC
  0
SUN
  5
FAA
330
F66
100
AcDbSun
 90
        1
290
     0
 63
     7
421
 16777215
 40
1.0
291
     1
 91
  2455826
 92
 54000000
292
     0
 70
     2
 71
   256
280
     1
  0
SUN
  5
1028
330
1027
100
AcDbSun
 90
        1
290
     0
 63
     7
421
 16777215
 40
1.0
291
     1
 91
  2455826
 92
 54000000
292
     0
 70
     2
 71
   256
280
     1
  0
DICTIONARY
  5
1034
102
{ACAD_REACTORS
330
F4A
102
}
330
F4A
100
AcDbDictionary
281
     1
  0
DICTIONARY
  5
F4B
102
{ACAD_REACTORS
330
F4A
102
}
330
F4A
100
AcDbDictionary
281
     1
  0
DICTIONARY
  5
F57
102
{ACAD_REACTORS
330
F4A
102
}
330
F4A
100
AcDbDictionary
281
     1
  3
Layout1
350
F5B
  3
Model
350
F5F
  0
DICTIONARY
  5
F80
102
{ACAD_REACTORS
330
F4A
102
}
330
F4A
100
AcDbDictionary
281
     1
  3
ByBlock
350
F82
  3
ByLayer
350
F81
  3
Global
350
F83
  0
DICTIONARY
  5
FA8
102
{ACAD_REACTORS
330
F4A
102
}
330
F4A
100
AcDbDictionary
281
     1
  3
Standard
350
FA9
  0
DICTIONARY
  5
F54
102
{ACAD_REACTORS
330
F4A
102
}
330
F4A
100
AcDbDictionary
281
     1
  3
Standard
350
F55
  0
DICTIONARY
  5
F56
102
{ACAD_REACTORS
330
F4A
102
}
330
F4A
100
AcDbDictionary
281
     1
  0
ACDBDICTIONARYWDFLT
  5
F4C
102
{ACAD_REACTORS
330
F4A
102
}
330
F4A
100
AcDbDictionary
281
     1
  3
Normal
350
F4D
100
AcDbDictionaryWithDefault
340
F4D
  0
DICTIONARY
  5
F84
102
{ACAD_REACTORS
330
F4A
102
}
330
F4A
100
AcDbDictionary
281
     1
  3
A0
350
F85
  3
A1
350
F86
  3
A2
350
F87
  3
A3
350
F88
  3
A4
350
F89
  3
A5
350
F8A
  3
A6
350
F8B
  3
A7
350
F8C
  3
A8
350
F8D
  3
A9
350
F8E
  3
B0
350
F8F
  3
B1
350
F90
  3
B2
350
F91
  3
B3
350
F92
  3
B4
350
F93
  3
B5
350
F94
  3
B6
350
F95
  3
B7
350
F96
  3
B8
350
F97
  3
B9
350
F98
  3
C0
350
F99
  3
C1
350
F9A
  3
C2
350
F9B
  3
C3
350
F9C
  3
C4
350
F9D
  3
C5
350
F9E
  3
C6
350
F9F
  3
C7
350
FA0
  3
C8
350
FA1
  3
C9
350
FA2
  3
D0
350
FA3
  3
D1
350
FA4
  3
D2
350
FA5
  0
DICTIONARY
  5
1035
102
{ACAD_REACTORS
330
F4A
102
}
330
F4A
100
AcDbDictionary
281
     1
  0
DICTIONARY
  5
FA6
102
{ACAD_REACTORS
330
F4A
102
}
330
F4A
100
AcDbDictionary
281
     1
  3
Standard
350
FA7
  0
DICTIONARY
  5
F67
102
{ACAD_REACTORS
330
F4A
102
}
330
F4A
100
AcDbDictionary
281
     1
  3
2dWireframe
350
F6C
  3
Basic
350
F6F
  3
Brighten
350
F73
  3
ColorChange
350
F77
  3
Conceptual
350
F71
  3
Dim
350
F72
  3
EdgeColorOff
350
F7A
  3
Facepattern
350
F76
  3
Flat
350
F68
  3
FlatWithEdges
350
F69
  3
Gouraud
350
F6A
  3
GouraudWithEdges
350
F6B
  3
Hidden
350
F6E
  3
JitterOff
350
F78
  3
Linepattern
350
F75
  3
OverhangOff
350
F79
  3
Realistic
350
F70
  3
Shaded
350
F7F
  3
Shaded with edges
350
F7E
  3
Shades of Gray
350
F7B
  3
Sketchy
350
F7C
  3
Thicken
350
F74
  3
Wireframe
350
F6D
  3
X-Ray
350
F7D
  0
XRECORD
  5
1031
102
{ACAD_REACTORS
330
F4A
102
}
330
F4A
100
AcDbXrecord
280
     1
 90
        1
330
FA7
  0
DICTIONARY
  5
102D
102
{ACAD_REACTORS
330
F4A
102
}
330
F4A
100
AcDbDictionary
281
     1
  3
CANNOSCALE
350
102E
  3
CMLEADERSTYLE
350
1033
  3
CTABLESTYLE
350
1032
  0
DICTIONARY
  5
FAC
102
{ACAD_REACTORS
330
F4A
102
}
330
F4A
100
AcDbDictionary
281
     1
  3
ColorSettings/BackgroundColor
350
FAE
  3
ColorSettings/ColorMode
350
FAF
  3
DimensionSettings/AngularFormat
350
FB0
  3
DimensionSettings/AngularPrecision
350
FB1
  3
DimensionSettings/DimensionFont
350
FB2
  3
DimensionSettings/KeepProportions
350
FB3
  3
DimensionSettings/LinearFormat
350
FB4
  3
DimensionSettings/LinearPrecision
350
FB5
  3
Grid/DisplayGrid00
350
FB6
  3
Grid/DisplayGrid01
350
FB7
  3
Grid/DisplayGrid02
350
FB8
  3
Grid/DisplayGrid03
350
FB9
  3
Grid/GridSpacingX00
350
FBA
  3
Grid/GridSpacingX01
350
FBB
  3
Grid/GridSpacingX02
350
FBC
  3
Grid/GridSpacingX03
350
FBD
  3
Grid/GridSpacingY00
350
FBE
  3
Grid/GridSpacingY01
350
FBF
  3
Grid/GridSpacingY02
350
FC0
  3
Grid/GridSpacingY03
350
FC1
  3
Grid/IsometricGrid00
350
FC2
  3
Grid/IsometricGrid01
350
FC3
  3
Grid/IsometricGrid02
350
FC4
  3
Grid/IsometricGrid03
350
FC5
  3
Grid/IsometricProjection00
350
FC6
  3
Grid/IsometricProjection01
350
FC7
  3
Grid/IsometricProjection02
350
FC8
  3
Grid/IsometricProjection03
350
FC9
  3
Grid/MetaGridSpacingX00
350
FCA
  3
Grid/MetaGridSpacingX01
350
FCB
  3
Grid/MetaGridSpacingX02
350
FCC
  3
Grid/MetaGridSpacingX03
350
FCD
  3
Grid/MetaGridSpacingY00
350
FCE
  3
Grid/MetaGridSpacingY01
350
FCF
  3
Grid/MetaGridSpacingY02
350
FD0
  3
Grid/MetaGridSpacingY03
350
FD1
  3
MultiPageSettings/Columns
350
FD2
  3
MultiPageSettings/GlueMarginsBottom
350
FD3
  3
MultiPageSettings/GlueMarginsLeft
350
FD4
  3
MultiPageSettings/GlueMarginsRight
350
FD5
  3
MultiPageSettings/GlueMarginsTop
350
FD6
  3
MultiPageSettings/PrintCropMarks
350
FD7
  3
MultiPageSettings/Rows
350
FD8
  3
PageSettings/OffsetX
350
FD9
  3
PageSettings/OffsetY
350
FDA
  3
PageSettings/PageOrientation
350
FDB
  3
PageSettings/PaperHeight
350
FDC
  3
PageSettings/PaperWidth
350
FDD
  3
PageSettings/Scale
350
FDE
  3
PageSettings/ShowPaperBorders
350
FDF
  3
QCADVersion
350
FE0
  3
UnitSettings/PaperUnit
350
FE1
  3
ViewportCenter
350
FE2
  3
ViewportHeight
350
FE3
  3
ViewportWidth
350
FE4
  0
LAYOUT
  5
F5B
102
{ACAD_REACTORS
330
F57
102
}
330
F57
100
AcDbPlotSettings
  1

  2
none_device
  4
ISO_A4_(210.00_x_297.00_MM)
  6

 40
7.5
 41
20.0
 42
7.5
 43
20.0
 44
210.0
 45
297.0
 46
0.0
 47
0.0
 48
0.0
 49
0.0
140
0.0
141
0.0
142
1.0
143
1.0
 70
   688
 72
     1
 73
     1
 74
     5
  7

 75
    16
 76
     0
 77
     2
 78
   300
147
1.0
148
0.0
149
0.0
100
AcDbLayout
  1
Layout1
 70
     1
 71
     0
 10
-20.0
 20
-7.5
 11
277.0
 21
202.5
 12
0.0
 22
0.0
 32
0.0
 14
0.0
 24
0.0
 34
0.0
 15
0.0
 25
0.0
 35
0.0
146
0.0
 13
0.0
 23
0.0
 33
0.0
 16
1.0
 26
0.0
 36
0.0
 17
0.0
 27
1.0
 37
0.0
 76
     0
330
F58
331
1027
  0
LAYOUT
  5
F5F
102
{ACAD_REACTORS
330
F57
102
}
330
F57
100
AcDbPlotSettings
  1

  2
none_device
  4
Letter_(8.50_x_11.00_Inches)
  6

 40
6.35
 41
6.35
 42
6.35000508
 43
6.35000508
 44
215.9
 45
279.4
 46
0.0
 47
0.0
 48
0.0
 49
0.0
140
0.0
141
0.0
142
1.0
143
1.0
 70
  1712
 72
     0
 73
     0
 74
     0
  7

 75
     0
 76
     0
 77
     2
 78
   300
147
1.0
148
0.0
149
0.0
100
AcDbLayout
  1
Model
 70
     1
 71
     0
 10
0.0
 20
0.0
 11
12.0
 21
9.0
 12
0.0
 22
0.0
 32
0.0
 14
1.000000000000000E+20
 24
1.000000000000000E+20
 34
1.000000000000000E+20
 15
-1.000000000000000E+20
 25
-1.000000000000000E+20
 35
-1.000000000000000E+20
146
0.0
 13
0.0
 23
0.0
 33
0.0
 16
1.0
 26
0.0
 36
0.0
 17
0.0
 27
1.0
 37
0.0
 76
     0
330
F5C
331
F66
  0
MATERIAL
  5
F82
102
{ACAD_REACTORS
330
F80
102
}
330
F80
100
AcDbMaterial
  1
ByBlock
 72
     1
 94
      127
  0
MATERIAL
  5
F81
102
{ACAD_REACTORS
330
F80
102
}
330
F80
100
AcDbMaterial
  1
ByLayer
 72
     1
 94
      127
  0
MATERIAL
  5
F83
102
{ACAD_REACTORS
330
F80
102
}
330
F80
100
AcDbMaterial
  1
Global
 72
     1
 94
      127
  0
MLEADERSTYLE
  5
FA9
102
{ACAD_REACTORS
330
FA8
102
}
330
FA8
100
AcDbMLeaderStyle
179
     2
170
     2
171
     1
172
     0
 90
        2
 40
0.0
 41
0.0
173
     1
 91
-1056964608
340
F51
 92
       -2
290
     1
 42
0.09
291
     1
 43
0.36
  3
Standard
341
0
 44
0.18
300

342
F4F
174
     1
178
     6
175
     1
176
     0
 93
-1056964608
 45
0.18
292
     0
297
     0
 46
0.18
343
0
 94
-1056964608
 47
1.0
 49
1.0
140
1.0
293
     1
141
0.0
294
     1
177
     0
142
1.0
295
     0
296
     0
143
0.125
271
     0
272
     9
273
     9
298
     0
  0
MLINESTYLE
  5
F55
102
{ACAD_REACTORS
330
F54
102
}
330
F54
100
AcDbMlineStyle
  2
Standard
 70
     0
  3

 62
   256
 51
90.0
 52
90.0
 71
     2
 49
0.5
 62
   256
  6
BYLAYER
 49
-0.5
 62
   256
  6
BYLAYER
  0
ACDBPLACEHOLDER
  5
F4D
102
{ACAD_REACTORS
330
F4C
102
}
330
F4C
  0
SCALE
  5
F85
102
{ACAD_REACTORS
330
F84
102
}
330
F84
100
AcDbScale
 70
     0
300
1:1
140
1.0
141
1.0
290
     1
  0
SCALE
  5
F86
102
{ACAD_REACTORS
330
F84
102
}
330
F84
100
AcDbScale
 70
     0
300
1:2
140
1.0
141
2.0
290
     0
  0
SCALE
  5
F87
102
{ACAD_REACTORS
330
F84
102
}
330
F84
100
AcDbScale
 70
     0
300
1:4
140
1.0
141
4.0
290
     0
  0
SCALE
  5
F88
102
{ACAD_REACTORS
330
F84
102
}
330
F84
100
AcDbScale
 70
     0
300
1:5
140
1.0
141
5.0
290
     0
  0
SCALE
  5
F89
102
{ACAD_REACTORS
330
F84
102
}
330
F84
100
AcDbScale
 70
     0
300
1:8
140
1.0
141
8.0
290
     0
  0
SCALE
  5
F8A
102
{ACAD_REACTORS
330
F84
102
}
330
F84
100
AcDbScale
 70
     0
300
1:10
140
1.0
141
10.0
290
     0
  0
SCALE
  5
F8B
102
{ACAD_REACTORS
330
F84
102
}
330
F84
100
AcDbScale
 70
     0
300
1:16
140
1.0
141
16.0
290
     0
  0
SCALE
  5
F8C
102
{ACAD_REACTORS
330
F84
102
}
330
F84
100
AcDbScale
 70
     0
300
1:20
140
1.0
141
20.0
290
     0
  0
SCALE
  5
F8D
102
{ACAD_REACTORS
330
F84
102
}
330
F84
100
AcDbScale
 70
     0
300
1:30
140
1.0
141
30.0
290
     0
  0
SCALE
  5
F8E
102
{ACAD_REACTORS
330
F84
102
}
330
F84
100
AcDbScale
 70
     0
300
1:40
140
1.0
141
40.0
290
     0
  0
SCALE
  5
F8F
102
{ACAD_REACTORS
330
F84
102
}
330
F84
100
AcDbScale
 70
     0
300
1:50
140
1.0
141
50.0
290
     0
  0
SCALE
  5
F90
102
{ACAD_REACTORS
330
F84
102
}
330
F84
100
AcDbScale
 70
     0
300
1:100
140
1.0
141
100.0
290
     0
  0
SCALE
  5
F91
102
{ACAD_REACTORS
330
F84
102
}
330
F84
100
AcDbScale
 70
     0
300
2:1
140
2.0
141
1.0
290
     0
  0
SCALE
  5
F92
102
{ACAD_REACTORS
330
F84
102
}
330
F84
100
AcDbScale
 70
     0
300
4:1
140
4.0
141
1.0
290
     0
  0
SCALE
  5
F93
102
{ACAD_REACTORS
330
F84
102
}
330
F84
100
AcDbScale
 70
     0
300
8:1
140
8.0
141
1.0
290
     0
  0
SCALE
  5
F94
102
{ACAD_REACTORS
330
F84
102
}
330
F84
100
AcDbScale
 70
     0
300
10:1
140
10.0
141
1.0
290
     0
  0
SCALE
  5
F95
102
{ACAD_REACTORS
330
F84
102
}
330
F84
100
AcDbScale
 70
     0
300
100:1
140
100.0
141
1.0
290
     0
  0
SCALE
  5
F96
102
{ACAD_REACTORS
330
F84
102
}
330
F84
100
AcDbScale
 70
     0
300
1/128" = 1'-0"
140
0.0078125
141
12.0
290
     0
  0
SCALE
  5
F97
102
{ACAD_REACTORS
330
F84
102
}
330
F84
100
AcDbScale
 70
     0
300
1/64" = 1'-0"
140
0.015625
141
12.0
290
     0
  0
SCALE
  5
F98
102
{ACAD_REACTORS
330
F84
102
}
330
F84
100
AcDbScale
 70
     0
300
1/32" = 1'-0"
140
0.03125
141
12.0
290
     0
  0
SCALE
  5
F99
102
{ACAD_REACTORS
330
F84
102
}
330
F84
100
AcDbScale
 70
     0
300
1/16" = 1'-0"
140
0.0625
141
12.0
290
     0
  0
SCALE
  5
F9A
102
{ACAD_REACTORS
330
F84
102
}
330
F84
100
AcDbScale
 70
     0
300
3/32" = 1'-0"
140
0.09375
141
12.0
290
     0
  0
SCALE
  5
F9B
102
{ACAD_REACTORS
330
F84
102
}
330
F84
100
AcDbScale
 70
     0
300
1/8" = 1'-0"
140
0.125
141
12.0
290
     0
  0
SCALE
  5
F9C
102
{ACAD_REACTORS
330
F84
102
}
330
F84
100
AcDbScale
 70
     0
300
3/16" = 1'-0"
140
0.1875
141
12.0
290
     0
  0
SCALE
  5
F9D
102
{ACAD_REACTORS
330
F84
102
}
330
F84
100
AcDbScale
 70
     0
300
1/4" = 1'-0"
140
0.25
141
12.0
290
     0
  0
SCALE
  5
F9E
102
{ACAD_REACTORS
330
F84
102
}
330
F84
100
AcDbScale
 70
     0
300
3/8" = 1'-0"
140
0.375
141
12.0
290
     0
  0
SCALE
  5
F9F
102
{ACAD_REACTORS
330
F84
102
}
330
F84
100
AcDbScale
 70
     0
300
1/2" = 1'-0"
140
0.5
141
12.0
290
     0
  0
SCALE
  5
FA0
102
{ACAD_REACTORS
330
F84
102
}
330
F84
100
AcDbScale
 70
     0
300
3/4" = 1'-0"
140
0.75
141
12.0
290
     0
  0
SCALE
  5
FA1
102
{ACAD_REACTORS
330
F84
102
}
330
F84
100
AcDbScale
 70
     0
300
1" = 1'-0"
140
1.0
141
12.0
290
     0
  0
SCALE
  5
FA2
102
{ACAD_REACTORS
330
F84
102
}
330
F84
100
AcDbScale
 70
     0
300
1-1/2" = 1'-0"
140
1.5
141
12.0
290
     0
  0
SCALE
  5
FA3
102
{ACAD_REACTORS
330
F84
102
}
330
F84
100
AcDbScale
 70
     0
300
3" = 1'-0"
140
3.0
141
12.0
290
     0
  0
SCALE
  5
FA4
102
{ACAD_REACTORS
330
F84
102
}
330
F84
100
AcDbScale
 70
     0
300
6" = 1'-0"
140
6.0
141
12.0
290
     0
  0
SCALE
  5
FA5
102
{ACAD_REACTORS
330
F84
102
}
330
F84
100
AcDbScale
 70
     0
300
1'-0" = 1'-0"
140
12.0
141
12.0
290
     0
  0
TABLESTYLE
  5
FA7
102
{ACAD_REACTORS
330
FA6
102
}
102
{ACAD_XDICTIONARY
360
102F
102
}
330
FA6
100
AcDbTableStyle
  3
Standard
 70
     0
 71
     0
 40
0.06
 41
0.06
280
     0
281
     0
  7
Standard
140
0.18
170
     2
 62
     0
 63
   257
283
     0
 90
        4
 91
        0
  1

274
    -2
284
     1
 64
     0
275
    -2
285
     1
 65
     0
276
    -2
286
     1
 66
     0
277
    -2
287
     1
 67
     0
278
    -2
288
     1
 68
     0
279
    -2
289
     1
 69
     0
  7
Standard
140
0.25
170
     5
 62
     0
 63
   257
283
     0
 90
        4
 91
        0
  1

274
    -2
284
     1
 64
     0
275
    -2
285
     1
 65
     0
276
    -2
286
     1
 66
     0
277
    -2
287
     1
 67
     0
278
    -2
288
     1
 68
     0
279
    -2
289
     1
 69
     0
  7
Standard
140
0.18
170
     5
 62
     0
 63
   257
283
     0
 90
        4
 91
        0
  1

274
    -2
284
     1
 64
     0
275
    -2
285
     1
 65
     0
276
    -2
286
     1
 66
     0
277
    -2
287
     1
 67
     0
278
    -2
288
     1
 68
     0
279
    -2
289
     1
 69
     0
  0
VISUALSTYLE
  5
F6C
102
{ACAD_REACTORS
330
F67
102
}
330
F67
100
AcDbVisualStyle
  2
2dWireframe
 70
     4
177
     3
291
     0
 70
    58
 90
        0
176
     1
 90
        2
176
     1
 90
        0
176
     1
 90
        0
176
     1
 40
0.6
176
     1
 40
30.0
176
     1
 62
     7
420
 16777215
176
     1
 90
        1
176
     1
 90
        4
176
     1
 62
     7
176
     1
 62
   257
176
     1
 90
        1
176
     1
 90
        1
176
     1
 40
1.0
176
     1
 90
        0
176
     1
 62
   257
176
     1
 40
1.0
176
     1
 90
        1
176
     1
 90
        6
176
     1
 90
        2
176
     1
 62
     7
176
     1
 90
        5
176
     1
 90
        0
176
     1
 90
        0
176
     1
290
     0
176
     1
 90
        1
176
     1
 40
0.0
176
     1
 90
        0
176
     1
290
     1
176
     1
290
     1
176
     1
290
     0
176
     1
290
     0
176
     1
290
     0
176
     1
290
     0
176
     1
290
     0
176
     1
290
     0
176
     1
290
     0
176
     1
 90
       50
176
     1
 40
0.0
176
     1
 40
1.0
176
     1
 90
        0
176
     1
 62
   178
420
        0
176
     1
 90
       50
176
     1
 90
        3
176
     1
 62
     5
420
      255
176
     1
290
     0
176
     1
 90
       50
176
     1
 90
       50
176
     1
 90
       50
176
     1
290
     0
176
     1
 90
       50
176
     1
 62
   256
176
     0
 40
1.0
176
     0
 90
        2
176
     1
  1
strokes_ogs.tif
176
     1
290
     0
176
     1
 40
1.0
176
     1
 40
1.0
176
     1
  0
VISUALSTYLE
  5
F6F
102
{ACAD_REACTORS
330
F67
102
}
330
F67
100
AcDbVisualStyle
  2
Basic
 70
     7
177
     3
291
     1
 70
    58
 90
        1
176
     1
 90
        0
176
     1
 90
        1
176
     1
 90
        0
176
     1
 40
0.6
176
     1
 40
30.0
176
     1
 62
     7
420
 16777215
176
     1
 90
        0
176
     1
 90
        4
176
     1
 62
     7
176
     1
 62
   257
176
     1
 90
        1
176
     1
 90
        1
176
     1
 40
1.0
176
     1
 90
        8
176
     1
 62
     7
176
     1
 40
1.0
176
     1
 90
        1
176
     1
 90
        6
176
     1
 90
        2
176
     1
 62
     7
176
     1
 90
        5
176
     1
 90
        0
176
     1
 90
        0
176
     1
290
     0
176
     1
 90
        1
176
     1
 40
0.0
176
     1
 90
        0
176
     1
290
     0
176
     1
290
     1
176
     1
290
     1
176
     1
290
     0
176
     1
290
     0
176
     1
290
     0
176
     1
290
     0
176
     1
290
     0
176
     1
290
     0
176
     1
 90
       50
176
     1
 40
0.0
176
     1
 40
1.0
176
     1
 90
        0
176
     1
 62
   178
420
        0
176
     1
 90
       50
176
     1
 90
        3
176
     1
 62
     5
420
      255
176
     1
290
     0
176
     1
 90
       50
176
     1
 90
       50
176
     1
 90
       50
176
     1
290
     0
176
     1
 90
       50
176
     1
 62
   256
176
     0
 40
1.0
176
     0
 90
        2
176
     1
  1
strokes_ogs.tif
176
     1
290
     0
176
     1
 40
1.0
176
     1
 40
1.0
176
     1
  0
VISUALSTYLE
  5
F73
102
{ACAD_REACTORS
330
F67
102
}
330
F67
100
AcDbVisualStyle
  2
Brighten
 70
    12
177
     3
291
     1
 70
    58
 90
        2
176
     1
 90
        2
176
     1
 90
        0
176
     1
 90
        0
176
     1
 40
0.6
176
     1
 40
30.0
176
     1
 62
     7
420
 16777215
176
     1
 90
        1
176
     1
 90
        4
176
     1
 62
     7
176
     1
 62
   257
176
     1
 90
        1
176
     1
 90
        1
176
     1
 40
1.0
176
     1
 90
        8
176
     1
 62
     7
176
     1
 40
1.0
176
     1
 90
        1
176
     1
 90
        6
176
     1
 90
        2
176
     1
 62
     7
176
     1
 90
        5
176
     1
 90
        0
176
     1
 90
        0
176
     1
290
     0
176
     1
 90
        1
176
     1
 40
50.0
176
     1
 90
        0
176
     1
290
     0
176
     1
290
     1
176
     1
290
     1
176
     1
290
     0
176
     1
290
     0
176
     1
290
     0
176
     1
290
     0
176
     1
290
     0
176
     1
290
     0
176
     1
 90
       50
176
     1
 40
0.0
176
     1
 40
1.0
176
     1
 90
        0
176
     1
 62
   178
420
        0
176
     1
 90
       50
176
     1
 90
        3
176
     1
 62
     5
420
      255
176
     1
290
     0
176
     1
 90
       50
176
     1
 90
       50
176
     1
 90
       50
176
     1
290
     0
176
     1
 90
       50
176
     1
 62
   256
176
     0
 40
1.0
176
     0
 90
        2
176
     1
  1
strokes_ogs.tif
176
     1
290
     0
176
     1
 40
1.0
176
     1
 40
1.0
176
     1
  0
VISUALSTYLE
  5
F77
102
{ACAD_REACTORS
330
F67
102
}
330
F67
100
AcDbVisualStyle
  2
ColorChange
 70
    16
177
     3
291
     1
 70
    58
 90
        2
176
     1
 90
        2
176
     1
 90
        3
176
     1
 90
        0
176
     1
 40
0.6
176
     1
 40
30.0
176
     1
 62
     8
420
  8421504
176
     1
 90
        1
176
     1
 90
        4
176
     1
 62
     7
176
     1
 62
   257
176
     1
 90
        1
176
     1
 90
        1
176
     1
 40
1.0
176
     1
 90
        8
176
     1
 62
     8
420
  8421504
176
     1
 40
1.0
176
     1
 90
        1
176
     1
 90
        6
176
     1
 90
        2
176
     1
 62
     7
176
     1
 90
        5
176
     1
 90
        0
176
     1
 90
        0
176
     1
290
     0
176
     1
 90
        1
176
     1
 40
0.0
176
     1
 90
        0
176
     1
290
     0
176
     1
290
     1
176
     1
290
     1
176
     1
290
     0
176
     1
290
     0
176
     1
290
     0
176
     1
290
     0
176
     1
290
     0
176
     1
290
     0
176
     1
 90
       50
176
     1
 40
0.0
176
     1
 40
1.0
176
     1
 90
        0
176
     1
 62
   178
420
        0
176
     1
 90
       50
176
     1
 90
        3
176
     1
 62
     5
420
      255
176
     1
290
     0
176
     1
 90
       50
176
     1
 90
       50
176
     1
 90
       50
176
     1
290
     0
176
     1
 90
       50
176
     1
 62
   256
176
     0
 40
1.0
176
     0
 90
        2
176
     1
  1
strokes_ogs.tif
176
     1
290
     0
176
     1
 40
1.0
176
     1
 40
1.0
176
     1
  0
VISUALSTYLE
  5
F71
102
{ACAD_REACTORS
330
F67
102
}
330
F67
100
AcDbVisualStyle
  2
Conceptual
 70
     9
177
     3
291
     0
 70
    58
 90
        3
176
     1
 90
        2
176
     1
 90
        0
176
     1
 90
        0
176
     1
 40
0.6
176
     1
 40
30.0
176
     1
 62
     7
420
 16777215
176
     1
 90
        2
176
     1
 90
        2
176
     1
 62
     7
176
     1
 62
   257
176
     1
 90
        1
176
     1
 90
        1
176
     1
 40
179.0
176
     1
 90
        8
176
     1
 62
     7
176
     1
 40
1.0
176
     1
 90
        1
176
     1
 90
        6
176
     1
 90
        2
176
     1
 62
     7
176
     1
 90
        3
176
     1
 90
        0
176
     1
 90
        0
176
     1
290
     0
176
     1
 90
        1
176
     1
 40
0.0
176
     1
 90
        0
176
     1
290
     0
176
     1
290
     1
176
     1
290
     1
176
     1
290
     0
176
     1
290
     0
176
     1
290
     0
176
     1
290
     0
176
     1
290
     0
176
     1
290
     0
176
     1
 90
       50
176
     1
 40
0.0
176
     1
 40
1.0
176
     1
 90
        0
176
     1
 62
   178
420
        0
176
     1
 90
       50
176
     1
 90
        3
176
     1
 62
     5
420
      255
176
     1
290
     0
176
     1
 90
       50
176
     1
 90
       50
176
     1
 90
       50
176
     1
290
     0
176
     1
 90
       50
176
     1
 62
   256
176
     0
 40
1.0
176
     0
 90
        2
176
     1
  1
strokes_ogs.tif
176
     1
290
     0
176
     1
 40
1.0
176
     1
 40
1.0
176
     1
  0
VISUALSTYLE
  5
F72
102
{ACAD_REACTORS
330
F67
102
}
330
F67
100
AcDbVisualStyle
  2
Dim
 70
    11
177
     3
291
     1
 70
    58
 90
        2
176
     1
 90
        2
176
     1
 90
        0
176
     1
 90
        0
176
     1
 40
0.6
176
     1
 40
30.0
176
     1
 62
     7
420
 16777215
176
     1
 90
        1
176
     1
 90
        4
176
     1
 62
     7
176
     1
 62
   257
176
     1
 90
        1
176
     1
 90
        1
176
     1
 40
1.0
176
     1
 90
        8
176
     1
 62
     7
176
     1
 40
1.0
176
     1
 90
        1
176
     1
 90
        6
176
     1
 90
        2
176
     1
 62
     7
176
     1
 90
        5
176
     1
 90
        0
176
     1
 90
        0
176
     1
290
     0
176
     1
 90
        1
176
     1
 40
-50.0
176
     1
 90
        0
176
     1
290
     0
176
     1
290
     1
176
     1
290
     1
176
     1
290
     0
176
     1
290
     0
176
     1
290
     0
176
     1
290
     0
176
     1
290
     0
176
     1
290
     0
176
     1
 90
       50
176
     1
 40
0.0
176
     1
 40
1.0
176
     1
 90
        0
176
     1
 62
   178
420
        0
176
     1
 90
       50
176
     1
 90
        3
176
     1
 62
     5
420
      255
176
     1
290
     0
176
     1
 90
       50
176
     1
 90
       50
176
     1
 90
       50
176
     1
290
     0
176
     1
 90
       50
176
     1
 62
   256
176
     0
 40
1.0
176
     0
 90
        2
176
     1
  1
strokes_ogs.tif
176
     1
290
     0
176
     1
 40
1.0
176
     1
 40
1.0
176
     1
  0
VISUALSTYLE
  5
F7A
102
{ACAD_REACTORS
330
F67
102
}
330
F67
100
AcDbVisualStyle
  2
EdgeColorOff
 70
    22
177
     3
291
     1
 70
    58
 90
        2
176
     0
 90
        2
176
     0
 90
        0
176
     0
 90
        0
176
     0
 40
0.6
176
     0
 40
30.0
176
     0
 62
     7
420
 16777215
176
     0
 90
        1
176
     0
 90
        4
176
     0
 62
     7
176
     0
 62
   257
176
     0
 90
        1
176
     0
 90
        1
176
     0
 40
1.0
176
     0
 90
        8
176
     2
 62
     7
176
     0
 40
1.0
176
     0
 90
        1
176
     0
 90
        6
176
     0
 90
        2
176
     0
 62
     7
176
     0
 90
        5
176
     0
 90
        0
176
     0
 90
        0
176
     0
290
     0
176
     0
 90
        1
176
     0
 40
0.0
176
     0
 90
        0
176
     0
290
     0
176
     0
290
     1
176
     0
290
     1
176
     0
290
     0
176
     0
290
     0
176
     0
290
     0
176
     0
290
     0
176
     0
290
     0
176
     0
290
     0
176
     0
 90
       50
176
     0
 40
0.0
176
     0
 40
1.0
176
     0
 90
        0
176
     0
 62
   178
420
        0
176
     0
 90
       50
176
     0
 90
        3
176
     0
 62
     5
420
      255
176
     0
290
     0
176
     0
 90
       50
176
     0
 90
       50
176
     0
 90
       50
176
     0
290
     0
176
     0
 90
       50
176
     0
 62
   256
176
     0
 40
1.0
176
     0
 90
        2
176
     0
  1
strokes_ogs.tif
176
     0
290
     0
176
     0
 40
1.0
176
     0
 40
1.0
176
     0
  0
VISUALSTYLE
  5
F76
102
{ACAD_REACTORS
330
F67
102
}
330
F67
100
AcDbVisualStyle
  2
Facepattern
 70
    15
177
     3
291
     1
 70
    58
 90
        2
176
     1
 90
        2
176
     1
 90
        0
176
     1
 90
        0
176
     1
 40
0.6
176
     1
 40
30.0
176
     1
 62
     7
420
 16777215
176
     1
 90
        1
176
     1
 90
        4
176
     1
 62
     7
176
     1
 62
   257
176
     1
 90
        1
176
     1
 90
        1
176
     1
 40
1.0
176
     1
 90
        8
176
     1
 62
     7
176
     1
 40
1.0
176
     1
 90
        1
176
     1
 90
        6
176
     1
 90
        2
176
     1
 62
     7
176
     1
 90
        5
176
     1
 90
        0
176
     1
 90
        0
176
     1
290
     0
176
     1
 90
        1
176
     1
 40
0.0
176
     1
 90
        0
176
     1
290
     0
176
     1
290
     1
176
     1
290
     1
176
     1
290
     0
176
     1
290
     0
176
     1
290
     0
176
     1
290
     0
176
     1
290
     0
176
     1
290
     0
176
     1
 90
       50
176
     1
 40
0.0
176
     1
 40
1.0
176
     1
 90
        0
176
     1
 62
   178
420
        0
176
     1
 90
       50
176
     1
 90
        3
176
     1
 62
     5
420
      255
176
     1
290
     0
176
     1
 90
       50
176
     1
 90
       50
176
     1
 90
       50
176
     1
290
     0
176
     1
 90
       50
176
     1
 62
   256
176
     0
 40
1.0
176
     0
 90
        2
176
     1
  1
strokes_ogs.tif
176
     1
290
     0
176
     1
 40
1.0
176
     1
 40
1.0
176
     1
  0
VISUALSTYLE
  5
F68
102
{ACAD_REACTORS
330
F67
102
}
330
F67
100
AcDbVisualStyle
  2
Flat
 70
     0
177
     3
291
     1
 70
    58
 90
        2
176
     1
 90
        1
176
     1
 90
        1
176
     1
 90
        2
176
     1
 40
0.6
176
     1
 40
30.0
176
     1
 62
     7
420
 16777215
176
     1
 90
        0
176
     1
 90
        0
176
     1
 62
     7
176
     1
 62
   257
176
     1
 90
        1
176
     1
 90
        1
176
     1
 40
1.0
176
     1
 90
        8
176
     1
 62
     7
176
     1
 40
1.0
176
     1
 90
        1
176
     1
 90
        6
176
     1
 90
        2
176
     1
 62
     7
176
     1
 90
        5
176
     1
 90
        0
176
     1
 90
        0
176
     1
290
     0
176
     1
 90
       13
176
     1
 40
0.0
176
     1
 90
        0
176
     1
290
     0
176
     1
290
     1
176
     1
290
     1
176
     1
290
     0
176
     1
290
     0
176
     1
290
     0
176
     1
290
     0
176
     1
290
     0
176
     1
290
     0
176
     1
 90
       50
176
     1
 40
0.0
176
     1
 40
1.0
176
     1
 90
        0
176
     1
 62
   178
420
        0
176
     1
 90
       50
176
     1
 90
        3
176
     1
 62
     5
420
      255
176
     1
290
     0
176
     1
 90
       50
176
     1
 90
       50
176
     1
 90
       50
176
     1
290
     0
176
     1
 90
       50
176
     1
 62
   256
176
     0
 40
1.0
176
     0
 90
        2
176
     1
  1
strokes_ogs.tif
176
     1
290
     0
176
     1
 40
1.0
176
     1
 40
1.0
176
     1
  0
VISUALSTYLE
  5
F69
102
{ACAD_REACTORS
330
F67
102
}
330
F67
100
AcDbVisualStyle
  2
FlatWithEdges
 70
     1
177
     3
291
     1
 70
    58
 90
        2
176
     1
 90
        1
176
     1
 90
        1
176
     1
 90
        2
176
     1
 40
0.6
176
     1
 40
30.0
176
     1
 62
     7
420
 16777215
176
     1
 90
        1
176
     1
 90
        0
176
     1
 62
     7
176
     1
 62
   257
176
     1
 90
        1
176
     1
 90
        1
176
     1
 40
1.0
176
     1
 90
        0
176
     1
 62
   257
176
     1
 40
1.0
176
     1
 90
        1
176
     1
 90
        6
176
     1
 90
        2
176
     1
 62
     7
176
     1
 90
        5
176
     1
 90
        0
176
     1
 90
        0
176
     1
290
     0
176
     1
 90
       13
176
     1
 40
0.0
176
     1
 90
        0
176
     1
290
     0
176
     1
290
     1
176
     1
290
     1
176
     1
290
     0
176
     1
290
     0
176
     1
290
     0
176
     1
290
     0
176
     1
290
     0
176
     1
290
     0
176
     1
 90
       50
176
     1
 40
0.0
176
     1
 40
1.0
176
     1
 90
        0
176
     1
 62
   178
420
        0
176
     1
 90
       50
176
     1
 90
        3
176
     1
 62
     5
420
      255
176
     1
290
     0
176
     1
 90
       50
176
     1
 90
       50
176
     1
 90
       50
176
     1
290
     0
176
     1
 90
       50
176
     1
 62
   256
176
     0
 40
1.0
176
     0
 90
        2
176
     1
  1
strokes_ogs.tif
176
     1
290
     0
176
     1
 40
1.0
176
     1
 40
1.0
176
     1
  0
VISUALSTYLE
  5
F6A
102
{ACAD_REACTORS
330
F67
102
}
330
F67
100
AcDbVisualStyle
  2
Gouraud
 70
     2
177
     3
291
     1
 70
    58
 90
        2
176
     1
 90
        2
176
     1
 90
        1
176
     1
 90
        2
176
     1
 40
0.6
176
     1
 40
30.0
176
     1
 62
     7
420
 16777215
176
     1
 90
        0
176
     1
 90
        0
176
     1
 62
     7
176
     1
 62
   257
176
     1
 90
        1
176
     1
 90
        1
176
     1
 40
1.0
176
     1
 90
        0
176
     1
 62
     7
176
     1
 40
1.0
176
     1
 90
        1
176
     1
 90
        6
176
     1
 90
        2
176
     1
 62
     7
176
     1
 90
        5
176
     1
 90
        0
176
     1
 90
        0
176
     1
290
     0
176
     1
 90
       13
176
     1
 40
0.0
176
     1
 90
        0
176
     1
290
     0
176
     1
290
     1
176
     1
290
     1
176
     1
290
     0
176
     1
290
     0
176
     1
290
     0
176
     1
290
     0
176
     1
290
     0
176
     1
290
     0
176
     1
 90
       50
176
     1
 40
0.0
176
     1
 40
1.0
176
     1
 90
        0
176
     1
 62
   178
420
        0
176
     1
 90
       50
176
     1
 90
        3
176
     1
 62
     5
420
      255
176
     1
290
     0
176
     1
 90
       50
176
     1
 90
       50
176
     1
 90
       50
176
     1
290
     0
176
     1
 90
       50
176
     1
 62
   256
176
     0
 40
1.0
176
     0
 90
        2
176
     1
  1
strokes_ogs.tif
176
     1
290
     0
176
     1
 40
1.0
176
     1
 40
1.0
176
     1
  0
VISUALSTYLE
  5
F6B
102
{ACAD_REACTORS
330
F67
102
}
330
F67
100
AcDbVisualStyle
  2
GouraudWithEdges
 70
     3
177
     3
291
     1
 70
    58
 90
        2
176
     1
 90
        2
176
     1
 90
        1
176
     1
 90
        2
176
     1
 40
0.6
176
     1
 40
30.0
176
     1
 62
     7
420
 16777215
176
     1
 90
        1
176
     1
 90
        0
176
     1
 62
     7
176
     1
 62
   257
176
     1
 90
        1
176
     1
 90
        1
176
     1
 40
1.0
176
     1
 90
        0
176
     1
 62
   257
176
     1
 40
1.0
176
     1
 90
        1
176
     1
 90
        6
176
     1
 90
        2
176
     1
 62
     7
176
     1
 90
        5
176
     1
 90
        0
176
     1
 90
        0
176
     1
290
     0
176
     1
 90
       13
176
     1
 40
0.0
176
     1
 90
        0
176
     1
290
     0
176
     1
290
     1
176
     1
290
     1
176
     1
290
     0
176
     1
290
     0
176
     1
290
     0
176
     1
290
     0
176
     1
290
     0
176
     1
290
     0
176
     1
 90
       50
176
     1
 40
0.0
176
     1
 40
1.0
176
     1
 90
        0
176
     1
 62
   178
420
        0
176
     1
 90
       50
176
     1
 90
        3
176
     1
 62
     5
420
      255
176
     1
290
     0
176
     1
 90
       50
176
     1
 90
       50
176
     1
 90
       50
176
     1
290
     0
176
     1
 90
       50
176
     1
 62
   256
176
     0
 40
1.0
176
     0
 90
        2
176
     1
  1
strokes_ogs.tif
176
     1
290
     0
176
     1
 40
1.0
176
     1
 40
1.0
176
     1
  0
VISUALSTYLE
  5
F6E
102
{ACAD_REACTORS
330
F67
102
}
330
F67
100
AcDbVisualStyle
  2
Hidden
 70
     6
177
     3
291
     0
 70
    58
 90
        1
176
     1
 90
        2
176
     1
 90
        2
176
     1
 90
        0
176
     1
 40
0.6
176
     1
 40
30.0
176
     1
 62
     7
420
 16777215
176
     1
 90
        2
176
     1
 90
        2
176
     1
 62
     7
176
     1
 62
   257
176
     1
 90
        2
176
     1
 90
        1
176
     1
 40
40.0
176
     1
 90
        0
176
     1
 62
   257
176
     1
 40
1.0
176
     1
 90
        1
176
     1
 90
        6
176
     1
 90
        2
176
     1
 62
     7
176
     1
 90
        3
176
     1
 90
        0
176
     1
 90
        0
176
     1
290
     0
176
     1
 90
        1
176
     1
 40
0.0
176
     1
 90
        0
176
     1
290
     0
176
     1
290
     1
176
     1
290
     1
176
     1
290
     0
176
     1
290
     0
176
     1
290
     0
176
     1
290
     0
176
     1
290
     0
176
     1
290
     0
176
     1
 90
       50
176
     1
 40
0.0
176
     1
 40
1.0
176
     1
 90
        0
176
     1
 62
   178
420
        0
176
     1
 90
       50
176
     1
 90
        3
176
     1
 62
     5
420
      255
176
     1
290
     0
176
     1
 90
       50
176
     1
 90
       50
176
     1
 90
       50
176
     1
290
     0
176
     1
 90
       50
176
     1
 62
   256
176
     0
 40
1.0
176
     0
 90
        2
176
     1
  1
strokes_ogs.tif
176
     1
290
     0
176
     1
 40
1.0
176
     1
 40
1.0
176
     1
  0
VISUALSTYLE
  5
F78
102
{ACAD_REACTORS
330
F67
102
}
330
F67
100
AcDbVisualStyle
  2
JitterOff
 70
    20
177
     3
291
     1
 70
    58
 90
        2
176
     0
 90
        2
176
     0
 90
        0
176
     0
 90
        0
176
     0
 40
0.6
176
     0
 40
30.0
176
     0
 62
     7
420
 16777215
176
     0
 90
        1
176
     0
 90
        4
176
     0
 62
     7
176
     0
 62
   257
176
     0
 90
        1
176
     0
 90
        1
176
     0
 40
1.0
176
     0
 90
       10
176
     2
 62
     7
176
     0
 40
1.0
176
     0
 90
        1
176
     0
 90
        6
176
     0
 90
        2
176
     0
 62
     7
176
     0
 90
        5
176
     0
 90
        0
176
     0
 90
        0
176
     0
290
     0
176
     0
 90
        1
176
     0
 40
0.0
176
     0
 90
        0
176
     0
290
     0
176
     0
290
     1
176
     0
290
     1
176
     0
290
     0
176
     0
290
     0
176
     0
290
     0
176
     0
290
     0
176
     0
290
     0
176
     0
290
     0
176
     0
 90
       50
176
     0
 40
0.0
176
     0
 40
1.0
176
     0
 90
        0
176
     0
 62
   178
420
        0
176
     0
 90
       50
176
     0
 90
        3
176
     0
 62
     5
420
      255
176
     0
290
     0
176
     0
 90
       50
176
     0
 90
       50
176
     0
 90
       50
176
     0
290
     0
176
     0
 90
       50
176
     0
 62
   256
176
     0
 40
1.0
176
     0
 90
        2
176
     0
  1
strokes_ogs.tif
176
     0
290
     0
176
     0
 40
1.0
176
     0
 40
1.0
176
     0
  0
VISUALSTYLE
  5
F75
102
{ACAD_REACTORS
330
F67
102
}
330
F67
100
AcDbVisualStyle
  2
Linepattern
 70
    14
177
     3
291
     1
 70
    58
 90
        2
176
     1
 90
        2
176
     1
 90
        0
176
     1
 90
        0
176
     1
 40
0.6
176
     1
 40
30.0
176
     1
 62
     7
420
 16777215
176
     1
 90
        1
176
     1
 90
        4
176
     1
 62
     7
176
     1
 62
   257
176
     1
 90
        7
176
     1
 90
        7
176
     1
 40
1.0
176
     1
 90
        8
176
     1
 62
     7
176
     1
 40
1.0
176
     1
 90
        1
176
     1
 90
        6
176
     1
 90
        2
176
     1
 62
     7
176
     1
 90
        5
176
     1
 90
        0
176
     1
 90
        0
176
     1
290
     0
176
     1
 90
        1
176
     1
 40
0.0
176
     1
 90
        0
176
     1
290
     0
176
     1
290
     1
176
     1
290
     1
176
     1
290
     0
176
     1
290
     0
176
     1
290
     0
176
     1
290
     0
176
     1
290
     0
176
     1
290
     0
176
     1
 90
       50
176
     1
 40
0.0
176
     1
 40
1.0
176
     1
 90
        0
176
     1
 62
   178
420
        0
176
     1
 90
       50
176
     1
 90
        3
176
     1
 62
     5
420
      255
176
     1
290
     0
176
     1
 90
       50
176
     1
 90
       50
176
     1
 90
       50
176
     1
290
     0
176
     1
 90
       50
176
     1
 62
   256
176
     0
 40
1.0
176
     0
 90
        2
176
     1
  1
strokes_ogs.tif
176
     1
290
     0
176
     1
 40
1.0
176
     1
 40
1.0
176
     1
  0
VISUALSTYLE
  5
F79
102
{ACAD_REACTORS
330
F67
102
}
330
F67
100
AcDbVisualStyle
  2
OverhangOff
 70
    21
177
     3
291
     1
 70
    58
 90
        2
176
     0
 90
        2
176
     0
 90
        0
176
     0
 90
        0
176
     0
 40
0.6
176
     0
 40
30.0
176
     0
 62
     7
420
 16777215
176
     0
 90
        1
176
     0
 90
        4
176
     0
 62
     7
176
     0
 62
   257
176
     0
 90
        1
176
     0
 90
        1
176
     0
 40
1.0
176
     0
 90
        9
176
     2
 62
     7
176
     0
 40
1.0
176
     0
 90
        1
176
     0
 90
        6
176
     0
 90
        2
176
     0
 62
     7
176
     0
 90
        5
176
     0
 90
        0
176
     0
 90
        0
176
     0
290
     0
176
     0
 90
        1
176
     0
 40
0.0
176
     0
 90
        0
176
     0
290
     0
176
     0
290
     1
176
     0
290
     1
176
     0
290
     0
176
     0
290
     0
176
     0
290
     0
176
     0
290
     0
176
     0
290
     0
176
     0
290
     0
176
     0
 90
       50
176
     0
 40
0.0
176
     0
 40
1.0
176
     0
 90
        0
176
     0
 62
   178
420
        0
176
     0
 90
       50
176
     0
 90
        3
176
     0
 62
     5
420
      255
176
     0
290
     0
176
     0
 90
       50
176
     0
 90
       50
176
     0
 90
       50
176
     0
290
     0
176
     0
 90
       50
176
     0
 62
   256
176
     0
 40
1.0
176
     0
 90
        2
176
     0
  1
strokes_ogs.tif
176
     0
290
     0
176
     0
 40
1.0
176
     0
 40
1.0
176
     0
  0
VISUALSTYLE
  5
F70
102
{ACAD_REACTORS
330
F67
102
}
330
F67
100
AcDbVisualStyle
  2
Realistic
 70
     8
177
     3
291
     0
 70
    58
 90
        2
176
     1
 90
        3
176
     1
 90
        0
176
     1
 90
        2
176
     1
 40
0.6
176
     1
 40
30.0
176
     1
 62
     7
420
 16777215
176
     1
 90
        0
176
     1
 90
        0
176
     1
 62
     7
176
     1
 62
   257
176
     1
 90
        1
176
     1
 90
        1
176
     1
 40
1.0
176
     1
 90
        8
176
     1
 62
   257
176
     1
 40
1.0
176
     1
 90
        1
176
     1
 90
        6
176
     1
 90
        2
176
     1
 62
     7
176
     1
 90
        3
176
     1
 90
        0
176
     1
 90
        0
176
     1
290
     0
176
     1
 90
       13
176
     1
 40
0.0
176
     1
 90
        0
176
     1
290
     0
176
     1
290
     1
176
     1
290
     1
176
     1
290
     0
176
     1
290
     0
176
     1
290
     0
176
     1
290
     0
176
     1
290
     0
176
     1
290
     0
176
     1
 90
       50
176
     1
 40
0.0
176
     1
 40
1.0
176
     1
 90
        0
176
     1
 62
   178
420
        0
176
     1
 90
       50
176
     1
 90
        3
176
     1
 62
     5
420
      255
176
     1
290
     0
176
     1
 90
       50
176
     1
 90
       50
176
     1
 90
       50
176
     1
290
     0
176
     1
 90
       50
176
     1
 62
   256
176
     0
 40
1.0
176
     0
 90
        2
176
     1
  1
strokes_ogs.tif
176
     1
290
     0
176
     1
 40
1.0
176
     1
 40
1.0
176
     1
  0
VISUALSTYLE
  5
F7F
102
{ACAD_REACTORS
330
F67
102
}
330
F67
100
AcDbVisualStyle
  2
Shaded
 70
    27
177
     3
291
     0
 70
    58
 90
        2
176
     1
 90
        2
176
     1
 90
        1
176
     1
 90
        2
176
     1
 40
0.6
176
     1
 40
30.0
176
     1
 62
     7
420
 16777215
176
     1
 90
        0
176
     1
 90
        4
176
     1
 62
     7
176
     1
 62
   257
176
     1
 90
        1
176
     1
 90
        1
176
     1
 40
1.0
176
     1
 90
        8
176
     1
 62
   257
176
     1
 40
1.0
176
     1
 90
        1
176
     1
 90
        6
176
     1
 90
        2
176
     1
 62
     8
420
  7895160
176
     1
 90
        3
176
     1
 90
        0
176
     1
 90
        0
176
     1
290
     0
176
     1
 90
        5
176
     1
 40
0.0
176
     1
 90
        0
176
     1
290
     0
176
     1
290
     1
176
     1
290
     1
176
     1
290
     0
176
     1
290
     0
176
     1
290
     0
176
     1
290
     0
176
     1
290
     0
176
     1
290
     0
176
     1
 90
       50
176
     1
 40
0.0
176
     1
 40
1.0
176
     1
 90
        0
176
     1
 62
   178
420
        0
176
     1
 90
       50
176
     1
 90
        3
176
     1
 62
     5
420
      255
176
     1
290
     0
176
     1
 90
       50
176
     1
 90
       50
176
     1
 90
       50
176
     1
290
     0
176
     1
 90
       50
176
     1
 62
   256
176
     0
 40
1.0
176
     0
 90
        2
176
     1
  1
strokes_ogs.tif
176
     1
290
     0
176
     1
 40
1.0
176
     1
 40
1.0
176
     1
  0
VISUALSTYLE
  5
F7E
102
{ACAD_REACTORS
330
F67
102
}
330
F67
100
AcDbVisualStyle
  2
Shaded with edges
 70
    26
177
     3
291
     0
 70
    58
 90
        2
176
     1
 90
        2
176
     1
 90
        1
176
     1
 90
        2
176
     1
 40
0.6
176
     1
 40
30.0
176
     1
 62
     7
420
 16777215
176
     1
 90
        1
176
     1
 90
       10
176
     1
 62
     7
176
     1
 62
   257
176
     1
 90
        2
176
     1
 90
        1
176
     1
 40
1.0
176
     1
 90
        8
176
     1
 62
   257
176
     1
 40
1.0
176
     1
 90
        1
176
     1
 90
        6
176
     1
 90
        2
176
     1
 62
     7
176
     1
 90
        3
176
     1
 90
        0
176
     1
 90
        0
176
     1
290
     0
176
     1
 90
        5
176
     1
 40
0.0
176
     1
 90
        0
176
     1
290
     0
176
     1
290
     1
176
     1
290
     1
176
     1
290
     0
176
     1
290
     0
176
     1
290
     0
176
     1
290
     0
176
     1
290
     0
176
     1
290
     0
176
     1
 90
       50
176
     1
 40
0.0
176
     1
 40
1.0
176
     1
 90
        0
176
     1
 62
   178
420
        0
176
     1
 90
       50
176
     1
 90
        3
176
     1
 62
     5
420
      255
176
     1
290
     0
176
     1
 90
       50
176
     1
 90
       50
176
     1
 90
       50
176
     1
290
     0
176
     1
 90
       50
176
     1
 62
   256
176
     0
 40
1.0
176
     0
 90
        2
176
     1
  1
strokes_ogs.tif
176
     1
290
     0
176
     1
 40
1.0
176
     1
 40
1.0
176
     1
  0
VISUALSTYLE
  5
F7B
102
{ACAD_REACTORS
330
F67
102
}
330
F67
100
AcDbVisualStyle
  2
Shades of Gray
 70
    23
177
     3
291
     0
 70
    58
 90
        2
176
     1
 90
        2
176
     1
 90
        3
176
     1
 90
        0
176
     1
 40
0.6
176
     1
 40
30.0
176
     1
 62
     7
420
 16777215
176
     1
 90
        2
176
     1
 90
        2
176
     1
 62
     7
176
     1
 62
     7
176
     1
 90
        1
176
     1
 90
        1
176
     1
 40
40.0
176
     1
 90
        8
176
     1
 62
     7
176
     1
 40
1.0
176
     1
 90
        1
176
     1
 90
        6
176
     1
 90
        2
176
     1
 62
     7
176
     1
 90
        3
176
     1
 90
        0
176
     1
 90
        0
176
     1
290
     0
176
     1
 90
        1
176
     1
 40
0.0
176
     1
 90
        0
176
     1
290
     0
176
     1
290
     1
176
     1
290
     1
176
     1
290
     0
176
     1
290
     0
176
     1
290
     0
176
     1
290
     0
176
     1
290
     0
176
     1
290
     0
176
     1
 90
       50
176
     1
 40
0.0
176
     1
 40
1.0
176
     1
 90
        0
176
     1
 62
   178
420
        0
176
     1
 90
       50
176
     1
 90
        3
176
     1
 62
     5
420
      255
176
     1
290
     0
176
     1
 90
       50
176
     1
 90
       50
176
     1
 90
       50
176
     1
290
     0
176
     1
 90
       50
176
     1
 62
   256
176
     0
 40
1.0
176
     0
 90
        2
176
     1
  1
strokes_ogs.tif
176
     1
290
     0
176
     1
 40
1.0
176
     1
 40
1.0
176
     1
  0
VISUALSTYLE
  5
F7C
102
{ACAD_REACTORS
330
F67
102
}
330
F67
100
AcDbVisualStyle
  2
Sketchy
 70
    24
177
     3
291
     0
 70
    58
 90
        1
176
     1
 90
        2
176
     1
 90
        2
176
     1
 90
        0
176
     1
 40
0.6
176
     1
 40
30.0
176
     1
 62
     7
420
 16777215
176
     1
 90
        2
176
     1
 90
        2
176
     1
 62
     7
176
     1
 62
     7
176
     1
 90
        1
176
     1
 90
        1
176
     1
 40
40.0
176
     1
 90
       11
176
     1
 62
     7
176
     1
 40
1.0
176
     1
 90
        1
176
     1
 90
        6
176
     1
 90
        2
176
     1
 62
     7
176
     1
 90
        6
176
     1
 90
        0
176
     1
 90
        0
176
     1
290
     0
176
     1
 90
        1
176
     1
 40
0.0
176
     1
 90
        0
176
     1
290
     0
176
     1
290
     1
176
     1
290
     1
176
     1
290
     0
176
     1
290
     0
176
     1
290
     0
176
     1
290
     0
176
     1
290
     0
176
     1
290
     0
176
     1
 90
       50
176
     1
 40
0.0
176
     1
 40
1.0
176
     1
 90
        0
176
     1
 62
   178
420
        0
176
     1
 90
       50
176
     1
 90
        3
176
     1
 62
     5
420
      255
176
     1
290
     0
176
     1
 90
       50
176
     1
 90
       50
176
     1
 90
       50
176
     1
290
     0
176
     1
 90
       50
176
     1
 62
   256
176
     0
 40
1.0
176
     0
 90
        2
176
     1
  1
strokes_ogs.tif
176
     1
290
     0
176
     1
 40
1.0
176
     1
 40
1.0
176
     1
  0
VISUALSTYLE
  5
F74
102
{ACAD_REACTORS
330
F67
102
}
330
F67
100
AcDbVisualStyle
  2
Thicken
 70
    13
177
     3
291
     1
 70
    58
 90
        2
176
     1
 90
        2
176
     1
 90
        0
176
     1
 90
        0
176
     1
 40
0.6
176
     1
 40
30.0
176
     1
 62
     7
420
 16777215
176
     1
 90
        1
176
     1
 90
        4
176
     1
 62
     7
176
     1
 62
   257
176
     1
 90
        1
176
     1
 90
        1
176
     1
 40
1.0
176
     1
 90
       12
176
     1
 62
     7
176
     1
 40
1.0
176
     1
 90
        1
176
     1
 90
        6
176
     1
 90
        2
176
     1
 62
     7
176
     1
 90
        5
176
     1
 90
        0
176
     1
 90
        0
176
     1
290
     0
176
     1
 90
        1
176
     1
 40
0.0
176
     1
 90
        0
176
     1
290
     0
176
     1
290
     1
176
     1
290
     1
176
     1
290
     0
176
     1
290
     0
176
     1
290
     0
176
     1
290
     0
176
     1
290
     0
176
     1
290
     0
176
     1
 90
       50
176
     1
 40
0.0
176
     1
 40
1.0
176
     1
 90
        0
176
     1
 62
   178
420
        0
176
     1
 90
       50
176
     1
 90
        3
176
     1
 62
     5
420
      255
176
     1
290
     0
176
     1
 90
       50
176
     1
 90
       50
176
     1
 90
       50
176
     1
290
     0
176
     1
 90
       50
176
     1
 62
   256
176
     0
 40
1.0
176
     0
 90
        2
176
     1
  1
strokes_ogs.tif
176
     1
290
     0
176
     1
 40
1.0
176
     1
 40
1.0
176
     1
  0
VISUALSTYLE
  5
F6D
102
{ACAD_REACTORS
330
F67
102
}
330
F67
100
AcDbVisualStyle
  2
Wireframe
 70
     5
177
     3
291
     0
 70
    58
 90
        0
176
     1
 90
        2
176
     1
 90
        0
176
     1
 90
        0
176
     1
 40
0.6
176
     1
 40
30.0
176
     1
 62
     7
420
 16777215
176
     1
 90
        1
176
     1
 90
        4
176
     1
 62
     7
176
     1
 62
   257
176
     1
 90
        1
176
     1
 90
        1
176
     1
 40
1.0
176
     1
 90
        0
176
     1
 62
   257
176
     1
 40
1.0
176
     1
 90
        1
176
     1
 90
        6
176
     1
 90
        2
176
     1
 62
     7
176
     1
 90
        3
176
     1
 90
        0
176
     1
 90
        0
176
     1
290
     0
176
     1
 90
        1
176
     1
 40
0.0
176
     1
 90
        0
176
     1
290
     0
176
     1
290
     1
176
     1
290
     1
176
     1
290
     0
176
     1
290
     0
176
     1
290
     0
176
     1
290
     0
176
     1
290
     0
176
     1
290
     0
176
     1
 90
       50
176
     1
 40
0.0
176
     1
 40
1.0
176
     1
 90
        0
176
     1
 62
   178
420
        0
176
     1
 90
       50
176
     1
 90
        3
176
     1
 62
     5
420
      255
176
     1
290
     0
176
     1
 90
       50
176
     1
 90
       50
176
     1
 90
       50
176
     1
290
     0
176
     1
 90
       50
176
     1
 62
   256
176
     0
 40
1.0
176
     0
 90
        2
176
     1
  1
strokes_ogs.tif
176
     1
290
     0
176
     1
 40
1.0
176
     1
 40
1.0
176
     1
  0
VISUALSTYLE
  5
F7D
102
{ACAD_REACTORS
330
F67
102
}
330
F67
100
AcDbVisualStyle
  2
X-Ray
 70
    25
177
     3
291
     0
 70
    58
 90
        2
176
     1
 90
        2
176
     1
 90
        1
176
     1
 90
        1
176
     1
 40
0.5
176
     1
 40
30.0
176
     1
 62
     7
420
 16777215
176
     1
 90
        1
176
     1
 90
        0
176
     1
 62
     7
176
     1
 62
   257
176
     1
 90
        1
176
     1
 90
        1
176
     1
 40
1.0
176
     1
 90
        8
176
     1
 62
     7
176
     1
 40
1.0
176
     1
 90
        1
176
     1
 90
        6
176
     1
 90
        2
176
     1
 62
     7
176
     1
 90
        3
176
     1
 90
        0
176
     1
 90
        0
176
     1
290
     0
176
     1
 90
       13
176
     1
 40
0.0
176
     1
 90
        0
176
     1
290
     0
176
     1
290
     1
176
     1
290
     1
176
     1
290
     0
176
     1
290
     0
176
     1
290
     0
176
     1
290
     0
176
     1
290
     0
176
     1
290
     0
176
     1
 90
       50
176
     1
 40
0.0
176
     1
 40
1.0
176
     1
 90
        0
176
     1
 62
   178
420
        0
176
     1
 90
       50
176
     1
 90
        3
176
     1
 62
     5
420
      255
176
     1
290
     0
176
     1
 90
       50
176
     1
 90
       50
176
     1
 90
       50
176
     1
290
     0
176
     1
 90
       50
176
     1
 62
   256
176
     0
 40
1.0
176
     0
 90
        2
176
     1
  1
strokes_ogs.tif
176
     1
290
     0
176
     1
 40
1.0
176
     1
 40
1.0
176
     1
  0
DICTIONARYVAR
  5
102E
102
{ACAD_REACTORS
330
102D
102
}
330
102D
100
DictionaryVariables
280
     0
  1
1:1
  0
DICTIONARYVAR
  5
1033
102
{ACAD_REACTORS
330
102D
102
}
330
102D
100
DictionaryVariables
280
     0
  1
Standard
  0
DICTIONARYVAR
  5
1032
102
{ACAD_REACTORS
330
102D
102
}
330
102D
100
DictionaryVariables
280
     0
  1
Standard
  0
XRECORD
  5
FAE
102
{ACAD_REACTORS
330
FAC
102
}
330
FAC
100
AcDbXrecord
280
     1
1000
#ffffff
  0
XRECORD
  5
FAF
102
{ACAD_REACTORS
330
FAC
102
}
330
FAC
100
AcDbXrecord
280
     1
1000
FullColor
  0
XRECORD
  5
FB0
102
{ACAD_REACTORS
330
FAC
102
}
330
FAC
100
AcDbXrecord
280
     1
 90
        0
  0
XRECORD
  5
FB1
102
{ACAD_REACTORS
330
FAC
102
}
330
FAC
100
AcDbXrecord
280
     1
 90
        0
  0
XRECORD
  5
FB2
102
{ACAD_REACTORS
330
FAC
102
}
330
FAC
100
AcDbXrecord
280
     1
1000
Standard
  0
XRECORD
  5
FB3
102
{ACAD_REACTORS
330
FAC
102
}
330
FAC
100
AcDbXrecord
280
     1
290
     1
  0
XRECORD
  5
FB4
102
{ACAD_REACTORS
330
FAC
102
}
330
FAC
100
AcDbXrecord
280
     1
 90
        2
  0
XRECORD
  5
FB5
102
{ACAD_REACTORS
330
FAC
102
}
330
FAC
100
AcDbXrecord
280
     1
 90
        4
  0
XRECORD
  5
FB6
102
{ACAD_REACTORS
330
FAC
102
}
330
FAC
100
AcDbXrecord
280
     1
290
     1
  0
XRECORD
  5
FB7
102
{ACAD_REACTORS
330
FAC
102
}
330
FAC
100
AcDbXrecord
280
     1
290
     1
  0
XRECORD
  5
FB8
102
{ACAD_REACTORS
330
FAC
102
}
330
FAC
100
AcDbXrecord
280
     1
290
     1
  0
XRECORD
  5
FB9
102
{ACAD_REACTORS
330
FAC
102
}
330
FAC
100
AcDbXrecord
280
     1
290
     1
  0
XRECORD
  5
FBA
102
{ACAD_REACTORS
330
FAC
102
}
330
FAC
100
AcDbXrecord
280
     1
1000
auto
  0
XRECORD
  5
FBB
102
{ACAD_REACTORS
330
FAC
102
}
330
FAC
100
AcDbXrecord
280
     1
1000
auto
  0
XRECORD
  5
FBC
102
{ACAD_REACTORS
330
FAC
102
}
330
FAC
100
AcDbXrecord
280
     1
1000
auto
  0
XRECORD
  5
FBD
102
{ACAD_REACTORS
330
FAC
102
}
330
FAC
100
AcDbXrecord
280
     1
1000
auto
  0
XRECORD
  5
FBE
102
{ACAD_REACTORS
330
FAC
102
}
330
FAC
100
AcDbXrecord
280
     1
1000
auto
  0
XRECORD
  5
FBF
102
{ACAD_REACTORS
330
FAC
102
}
330
FAC
100
AcDbXrecord
280
     1
1000
auto
  0
XRECORD
  5
FC0
102
{ACAD_REACTORS
330
FAC
102
}
330
FAC
100
AcDbXrecord
280
     1
1000
auto
  0
XRECORD
  5
FC1
102
{ACAD_REACTORS
330
FAC
102
}
330
FAC
100
AcDbXrecord
280
     1
1000
auto
  0
XRECORD
  5
FC2
102
{ACAD_REACTORS
330
FAC
102
}
330
FAC
100
AcDbXrecord
280
     1
290
     0
  0
XRECORD
  5
FC3
102
{ACAD_REACTORS
330
FAC
102
}
330
FAC
100
AcDbXrecord
280
     1
290
     0
  0
XRECORD
  5
FC4
102
{ACAD_REACTORS
330
FAC
102
}
330
FAC
100
AcDbXrecord
280
     1
290
     0
  0
XRECORD
  5
FC5
102
{ACAD_REACTORS
330
FAC
102
}
330
FAC
100
AcDbXrecord
280
     1
290
     0
  0
XRECORD
  5
FC6
102
{ACAD_REACTORS
330
FAC
102
}
330
FAC
100
AcDbXrecord
280
     1
 90
        0
  0
XRECORD
  5
FC7
102
{ACAD_REACTORS
330
FAC
102
}
330
FAC
100
AcDbXrecord
280
     1
 90
        0
  0
XRECORD
  5
FC8
102
{ACAD_REACTORS
330
FAC
102
}
330
FAC
100
AcDbXrecord
280
     1
 90
        0
  0
XRECORD
  5
FC9
102
{ACAD_REACTORS
330
FAC
102
}
330
FAC
100
AcDbXrecord
280
     1
 90
        0
  0
XRECORD
  5
FCA
102
{ACAD_REACTORS
330
FAC
102
}
330
FAC
100
AcDbXrecord
280
     1
1000
auto
  0
XRECORD
  5
FCB
102
{ACAD_REACTORS
330
FAC
102
}
330
FAC
100
AcDbXrecord
280
     1
1000
auto
  0
XRECORD
  5
FCC
102
{ACAD_REACTORS
330
FAC
102
}
330
FAC
100
AcDbXrecord
280
     1
1000
auto
  0
XRECORD
  5
FCD
102
{ACAD_REACTORS
330
FAC
102
}
330
FAC
100
AcDbXrecord
280
     1
1000
auto
  0
XRECORD
  5
FCE
102
{ACAD_REACTORS
330
FAC
102
}
330
FAC
100
AcDbXrecord
280
     1
1000
auto
  0
XRECORD
  5
FCF
102
{ACAD_REACTORS
330
FAC
102
}
330
FAC
100
AcDbXrecord
280
     1
1000
auto
  0
XRECORD
  5
FD0
102
{ACAD_REACTORS
330
FAC
102
}
330
FAC
100
AcDbXrecord
280
     1
1000
auto
  0
XRECORD
  5
FD1
102
{ACAD_REACTORS
330
FAC
102
}
330
FAC
100
AcDbXrecord
280
     1
1000
auto
  0
XRECORD
  5
FD2
102
{ACAD_REACTORS
330
FAC
102
}
330
FAC
100
AcDbXrecord
280
     1
 90
        1
  0
XRECORD
  5
FD3
102
{ACAD_REACTORS
330
FAC
102
}
330
FAC
100
AcDbXrecord
280
     1
 40
10.0
  0
XRECORD
  5
FD4
102
{ACAD_REACTORS
330
FAC
102
}
330
FAC
100
AcDbXrecord
280
     1
 40
10.0
  0
XRECORD
  5
FD5
102
{ACAD_REACTORS
330
FAC
102
}
330
FAC
100
AcDbXrecord
280
     1
 40
10.0
  0
XRECORD
  5
FD6
102
{ACAD_REACTORS
330
FAC
102
}
330
FAC
100
AcDbXrecord
280
     1
 40
10.0
  0
XRECORD
  5
FD7
102
{ACAD_REACTORS
330
FAC
102
}
330
FAC
100
AcDbXrecord
280
     1
290
     0
  0
XRECORD
  5
FD8
102
{ACAD_REACTORS
330
FAC
102
}
330
FAC
100
AcDbXrecord
280
     1
 90
        1
  0
XRECORD
  5
FD9
102
{ACAD_REACTORS
330
FAC
102
}
330
FAC
100
AcDbXrecord
280
     1
 40
-0.9999999999999964
  0
XRECORD
  5
FDA
102
{ACAD_REACTORS
330
FAC
102
}
330
FAC
100
AcDbXrecord
280
     1
 40
-1.850000000000001
  0
XRECORD
  5
FDB
102
{ACAD_REACTORS
330
FAC
102
}
330
FAC
100
AcDbXrecord
280
     1
1000
Landscape
  0
XRECORD
  5
FDC
102
{ACAD_REACTORS
330
FAC
102
}
330
FAC
100
AcDbXrecord
280
     1
 40
420.0
  0
XRECORD
  5
FDD
102
{ACAD_REACTORS
330
FAC
102
}
330
FAC
100
AcDbXrecord
280
     1
 40
297.0
  0
XRECORD
  5
FDE
102
{ACAD_REACTORS
330
FAC
102
}
330
FAC
100
AcDbXrecord
280
     1
1000
0.009999999999999997
  0
XRECORD
  5
FDF
102
{ACAD_REACTORS
330
FAC
102
}
330
FAC
100
AcDbXrecord
280
     1
290
     1
  0
XRECORD
  5
FE0
102
{ACAD_REACTORS
330
FAC
102
}
330
FAC
100
AcDbXrecord
280
     1
1000
3.15.5
  0
XRECORD
  5
FE1
102
{ACAD_REACTORS
330
FAC
102
}
330
FAC
100
AcDbXrecord
280
     1
 90
        4
  0
XRECORD
  5
FE2
102
{ACAD_REACTORS
330
FAC
102
}
330
FAC
100
AcDbXrecord
280
     1
  0
XRECORD
  5
FE3
102
{ACAD_REACTORS
330
FAC
102
}
330
FAC
100
AcDbXrecord
280
     1
 40
31.87102473498233
  0
XRECORD
  5
FE4
102
{ACAD_REACTORS
330
FAC
102
}
330
FAC
100
AcDbXrecord
280
     1
 40
42.74204946996466
  0
DICTIONARY
  5
102F
330
FA7
100
AcDbDictionary
280
     1
281
     1
  3
ACAD_ROUNDTRIP_2008_TABLESTYLE_CELLSTYLEMAP
360
1030
  0
CELLSTYLEMAP
  5
1030
102
{ACAD_REACTORS
330
102F
102
}
330
102F
100
AcDbCellStyleMap
 90
        3
300
CELLSTYLE
  1
TABLEFORMAT_BEGIN
 90
        5
170
     1
 91
        0
 92
    32768
 62
   257
 93
        1
300
CONTENTFORMAT
  1
CONTENTFORMAT_BEGIN
 90
        0
 91
        0
 92
        4
 93
        0
300

 40
0.0
140
1.0
 94
        5
 62
     0
340
F4F
144
0.25
309
CONTENTFORMAT_END
171
     1
301
MARGIN
  1
CELLMARGIN_BEGIN
 40
0.06
 40
0.06
 40
0.06
 40
0.06
 40
0.06
 40
0.06
309
CELLMARGIN_END
 94
        6
 95
        1
302
GRIDFORMAT
  1
GRIDFORMAT_BEGIN
 90
        0
 91
        1
 62
     0
 92
       -2
340
F51
 93
        0
 40
0.045
309
GRIDFORMAT_END
 95
        2
302
GRIDFORMAT
  1
GRIDFORMAT_BEGIN
 90
        0
 91
        1
 62
     0
 92
       -2
340
F51
 93
        0
 40
0.045
309
GRIDFORMAT_END
 95
        4
302
GRIDFORMAT
  1
GRIDFORMAT_BEGIN
 90
        0
 91
        1
 62
     0
 92
       -2
340
F51
 93
        0
 40
0.045
309
GRIDFORMAT_END
 95
        8
302
GRIDFORMAT
  1
GRIDFORMAT_BEGIN
 90
        0
 91
        1
 62
     0
 92
       -2
340
F51
 93
        0
 40
0.045
309
GRIDFORMAT_END
 95
       16
302
GRIDFORMAT
  1
GRIDFORMAT_BEGIN
 90
        0
 91
        1
 62
     0
 92
       -2
340
F51
 93
        0
 40
0.045
309
GRIDFORMAT_END
 95
       32
302
GRIDFORMAT
  1
GRIDFORMAT_BEGIN
 90
        0
 91
        1
 62
     0
 92
       -2
340
F51
 93
        0
 40
0.045
309
GRIDFORMAT_END
309
TABLEFORMAT_END
  1
CELLSTYLE_BEGIN
 90
        1
 91
        1
300
_TITLE
309
CELLSTYLE_END
300
CELLSTYLE
  1
TABLEFORMAT_BEGIN
 90
        5
170
     1
 91
        0
 92
        0
 62
   257
 93
        1
300
CONTENTFORMAT
  1
CONTENTFORMAT_BEGIN
 90
        0
 91
        0
 92
        4
 93
        0
300

 40
0.0
140
1.0
 94
        5
 62
     0
340
F4F
144
0.18
309
CONTENTFORMAT_END
171
     1
301
MARGIN
  1
CELLMARGIN_BEGIN
 40
0.06
 40
0.06
 40
0.06
 40
0.06
 40
0.06
 40
0.06
309
CELLMARGIN_END
 94
        6
 95
        1
302
GRIDFORMAT
  1
GRIDFORMAT_BEGIN
 90
        0
 91
        1
 62
     0
 92
       -2
340
F51
 93
        0
 40
0.045
309
GRIDFORMAT_END
 95
        2
302
GRIDFORMAT
  1
GRIDFORMAT_BEGIN
 90
        0
 91
        1
 62
     0
 92
       -2
340
F51
 93
        0
 40
0.045
309
GRIDFORMAT_END
 95
        4
302
GRIDFORMAT
  1
GRIDFORMAT_BEGIN
 90
        0
 91
        1
 62
     0
 92
       -2
340
F51
 93
        0
 40
0.045
309
GRIDFORMAT_END
 95
        8
302
GRIDFORMAT
  1
GRIDFORMAT_BEGIN
 90
        0
 91
        1
 62
     0
 92
       -2
340
F51
 93
        0
 40
0.045
309
GRIDFORMAT_END
 95
       16
302
GRIDFORMAT
  1
GRIDFORMAT_BEGIN
 90
        0
 91
        1
 62
     0
 92
       -2
340
F51
 93
        0
 40
0.045
309
GRIDFORMAT_END
 95
       32
302
GRIDFORMAT
  1
GRIDFORMAT_BEGIN
 90
        0
 91
        1
 62
     0
 92
       -2
340
F51
 93
        0
 40
0.045
309
GRIDFORMAT_END
309
TABLEFORMAT_END
  1
CELLSTYLE_BEGIN
 90
        2
 91
        1
300
_HEADER
309
CELLSTYLE_END
300
CELLSTYLE
  1
TABLEFORMAT_BEGIN
 90
        5
170
     1
 91
        0
 92
        0
 62
   257
 93
        1
300
CONTENTFORMAT
  1
CONTENTFORMAT_BEGIN
 90
        0
 91
        0
 92
        4
 93
        0
300

 40
0.0
140
1.0
 94
        2
 62
     0
340
F4F
144
0.18
309
CONTENTFORMAT_END
171
     1
301
MARGIN
  1
CELLMARGIN_BEGIN
 40
0.06
 40
0.06
 40
0.06
 40
0.06
 40
0.06
 40
0.06
309
CELLMARGIN_END
 94
        6
 95
        1
302
GRIDFORMAT
  1
GRIDFORMAT_BEGIN
 90
        0
 91
        1
 62
     0
 92
       -2
340
F51
 93
        0
 40
0.045
309
GRIDFORMAT_END
 95
        2
302
GRIDFORMAT
  1
GRIDFORMAT_BEGIN
 90
        0
 91
        1
 62
     0
 92
       -2
340
F51
 93
        0
 40
0.045
309
GRIDFORMAT_END
 95
        4
302
GRIDFORMAT
  1
GRIDFORMAT_BEGIN
 90
        0
 91
        1
 62
     0
 92
       -2
340
F51
 93
        0
 40
0.045
309
GRIDFORMAT_END
 95
        8
302
GRIDFORMAT
  1
GRIDFORMAT_BEGIN
 90
        0
 91
        1
 62
     0
 92
       -2
340
F51
 93
        0
 40
0.045
309
GRIDFORMAT_END
 95
       16
302
GRIDFORMAT
  1
GRIDFORMAT_BEGIN
 90
        0
 91
        1
 62
     0
 92
       -2
340
F51
 93
        0
 40
0.045
309
GRIDFORMAT_END
 95
       32
302
GRIDFORMAT
  1
GRIDFORMAT_BEGIN
 90
        0
 91
        1
 62
     0
 92
       -2
340
F51
 93
        0
 40
0.045
309
GRIDFORMAT_END
309
TABLEFORMAT_END
  1
CELLSTYLE_BEGIN
 90
        3
 91
        2
300
_DATA
309
CELLSTYLE_END
  0
ENDSEC
  0
EOF
