  0
SECTION
  2
HEADER
  9
$ACADVER
  1
AC1027
  9
$ACADMAINTVER
 70
     8
  9
$DWGCODEPAGE
  3
ANSI_1252
  9
$REQUIREDVERSIONS
160
                 0
  9
$INSBASE
 10
0.0
 20
0.0
 30
0.0
  9
$EXTMIN
 10
1.000000000000000E+20
 20
1.000000000000000E+20
 30
1.000000000000000E+20
  9
$EXTMAX
 10
-1.000000000000000E+20
 20
-1.000000000000000E+20
 30
-1.000000000000000E+20
  9
$LIMMIN
 10
0.0
 20
0.0
  9
$LIMMAX
 10
12.0
 20
9.0
  9
$ORTHOMODE
 70
     0
  9
$REGENMODE
 70
     1
  9
$FILLMODE
 70
     1
  9
$QTEXTMODE
 70
     0
  9
$MIRRTEXT
 70
     1
  9
$LTSCALE
 40
1.0
  9
$ATTMODE
 70
     1
  9
$TEXTSIZE
 40
0.2
  9
$TRACEWID
 40
0.05
  9
$TEXTSTYLE
  7
Standard
  9
$CLAYER
  8
0
  9
$CELTYPE
  6
ByLayer
  9
$CECOLOR
 62
   178
  9
$CELTSCALE
 40
1.0
  9
$DISPSILH
 70
     0
  9
$DIMSCALE
 40
1.0
  9
$DIMASZ
 40
0.3
  9
$DIMEXO
 40
0.075
  9
$DIMDLI
 40
0.38
  9
$DIMRND
 40
0.0
  9
$DIMDLE
 40
0.0
  9
$DIMEXE
 40
0.15
  9
$DIMTP
 40
0.0
  9
$DIMTM
 40
0.0
  9
$DIMTXT
 40
0.3
  9
$DIMCEN
 40
0.09
  9
$DIMTSZ
 40
0.0
  9
$DIMTOL
 70
     0
  9
$DIMLIM
 70
     0
  9
$DIMTIH
 70
     1
  9
$DIMTOH
 70
     1
  9
$DIMSE1
 70
     0
  9
$DIMSE2
 70
     0
  9
$DIMTAD
 70
     0
  9
$DIMZIN
 70
     8
  9
$DIMBLK
  1

  9
$DIMASO
 70
     1
  9
$DIMSHO
 70
     1
  9
$DIMPOST
  1

  9
$DIMAPOST
  1

  9
$DIMALT
 70
     0
  9
$DIMALTD
 70
     2
  9
$DIMALTF
 40
25.4
  9
$DIMLFAC
 40
1.0
  9
$DIMTOFL
 70
     0
  9
$DIMTVP
 40
0.0
  9
$DIMTIX
 70
     0
  9
$DIMSOXD
 70
     0
  9
$DIMSAH
 70
     0
  9
$DIMBLK1
  1

  9
$DIMBLK2
  1

  9
$DIMSTYLE
  2
Standard
  9
$DIMCLRD
 70
   178
  9
$DIMCLRE
 70
   178
  9
$DIMCLRT
 70
   178
  9
$DIMTFAC
 40
1.0
  9
$DIMGAP
 40
0.075
  9
$DIMJUST
 70
     0
  9
$DIMSD1
 70
     0
  9
$DIMSD2
 70
     0
  9
$DIMTOLJ
 70
     1
  9
$DIMTZIN
 70
     0
  9
$DIMALTZ
 70
     0
  9
$DIMALTTZ
 70
     0
  9
$DIMUPT
 70
     0
  9
$DIMDEC
 70
     4
  9
$DIMTDEC
 70
     4
  9
$DIMALTU
 70
     2
  9
$DIMALTTD
 70
     2
  9
$DIMTXSTY
  7
Standard
  9
$DIMAUNIT
 70
     0
  9
$DIMADEC
 70
     0
  9
$DIMALTRND
 40
0.0
  9
$DIMAZIN
 70
     2
  9
$DIMDSEP
 70
    46
  9
$DIMATFIT
 70
     3
  9
$DIMFRAC
 70
     0
  9
$DIMLDRBLK
  1

  9
$DIMLUNIT
 70
     2
  9
$DIMLWD
 70
    -2
  9
$DIMLWE
 70
    -2
  9
$DIMTMOVE
 70
     0
  9
$DIMFXL
 40
1.0
  9
$DIMFXLON
 70
     0
  9
$DIMJOGANG
 40
0.7853981633974483
  9
$DIMTFILL
 70
     0
  9
$DIMTFILLCLR
 70
     0
  9
$DIMARCSYM
 70
     0
  9
$DIMLTYPE
  6

  9
$DIMLTEX1
  6

  9
$DIMLTEX2
  6

  9
$DIMTXTDIRECTION
 70
     0
  9
$LUNITS
 70
     2
  9
$LUPREC
 70
     4
  9
$SKETCHINC
 40
0.1
  9
$FILLETRAD
 40
0.5
  9
$AUNITS
 70
     0
  9
$AUPREC
 70
     0
  9
$MENU
  1
.
  9
$ELEVATION
 40
0.0
  9
$PELEVATION
 40
0.0
  9
$THICKNESS
 40
0.0
  9
$LIMCHECK
 70
     0
  9
$CHAMFERA
 40
0.0
  9
$CHAMFERB
 40
0.0
  9
$CHAMFERC
 40
0.0
  9
$CHAMFERD
 40
0.0
  9
$SKPOLY
 70
     0
  9
$TDCREATE
 40
2457903.301979166
  9
$TDUCREATE
 40
2457903.2603125
  9
$TDUPDATE
 40
2457903.301979166
  9
$TDUUPDATE
 40
2457903.2603125
  9
$TDINDWG
 40
0.0000000116
  9
$TDUSRTIMER
 40
0.0000000116
  9
$USRTIMER
 70
     1
  9
$ANGBASE
 50
0.0
  9
$ANGDIR
 70
     0
  9
$PDMODE
 70
     0
  9
$PDSIZE
 40
0.0
  9
$PLINEWID
 40
0.0
  9
$SPLFRAME
 70
     0
  9
$SPLINETYPE
 70
     6
  9
$SPLINESEGS
 70
     8
  9
$HANDSEED
  5
125B
  9
$SURFTAB1
 70
     6
  9
$SURFTAB2
 70
     6
  9
$SURFTYPE
 70
     6
  9
$SURFU
 70
     6
  9
$SURFV
 70
     6
  9
$UCSBASE
  2

  9
$UCSNAME
  2

  9
$UCSORG
 10
0.0
 20
0.0
 30
0.0
  9
$UCSXDIR
 10
1.0
 20
0.0
 30
0.0
  9
$UCSYDIR
 10
0.0
 20
1.0
 30
0.0
  9
$UCSORTHOREF
  2

  9
$UCSORTHOVIEW
 70
     0
  9
$UCSORGTOP
 10
0.0
 20
0.0
 30
0.0
  9
$UCSORGBOTTOM
 10
0.0
 20
0.0
 30
0.0
  9
$UCSORGLEFT
 10
0.0
 20
0.0
 30
0.0
  9
$UCSORGRIGHT
 10
0.0
 20
0.0
 30
0.0
  9
$UCSORGFRONT
 10
0.0
 20
0.0
 30
0.0
  9
$UCSORGBACK
 10
0.0
 20
0.0
 30
0.0
  9
$PUCSBASE
  2

  9
$PUCSNAME
  2

  9
$PUCSORG
 10
0.0
 20
0.0
 30
0.0
  9
$PUCSXDIR
 10
1.0
 20
0.0
 30
0.0
  9
$PUCSYDIR
 10
0.0
 20
1.0
 30
0.0
  9
$PUCSORTHOREF
  2

  9
$PUCSORTHOVIEW
 70
     0
  9
$PUCSORGTOP
 10
0.0
 20
0.0
 30
0.0
  9
$PUCSORGBOTTOM
 10
0.0
 20
0.0
 30
0.0
  9
$PUCSORGLEFT
 10
0.0
 20
0.0
 30
0.0
  9
$PUCSORGRIGHT
 10
0.0
 20
0.0
 30
0.0
  9
$PUCSORGFRONT
 10
0.0
 20
0.0
 30
0.0
  9
$PUCSORGBACK
 10
0.0
 20
0.0
 30
0.0
  9
$USERI1
 70
     0
  9
$USERI2
 70
     0
  9
$USERI3
 70
     0
  9
$USERI4
 70
     0
  9
$USERI5
 70
     0
  9
$USERR1
 40
0.0
  9
$USERR2
 40
0.0
  9
$USERR3
 40
0.0
  9
$USERR4
 40
0.0
  9
$USERR5
 40
0.0
  9
$WORLDVIEW
 70
     1
  9
$SHADEDGE
 70
     3
  9
$SHADEDIF
 70
    70
  9
$TILEMODE
 70
     1
  9
$MAXACTVP
 70
     2
  9
$PINSBASE
 10
0.0
 20
0.0
 30
0.0
  9
$PLIMCHECK
 70
     0
  9
$PEXTMIN
 10
0.0
 20
0.0
 30
0.0
  9
$PEXTMAX
 10
0.0
 20
0.0
 30
0.0
  9
$PLIMMIN
 10
-20.0
 20
-7.5
  9
$PLIMMAX
 10
277.0
 20
202.5
  9
$UNITMODE
 70
     0
  9
$VISRETAIN
 70
     1
  9
$PLINEGEN
 70
     0
  9
$PSLTSCALE
 70
     1
  9
$TREEDEPTH
 70
  3020
  9
$CMLSTYLE
  2
Standard
  9
$CMLJUST
 70
     0
  9
$CMLSCALE
 40
1.0
  9
$PROXYGRAPHICS
 70
     1
  9
$MEASUREMENT
 70
     1
  9
$CELWEIGHT
370
    -1
  9
$ENDCAPS
280
     0
  9
$JOINSTYLE
280
     0
  9
$LWDISPLAY
290
     0
  9
$INSUNITS
 70
     6
  9
$HYPERLINKBASE
  1

  9
$STYLESHEET
  1

  9
$XEDIT
290
     1
  9
$CEPSNTYPE
380
     0
  9
$PSTYLEMODE
290
     1
  9
$FINGERPRINTGUID
  2
{B1E06028-2722-D0BC-4E5C-2DE89DBA07B5}
  9
$VERSIONGUID
  2
{FAEB1C32-E019-11D5-929B-00C0DF256EC4}
  9
$EXTNAMES
290
     1
  9
$PSVPSCALE
 40
0.0
  9
$OLESTARTUP
290
     0
  9
$SORTENTS
280
   127
  9
$INDEXCTL
280
     0
  9
$HIDETEXT
280
     1
  9
$XCLIPFRAME
280
     2
  9
$HALOGAP
280
     0
  9
$OBSCOLOR
 70
   257
  9
$OBSLTYPE
280
     0
  9
$INTERSECTIONDISPLAY
280
     0
  9
$INTERSECTIONCOLOR
 70
   257
  9
$DIMASSOC
280
     2
  9
$PROJECTNAME
  1

  9
$CAMERADISPLAY
290
     0
  9
$LENSLENGTH
 40
50.0
  9
$CAMERAHEIGHT
 40
0.0
  9
$STEPSPERSEC
 40
2.0
  9
$STEPSIZE
 40
6.0
  9
$3DDWFPREC
 40
2.0
  9
$PSOLWIDTH
 40
0.25
  9
$PSOLHEIGHT
 40
4.0
  9
$LOFTANG1
 40
1.570796326794897
  9
$LOFTANG2
 40
1.570796326794897
  9
$LOFTMAG1
 40
0.0
  9
$LOFTMAG2
 40
0.0
  9
$LOFTPARAM
 70
     7
  9
$LOFTNORMALS
280
     1
  9
$LATITUDE
 40
37.795
  9
$LONGITUDE
 40
-122.394
  9
$NORTHDIRECTION
 40
0.0
  9
$TIMEZONE
 70
 -8000
  9
$LIGHTGLYPHDISPLAY
280
     1
  9
$TILEMODELIGHTSYNCH
280
     1
  9
$CMATERIAL
347
11A5
  9
$SOLIDHIST
280
     0
  9
$SHOWHIST
280
     1
  9
$DWFFRAME
280
     2
  9
$DGNFRAME
280
     2
  9
$REALWORLDSCALE
290
     1
  9
$INTERFERECOLOR
 62
   256
  9
$CSHADOW
280
     0
  9
$SHADOWPLANELOCATION
 40
0.0
  0
ENDSEC
  0
SECTION
  2
CLASSES
  0
CLASS
  1
ACDBDICTIONARYWDFLT
  2
AcDbDictionaryWithDefault
  3
ObjectDBX Classes
 90
        0
 91
        4
280
     0
281
     0
  0
CLASS
  1
VISUALSTYLE
  2
AcDbVisualStyle
  3
ObjectDBX Classes
 90
     4095
 91
        4
280
     0
281
     0
  0
CLASS
  1
MATERIAL
  2
AcDbMaterial
  3
ObjectDBX Classes
 90
     1153
 91
        4
280
     0
281
     0
  0
CLASS
  1
SCALE
  2
AcDbScale
  3
ObjectDBX Classes
 90
     1153
 91
        4
280
     0
281
     0
  0
CLASS
  1
TABLESTYLE
  2
AcDbTableStyle
  3
ObjectDBX Classes
 90
     4095
 91
        4
280
     0
281
     0
  0
CLASS
  1
MLEADERSTYLE
  2
AcDbMLeaderStyle
  3
ACDB_MLEADERSTYLE_CLASS
 90
     4095
 91
        4
280
     0
281
     0
  0
CLASS
  1
SUN
  2
AcDbSun
  3
SCENEOE
 90
     1153
 91
        4
280
     0
281
     0
  0
CLASS
  1
DICTIONARYVAR
  2
AcDbDictionaryVar
  3
ObjectDBX Classes
 90
        0
 91
        4
280
     0
281
     0
  0
CLASS
  1
CELLSTYLEMAP
  2
AcDbCellStyleMap
  3
ObjectDBX Classes
 90
     1152
 91
        4
280
     0
281
     0
  0
ENDSEC
  0
SECTION
  2
TABLES
  0
TABLE
  2
VPORT
  5
116A
330
0
100
AcDbSymbolTable
 70
     1
  0
VPORT
  5
118A
330
116A
100
AcDbSymbolTableRecord
100
AcDbViewportTableRecord
  2
*Active
 70
     0
 10
0.0
 20
0.0
 11
1.0
 21
1.0
 12
1.26232261917395
 22
16.63655553874295
 13
0.0
 23
0.0
 14
0.5
 24
0.5
 15
0.5
 25
0.5
 16
0.0
 26
0.0
 36
1.0
 17
0.0
 27
0.0
 37
0.0
 40
57.24571372064278
 41
1.547147846332945
 42
50.0
 43
0.0
 44
0.0
 50
0.0
 51
0.0
 71
     0
 72
   100
 73
     1
 74
     3
 75
     0
 76
     0
 77
     0
 78
     0
281
     0
 65
     1
110
0.0
120
0.0
130
0.0
111
1.0
121
0.0
131
0.0
112
0.0
122
1.0
132
0.0
 79
     0
146
0.0
 60
     3
 61
     5
292
     1
282
     1
141
0.0
142
0.0
 63
   250
361
11CE
  0
ENDTAB
  0
TABLE
  2
LTYPE
  5
1167
330
0
100
AcDbSymbolTable
 70
    48
  0
LTYPE
  5
1175
330
1167
100
AcDbSymbolTableRecord
100
AcDbLinetypeTableRecord
  2
ByBlock
 70
     0
  3

 72
    65
 73
     0
 40
0.0
  0
LTYPE
  5
1176
330
1167
100
AcDbSymbolTableRecord
100
AcDbLinetypeTableRecord
  2
ByLayer
 70
     0
  3

 72
    65
 73
     0
 40
0.0
  0
LTYPE
  5
1177
330
1167
100
AcDbSymbolTableRecord
100
AcDbLinetypeTableRecord
  2
Continuous
 70
     0
  3
Solid line
 72
    65
 73
     0
 40
0.0
  0
LTYPE
  5
120B
330
1167
100
AcDbSymbolTableRecord
100
AcDbLinetypeTableRecord
  2
ACAD_ISO02W100
 70
     0
  3
ISO dash __ __ __ __ __ __ __ __ __ __ __ __ __
 72
    65
 73
     2
 40
15.0
 49
12.0
 74
     0
 49
-3.0
 74
     0
  0
LTYPE
  5
120C
330
1167
100
AcDbSymbolTableRecord
100
AcDbLinetypeTableRecord
  2
ACAD_ISO03W100
 70
     0
  3
ISO dash space __    __    __    __    __    __
 72
    65
 73
     2
 40
30.0
 49
12.0
 74
     0
 49
-18.0
 74
     0
  0
LTYPE
  5
120D
330
1167
100
AcDbSymbolTableRecord
100
AcDbLinetypeTableRecord
  2
ACAD_ISO04W100
 70
     0
  3
ISO long-dash dot ____ . ____ . ____ . ____ . _
 72
    65
 73
     4
 40
30.0
 49
24.0
 74
     0
 49
-3.0
 74
     0
 49
0.0
 74
     0
 49
-3.0
 74
     0
  0
LTYPE
  5
120E
330
1167
100
AcDbSymbolTableRecord
100
AcDbLinetypeTableRecord
  2
ACAD_ISO05W100
 70
     0
  3
ISO long-dash double-dot ____ .. ____ .. ____ . 
 72
    65
 73
     6
 40
33.0
 49
24.0
 74
     0
 49
-3.0
 74
     0
 49
0.0
 74
     0
 49
-3.0
 74
     0
 49
0.0
 74
     0
 49
-3.0
 74
     0
  0
LTYPE
  5
120F
330
1167
100
AcDbSymbolTableRecord
100
AcDbLinetypeTableRecord
  2
ACAD_ISO06W100
 70
     0
  3
ISO long-dash triple-dot ____ ... ____ ... ____
 72
    65
 73
     8
 40
36.0
 49
24.0
 74
     0
 49
-3.0
 74
     0
 49
0.0
 74
     0
 49
-3.0
 74
     0
 49
0.0
 74
     0
 49
-3.0
 74
     0
 49
0.0
 74
     0
 49
-3.0
 74
     0
  0
LTYPE
  5
1210
330
1167
100
AcDbSymbolTableRecord
100
AcDbLinetypeTableRecord
  2
ACAD_ISO07W100
 70
     0
  3
ISO dot . . . . . . . . . . . . . . . . . . . . 
 72
    65
 73
     2
 40
3.0
 49
0.0
 74
     0
 49
-3.0
 74
     0
  0
LTYPE
  5
1211
330
1167
100
AcDbSymbolTableRecord
100
AcDbLinetypeTableRecord
  2
ACAD_ISO08W100
 70
     0
  3
ISO long-dash short-dash ____ __ ____ __ ____ _
 72
    65
 73
     4
 40
36.0
 49
24.0
 74
     0
 49
-3.0
 74
     0
 49
6.0
 74
     0
 49
-3.0
 74
     0
  0
LTYPE
  5
1212
330
1167
100
AcDbSymbolTableRecord
100
AcDbLinetypeTableRecord
  2
ACAD_ISO09W100
 70
     0
  3
ISO long-dash double-short-dash ____ __ __ ____
 72
    65
 73
     6
 40
45.0
 49
24.0
 74
     0
 49
-3.0
 74
     0
 49
6.0
 74
     0
 49
-3.0
 74
     0
 49
6.0
 74
     0
 49
-3.0
 74
     0
  0
LTYPE
  5
1213
330
1167
100
AcDbSymbolTableRecord
100
AcDbLinetypeTableRecord
  2
ACAD_ISO10W100
 70
     0
  3
ISO dash dot __ . __ . __ . __ . __ . __ . __ . 
 72
    65
 73
     4
 40
18.0
 49
12.0
 74
     0
 49
-3.0
 74
     0
 49
0.0
 74
     0
 49
-3.0
 74
     0
  0
LTYPE
  5
1214
330
1167
100
AcDbSymbolTableRecord
100
AcDbLinetypeTableRecord
  2
ACAD_ISO11W100
 70
     0
  3
ISO double-dash dot __ __ . __ __ . __ __ . __ _
 72
    65
 73
     6
 40
33.0
 49
12.0
 74
     0
 49
-3.0
 74
     0
 49
12.0
 74
     0
 49
-3.0
 74
     0
 49
0.0
 74
     0
 49
-3.0
 74
     0
  0
LTYPE
  5
1215
330
1167
100
AcDbSymbolTableRecord
100
AcDbLinetypeTableRecord
  2
ACAD_ISO12W100
 70
     0
  3
ISO dash double-dot __ . . __ . . __ . . __ . . 
 72
    65
 73
     6
 40
21.0
 49
12.0
 74
     0
 49
-3.0
 74
     0
 49
0.0
 74
     0
 49
-3.0
 74
     0
 49
0.0
 74
     0
 49
-3.0
 74
     0
  0
LTYPE
  5
1216
330
1167
100
AcDbSymbolTableRecord
100
AcDbLinetypeTableRecord
  2
ACAD_ISO13W100
 70
     0
  3
ISO double-dash double-dot __ __ . . __ __ . . _
 72
    65
 73
     8
 40
36.0
 49
12.0
 74
     0
 49
-3.0
 74
     0
 49
12.0
 74
     0
 49
-3.0
 74
     0
 49
0.0
 74
     0
 49
-3.0
 74
     0
 49
0.0
 74
     0
 49
-3.0
 74
     0
  0
LTYPE
  5
1217
330
1167
100
AcDbSymbolTableRecord
100
AcDbLinetypeTableRecord
  2
ACAD_ISO14W100
 70
     0
  3
ISO dash triple-dot __ . . . __ . . . __ . . . _
 72
    65
 73
     8
 40
24.0
 49
12.0
 74
     0
 49
-3.0
 74
     0
 49
0.0
 74
     0
 49
-3.0
 74
     0
 49
0.0
 74
     0
 49
-3.0
 74
     0
 49
0.0
 74
     0
 49
-3.0
 74
     0
  0
LTYPE
  5
1218
330
1167
100
AcDbSymbolTableRecord
100
AcDbLinetypeTableRecord
  2
ACAD_ISO15W100
 70
     0
  3
ISO double-dash triple-dot __ __ . . . __ __ . .
 72
    65
 73
    10
 40
39.0
 49
12.0
 74
     0
 49
-3.0
 74
     0
 49
12.0
 74
     0
 49
-3.0
 74
     0
 49
0.0
 74
     0
 49
-3.0
 74
     0
 49
0.0
 74
     0
 49
-3.0
 74
     0
 49
0.0
 74
     0
 49
-3.0
 74
     0
  0
LTYPE
  5
121B
330
1167
100
AcDbSymbolTableRecord
100
AcDbLinetypeTableRecord
  2
BATTING
 70
     0
  3
Batting SSSSSSSSSSSSSSSSSSSSSSSSSSSSSSSSSSSSSSSSSSSSSSS
 72
    65
 73
     4
 40
10.16254
 49
0.00254
 74
     0
 49
-2.54
 74
     2
 75
     0
340
1219
 46
2.54
 50
0.0
 44
-2.54
 45
0.0
  9
BAT
 49
-5.08
 74
     2
 75
     0
340
121A
 46
2.54
 50
180.0
 44
2.54
 45
0.0
  9
BAT
 49
-2.54
 74
     0
  0
LTYPE
  5
121C
330
1167
100
AcDbSymbolTableRecord
100
AcDbLinetypeTableRecord
  2
BORDER
 70
     0
  3
Border __ __ . __ __ . __ __ . __ __ . __ __ .
 72
    65
 73
     6
 40
44.45
 49
12.7
 74
     0
 49
-6.35
 74
     0
 49
12.7
 74
     0
 49
-6.35
 74
     0
 49
0.0
 74
     0
 49
-6.35
 74
     0
  0
LTYPE
  5
121D
330
1167
100
AcDbSymbolTableRecord
100
AcDbLinetypeTableRecord
  2
BORDER2
 70
     0
  3
Border (.5x) __.__.__.__.__.__.__.__.__.__.__.
 72
    65
 73
     6
 40
22.225
 49
6.35
 74
     0
 49
-3.175
 74
     0
 49
6.35
 74
     0
 49
-3.175
 74
     0
 49
0.0
 74
     0
 49
-3.175
 74
     0
  0
LTYPE
  5
121E
330
1167
100
AcDbSymbolTableRecord
100
AcDbLinetypeTableRecord
  2
BORDERX2
 70
     0
  3
Border (2x) ____  ____  .  ____  ____  .  ___
 72
    65
 73
     6
 40
88.89999999999999
 49
25.4
 74
     0
 49
-12.7
 74
     0
 49
25.4
 74
     0
 49
-12.7
 74
     0
 49
0.0
 74
     0
 49
-12.7
 74
     0
  0
LTYPE
  5
121F
330
1167
100
AcDbSymbolTableRecord
100
AcDbLinetypeTableRecord
  2
CENTER
 70
     0
  3
Center ____ _ ____ _ ____ _ ____ _ ____ _ ____
 72
    65
 73
     4
 40
50.8
 49
31.75
 74
     0
 49
-6.35
 74
     0
 49
6.35
 74
     0
 49
-6.35
 74
     0
  0
LTYPE
  5
1220
330
1167
100
AcDbSymbolTableRecord
100
AcDbLinetypeTableRecord
  2
CENTER2
 70
     0
  3
Center (.5x) ___ _ ___ _ ___ _ ___ _ ___ _ ___
 72
    65
 73
     4
 40
28.575
 49
19.05
 74
     0
 49
-3.175
 74
     0
 49
3.175
 74
     0
 49
-3.175
 74
     0
  0
LTYPE
  5
1221
330
1167
100
AcDbSymbolTableRecord
100
AcDbLinetypeTableRecord
  2
CENTERX2
 70
     0
  3
Center (2x) ________  __  ________  __  _____
 72
    65
 73
     4
 40
101.6
 49
63.5
 74
     0
 49
-12.7
 74
     0
 49
12.7
 74
     0
 49
-12.7
 74
     0
  0
LTYPE
  5
1222
330
1167
100
AcDbSymbolTableRecord
100
AcDbLinetypeTableRecord
  2
DASHDOT
 70
     0
  3
Dash dot __ . __ . __ . __ . __ . __ . __ . __
 72
    65
 73
     4
 40
25.4
 49
12.7
 74
     0
 49
-6.35
 74
     0
 49
0.0
 74
     0
 49
-6.35
 74
     0
  0
LTYPE
  5
1223
330
1167
100
AcDbSymbolTableRecord
100
AcDbLinetypeTableRecord
  2
DASHDOT2
 70
     0
  3
Dash dot (.5x) _._._._._._._._._._._._._._._.
 72
    65
 73
     4
 40
12.7
 49
6.35
 74
     0
 49
-3.175
 74
     0
 49
0.0
 74
     0
 49
-3.175
 74
     0
  0
LTYPE
  5
1224
330
1167
100
AcDbSymbolTableRecord
100
AcDbLinetypeTableRecord
  2
DASHDOTX2
 70
     0
  3
Dash dot (2x) ____  .  ____  .  ____  .  ___
 72
    65
 73
     4
 40
50.8
 49
25.4
 74
     0
 49
-12.7
 74
     0
 49
0.0
 74
     0
 49
-12.7
 74
     0
  0
LTYPE
  5
1225
330
1167
100
AcDbSymbolTableRecord
100
AcDbLinetypeTableRecord
  2
DASHED
 70
     0
  3
Dashed __ __ __ __ __ __ __ __ __ __ __ __ __ _
 72
    65
 73
     2
 40
19.05
 49
12.7
 74
     0
 49
-6.35
 74
     0
  0
LTYPE
  5
1226
330
1167
100
AcDbSymbolTableRecord
100
AcDbLinetypeTableRecord
  2
DASHED2
 70
     0
  3
Dashed (.5x) _ _ _ _ _ _ _ _ _ _ _ _ _ _ _ _ _ 
 72
    65
 73
     2
 40
9.524999999999999
 49
6.35
 74
     0
 49
-3.175
 74
     0
  0
LTYPE
  5
1227
330
1167
100
AcDbSymbolTableRecord
100
AcDbLinetypeTableRecord
  2
DASHEDX2
 70
     0
  3
Dashed (2x) ____  ____  ____  ____  ____  ___
 72
    65
 73
     2
 40
38.09999999999999
 49
25.4
 74
     0
 49
-12.7
 74
     0
  0
LTYPE
  5
1228
330
1167
100
AcDbSymbolTableRecord
100
AcDbLinetypeTableRecord
  2
DIVIDE
 70
     0
  3
Divide ____ . . ____ . . ____ . . ____ . . ____
 72
    65
 73
     6
 40
31.75
 49
12.7
 74
     0
 49
-6.35
 74
     0
 49
0.0
 74
     0
 49
-6.35
 74
     0
 49
0.0
 74
     0
 49
-6.35
 74
     0
  0
LTYPE
  5
1229
330
1167
100
AcDbSymbolTableRecord
100
AcDbLinetypeTableRecord
  2
DIVIDE2
 70
     0
  3
Divide (.5x) __..__..__..__..__..__..__..__.._
 72
    65
 73
     6
 40
15.875
 49
6.35
 74
     0
 49
-3.175
 74
     0
 49
0.0
 74
     0
 49
-3.175
 74
     0
 49
0.0
 74
     0
 49
-3.175
 74
     0
  0
LTYPE
  5
122A
330
1167
100
AcDbSymbolTableRecord
100
AcDbLinetypeTableRecord
  2
DIVIDEX2
 70
     0
  3
Divide (2x) ________  .  .  ________  .  .  _
 72
    65
 73
     6
 40
63.5
 49
25.4
 74
     0
 49
-12.7
 74
     0
 49
0.0
 74
     0
 49
-12.7
 74
     0
 49
0.0
 74
     0
 49
-12.7
 74
     0
  0
LTYPE
  5
122B
330
1167
100
AcDbSymbolTableRecord
100
AcDbLinetypeTableRecord
  2
DOT
 70
     0
  3
Dot . . . . . . . . . . . . . . . . . . . . . . . .
 72
    65
 73
     2
 40
6.35
 49
0.0
 74
     0
 49
-6.35
 74
     0
  0
LTYPE
  5
122C
330
1167
100
AcDbSymbolTableRecord
100
AcDbLinetypeTableRecord
  2
DOT2
 70
     0
  3
Dot (.5x) ........................................
 72
    65
 73
     2
 40
3.175
 49
0.0
 74
     0
 49
-3.175
 74
     0
  0
LTYPE
  5
122D
330
1167
100
AcDbSymbolTableRecord
100
AcDbLinetypeTableRecord
  2
DOTX2
 70
     0
  3
Dot (2x) .  .  .  .  .  .  .  .  .  .  .  .  .  .
 72
    65
 73
     2
 40
12.7
 49
0.0
 74
     0
 49
-12.7
 74
     0
  0
LTYPE
  5
122F
330
1167
100
AcDbSymbolTableRecord
100
AcDbLinetypeTableRecord
  2
DRAINAGE
 70
     0
  3
Drainage ---->---->---->----
 72
    65
 73
     2
 40
10.16
 49
5.08
 74
     2
 75
     0
340
122E
 46
2.54
 50
180.0
 44
0.0
 45
0.0
  9
RIGHT_ARROW
 49
5.08
 74
     0
  0
LTYPE
  5
1231
330
1167
100
AcDbSymbolTableRecord
100
AcDbLinetypeTableRecord
  2
DRAINAGE2
 70
     0
  3
Drainage reversed----<----<----<----
 72
    65
 73
     2
 40
10.16
 49
5.08
 74
     2
 75
     0
340
1230
 46
2.54
 50
0.0
 44
0.0
 45
0.0
  9
RIGHT_ARROW
 49
5.08
 74
     0
  0
LTYPE
  5
1233
330
1167
100
AcDbSymbolTableRecord
100
AcDbLinetypeTableRecord
  2
FENCELINE1
 70
     0
  3
Fenceline circle ----0-----0----0-----0----0-----0--
 72
    65
 73
     4
 40
36.83
 49
6.35
 74
     0
 49
-2.54
 74
     2
 75
     0
340
1232
 46
2.54
 50
0.0
 44
-2.54
 45
0.0
  9
CIRC1
 49
-2.54
 74
     0
 49
25.4
 74
     0
  0
LTYPE
  5
1235
330
1167
100
AcDbSymbolTableRecord
100
AcDbLinetypeTableRecord
  2
FENCELINE2
 70
     0
  3
Fenceline square ----[]-----[]----[]-----[]----[]---
 72
    65
 73
     4
 40
36.83
 49
6.35
 74
     0
 49
-2.54
 74
     2
 75
     0
340
1234
 46
2.54
 50
0.0
 44
-2.54
 45
0.0
  9
BOX
 49
-2.54
 74
     0
 49
25.4
 74
     0
  0
LTYPE
  5
1237
330
1167
100
AcDbSymbolTableRecord
100
AcDbLinetypeTableRecord
  2
GAS_LINE
 70
     0
  3
Gas line ----GAS----GAS----GAS----GAS----GAS----GAS--
 72
    65
 73
     3
 40
24.13
 49
12.7
 74
     0
 49
-5.08
 74
     2
 75
     0
340
1236
 46
2.54
 50
0.0
 44
-2.54
 45
-1.27
  9
GAS
 49
-6.35
 74
     0
  0
LTYPE
  5
1238
330
1167
100
AcDbSymbolTableRecord
100
AcDbLinetypeTableRecord
  2
HIDDEN
 70
     0
  3
Hidden __ __ __ __ __ __ __ __ __ __ __ __ __ __
 72
    65
 73
     2
 40
9.524999999999999
 49
6.35
 74
     0
 49
-3.175
 74
     0
  0
LTYPE
  5
1239
330
1167
100
AcDbSymbolTableRecord
100
AcDbLinetypeTableRecord
  2
HIDDEN2
 70
     0
  3
Hidden (.5x) _ _ _ _ _ _ _ _ _ _ _ _ _ _ _ _ _ 
 72
    65
 73
     2
 40
4.762499999999999
 49
3.175
 74
     0
 49
-1.5875
 74
     0
  0
LTYPE
  5
123A
330
1167
100
AcDbSymbolTableRecord
100
AcDbLinetypeTableRecord
  2
HIDDENX2
 70
     0
  3
Hidden (2x) ____ ____ ____ ____ ____ ____ ____ 
 72
    65
 73
     2
 40
19.05
 49
12.7
 74
     0
 49
-6.35
 74
     0
  0
LTYPE
  5
123C
330
1167
100
AcDbSymbolTableRecord
100
AcDbLinetypeTableRecord
  2
HOT_WATER_SUPPLY
 70
     0
  3
Hot water supply ---- HW ---- HW ---- HW ----
 72
    65
 73
     3
 40
22.86
 49
12.7
 74
     0
 49
-5.08
 74
     2
 75
     0
340
123B
 46
2.54
 50
0.0
 44
-2.54
 45
-1.27
  9
HW
 49
-5.08
 74
     0
  0
LTYPE
  5
123D
330
1167
100
AcDbSymbolTableRecord
100
AcDbLinetypeTableRecord
  2
PHANTOM
 70
     0
  3
Phantom ______  __  __  ______  __  __  ______ 
 72
    65
 73
     6
 40
63.50000000000001
 49
31.75
 74
     0
 49
-6.35
 74
     0
 49
6.35
 74
     0
 49
-6.35
 74
     0
 49
6.35
 74
     0
 49
-6.35
 74
     0
  0
LTYPE
  5
123E
330
1167
100
AcDbSymbolTableRecord
100
AcDbLinetypeTableRecord
  2
PHANTOM2
 70
     0
  3
Phantom (.5x) ___ _ _ ___ _ _ ___ _ _ ___ _ _
 72
    65
 73
     6
 40
31.75
 49
15.875
 74
     0
 49
-3.175
 74
     0
 49
3.175
 74
     0
 49
-3.175
 74
     0
 49
3.175
 74
     0
 49
-3.175
 74
     0
  0
LTYPE
  5
123F
330
1167
100
AcDbSymbolTableRecord
100
AcDbLinetypeTableRecord
  2
PHANTOMX2
 70
     0
  3
Phantom (2x) ____________    ____    ____   _
 72
    65
 73
     6
 40
127.0
 49
63.5
 74
     0
 49
-12.7
 74
     0
 49
12.7
 74
     0
 49
-12.7
 74
     0
 49
12.7
 74
     0
 49
-12.7
 74
     0
  0
LTYPE
  5
1241
330
1167
100
AcDbSymbolTableRecord
100
AcDbLinetypeTableRecord
  2
TRACKS
 70
     0
  3
Tracks -|-|-|-|-|-|-|-|-|-|-|-|-|-|-|-|-|-|-|-|-|-|-|-|-
 72
    65
 73
     2
 40
7.62
 49
3.81
 74
     2
 75
     0
340
1240
 46
6.35
 50
0.0
 44
0.0
 45
0.0
  9
TRACK1
 49
3.81
 74
     0
  0
LTYPE
  5
1244
330
1167
100
AcDbSymbolTableRecord
100
AcDbLinetypeTableRecord
  2
ZIGZAG
 70
     0
  3
Zig zag /\/\/\/\/\/\/\/\/\/\/\/\/\/\/\/\/\/\/\/\/\/\/\/
 72
    65
 73
     4
 40
20.32254
 49
0.00254
 74
     0
 49
-5.08
 74
     2
 75
     0
340
1242
 46
5.08
 50
0.0
 44
-5.08
 45
0.0
  9
ZIG
 49
-10.16
 74
     2
 75
     0
340
1243
 46
5.08
 50
180.0
 44
5.08
 45
0.0
  9
ZIG
 49
-5.08
 74
     0
  0
ENDTAB
  0
TABLE
  2
LAYER
  5
1164
330
0
100
AcDbSymbolTable
 70
     7
  0
LAYER
  5
1172
330
1164
100
AcDbSymbolTableRecord
100
AcDbLayerTableRecord
  2
0
 70
     0
 62
   178
420
        0
  6
Continuous
370
    25
390
1171
347
11A7
348
0
  0
LAYER
  5
1245
330
1164
100
AcDbSymbolTableRecord
100
AcDbLayerTableRecord
  2
Tent
 70
     0
 62
   178
420
        0
  6
Continuous
370
     0
390
1171
347
11A7
348
0
  0
LAYER
  5
1246
330
1164
100
AcDbSymbolTableRecord
100
AcDbLayerTableRecord
  2
Meta
 70
     0
 62
   178
420
        0
  6
Continuous
370
     0
390
1171
347
11A7
348
0
  0
LAYER
  5
1247
330
1164
100
AcDbSymbolTableRecord
100
AcDbLayerTableRecord
  2
Dimensions
 70
     0
 62
   178
420
        0
  6
Continuous
370
     0
390
1171
347
11A7
348
0
  0
LAYER
  5
1248
330
1164
100
AcDbSymbolTableRecord
100
AcDbLayerTableRecord
  2
Interior
 70
     0
 62
     6
420
 16711935
  6
Continuous
370
     0
390
1171
347
11A7
348
0
  0
LAYER
  5
1249
330
1164
100
AcDbSymbolTableRecord
100
AcDbLayerTableRecord
  2
Symbols
 70
     0
 62
     5
420
      255
  6
Continuous
370
     0
390
1171
347
11A7
348
0
  0
LAYER
  5
124A
330
1164
100
AcDbSymbolTableRecord
100
AcDbLayerTableRecord
  2
Defpoints
 70
     0
 62
     7
420
 16777215
  6
Continuous
290
     0
370
    -3
390
1171
347
11A7
348
0
  0
ENDTAB
  0
TABLE
  2
STYLE
  5
1165
330
0
100
AcDbSymbolTable
 70
    18
  0
STYLE
  5
1173
330
1165
100
AcDbSymbolTableRecord
100
AcDbTextStyleTableRecord
  2
Standard
 70
     0
 40
0.0
 41
1.0
 50
0.0
 71
     0
 42
0.2
  3
txt
  4

  0
STYLE
  5
1209
330
1165
100
AcDbSymbolTableRecord
100
AcDbTextStyleTableRecord
  2
QCADDimTextStyle
 70
     0
 40
0.0
 41
1.0
 50
0.0
 71
     0
 42
0.2
  3
txt
  4

  0
STYLE
  5
1219
330
1165
100
AcDbSymbolTableRecord
100
AcDbTextStyleTableRecord
  2
textstyle0
 70
     0
 40
0.0
 41
1.0
 50
0.0
 71
     0
 42
0.2
  3
ltypeshp.shx
  4

  0
STYLE
  5
121A
330
1165
100
AcDbSymbolTableRecord
100
AcDbTextStyleTableRecord
  2
textstyle1
 70
     0
 40
0.0
 41
1.0
 50
0.0
 71
     0
 42
0.2
  3
ltypeshp.shx
  4

  0
STYLE
  5
122E
330
1165
100
AcDbSymbolTableRecord
100
AcDbTextStyleTableRecord
  2
textstyle2
 70
     0
 40
0.0
 41
1.0
 50
0.0
 71
     0
 42
0.2
  3
qcadshp.shx
  4

  0
STYLE
  5
1230
330
1165
100
AcDbSymbolTableRecord
100
AcDbTextStyleTableRecord
  2
textstyle3
 70
     0
 40
0.0
 41
1.0
 50
0.0
 71
     0
 42
0.2
  3
qcadshp.shx
  4

  0
STYLE
  5
1232
330
1165
100
AcDbSymbolTableRecord
100
AcDbTextStyleTableRecord
  2
textstyle4
 70
     0
 40
0.0
 41
1.0
 50
0.0
 71
     0
 42
0.2
  3
ltypeshp.shx
  4

  0
STYLE
  5
1234
330
1165
100
AcDbSymbolTableRecord
100
AcDbTextStyleTableRecord
  2
textstyle5
 70
     0
 40
0.0
 41
1.0
 50
0.0
 71
     0
 42
0.2
  3
ltypeshp.shx
  4

  0
STYLE
  5
1236
330
1165
100
AcDbSymbolTableRecord
100
AcDbTextStyleTableRecord
  2
textstyle6
 70
     0
 40
0.0
 41
1.0
 50
0.0
 71
     0
 42
0.2
  3
STANDARD
  4

  0
STYLE
  5
123B
330
1165
100
AcDbSymbolTableRecord
100
AcDbTextStyleTableRecord
  2
textstyle7
 70
     0
 40
0.0
 41
1.0
 50
0.0
 71
     0
 42
0.2
  3
STANDARD
  4

  0
STYLE
  5
1240
330
1165
100
AcDbSymbolTableRecord
100
AcDbTextStyleTableRecord
  2
textstyle8
 70
     0
 40
0.0
 41
1.0
 50
0.0
 71
     0
 42
0.2
  3
ltypeshp.shx
  4

  0
STYLE
  5
1242
330
1165
100
AcDbSymbolTableRecord
100
AcDbTextStyleTableRecord
  2
textstyle9
 70
     0
 40
0.0
 41
1.0
 50
0.0
 71
     0
 42
0.2
  3
ltypeshp.shx
  4

  0
STYLE
  5
1243
330
1165
100
AcDbSymbolTableRecord
100
AcDbTextStyleTableRecord
  2
textstyle10
 70
     0
 40
0.0
 41
1.0
 50
0.0
 71
     0
 42
0.2
  3
ltypeshp.shx
  4

  0
STYLE
  5
124D
330
1165
100
AcDbSymbolTableRecord
100
AcDbTextStyleTableRecord
  2
textstyle11
 70
     0
 40
0.0
 41
1.0
 50
0.0
 71
     0
 42
0.2
  3

  4

1001
ACAD
1000
Liberation Sans
1071
        0
  0
STYLE
  5
124E
330
1165
100
AcDbSymbolTableRecord
100
AcDbTextStyleTableRecord
  2
textstyle12
 70
     0
 40
0.0
 41
1.0
 50
0.0
 71
     0
 42
0.2
  3

  4

1001
ACAD
1000
Liberation Sans
1071
        0
  0
STYLE
  5
124F
330
1165
100
AcDbSymbolTableRecord
100
AcDbTextStyleTableRecord
  2
textstyle13
 70
     0
 40
0.0
 41
1.0
 50
0.0
 71
     0
 42
0.2
  3

  4

1001
ACAD
1000
Liberation Sans
1071
        0
  0
STYLE
  5
1250
330
1165
100
AcDbSymbolTableRecord
100
AcDbTextStyleTableRecord
  2
textstyle14
 70
     0
 40
0.0
 41
1.0
 50
0.0
 71
     0
 42
0.2
  3

  4

1001
ACAD
1000
Liberation Sans
1071
        0
  0
STYLE
  5
1251
330
1165
100
AcDbSymbolTableRecord
100
AcDbTextStyleTableRecord
  2
textstyle15
 70
     0
 40
0.0
 41
1.0
 50
0.0
 71
     0
 42
0.2
  3

  4

1001
ACAD
1000
Liberation Sans
1071
        0
  0
ENDTAB
  0
TABLE
  2
VIEW
  5
1168
330
0
100
AcDbSymbolTable
 70
     0
  0
ENDTAB
  0
TABLE
  2
UCS
  5
1169
330
0
100
AcDbSymbolTable
 70
     0
  0
ENDTAB
  0
TABLE
  2
APPID
  5
116B
330
0
100
AcDbSymbolTable
 70
     2
  0
APPID
  5
1174
330
116B
100
AcDbSymbolTableRecord
100
AcDbRegAppTableRecord
  2
ACAD
 70
     0
  0
APPID
  5
11CF
330
116B
100
AcDbSymbolTableRecord
100
AcDbRegAppTableRecord
  2
QCAD
 70
     0
  0
ENDTAB
  0
TABLE
  2
DIMSTYLE
  5
116C
330
0
100
AcDbSymbolTable
 70
     2
100
AcDbDimStyleTable
  0
DIMSTYLE
105
1188
330
116C
100
AcDbSymbolTableRecord
100
AcDbDimStyleTableRecord
  2
Standard
 70
     0
178
     0
340
1173
  0
DIMSTYLE
105
120A
102
{ACAD_REACTORS
330
BC7
330
BCA
330
BB0
330
BC1
330
BB1
102
}
330
116C
100
AcDbSymbolTableRecord
100
AcDbDimStyleTableRecord
  2
QCADDimStyle
 70
     0
 41
0.3
 42
0.075
 44
0.15
 73
     0
 77
     1
140
0.3
147
0.075
178
     0
340
1209
  0
ENDTAB
  0
TABLE
  2
BLOCK_RECORD
  5
1163
330
0
100
AcDbSymbolTable
 70
     1
  0
BLOCK_RECORD
  5
1180
330
1163
100
AcDbSymbolTableRecord
100
AcDbBlockTableRecord
  2
*Model_Space
340
1183
 70
     0
280
     1
281
     0
  0
BLOCK_RECORD
  5
117C
330
1163
100
AcDbSymbolTableRecord
100
AcDbBlockTableRecord
  2
*Paper_Space
340
117F
 70
     0
280
     1
281
     0
  0
ENDTAB
  0
ENDSEC
  0
SECTION
  2
BLOCKS
  0
BLOCK
  5
1181
330
1180
100
AcDbEntity
  8
0
100
AcDbBlockBegin
  2
*Model_Space
 70
     0
 10
0.0
 20
0.0
 30
0.0
  3
*Model_Space
  1
*Model_Space
  0
ENDBLK
  5
1182
330
1180
100
AcDbEntity
  8
0
100
AcDbBlockEnd
  0
BLOCK
  5
117D
330
117C
100
AcDbEntity
 67
     1
  8
0
100
AcDbBlockBegin
  2
*Paper_Space
 70
     0
 10
0.0
 20
0.0
 30
0.0
  3
*Paper_Space
  1
*Paper_Space
  0
ENDBLK
  5
117E
330
117C
100
AcDbEntity
 67
     1
  8
0
100
AcDbBlockEnd
  0
ENDSEC
  0
SECTION
  2
ENTITIES
  0
LINE
  5
102F
330
1180
100
AcDbEntity
  8
Tent
100
AcDbLine
 10
23.2
 20
14.3
 30
0.0
 11
22.8
 21
14.3
 31
0.0
  0
LINE
  5
1027
330
1180
100
AcDbEntity
  8
Tent
100
AcDbLine
 10
18.2
 20
14.3
 30
0.0
 11
17.8
 21
14.3
 31
0.0
  0
MTEXT
  5
39
330
1180
100
AcDbEntity
  8
Meta
100
AcDbMText
 10
29.99999999999564
 20
3.499999999999864
 30
0.0
 40
0.5
 41
0.0
 46
0.0
 71
     4
 72
     1
  1
Project: SHA2017
  7
textstyle11
 73
     1
 44
1.0
  0
MTEXT
  5
3A
330
1180
100
AcDbEntity
  8
Meta
100
AcDbMText
 10
30.0
 20
2.499999999997518
 30
0.0
 40
0.5
 41
0.0
 46
0.0
 71
     4
 72
     1
  1
Tekening: Arcade
  7
textstyle12
 73
     1
 44
1.0
  0
MTEXT
  5
3B
330
1180
100
AcDbEntity
  8
Meta
100
AcDbMText
 10
30.00000000000436
 20
1.499999999994896
 30
0.0
 40
0.5
 41
0.0
 46
0.0
 71
     4
 72
     1
  1
Tekenaar: Ruud Koolen
  7
textstyle13
 73
     1
 44
1.0
  0
MTEXT
  5
3C
330
1180
100
AcDbEntity
  8
Meta
100
AcDbMText
 10
30.0
 20
0.4999999999999999
 30
0.0
 40
0.5
 41
0.0
 46
0.0
 71
     4
 72
     1
  1
Datum: 2017-04-28
  7
textstyle14
 73
     1
 44
1.0
  0
LINE
  5
3D
330
1180
100
AcDbEntity
  8
Meta
100
AcDbLine
 10
0.0
 20
0.0
 30
0.0
 11
40.0
 21
0.0
 31
0.0
  0
LINE
  5
3E
330
1180
100
AcDbEntity
  8
Meta
100
AcDbLine
 10
0.0000000000000053
 20
26.0
 30
0.0
 11
0.0
 21
0.0
 31
0.0
  0
LINE
  5
1030
330
1180
100
AcDbEntity
  8
Tent
100
AcDbLine
 10
22.8
 20
14.3
 30
0.0
 11
22.8
 21
14.7
 31
0.0
  0
LINE
  5
1028
330
1180
100
AcDbEntity
  8
Tent
100
AcDbLine
 10
17.8
 20
14.3
 30
0.0
 11
17.8
 21
14.7
 31
0.0
  0
LINE
  5
3F
330
1180
100
AcDbEntity
  8
Meta
100
AcDbLine
 10
40.00000000000001
 20
25.99999999999999
 30
0.0
 11
0.0000000000000053
 21
26.0
 31
0.0
  0
LINE
  5
40
330
1180
100
AcDbEntity
  8
Meta
100
AcDbLine
 10
40.0
 20
0.0
 30
0.0
 11
40.0
 21
26.0
 31
0.0
  0
LINE
  5
41
330
1180
100
AcDbEntity
  8
Meta
100
AcDbLine
 10
29.0
 20
2.0
 30
0.0
 11
40.0
 21
2.0
 31
0.0
  0
LINE
  5
42
330
1180
100
AcDbEntity
  8
Meta
100
AcDbLine
 10
29.0
 20
3.0
 30
0.0
 11
40.0
 21
3.0
 31
0.0
  0
LINE
  5
43
330
1180
100
AcDbEntity
  8
Meta
100
AcDbLine
 10
29.0
 20
4.0
 30
0.0
 11
40.0
 21
4.0
 31
0.0
  0
LINE
  5
44
330
1180
100
AcDbEntity
  8
Meta
100
AcDbLine
 10
29.0
 20
1.0
 30
0.0
 11
40.0
 21
1.0
 31
0.0
  0
LINE
  5
1031
330
1180
100
AcDbEntity
  8
Tent
100
AcDbLine
 10
22.8
 20
14.7
 30
0.0
 11
23.2
 21
14.7
 31
0.0
  0
LINE
  5
1029
330
1180
100
AcDbEntity
  8
Tent
100
AcDbLine
 10
17.8
 20
14.7
 30
0.0
 11
18.2
 21
14.7
 31
0.0
  0
LINE
  5
45
330
1180
100
AcDbEntity
  8
Meta
100
AcDbLine
 10
29.0
 20
4.0
 30
0.0
 11
29.0
 21
0.0
 31
0.0
  0
LINE
  5
BC5
330
1180
100
AcDbEntity
  8
Tent
100
AcDbLine
 10
13.0
 20
15.50000000000005
 30
0.0
 11
12.55278640450004
 21
14.60557280900014
 31
0.0
  0
LINE
  5
BC8
330
1180
100
AcDbEntity
  8
Tent
100
AcDbLine
 10
28.0
 20
15.5
 30
0.0
 11
28.44721359549995
 21
14.60557280900009
 31
0.0
  0
LINE
  5
BC6
330
1180
100
AcDbEntity
  8
Tent
100
AcDbLine
 10
13.0
 20
13.50000000000005
 30
0.0
 11
12.55278640450004
 21
14.39442719099997
 31
0.0
  0
LINE
  5
BC9
330
1180
100
AcDbEntity
  8
Tent
100
AcDbLine
 10
28.0
 20
13.5
 30
0.0
 11
28.44721359549996
 21
14.39442719099992
 31
0.0
  0
LINE
  5
1032
330
1180
100
AcDbEntity
  8
Tent
100
AcDbLine
 10
23.2
 20
14.7
 30
0.0
 11
23.2
 21
14.3
 31
0.0
  0
LINE
  5
102A
330
1180
100
AcDbEntity
  8
Tent
100
AcDbLine
 10
18.2
 20
14.7
 30
0.0
 11
18.2
 21
14.3
 31
0.0
  0
LINE
  5
BED
330
1180
100
AcDbEntity
  8
Symbols
100
AcDbLine
 10
27.56892000000515
 20
14.52209899999434
 30
0.0
 11
27.56892000000515
 21
14.52209899999434
 31
0.0
  0
LINE
  5
BCB
330
1180
100
AcDbEntity
  8
Symbols
100
AcDbLine
 10
13.43107999999484
 20
14.52209899999434
 30
0.0
 11
13.43107999999484
 21
14.52209899999434
 31
0.0
  0
LINE
  5
C0F
330
1180
100
AcDbEntity
  8
Symbols
100
AcDbLine
 10
20.52209899999434
 20
21.56892000000516
 30
0.0
 11
20.52209899999434
 21
21.56892000000516
 31
0.0
  0
LINE
  5
BEE
330
1180
100
AcDbEntity
  8
Symbols
100
AcDbLine
 10
27.62900000000081
 20
14.60000000003492
 30
0.0
 11
27.72000000000115
 21
14.60000000003492
 31
0.0
  0
LINE
  5
BCC
330
1180
100
AcDbEntity
  8
Symbols
100
AcDbLine
 10
13.37099999999919
 20
14.60000000003492
 30
0.0
 11
13.27999999999884
 21
14.60000000003492
 31
0.0
  0
LINE
  5
C10
330
1180
100
AcDbEntity
  8
Symbols
100
AcDbLine
 10
20.60000000003492
 20
21.62900000000081
 30
0.0
 11
20.60000000003492
 21
21.72000000000116
 31
0.0
  0
LINE
  5
BEF
330
1180
100
AcDbEntity
  8
Symbols
100
AcDbLine
 10
27.72000000000115
 20
14.60000000003492
 30
0.0
 11
27.72000000000115
 21
14.39600000000791
 31
0.0
  0
LINE
  5
BCD
330
1180
100
AcDbEntity
  8
Symbols
100
AcDbLine
 10
13.27999999999884
 20
14.60000000003492
 30
0.0
 11
13.27999999999884
 21
14.39600000000791
 31
0.0
  0
LINE
  5
C11
330
1180
100
AcDbEntity
  8
Symbols
100
AcDbLine
 10
20.60000000003492
 20
21.72000000000116
 30
0.0
 11
20.39600000000792
 21
21.72000000000116
 31
0.0
  0
LINE
  5
BF0
330
1180
100
AcDbEntity
  8
Symbols
100
AcDbLine
 10
27.72000000000115
 20
14.39600000000791
 30
0.0
 11
27.62900000000081
 21
14.39600000000791
 31
0.0
  0
LINE
  5
BCE
330
1180
100
AcDbEntity
  8
Symbols
100
AcDbLine
 10
13.27999999999884
 20
14.39600000000791
 30
0.0
 11
13.37099999999919
 21
14.39600000000791
 31
0.0
  0
LINE
  5
C12
330
1180
100
AcDbEntity
  8
Symbols
100
AcDbLine
 10
20.39600000000792
 20
21.72000000000116
 30
0.0
 11
20.39600000000792
 21
21.62900000000081
 31
0.0
  0
LINE
  5
1033
330
1180
100
AcDbEntity
  8
Tent
100
AcDbLine
 10
23.2
 20
14.3
 30
0.0
 11
23.0
 21
14.5
 31
0.0
  0
LINE
  5
102B
330
1180
100
AcDbEntity
  8
Tent
100
AcDbLine
 10
18.2
 20
14.3
 30
0.0
 11
18.0
 21
14.5
 31
0.0
  0
LINE
  5
BF1
330
1180
100
AcDbEntity
  8
Symbols
100
AcDbLine
 10
27.62900000000081
 20
14.39600000000791
 30
0.0
 11
27.62900000000081
 21
14.60000000003492
 31
0.0
  0
LINE
  5
BCF
330
1180
100
AcDbEntity
  8
Symbols
100
AcDbLine
 10
13.37099999999919
 20
14.39600000000791
 30
0.0
 11
13.37099999999919
 21
14.60000000003492
 31
0.0
  0
LINE
  5
C13
330
1180
100
AcDbEntity
  8
Symbols
100
AcDbLine
 10
20.39600000000792
 20
21.62900000000081
 30
0.0
 11
20.60000000003492
 21
21.62900000000081
 31
0.0
  0
CIRCLE
  5
BF2
330
1180
100
AcDbEntity
  8
Symbols
100
AcDbCircle
 10
27.41999999999825
 20
14.56685000000289
 30
0.0
 40
0.02315
  0
CIRCLE
  5
BD0
330
1180
100
AcDbEntity
  8
Symbols
100
AcDbCircle
 10
13.58000000000175
 20
14.56685000000289
 30
0.0
 40
0.02315
  0
CIRCLE
  5
C14
330
1180
100
AcDbEntity
  8
Symbols
100
AcDbCircle
 10
20.56685000000289
 20
21.41999999999825
 30
0.0
 40
0.02315
  0
LINE
  5
BF3
330
1180
100
AcDbEntity
  8
Symbols
370
     0
100
AcDbLine
 10
27.27000000000406
 20
14.64000000013038
 30
0.0
 11
27.7554999999993
 21
14.64000000013038
 31
0.0
  0
LINE
  5
BD1
330
1180
100
AcDbEntity
  8
Symbols
370
     0
100
AcDbLine
 10
13.72999999999593
 20
14.64000000013038
 30
0.0
 11
13.24450000000069
 21
14.64000000013038
 31
0.0
  0
LINE
  5
C15
330
1180
100
AcDbEntity
  8
Symbols
370
     0
100
AcDbLine
 10
20.64000000013039
 20
21.27000000000407
 30
0.0
 11
20.64000000013039
 21
21.7554999999993
 31
0.0
  0
LINE
  5
1034
330
1180
100
AcDbEntity
  8
Tent
100
AcDbLine
 10
23.0
 20
14.5
 30
0.0
 11
22.8
 21
14.7
 31
0.0
  0
LINE
  5
102C
330
1180
100
AcDbEntity
  8
Tent
100
AcDbLine
 10
18.0
 20
14.5
 30
0.0
 11
17.8
 21
14.7
 31
0.0
  0
LINE
  5
BF4
330
1180
100
AcDbEntity
  8
Symbols
370
     0
100
AcDbLine
 10
27.7554999999993
 20
14.64000000013038
 30
0.0
 11
27.7554999999993
 21
14.36149999999907
 31
0.0
  0
LINE
  5
BD2
330
1180
100
AcDbEntity
  8
Symbols
370
     0
100
AcDbLine
 10
13.24450000000069
 20
14.64000000013038
 30
0.0
 11
13.24450000000069
 21
14.36149999999907
 31
0.0
  0
SPLINE
  5
1143
330
1180
100
AcDbEntity
  8
Symbols
100
AcDbSpline
210
0.0
220
0.0
230
1.0
 70
     8
 71
     3
 72
     8
 73
     4
 74
     0
 42
0.000000001
 43
0.001
 40
0.0
 40
0.0
 40
0.0
 40
0.0
 40
1.0
 40
1.0
 40
1.0
 40
1.0
 10
27.14484897121286
 20
21.33572741268033
 30
0.0
 10
27.16785297134623
 20
21.36831541268219
 30
0.0
 10
27.19366897135472
 20
21.40830741268763
 30
0.0
 10
27.27034897135303
 20
21.42747741268722
 30
0.0
  0
SPLINE
  5
1125
330
1180
100
AcDbEntity
  8
Symbols
100
AcDbSpline
210
0.0
220
0.0
230
1.0
 70
     8
 71
     3
 72
     8
 73
     4
 74
     0
 42
0.000000001
 43
0.001
 40
0.0
 40
0.0
 40
0.0
 40
0.0
 40
1.0
 40
1.0
 40
1.0
 40
1.0
 10
14.18994764406176
 20
8.70125219379058
 30
0.0
 10
14.21295164419513
 20
8.733840193792432
 30
0.0
 10
14.23876764420362
 20
8.773832193797869
 30
0.0
 10
14.31544764420194
 20
8.79300219379746
 30
0.0
  0
LINE
  5
C16
330
1180
100
AcDbEntity
  8
Symbols
370
     0
100
AcDbLine
 10
20.64000000013039
 20
21.7554999999993
 30
0.0
 11
20.36149999999907
 21
21.7554999999993
 31
0.0
  0
LINE
  5
1144
330
1180
100
AcDbEntity
  8
Symbols
100
AcDbLine
 10
27.27034897135303
 20
21.42747741268722
 30
0.0
 11
27.27047697133815
 21
21.39372741268487
 31
0.0
  0
LINE
  5
1126
330
1180
100
AcDbEntity
  8
Symbols
100
AcDbLine
 10
14.31544764420194
 20
8.79300219379746
 30
0.0
 11
14.31557564418705
 21
8.75925219379512
 31
0.0
  0
LINE
  5
1145
330
1180
100
AcDbEntity
  8
Symbols
100
AcDbLine
 10
27.27047697133815
 20
21.39372741268487
 30
0.0
 11
27.27047697133815
 21
21.39372741268487
 31
0.0
  0
LINE
  5
1127
330
1180
100
AcDbEntity
  8
Symbols
100
AcDbLine
 10
14.31557564418705
 20
8.75925219379512
 30
0.0
 11
14.31557564418705
 21
8.75925219379512
 31
0.0
  0
LINE
  5
BF5
330
1180
100
AcDbEntity
  8
Symbols
370
     0
100
AcDbLine
 10
27.7554999999993
 20
14.36149999999907
 30
0.0
 11
27.27000000000407
 21
14.36149999999907
 31
0.0
  0
ARC
  5
1146
330
1180
100
AcDbEntity
  8
Symbols
100
AcDbCircle
 10
27.25901147565303
 20
21.5223657081853
 30
0.0
 40
0.0330442956979162
100
AcDbArc
 50
270.0060610814934
 51
359.9960197908621
  0
ARC
  5
1128
330
1180
100
AcDbEntity
  8
Symbols
100
AcDbCircle
 10
14.30411014850194
 20
8.88789048929554
 30
0.0
 40
0.0330442956979162
100
AcDbArc
 50
270.0060610814934
 51
359.9960197908621
  0
LINE
  5
BD3
330
1180
100
AcDbEntity
  8
Symbols
370
     0
100
AcDbLine
 10
13.24450000000069
 20
14.36149999999907
 30
0.0
 11
13.72999999999593
 21
14.36149999999907
 31
0.0
  0
ARC
  5
1147
330
1180
100
AcDbEntity
  8
Symbols
100
AcDbCircle
 10
27.25901104881625
 20
21.52236269048188
 30
0.0
 40
0.0330447224271223
100
AcDbArc
 50
0.001252202479757
 51
89.99319897244047
  0
ARC
  5
1129
330
1180
100
AcDbEntity
  8
Symbols
100
AcDbCircle
 10
14.30410972166517
 20
8.88788747159212
 30
0.0
 40
0.0330447224271223
100
AcDbArc
 50
0.001252202479757
 51
89.99319897244047
  0
LINE
  5
C17
330
1180
100
AcDbEntity
  8
Symbols
370
     0
100
AcDbLine
 10
20.36149999999907
 20
21.7554999999993
 30
0.0
 11
20.36149999999907
 21
21.27000000000407
 31
0.0
  0
ARC
  5
1148
330
1180
100
AcDbEntity
  8
Symbols
100
AcDbCircle
 10
27.25901557120225
 20
21.52236081268818
 30
0.0
 40
0.0330466000296638
100
AcDbArc
 50
90.00104014654997
 51
179.9954921107206
  0
ARC
  5
112A
330
1180
100
AcDbEntity
  8
Symbols
100
AcDbCircle
 10
14.30411424405115
 20
8.88788559379843
 30
0.0
 40
0.0330466000296638
100
AcDbArc
 50
90.00104014654997
 51
179.9954921107206
  0
ARC
  5
1149
330
1180
100
AcDbEntity
  8
Symbols
100
AcDbCircle
 10
27.25901514454011
 20
21.52236758618272
 30
0.0
 40
0.0330461735163111
100
AcDbArc
 50
180.007236082728
 51
269.9996996126542
  0
ARC
  5
112B
330
1180
100
AcDbEntity
  8
Symbols
100
AcDbCircle
 10
14.30411381738901
 20
8.88789236729297
 30
0.0
 40
0.0330461735163111
100
AcDbArc
 50
180.007236082728
 51
269.9996996126542
  0
LINE
  5
BF6
330
1180
100
AcDbEntity
  8
Symbols
370
     0
100
AcDbLine
 10
27.27000000000407
 20
14.36149999999907
 30
0.0
 11
27.27000000000406
 21
14.64000000013038
 31
0.0
  0
LINE
  5
114A
330
1180
100
AcDbEntity
  8
Symbols
100
AcDbLine
 10
27.25901497131411
 20
21.4893214126834
 30
0.0
 11
27.25901497131411
 21
21.4893214126834
 31
0.0
  0
LINE
  5
112C
330
1180
100
AcDbEntity
  8
Symbols
100
AcDbLine
 10
14.30411364416301
 20
8.854846193793641
 30
0.0
 11
14.30411364416301
 21
8.854846193793641
 31
0.0
  0
LINE
  5
BD4
330
1180
100
AcDbEntity
  8
Symbols
370
     0
100
AcDbLine
 10
13.72999999999593
 20
14.36149999999907
 30
0.0
 11
13.72999999999593
 21
14.64000000013038
 31
0.0
  0
SPLINE
  5
114B
330
1180
100
AcDbEntity
  8
Symbols
100
AcDbSpline
210
0.0
220
0.0
230
1.0
 70
     8
 71
     3
 72
     8
 73
     4
 74
     0
 42
0.000000001
 43
0.001
 40
0.0
 40
0.0
 40
0.0
 40
0.0
 40
1.0
 40
1.0
 40
1.0
 40
1.0
 10
27.27047697133815
 20
21.39372741268487
 30
0.0
 10
27.23884897131204
 20
21.38772741267638
 30
0.0
 10
27.15176897134363
 20
21.33641141267906
 30
0.0
 10
27.15176897134363
 20
21.23672741267837
 30
0.0
  0
SPLINE
  5
112D
330
1180
100
AcDbEntity
  8
Symbols
100
AcDbSpline
210
0.0
220
0.0
230
1.0
 70
     8
 71
     3
 72
     8
 73
     4
 74
     0
 42
0.000000001
 43
0.001
 40
0.0
 40
0.0
 40
0.0
 40
0.0
 40
1.0
 40
1.0
 40
1.0
 40
1.0
 10
14.31557564418705
 20
8.75925219379512
 30
0.0
 10
14.28394764416096
 20
8.753252193786619
 30
0.0
 10
14.19686764419255
 20
8.701936193789301
 30
0.0
 10
14.19686764419255
 20
8.602252193788608
 30
0.0
  0
LINE
  5
C18
330
1180
100
AcDbEntity
  8
Symbols
370
     0
100
AcDbLine
 10
20.36149999999907
 20
21.27000000000407
 30
0.0
 11
20.64000000013039
 21
21.27000000000407
 31
0.0
  0
LWPOLYLINE
  5
114C
330
1180
100
AcDbEntity
  8
Symbols
100
AcDbPolyline
 90
        2
 70
   128
 43
0.0
 10
27.15176897134363
 20
21.23672741267837
 10
27.15176897134363
 20
20.6574614126777
  0
LWPOLYLINE
  5
112E
330
1180
100
AcDbEntity
  8
Symbols
100
AcDbPolyline
 90
        2
 70
   128
 43
0.0
 10
14.19686764419255
 20
8.602252193788608
 10
14.19686764419255
 20
8.02298619378795
  0
LINE
  5
1035
330
1180
100
AcDbEntity
  8
Tent
100
AcDbLine
 10
22.8
 20
14.3
 30
0.0
 11
23.0
 21
14.5
 31
0.0
  0
LINE
  5
102D
330
1180
100
AcDbEntity
  8
Tent
100
AcDbLine
 10
17.8
 20
14.3
 30
0.0
 11
18.0
 21
14.5
 31
0.0
  0
SPLINE
  5
114D
330
1180
100
AcDbEntity
  8
Symbols
100
AcDbSpline
210
0.0
220
0.0
230
1.0
 70
     8
 71
     3
 72
     8
 73
     4
 74
     0
 42
0.000000001
 43
0.001
 40
0.0
 40
0.0
 40
0.0
 40
0.0
 40
1.0
 40
1.0
 40
1.0
 40
1.0
 10
27.15176897134363
 20
20.6574614126777
 30
0.0
 10
27.15176897134363
 20
20.64308541268581
 30
0.0
 10
27.15847897133056
 20
20.61912141267856
 30
0.0
 10
27.18723297135869
 20
20.61912141267856
 30
0.0
  0
SPLINE
  5
112F
330
1180
100
AcDbEntity
  8
Symbols
100
AcDbSpline
210
0.0
220
0.0
230
1.0
 70
     8
 71
     3
 72
     8
 73
     4
 74
     0
 42
0.000000001
 43
0.001
 40
0.0
 40
0.0
 40
0.0
 40
0.0
 40
1.0
 40
1.0
 40
1.0
 40
1.0
 10
14.19686764419255
 20
8.02298619378795
 30
0.0
 10
14.19686764419255
 20
8.00861019379606
 30
0.0
 10
14.20357764417946
 20
7.984646193788802
 30
0.0
 10
14.23233164420759
 20
7.984646193788802
 30
0.0
  0
LINE
  5
BF7
330
1180
100
AcDbEntity
  8
Symbols
370
     0
100
AcDbLine
 10
27.28600000000733
 20
14.6260000000475
 30
0.0
 11
27.74100000000908
 21
14.6260000000475
 31
0.0
  0
LINE
  5
114E
330
1180
100
AcDbEntity
  8
Symbols
100
AcDbLine
 10
27.18723297135869
 20
20.61912141267856
 30
0.0
 11
27.44238577130448
 21
20.61912141267856
 31
0.0
  0
LINE
  5
1130
330
1180
100
AcDbEntity
  8
Symbols
100
AcDbLine
 10
14.23233164420759
 20
7.984646193788802
 30
0.0
 11
14.48748444415338
 21
7.984646193788809
 31
0.0
  0
LINE
  5
BD5
330
1180
100
AcDbEntity
  8
Symbols
370
     0
100
AcDbLine
 10
13.71399999999267
 20
14.6260000000475
 30
0.0
 11
13.25899999999091
 21
14.6260000000475
 31
0.0
  0
SPLINE
  5
114F
330
1180
100
AcDbEntity
  8
Symbols
100
AcDbSpline
210
0.0
220
0.0
230
1.0
 70
     8
 71
     3
 72
     8
 73
     4
 74
     0
 42
0.000000001
 43
0.001
 40
0.0
 40
0.0
 40
0.0
 40
0.0
 40
1.0
 40
1.0
 40
1.0
 40
1.0
 10
27.44238577130448
 20
20.61912141267856
 30
0.0
 10
27.47114177134784
 20
20.61912141267856
 30
0.0
 10
27.47784977131955
 20
20.64308541268581
 30
0.0
 10
27.47784977131955
 20
20.6574614126777
 30
0.0
  0
SPLINE
  5
1131
330
1180
100
AcDbEntity
  8
Symbols
100
AcDbSpline
210
0.0
220
0.0
230
1.0
 70
     8
 71
     3
 72
     8
 73
     4
 74
     0
 42
0.000000001
 43
0.001
 40
0.0
 40
0.0
 40
0.0
 40
0.0
 40
1.0
 40
1.0
 40
1.0
 40
1.0
 10
14.48748444415338
 20
7.984646193788809
 30
0.0
 10
14.51624044419674
 20
7.984646193788809
 30
0.0
 10
14.52294844416845
 20
8.00861019379606
 30
0.0
 10
14.52294844416845
 20
8.02298619378795
 30
0.0
  0
LINE
  5
C19
330
1180
100
AcDbEntity
  8
Symbols
370
     0
100
AcDbLine
 10
20.6260000000475
 20
21.28600000000733
 30
0.0
 11
20.6260000000475
 21
21.74100000000908
 31
0.0
  0
LINE
  5
1150
330
1180
100
AcDbEntity
  8
Symbols
100
AcDbLine
 10
27.47784977131955
 20
20.6574614126777
 30
0.0
 11
27.47784977131955
 21
21.23672741267837
 31
0.0
  0
LINE
  5
1132
330
1180
100
AcDbEntity
  8
Symbols
100
AcDbLine
 10
14.52294844416845
 20
8.02298619378795
 30
0.0
 11
14.52294844416845
 21
8.602252193788608
 31
0.0
  0
SPLINE
  5
1151
330
1180
100
AcDbEntity
  8
Symbols
100
AcDbSpline
210
0.0
220
0.0
230
1.0
 70
     8
 71
     3
 72
     8
 73
     4
 74
     0
 42
0.000000001
 43
0.001
 40
0.0
 40
0.0
 40
0.0
 40
0.0
 40
1.0
 40
1.0
 40
1.0
 40
1.0
 10
27.47784977131955
 20
21.23672741267837
 30
0.0
 10
27.47784977131955
 20
21.33641141267906
 30
0.0
 10
27.39384977134607
 20
21.38772741267638
 30
0.0
 10
27.36184977133955
 20
21.39372741268487
 30
0.0
  0
SPLINE
  5
1133
330
1180
100
AcDbEntity
  8
Symbols
100
AcDbSpline
210
0.0
220
0.0
230
1.0
 70
     8
 71
     3
 72
     8
 73
     4
 74
     0
 42
0.000000001
 43
0.001
 40
0.0
 40
0.0
 40
0.0
 40
0.0
 40
1.0
 40
1.0
 40
1.0
 40
1.0
 10
14.52294844416845
 20
8.602252193788608
 30
0.0
 10
14.52294844416845
 20
8.701936193789301
 30
0.0
 10
14.43894844419499
 20
8.753252193786619
 30
0.0
 10
14.40694844418846
 20
8.75925219379512
 30
0.0
  0
LINE
  5
BF8
330
1180
100
AcDbEntity
  8
Symbols
370
     0
100
AcDbLine
 10
27.74100000000908
 20
14.6260000000475
 30
0.0
 11
27.74100000000908
 21
14.3760000000475
 31
0.0
  0
LINE
  5
1152
330
1180
100
AcDbEntity
  8
Symbols
100
AcDbLine
 10
27.36184977133955
 20
21.39372741268487
 30
0.0
 11
27.36199577134532
 21
21.43400941268663
 31
0.0
  0
LINE
  5
1134
330
1180
100
AcDbEntity
  8
Symbols
100
AcDbLine
 10
14.40694844418846
 20
8.75925219379512
 30
0.0
 11
14.40709444419423
 21
8.79953419379687
 31
0.0
  0
LINE
  5
BD6
330
1180
100
AcDbEntity
  8
Symbols
370
     0
100
AcDbLine
 10
13.25899999999091
 20
14.6260000000475
 30
0.0
 11
13.25899999999091
 21
14.3760000000475
 31
0.0
  0
LINE
  5
1153
330
1180
100
AcDbEntity
  8
Symbols
100
AcDbLine
 10
27.36199577134532
 20
21.43400941268663
 30
0.0
 11
27.47857377130275
 21
21.43400941268663
 31
0.0
  0
LINE
  5
1135
330
1180
100
AcDbEntity
  8
Symbols
100
AcDbLine
 10
14.40709444419423
 20
8.79953419379687
 30
0.0
 11
14.52367244415167
 21
8.79953419379688
 31
0.0
  0
LINE
  5
C1A
330
1180
100
AcDbEntity
  8
Symbols
370
     0
100
AcDbLine
 10
20.6260000000475
 20
21.74100000000908
 30
0.0
 11
20.3760000000475
 21
21.74100000000908
 31
0.0
  0
LINE
  5
1154
330
1180
100
AcDbEntity
  8
Symbols
100
AcDbLine
 10
27.47857377130275
 20
21.43400941268663
 30
0.0
 11
27.47857377130263
 21
21.40908741268974
 31
0.0
  0
LINE
  5
1136
330
1180
100
AcDbEntity
  8
Symbols
100
AcDbLine
 10
14.52367244415167
 20
8.79953419379688
 30
0.0
 11
14.52367244415153
 21
8.774612193799989
 31
0.0
  0
LINE
  5
1155
330
1180
100
AcDbEntity
  8
Symbols
100
AcDbLine
 10
27.47857377130263
 20
21.40908741268974
 30
0.0
 11
27.76384977134142
 21
21.36595741268427
 31
0.0
  0
LINE
  5
1137
330
1180
100
AcDbEntity
  8
Symbols
100
AcDbLine
 10
14.52367244415153
 20
8.774612193799989
 30
0.0
 11
14.80894844419032
 21
8.73148219379452
 31
0.0
  0
LINE
  5
BF9
330
1180
100
AcDbEntity
  8
Symbols
370
     0
100
AcDbLine
 10
27.74100000000908
 20
14.3760000000475
 30
0.0
 11
27.28600000000733
 21
14.3760000000475
 31
0.0
  0
LINE
  5
1156
330
1180
100
AcDbEntity
  8
Symbols
100
AcDbLine
 10
27.76384977134142
 20
21.36595741268427
 30
0.0
 11
27.76384977134142
 21
21.56172741269
 31
0.0
  0
LINE
  5
1138
330
1180
100
AcDbEntity
  8
Symbols
100
AcDbLine
 10
14.80894844419032
 20
8.73148219379452
 30
0.0
 11
14.80894844419032
 21
8.92725219380024
 31
0.0
  0
LINE
  5
BD7
330
1180
100
AcDbEntity
  8
Symbols
370
     0
100
AcDbLine
 10
13.25899999999091
 20
14.3760000000475
 30
0.0
 11
13.71399999999267
 21
14.3760000000475
 31
0.0
  0
LINE
  5
1157
330
1180
100
AcDbEntity
  8
Symbols
100
AcDbLine
 10
27.76384977134142
 20
21.56172741269
 30
0.0
 11
27.47857377130263
 21
21.52027341268438
 31
0.0
  0
LINE
  5
1139
330
1180
100
AcDbEntity
  8
Symbols
100
AcDbLine
 10
14.80894844419032
 20
8.92725219380024
 30
0.0
 11
14.52367244415153
 21
8.88579819379462
 31
0.0
  0
LINE
  5
C1B
330
1180
100
AcDbEntity
  8
Symbols
370
     0
100
AcDbLine
 10
20.3760000000475
 20
21.74100000000908
 30
0.0
 11
20.3760000000475
 21
21.28600000000733
 31
0.0
  0
LINE
  5
1158
330
1180
100
AcDbEntity
  8
Symbols
100
AcDbLine
 10
27.47857377130263
 20
21.52027341268438
 30
0.0
 11
27.47857377130267
 21
21.49343541267915
 31
0.0
  0
LINE
  5
113A
330
1180
100
AcDbEntity
  8
Symbols
100
AcDbLine
 10
14.52367244415153
 20
8.88579819379462
 30
0.0
 11
14.52367244415157
 21
8.8589601937894
 31
0.0
  0
LINE
  5
1036
330
1180
100
AcDbEntity
  8
Tent
100
AcDbLine
 10
23.0
 20
14.5
 30
0.0
 11
23.2
 21
14.7
 31
0.0
  0
LINE
  5
102E
330
1180
100
AcDbEntity
  8
Tent
100
AcDbLine
 10
18.0
 20
14.5
 30
0.0
 11
18.2
 21
14.7
 31
0.0
  0
LINE
  5
1159
330
1180
100
AcDbEntity
  8
Symbols
100
AcDbLine
 10
27.47857377130267
 20
21.49343541267915
 30
0.0
 11
27.36255377134505
 21
21.49343541267915
 31
0.0
  0
LINE
  5
113B
330
1180
100
AcDbEntity
  8
Symbols
100
AcDbLine
 10
14.52367244415157
 20
8.8589601937894
 30
0.0
 11
14.40765244419397
 21
8.8589601937894
 31
0.0
  0
LINE
  5
BFA
330
1180
100
AcDbEntity
  8
Symbols
370
     0
100
AcDbLine
 10
27.28600000000733
 20
14.3760000000475
 30
0.0
 11
27.28600000000733
 21
14.6260000000475
 31
0.0
  0
LINE
  5
115A
330
1180
100
AcDbEntity
  8
Symbols
100
AcDbLine
 10
27.36255377134505
 20
21.49343541267915
 30
0.0
 11
27.36255377134505
 21
21.53556941268216
 31
0.0
  0
LINE
  5
113C
330
1180
100
AcDbEntity
  8
Symbols
100
AcDbLine
 10
14.40765244419397
 20
8.8589601937894
 30
0.0
 11
14.40765244419397
 21
8.9010941937924
 31
0.0
  0
LINE
  5
BD8
330
1180
100
AcDbEntity
  8
Symbols
370
     0
100
AcDbLine
 10
13.71399999999267
 20
14.3760000000475
 30
0.0
 11
13.71399999999267
 21
14.6260000000475
 31
0.0
  0
LINE
  5
115B
330
1180
100
AcDbEntity
  8
Symbols
100
AcDbLine
 10
27.36255377134505
 20
21.53556941268216
 30
0.0
 11
27.3290097713397
 21
21.53556941268214
 31
0.0
  0
LINE
  5
113D
330
1180
100
AcDbEntity
  8
Symbols
100
AcDbLine
 10
14.40765244419397
 20
8.9010941937924
 30
0.0
 11
14.37410844418862
 21
8.901094193792389
 31
0.0
  0
LINE
  5
C1C
330
1180
100
AcDbEntity
  8
Symbols
370
     0
100
AcDbLine
 10
20.3760000000475
 20
21.28600000000733
 30
0.0
 11
20.6260000000475
 21
21.28600000000733
 31
0.0
  0
SPLINE
  5
115C
330
1180
100
AcDbEntity
  8
Symbols
100
AcDbSpline
210
0.0
220
0.0
230
1.0
 70
     8
 71
     3
 72
     8
 73
     4
 74
     0
 42
0.000000001
 43
0.001
 40
0.0
 40
0.0
 40
0.0
 40
0.0
 40
1.0
 40
1.0
 40
1.0
 40
1.0
 10
27.3290097713397
 20
21.53556941268214
 30
0.0
 10
27.3290097713397
 20
21.56176741268899
 30
0.0
 10
27.30054977133834
 20
21.59537941268824
 30
0.0
 10
27.26007897120865
 20
21.59537941268826
 30
0.0
  0
SPLINE
  5
113E
330
1180
100
AcDbEntity
  8
Symbols
100
AcDbSpline
210
0.0
220
0.0
230
1.0
 70
     8
 71
     3
 72
     8
 73
     4
 74
     0
 42
0.000000001
 43
0.001
 40
0.0
 40
0.0
 40
0.0
 40
0.0
 40
1.0
 40
1.0
 40
1.0
 40
1.0
 10
14.37410844418862
 20
8.901094193792389
 30
0.0
 10
14.37410844418862
 20
8.927292193799229
 30
0.0
 10
14.34564844418726
 20
8.96090419379848
 30
0.0
 10
14.30517764405755
 20
8.960904193798498
 30
0.0
  0
SPLINE
  5
115D
330
1180
100
AcDbEntity
  8
Symbols
100
AcDbSpline
210
0.0
220
0.0
230
1.0
 70
     8
 71
     3
 72
     8
 73
     4
 74
     0
 42
0.000000001
 43
0.001
 40
0.0
 40
0.0
 40
0.0
 40
0.0
 40
1.0
 40
1.0
 40
1.0
 40
1.0
 10
27.26007897120865
 20
21.59537941268826
 30
0.0
 10
27.22067497134406
 20
21.59537941268826
 30
0.0
 10
27.18499697132932
 20
21.56462541268154
 30
0.0
 10
27.18499697132932
 20
21.51819141267804
 30
0.0
  0
SPLINE
  5
113F
330
1180
100
AcDbEntity
  8
Symbols
100
AcDbSpline
210
0.0
220
0.0
230
1.0
 70
     8
 71
     3
 72
     8
 73
     4
 74
     0
 42
0.000000001
 43
0.001
 40
0.0
 40
0.0
 40
0.0
 40
0.0
 40
1.0
 40
1.0
 40
1.0
 40
1.0
 10
14.30517764405755
 20
8.960904193798498
 30
0.0
 10
14.26577364419296
 20
8.960904193798498
 30
0.0
 10
14.23009564417822
 20
8.930150193791789
 30
0.0
 10
14.23009564417822
 20
8.883716193788281
 30
0.0
  0
LINE
  5
BFB
330
1180
100
AcDbEntity
  8
Symbols
370
     0
100
AcDbLine
 10
27.28600000000733
 20
14.6260000000475
 30
0.0
 11
27.28600000000733
 21
14.6260000000475
 31
0.0
  0
SPLINE
  5
115E
330
1180
100
AcDbEntity
  8
Symbols
100
AcDbSpline
210
0.0
220
0.0
230
1.0
 70
     8
 71
     3
 72
     8
 73
     4
 74
     0
 42
0.000000001
 43
0.001
 40
0.0
 40
0.0
 40
0.0
 40
0.0
 40
1.0
 40
1.0
 40
1.0
 40
1.0
 10
27.18499697132932
 20
21.51819141267804
 30
0.0
 10
27.1849969712129
 20
21.49614541267982
 30
0.0
 10
27.19766497133962
 20
21.47643741268728
 30
0.0
 10
27.20884897134232
 20
21.46972741268581
 30
0.0
  0
SPLINE
  5
1140
330
1180
100
AcDbEntity
  8
Symbols
100
AcDbSpline
210
0.0
220
0.0
230
1.0
 70
     8
 71
     3
 72
     8
 73
     4
 74
     0
 42
0.000000001
 43
0.001
 40
0.0
 40
0.0
 40
0.0
 40
0.0
 40
1.0
 40
1.0
 40
1.0
 40
1.0
 10
14.23009564417822
 20
8.883716193788281
 30
0.0
 10
14.23009564406182
 20
8.861670193790069
 30
0.0
 10
14.24276364418853
 20
8.84196219379752
 30
0.0
 10
14.25394764419123
 20
8.835252193796048
 30
0.0
  0
LINE
  5
BD9
330
1180
100
AcDbEntity
  8
Symbols
370
     0
100
AcDbLine
 10
13.71399999999267
 20
14.6260000000475
 30
0.0
 11
13.71399999999267
 21
14.6260000000475
 31
0.0
  0
SPLINE
  5
115F
330
1180
100
AcDbEntity
  8
Symbols
100
AcDbSpline
210
0.0
220
0.0
230
1.0
 70
     8
 71
     3
 72
     8
 73
     4
 74
     0
 42
0.000000001
 43
0.001
 40
0.0
 40
0.0
 40
0.0
 40
0.0
 40
1.0
 40
1.0
 40
1.0
 40
1.0
 10
27.20884897134232
 20
21.46972741268581
 30
0.0
 10
27.16453497134346
 20
21.45335341268689
 30
0.0
 10
27.10510705131303
 20
21.39722941267718
 30
0.0
 10
27.09338305121485
 20
21.36303941268596
 30
0.0
  0
SPLINE
  5
1141
330
1180
100
AcDbEntity
  8
Symbols
100
AcDbSpline
210
0.0
220
0.0
230
1.0
 70
     8
 71
     3
 72
     8
 73
     4
 74
     0
 42
0.000000001
 43
0.001
 40
0.0
 40
0.0
 40
0.0
 40
0.0
 40
1.0
 40
1.0
 40
1.0
 40
1.0
 10
14.25394764419123
 20
8.835252193796048
 30
0.0
 10
14.20963364419238
 20
8.81887819379714
 30
0.0
 10
14.15020572416195
 20
8.76275419378742
 30
0.0
 10
14.13848172406375
 20
8.728564193796199
 30
0.0
  0
LINE
  5
C1D
330
1180
100
AcDbEntity
  8
Symbols
370
     0
100
AcDbLine
 10
20.6260000000475
 20
21.28600000000733
 30
0.0
 11
20.6260000000475
 21
21.28600000000733
 31
0.0
  0
SPLINE
  5
1160
330
1180
100
AcDbEntity
  8
Symbols
100
AcDbSpline
210
0.0
220
0.0
230
1.0
 70
     8
 71
     3
 72
     8
 73
     4
 74
     0
 42
0.000000001
 43
0.001
 40
0.0
 40
0.0
 40
0.0
 40
0.0
 40
1.0
 40
1.0
 40
1.0
 40
1.0
 10
27.09338305121485
 20
21.36303941268596
 30
0.0
 10
27.0770890312196
 20
21.33045141268411
 30
0.0
 10
27.12184497131232
 20
21.30313741267781
 30
0.0
 10
27.14484897121286
 20
21.33572741268033
 30
0.0
  0
SPLINE
  5
1142
330
1180
100
AcDbEntity
  8
Symbols
100
AcDbSpline
210
0.0
220
0.0
230
1.0
 70
     8
 71
     3
 72
     8
 73
     4
 74
     0
 42
0.000000001
 43
0.001
 40
0.0
 40
0.0
 40
0.0
 40
0.0
 40
1.0
 40
1.0
 40
1.0
 40
1.0
 10
14.13848172406375
 20
8.728564193796199
 30
0.0
 10
14.12218770406851
 20
8.695976193794351
 30
0.0
 10
14.16694364416122
 20
8.668662193788052
 30
0.0
 10
14.18994764406176
 20
8.70125219379058
 30
0.0
  0
LINE
  5
BBD
330
1180
100
AcDbEntity
  8
Tent
100
AcDbLine
 10
18.5
 20
22.0
 30
0.0
 11
19.39442719099991
 21
22.44721359549995
 31
0.0
  0
LINE
  5
BFC
330
1180
100
AcDbEntity
  8
Symbols
100
AcDbLine
 10
27.41789599999902
 20
14.50160900014452
 30
0.0
 11
27.46314300000084
 21
14.50160900014452
 31
0.0
  0
LINE
  5
BDA
330
1180
100
AcDbEntity
  8
Symbols
100
AcDbLine
 10
13.58210400000097
 20
14.50160900014452
 30
0.0
 11
13.53685699999915
 21
14.50160900014452
 31
0.0
  0
LINE
  5
C1E
330
1180
100
AcDbEntity
  8
Symbols
100
AcDbLine
 10
20.50160900014453
 20
21.41789599999901
 30
0.0
 11
20.50160900014453
 21
21.46314300000085
 31
0.0
  0
MTEXT
  5
1161
330
1180
100
AcDbEntity
  8
0
100
AcDbMText
 10
26.7501731887267
 20
17.51711098544084
 30
0.0
 40
0.3
 41
0.0
 46
0.0
 71
     5
 72
     1
  1
bar
  7
textstyle15
 73
     1
 44
1.0
  0
LINE
  5
BBE
330
1180
100
AcDbEntity
  8
Tent
100
AcDbLine
 10
20.5
 20
22.0
 30
0.0
 11
21.39442719099991
 21
22.44721359549995
 31
0.0
  0
LINE
  5
BFD
330
1180
100
AcDbEntity
  8
Symbols
100
AcDbLine
 10
27.41789599999902
 20
14.54054300009738
 30
0.0
 11
27.41789599999902
 21
14.50160900014452
 31
0.0
  0
LINE
  5
BDB
330
1180
100
AcDbEntity
  8
Symbols
100
AcDbLine
 10
13.58210400000097
 20
14.54054300009738
 30
0.0
 11
13.58210400000097
 21
14.50160900014452
 31
0.0
  0
LINE
  5
C1F
330
1180
100
AcDbEntity
  8
Symbols
100
AcDbLine
 10
20.54054300009739
 20
21.41789599999901
 30
0.0
 11
20.50160900014453
 21
21.41789599999901
 31
0.0
  0
LINE
  5
BFE
330
1180
100
AcDbEntity
  8
Symbols
100
AcDbLine
 10
27.40000700000381
 20
14.54790900013177
 30
0.0
 11
27.41789599999902
 21
14.54054300009738
 31
0.0
  0
LINE
  5
BDC
330
1180
100
AcDbEntity
  8
Symbols
100
AcDbLine
 10
13.59999299999618
 20
14.54790900013177
 30
0.0
 11
13.58210400000097
 21
14.54054300009738
 31
0.0
  0
LINE
  5
C20
330
1180
100
AcDbEntity
  8
Symbols
100
AcDbLine
 10
20.54790900013177
 20
21.40000700000382
 30
0.0
 11
20.54054300009739
 21
21.41789599999901
 31
0.0
  0
LINE
  5
BBF
330
1180
100
AcDbEntity
  8
Tent
100
AcDbLine
 10
20.5
 20
22.0
 30
0.0
 11
19.60557280900008
 21
22.44721359549996
 31
0.0
  0
LINE
  5
BFF
330
1180
100
AcDbEntity
  8
Symbols
100
AcDbLine
 10
27.35475900000893
 20
14.54790900013177
 30
0.0
 11
27.40000700000381
 21
14.54790900013177
 31
0.0
  0
LINE
  5
BDD
330
1180
100
AcDbEntity
  8
Symbols
100
AcDbLine
 10
13.64524099999107
 20
14.54790900013177
 30
0.0
 11
13.59999299999618
 21
14.54790900013177
 31
0.0
  0
LINE
  5
C21
330
1180
100
AcDbEntity
  8
Symbols
100
AcDbLine
 10
20.54790900013177
 20
21.35475900000892
 30
0.0
 11
20.54790900013177
 21
21.40000700000382
 31
0.0
  0
LINE
  5
BC0
330
1180
100
AcDbEntity
  8
Tent
100
AcDbLine
 10
22.5
 20
22.0
 30
0.0
 11
21.60557280900008
 21
22.44721359549996
 31
0.0
  0
LINE
  5
C00
330
1180
100
AcDbEntity
  8
Symbols
100
AcDbLine
 10
27.33055700000841
 20
14.51634100003866
 30
0.0
 11
27.35475900000893
 21
14.54790900013177
 31
0.0
  0
LINE
  5
BDE
330
1180
100
AcDbEntity
  8
Symbols
100
AcDbLine
 10
13.66944299999158
 20
14.51634100003866
 30
0.0
 11
13.64524099999107
 21
14.54790900013177
 31
0.0
  0
LINE
  5
C22
330
1180
100
AcDbEntity
  8
Symbols
100
AcDbLine
 10
20.51634100003866
 20
21.33055700000841
 30
0.0
 11
20.54790900013177
 21
21.35475900000892
 31
0.0
  0
LINE
  5
C01
330
1180
100
AcDbEntity
  8
Symbols
100
AcDbLine
 10
27.40947700000834
 20
14.45531099999789
 30
0.0
 11
27.40947700000834
 21
14.40901100001065
 31
0.0
  0
LINE
  5
BDF
330
1180
100
AcDbEntity
  8
Symbols
100
AcDbLine
 10
13.59052299999165
 20
14.45531099999789
 30
0.0
 11
13.59052299999165
 21
14.40901100001065
 31
0.0
  0
LINE
  5
C23
330
1180
100
AcDbEntity
  8
Symbols
100
AcDbLine
 10
20.45531099999789
 20
21.40947700000834
 30
0.0
 11
20.40901100001065
 21
21.40947700000834
 31
0.0
  0
LINE
  5
C02
330
1180
100
AcDbEntity
  8
Symbols
100
AcDbLine
 10
27.36949199999799
 20
14.47951199999079
 30
0.0
 11
27.40947700000834
 21
14.45531099999789
 31
0.0
  0
LINE
  5
BE0
330
1180
100
AcDbEntity
  8
Symbols
100
AcDbLine
 10
13.630508000002
 20
14.47951199999079
 30
0.0
 11
13.59052299999165
 21
14.45531099999789
 31
0.0
  0
LINE
  5
C24
330
1180
100
AcDbEntity
  8
Symbols
100
AcDbLine
 10
20.47951199999079
 20
21.36949199999799
 30
0.0
 11
20.45531099999789
 21
21.40947700000834
 31
0.0
  0
LINE
  5
C03
330
1180
100
AcDbEntity
  8
Symbols
100
AcDbLine
 10
27.35791600000812
 20
14.43426500004717
 30
0.0
 11
27.305303000001
 21
14.43426500004717
 31
0.0
  0
LINE
  5
BE1
330
1180
100
AcDbEntity
  8
Symbols
100
AcDbLine
 10
13.64208399999188
 20
14.43426500004717
 30
0.0
 11
13.694696999999
 21
14.43426500004717
 31
0.0
  0
LINE
  5
C25
330
1180
100
AcDbEntity
  8
Symbols
100
AcDbLine
 10
20.43426500004716
 20
21.35791600000812
 30
0.0
 11
20.43426500004716
 21
21.305303000001
 31
0.0
  0
LINE
  5
C04
330
1180
100
AcDbEntity
  8
Symbols
100
AcDbLine
 10
27.35791600000812
 20
14.48372200003359
 30
0.0
 11
27.35791600000812
 21
14.43426500004717
 31
0.0
  0
LINE
  5
BE2
330
1180
100
AcDbEntity
  8
Symbols
100
AcDbLine
 10
13.64208399999188
 20
14.48372200003359
 30
0.0
 11
13.64208399999188
 21
14.43426500004717
 31
0.0
  0
LINE
  5
C26
330
1180
100
AcDbEntity
  8
Symbols
100
AcDbLine
 10
20.48372200003359
 20
21.35791600000812
 30
0.0
 11
20.43426500004716
 21
21.35791600000812
 31
0.0
  0
LINE
  5
C05
330
1180
100
AcDbEntity
  8
Symbols
100
AcDbLine
 10
27.35055000000284
 20
14.49003500014078
 30
0.0
 11
27.39474499999777
 21
14.54896200000075
 31
0.0
  0
LINE
  5
BE3
330
1180
100
AcDbEntity
  8
Symbols
100
AcDbLine
 10
13.64944999999715
 20
14.49003500014078
 30
0.0
 11
13.60525500000222
 21
14.54896200000075
 31
0.0
  0
LINE
  5
C27
330
1180
100
AcDbEntity
  8
Symbols
100
AcDbLine
 10
20.49003500014078
 20
21.35055000000284
 30
0.0
 11
20.54896200000076
 21
21.39474499999778
 31
0.0
  0
LINE
  5
C06
330
1180
100
AcDbEntity
  8
Symbols
100
AcDbLine
 10
27.3800140000094
 20
14.47004200000083
 30
0.0
 11
27.35055000000284
 21
14.49003500014078
 31
0.0
  0
LINE
  5
BE4
330
1180
100
AcDbEntity
  8
Symbols
100
AcDbLine
 10
13.6199859999906
 20
14.47004200000083
 30
0.0
 11
13.64944999999715
 21
14.49003500014078
 31
0.0
  0
LINE
  5
C28
330
1180
100
AcDbEntity
  8
Symbols
100
AcDbLine
 10
20.47004200000083
 20
21.38001400000939
 30
0.0
 11
20.49003500014078
 21
21.35055000000284
 31
0.0
  0
LINE
  5
C07
330
1180
100
AcDbEntity
  8
Symbols
100
AcDbLine
 10
27.77000000000407
 20
14.54000000003725
 30
0.0
 11
27.77000000000407
 21
14.54000000003725
 31
0.0
  0
LINE
  5
BE5
330
1180
100
AcDbEntity
  8
Symbols
100
AcDbLine
 10
13.22999999999593
 20
14.54000000003725
 30
0.0
 11
13.22999999999593
 21
14.54000000003725
 31
0.0
  0
LINE
  5
C29
330
1180
100
AcDbEntity
  8
Symbols
100
AcDbLine
 10
20.54000000003725
 20
21.77000000000407
 30
0.0
 11
20.54000000003725
 21
21.77000000000407
 31
0.0
  0
LINE
  5
C08
330
1180
100
AcDbEntity
  8
Symbols
100
AcDbLine
 10
27.42105200000515
 20
14.52476000000024
 30
0.0
 11
27.3800140000094
 21
14.47004200000083
 31
0.0
  0
LINE
  5
BE6
330
1180
100
AcDbEntity
  8
Symbols
100
AcDbLine
 10
13.57894799999485
 20
14.52476000000024
 30
0.0
 11
13.6199859999906
 21
14.47004200000083
 31
0.0
  0
LINE
  5
C2A
330
1180
100
AcDbEntity
  8
Symbols
100
AcDbLine
 10
20.52476000000024
 20
21.42105200000515
 30
0.0
 11
20.47004200000083
 21
21.38001400000939
 31
0.0
  0
LINE
  5
C09
330
1180
100
AcDbEntity
  8
Symbols
100
AcDbLine
 10
27.39474499999777
 20
14.54896200000075
 30
0.0
 11
27.42105200000515
 21
14.52476000000024
 31
0.0
  0
LINE
  5
BE7
330
1180
100
AcDbEntity
  8
Symbols
100
AcDbLine
 10
13.60525500000222
 20
14.54896200000075
 30
0.0
 11
13.57894799999485
 21
14.52476000000024
 31
0.0
  0
LINE
  5
C2B
330
1180
100
AcDbEntity
  8
Symbols
100
AcDbLine
 10
20.54896200000076
 20
21.39474499999778
 30
0.0
 11
20.52476000000024
 21
21.42105200000515
 31
0.0
  0
LINE
  5
C0A
330
1180
100
AcDbEntity
  8
Symbols
100
AcDbLine
 10
27.39474499999777
 20
14.54896200000075
 30
0.0
 11
27.39474499999777
 21
14.54896200000075
 31
0.0
  0
LINE
  5
BE8
330
1180
100
AcDbEntity
  8
Symbols
100
AcDbLine
 10
13.60525500000222
 20
14.54896200000075
 30
0.0
 11
13.60525500000222
 21
14.54896200000075
 31
0.0
  0
LINE
  5
C2C
330
1180
100
AcDbEntity
  8
Symbols
100
AcDbLine
 10
20.54896200000076
 20
21.39474499999778
 30
0.0
 11
20.54896200000076
 21
21.39474499999778
 31
0.0
  0
LINE
  5
C0B
330
1180
100
AcDbEntity
  8
Symbols
100
AcDbLine
 10
27.5
 20
14.5
 30
0.0
 11
27.58259900000118
 21
14.5
 31
0.0
  0
LINE
  5
BE9
330
1180
100
AcDbEntity
  8
Symbols
100
AcDbLine
 10
13.49999999999999
 20
14.5
 30
0.0
 11
13.41740099999879
 21
14.5
 31
0.0
  0
LINE
  5
C2D
330
1180
100
AcDbEntity
  8
Symbols
100
AcDbLine
 10
20.5
 20
21.5
 30
0.0
 11
20.5
 21
21.5825990000012
 31
0.0
  0
LINE
  5
C0C
330
1180
100
AcDbEntity
  8
Symbols
100
AcDbLine
 10
27.56892000000515
 20
14.52209899999434
 30
0.0
 11
27.56892000000516
 21
14.4779030001373
 31
0.0
  0
LINE
  5
BEA
330
1180
100
AcDbEntity
  8
Symbols
100
AcDbLine
 10
13.43107999999484
 20
14.52209899999434
 30
0.0
 11
13.43107999999484
 21
14.4779030001373
 31
0.0
  0
LINE
  5
C2E
330
1180
100
AcDbEntity
  8
Symbols
100
AcDbLine
 10
20.52209899999434
 20
21.56892000000516
 30
0.0
 11
20.4779030001373
 21
21.56892000000516
 31
0.0
  0
LINE
  5
C0D
330
1180
100
AcDbEntity
  8
Symbols
100
AcDbLine
 10
27.56892000000516
 20
14.4779030001373
 30
0.0
 11
27.60574900000937
 21
14.5
 31
0.0
  0
LINE
  5
BEB
330
1180
100
AcDbEntity
  8
Symbols
100
AcDbLine
 10
13.43107999999484
 20
14.4779030001373
 30
0.0
 11
13.39425099999061
 21
14.5
 31
0.0
  0
LINE
  5
C2F
330
1180
100
AcDbEntity
  8
Symbols
100
AcDbLine
 10
20.4779030001373
 20
21.56892000000516
 30
0.0
 11
20.5
 21
21.60574900000938
 31
0.0
  0
LINE
  5
C0E
330
1180
100
AcDbEntity
  8
Symbols
100
AcDbLine
 10
27.60574900000937
 20
14.5
 30
0.0
 11
27.56892000000515
 21
14.52209899999434
 31
0.0
  0
LINE
  5
BEC
330
1180
100
AcDbEntity
  8
Symbols
100
AcDbLine
 10
13.39425099999061
 20
14.5
 30
0.0
 11
13.43107999999484
 21
14.52209899999434
 31
0.0
  0
LINE
  5
C30
330
1180
100
AcDbEntity
  8
Symbols
100
AcDbLine
 10
20.5
 20
21.60574900000938
 30
0.0
 11
20.52209899999434
 21
21.56892000000516
 31
0.0
  0
LWPOLYLINE
  5
CC8
330
1180
100
AcDbEntity
  8
Interior
100
AcDbPolyline
 90
        6
 70
   129
 43
0.0
 10
16.36568542494925
 20
20.04852813742387
 10
16.36568542494923
 20
19.76568542494924
 10
15.23431457505076
 20
18.63431457505076
 10
14.95147186257614
 20
18.63431457505076
 10
14.3857864376269
 20
19.2
 10
15.80000000000001
 20
20.61421356237311
  0
LWPOLYLINE
  5
CC4
330
1180
100
AcDbEntity
  8
Interior
100
AcDbPolyline
 90
        6
 70
   129
 43
0.0
 10
15.2
 20
18.5
 10
15.39999999999999
 20
18.29999999999998
 10
15.39999999999999
 20
16.69999999999999
 10
15.19999999999999
 20
16.49999999999998
 10
14.39999999999999
 20
16.49999999999998
 10
14.39999999999999
 20
18.5
  0
LWPOLYLINE
  5
CB5
330
1180
100
AcDbEntity
  8
Interior
100
AcDbPolyline
 90
        6
 70
   129
 43
0.0
 10
18.5
 20
19.9
 10
18.29999999999998
 20
19.7
 10
16.7
 20
19.7
 10
16.49999999999999
 20
19.9
 10
16.49999999999999
 20
20.7
 10
18.5
 20
20.7
  0
DIMENSION
  5
BC7
330
1180
100
AcDbEntity
  8
Dimensions
100
AcDbDimension
280
     0
 10
12.20000000000006
 20
15.5
 30
0.0
 11
11.97500000000005
 21
14.5
 31
0.0
 70
   161
 71
     5
 42
-1.0
 73
     0
 74
     0
 75
     0
  3
QCADDimStyle
100
AcDbAlignedDimension
 13
13.0
 23
15.5
 33
0.0
 14
13.0
 24
13.50000000000004
 34
0.0
1001
ACAD
1000
DSTYLE
1002
{
1070
    41
1040
0.18
1070
    44
1040
0.18
1070
    42
1040
0.0625
1070
   147
1040
0.09
1070
   144
1040
1000.0
1070
    77
1070
     0
1070
    73
1070
     1
1070
   279
1070
     2
1070
   340
1005
0
1070
   140
1040
0.18
1002
}
  0
DIMENSION
  5
BCA
330
1180
100
AcDbEntity
  8
Dimensions
100
AcDbDimension
280
     0
 10
28.79999999999994
 20
15.49999999999998
 30
0.0
 11
29.02499999999995
 21
14.5
 31
0.0
 70
   161
 71
     5
 42
-1.0
 73
     0
 74
     0
 75
     0
  3
QCADDimStyle
100
AcDbAlignedDimension
 13
28.00000000000003
 23
15.49999999999999
 33
0.0
 14
28.0
 24
13.50000000000003
 34
0.0
1001
ACAD
1000
DSTYLE
1002
{
1070
    41
1040
0.18
1070
    44
1040
0.18
1070
    42
1040
0.0625
1070
   147
1040
0.09
1070
   144
1040
1000.0
1070
    77
1070
     0
1070
    73
1070
     1
1070
   279
1070
     2
1070
   340
1005
0
1070
   140
1040
0.18
1002
}
  0
LWPOLYLINE
  5
CF0
330
1180
100
AcDbEntity
  8
Interior
100
AcDbPolyline
 90
        6
 70
   129
 43
0.0
 10
26.72500000000001
 20
10.15
 10
26.625
 20
10.05000000000001
 10
26.375
 20
10.05000000000001
 10
26.27499999999999
 20
10.15
 10
26.27500000000001
 20
10.5
 10
26.72500000000001
 20
10.5
  0
LWPOLYLINE
  5
CF1
330
1180
100
AcDbEntity
  8
Interior
100
AcDbPolyline
 90
        6
 70
   129
 43
0.0
 10
26.72500000000001
 20
13.25
 10
26.625
 20
13.34999999999999
 10
26.375
 20
13.34999999999999
 10
26.27499999999999
 20
13.25000000000001
 10
26.27499999999999
 20
12.89999999999999
 10
26.72500000000001
 20
12.89999999999999
  0
LWPOLYLINE
  5
CF5
330
1180
100
AcDbEntity
  8
Interior
100
AcDbPolyline
 90
        6
 70
   129
 43
0.0
 10
27.72500000000001
 20
13.25000000000001
 10
27.625
 20
13.34999999999998
 10
27.375
 20
13.35000000000001
 10
27.27500000000001
 20
13.25000000000001
 10
27.27500000000001
 20
12.89999999999999
 10
27.72500000000001
 20
12.89999999999999
  0
LWPOLYLINE
  5
CF9
330
1180
100
AcDbEntity
  8
Interior
100
AcDbPolyline
 90
        6
 70
   129
 43
0.0
 10
27.72500000000001
 20
10.14999999999999
 10
27.625
 20
10.05000000000001
 10
27.375
 20
10.05000000000001
 10
27.27500000000001
 20
10.15
 10
27.27500000000001
 20
10.5
 10
27.72500000000001
 20
10.5
  0
LWPOLYLINE
  5
CFA
330
1180
100
AcDbEntity
  8
Interior
100
AcDbPolyline
 90
        4
 70
   129
 43
0.0
 10
26.0
 20
12.7
 10
26.0
 20
11.7
 10
28.0
 20
11.7
 10
28.0
 20
12.7
  0
LWPOLYLINE
  5
CFB
330
1180
100
AcDbEntity
  8
Interior
100
AcDbPolyline
 90
        4
 70
   129
 43
0.0
 10
26.0
 20
11.7
 10
26.0
 20
10.7
 10
28.0
 20
10.7
 10
28.0
 20
11.7
  0
LWPOLYLINE
  5
C7D
330
1180
100
AcDbEntity
  8
Interior
100
AcDbPolyline
 90
        4
 70
   129
 43
0.0
 10
24.5
 20
9.499999999999998
 10
23.5
 20
9.499999999999998
 10
23.5
 20
7.499999999999996
 10
24.5
 20
7.499999999999996
  0
LWPOLYLINE
  5
C75
330
1180
100
AcDbEntity
  8
Interior
100
AcDbPolyline
 90
        4
 70
   129
 43
0.0
 10
15.49999999999999
 20
9.999999999999998
 10
15.49999999999999
 20
11.00000000000001
 10
13.49999999999999
 20
11.0
 10
13.49999999999999
 20
9.999999999999998
  0
LWPOLYLINE
  5
C65
330
1180
100
AcDbEntity
  8
Interior
100
AcDbPolyline
 90
        4
 70
   129
 43
0.0
 10
21.5
 20
9.499999999999998
 10
20.5
 20
9.499999999999998
 10
20.5
 20
7.499999999999996
 10
21.5
 20
7.499999999999996
  0
LWPOLYLINE
  5
C7E
330
1180
100
AcDbEntity
  8
Interior
100
AcDbPolyline
 90
        4
 70
   129
 43
0.0
 10
23.0
 20
9.499999999999998
 10
22.0
 20
9.499999999999998
 10
22.0
 20
7.499999999999996
 10
23.0
 20
7.499999999999996
  0
LWPOLYLINE
  5
C76
330
1180
100
AcDbEntity
  8
Interior
100
AcDbPolyline
 90
        4
 70
   129
 43
0.0
 10
15.49999999999999
 20
11.5
 10
15.49999999999999
 20
12.50000000000001
 10
13.49999999999999
 20
12.5
 10
13.49999999999999
 20
11.5
  0
LWPOLYLINE
  5
C66
330
1180
100
AcDbEntity
  8
Interior
100
AcDbPolyline
 90
        4
 70
   129
 43
0.0
 10
20.0
 20
9.499999999999998
 10
19.0
 20
9.499999999999998
 10
19.0
 20
7.499999999999996
 10
20.0
 20
7.499999999999996
  0
LWPOLYLINE
  5
C67
330
1180
100
AcDbEntity
  8
Interior
100
AcDbPolyline
 90
        4
 70
   129
 43
0.0
 10
18.5
 20
9.499999999999998
 10
17.5
 20
9.499999999999998
 10
17.5
 20
7.499999999999996
 10
18.5
 20
7.499999999999996
  0
LWPOLYLINE
  5
C68
330
1180
100
AcDbEntity
  8
Interior
100
AcDbPolyline
 90
        4
 70
   129
 43
0.0
 10
17.0
 20
9.499999999999998
 10
15.99999999999999
 20
9.499999999999998
 10
16.0
 20
7.499999999999996
 10
17.0
 20
7.499999999999996
  0
DIMENSION
  5
BB0
330
1180
100
AcDbEntity
  8
Dimensions
100
AcDbDimension
280
     0
 10
13.0
 20
24.00000000000001
 30
0.0
 11
20.5
 21
24.22500000000001
 31
0.0
 70
    33
 71
     5
 42
-1.0
 73
     0
 74
     0
 75
     0
  3
QCADDimStyle
100
AcDbAlignedDimension
 13
13.0
 23
22.0
 33
0.0
 14
28.0
 24
22.0
 34
0.0
1001
ACAD
1000
DSTYLE
1002
{
1070
    41
1040
0.18
1070
    44
1040
0.18
1070
    42
1040
0.0625
1070
   147
1040
0.09
1070
   144
1040
1000.0
1070
    77
1070
     0
1070
    73
1070
     1
1070
   279
1070
     2
1070
   340
1005
0
1070
   140
1040
0.18
1002
}
  0
DIMENSION
  5
BC1
330
1180
100
AcDbEntity
  8
Dimensions
100
AcDbDimension
280
     0
 10
18.5
 20
22.79999999999994
 30
0.0
 11
20.5
 21
23.02499999999994
 31
0.0
 70
    33
 71
     5
 42
-1.0
 73
     0
 74
     0
 75
     0
  3
QCADDimStyle
100
AcDbAlignedDimension
 13
18.5
 23
22.0
 33
0.0
 14
22.5
 24
22.0
 34
0.0
1001
ACAD
1000
DSTYLE
1002
{
1070
    41
1040
0.18
1070
    44
1040
0.18
1070
    42
1040
0.0625
1070
   147
1040
0.09
1070
   144
1040
1000.0
1070
    77
1070
     0
1070
    73
1070
     1
1070
   279
1070
     2
1070
   340
1005
0
1070
   140
1040
0.18
1002
}
  0
DIMENSION
  5
BB1
330
1180
100
AcDbEntity
  8
Dimensions
100
AcDbDimension
280
     0
 10
10.99999999999999
 20
7.0
 30
0.0
 11
10.77499999999999
 21
14.5
 31
0.0
 70
    33
 71
     5
 42
-1.0
 73
     0
 74
     0
 75
     0
  3
QCADDimStyle
100
AcDbAlignedDimension
 13
13.0
 23
7.0
 33
0.0
 14
13.0
 24
22.0
 34
0.0
1001
ACAD
1000
DSTYLE
1002
{
1070
    41
1040
0.18
1070
    44
1040
0.18
1070
    42
1040
0.0625
1070
   147
1040
0.09
1070
   144
1040
1000.0
1070
    77
1070
     0
1070
    73
1070
     1
1070
   279
1070
     2
1070
   340
1005
0
1070
   140
1040
0.18
1002
}
  0
LINE
  5
C7F
330
1180
100
AcDbEntity
  8
Interior
100
AcDbLine
 10
24.5
 20
7.899999999999995
 30
0.0
 11
23.5
 21
7.899999999999995
 31
0.0
  0
LINE
  5
C79
330
1180
100
AcDbEntity
  8
Interior
100
AcDbLine
 10
13.89999999999998
 20
9.999999999999998
 30
0.0
 11
13.89999999999998
 21
11.0
 31
0.0
  0
LINE
  5
C69
330
1180
100
AcDbEntity
  8
Interior
100
AcDbLine
 10
21.5
 20
7.899999999999995
 30
0.0
 11
20.5
 21
7.899999999999995
 31
0.0
  0
LINE
  5
C80
330
1180
100
AcDbEntity
  8
Interior
100
AcDbLine
 10
23.0
 20
7.899999999999995
 30
0.0
 11
22.0
 21
7.899999999999995
 31
0.0
  0
LINE
  5
C7A
330
1180
100
AcDbEntity
  8
Interior
100
AcDbLine
 10
13.89999999999998
 20
11.5
 30
0.0
 11
13.89999999999998
 21
12.50000000000001
 31
0.0
  0
LINE
  5
C6A
330
1180
100
AcDbEntity
  8
Interior
100
AcDbLine
 10
20.0
 20
7.899999999999995
 30
0.0
 11
19.0
 21
7.899999999999995
 31
0.0
  0
LINE
  5
C6B
330
1180
100
AcDbEntity
  8
Interior
100
AcDbLine
 10
18.5
 20
7.899999999999995
 30
0.0
 11
17.5
 21
7.899999999999995
 31
0.0
  0
LINE
  5
C6C
330
1180
100
AcDbEntity
  8
Interior
100
AcDbLine
 10
17.0
 20
7.899999999999995
 30
0.0
 11
15.99999999999999
 21
7.899999999999995
 31
0.0
  0
LINE
  5
C31
330
1180
100
AcDbEntity
  8
Interior
100
AcDbLine
 10
25.54999999999998
 20
7.649999999999999
 30
0.0
 11
25.84999999999999
 21
7.649999999999999
 31
0.0
  0
LINE
  5
C32
330
1180
100
AcDbEntity
  8
Interior
100
AcDbLine
 10
26.15000000000001
 20
7.649999999999999
 30
0.0
 11
26.45
 21
7.649999999999999
 31
0.0
  0
LINE
  5
C33
330
1180
100
AcDbEntity
  8
Interior
100
AcDbLine
 10
25.84999999999999
 20
7.649999999999999
 30
0.0
 11
26.15000000000001
 21
7.649999999999999
 31
0.0
  0
LINE
  5
C34
330
1180
100
AcDbEntity
  8
Interior
100
AcDbLine
 10
26.54999999999998
 20
7.649999999999999
 30
0.0
 11
26.84999999999999
 21
7.649999999999999
 31
0.0
  0
LINE
  5
C35
330
1180
100
AcDbEntity
  8
Interior
100
AcDbLine
 10
27.15000000000001
 20
7.649999999999999
 30
0.0
 11
27.45
 21
7.649999999999999
 31
0.0
  0
LINE
  5
C36
330
1180
100
AcDbEntity
  8
Interior
100
AcDbLine
 10
26.84999999999999
 20
7.649999999999999
 30
0.0
 11
27.15000000000001
 21
7.649999999999999
 31
0.0
  0
LINE
  5
C37
330
1180
100
AcDbEntity
  8
Interior
100
AcDbLine
 10
25.84999999999999
 20
7.949999999999999
 30
0.0
 11
25.84999999999999
 21
8.249999999999998
 31
0.0
  0
LINE
  5
C38
330
1180
100
AcDbEntity
  8
Interior
100
AcDbLine
 10
25.84999999999999
 20
7.649999999999999
 30
0.0
 11
25.84999999999999
 21
7.949999999999999
 31
0.0
  0
LINE
  5
C39
330
1180
100
AcDbEntity
  8
Interior
100
AcDbLine
 10
26.45
 20
7.949999999999999
 30
0.0
 11
26.45
 21
8.249999999999998
 31
0.0
  0
LINE
  5
C3A
330
1180
100
AcDbEntity
  8
Interior
100
AcDbLine
 10
26.45
 20
7.649999999999999
 30
0.0
 11
26.45
 21
7.949999999999999
 31
0.0
  0
LINE
  5
C3B
330
1180
100
AcDbEntity
  8
Interior
100
AcDbLine
 10
26.44999999999999
 20
8.249999999999998
 30
0.0
 11
26.44999999999999
 21
8.549999999999999
 31
0.0
  0
LINE
  5
C3C
330
1180
100
AcDbEntity
  8
Interior
100
AcDbLine
 10
26.15000000000001
 20
7.949999999999999
 30
0.0
 11
26.15000000000001
 21
8.249999999999998
 31
0.0
  0
LINE
  5
C3D
330
1180
100
AcDbEntity
  8
Interior
100
AcDbLine
 10
26.15000000000001
 20
7.649999999999999
 30
0.0
 11
26.15000000000001
 21
7.949999999999999
 31
0.0
  0
LINE
  5
C3E
330
1180
100
AcDbEntity
  8
Interior
100
AcDbLine
 10
26.14999999999999
 20
8.249999999999998
 30
0.0
 11
26.14999999999999
 21
8.549999999999999
 31
0.0
  0
LINE
  5
C3F
330
1180
100
AcDbEntity
  8
Interior
100
AcDbLine
 10
25.84999999999999
 20
8.249999999999998
 30
0.0
 11
25.84999999999999
 21
8.549999999999999
 31
0.0
  0
LINE
  5
C40
330
1180
100
AcDbEntity
  8
Interior
100
AcDbLine
 10
26.84999999999999
 20
7.949999999999999
 30
0.0
 11
26.84999999999999
 21
8.249999999999998
 31
0.0
  0
LINE
  5
C41
330
1180
100
AcDbEntity
  8
Interior
100
AcDbLine
 10
26.84999999999999
 20
7.649999999999999
 30
0.0
 11
26.84999999999999
 21
7.949999999999999
 31
0.0
  0
LINE
  5
C42
330
1180
100
AcDbEntity
  8
Interior
100
AcDbLine
 10
27.45
 20
7.949999999999999
 30
0.0
 11
27.45
 21
8.249999999999998
 31
0.0
  0
LINE
  5
C43
330
1180
100
AcDbEntity
  8
Interior
100
AcDbLine
 10
27.45
 20
7.649999999999999
 30
0.0
 11
27.45
 21
7.949999999999999
 31
0.0
  0
LINE
  5
C44
330
1180
100
AcDbEntity
  8
Interior
100
AcDbLine
 10
27.44999999999999
 20
8.249999999999998
 30
0.0
 11
27.44999999999999
 21
8.549999999999999
 31
0.0
  0
LINE
  5
C45
330
1180
100
AcDbEntity
  8
Interior
100
AcDbLine
 10
27.15000000000001
 20
7.949999999999999
 30
0.0
 11
27.15000000000001
 21
8.249999999999998
 31
0.0
  0
LINE
  5
C46
330
1180
100
AcDbEntity
  8
Interior
100
AcDbLine
 10
27.15000000000001
 20
7.649999999999999
 30
0.0
 11
27.15000000000001
 21
7.949999999999999
 31
0.0
  0
LINE
  5
C47
330
1180
100
AcDbEntity
  8
Interior
100
AcDbLine
 10
27.14999999999999
 20
8.249999999999998
 30
0.0
 11
27.14999999999999
 21
8.549999999999999
 31
0.0
  0
LINE
  5
C48
330
1180
100
AcDbEntity
  8
Interior
100
AcDbLine
 10
26.84999999999999
 20
8.249999999999998
 30
0.0
 11
26.84999999999999
 21
8.549999999999999
 31
0.0
  0
LINE
  5
C49
330
1180
100
AcDbEntity
  8
Interior
100
AcDbLine
 10
26.15000000000001
 20
8.249999999999998
 30
0.0
 11
25.84999999999999
 21
8.249999999999998
 31
0.0
  0
LINE
  5
C4A
330
1180
100
AcDbEntity
  8
Interior
100
AcDbLine
 10
26.15000000000001
 20
7.949999999999999
 30
0.0
 11
25.84999999999999
 21
7.949999999999999
 31
0.0
  0
LINE
  5
C4B
330
1180
100
AcDbEntity
  8
Interior
100
AcDbLine
 10
26.14999999999999
 20
8.549999999999999
 30
0.0
 11
25.84999999999999
 21
8.549999999999999
 31
0.0
  0
LINE
  5
C4C
330
1180
100
AcDbEntity
  8
Interior
100
AcDbLine
 10
25.84999999999999
 20
8.549999999999999
 30
0.0
 11
25.54999999999998
 21
8.549999999999999
 31
0.0
  0
LINE
  5
C4D
330
1180
100
AcDbEntity
  8
Interior
100
AcDbLine
 10
25.84999999999999
 20
8.249999999999998
 30
0.0
 11
25.54999999999998
 21
8.249999999999998
 31
0.0
  0
LINE
  5
C4E
330
1180
100
AcDbEntity
  8
Interior
100
AcDbLine
 10
25.84999999999999
 20
7.949999999999999
 30
0.0
 11
25.54999999999998
 21
7.949999999999999
 31
0.0
  0
LINE
  5
C4F
330
1180
100
AcDbEntity
  8
Interior
100
AcDbLine
 10
26.45
 20
8.249999999999998
 30
0.0
 11
26.15000000000001
 21
8.249999999999998
 31
0.0
  0
LINE
  5
C50
330
1180
100
AcDbEntity
  8
Interior
100
AcDbLine
 10
26.45
 20
7.949999999999999
 30
0.0
 11
26.15000000000001
 21
7.949999999999999
 31
0.0
  0
LINE
  5
C51
330
1180
100
AcDbEntity
  8
Interior
100
AcDbLine
 10
26.44999999999999
 20
8.549999999999999
 30
0.0
 11
26.14999999999999
 21
8.549999999999999
 31
0.0
  0
LINE
  5
C52
330
1180
100
AcDbEntity
  8
Interior
100
AcDbLine
 10
27.15000000000001
 20
8.249999999999998
 30
0.0
 11
26.84999999999999
 21
8.249999999999998
 31
0.0
  0
LINE
  5
C53
330
1180
100
AcDbEntity
  8
Interior
100
AcDbLine
 10
27.15000000000001
 20
7.949999999999999
 30
0.0
 11
26.84999999999999
 21
7.949999999999999
 31
0.0
  0
LINE
  5
C54
330
1180
100
AcDbEntity
  8
Interior
100
AcDbLine
 10
27.14999999999999
 20
8.549999999999999
 30
0.0
 11
26.84999999999999
 21
8.549999999999999
 31
0.0
  0
LINE
  5
C55
330
1180
100
AcDbEntity
  8
Interior
100
AcDbLine
 10
26.84999999999999
 20
8.549999999999999
 30
0.0
 11
26.54999999999998
 21
8.549999999999999
 31
0.0
  0
LINE
  5
C56
330
1180
100
AcDbEntity
  8
Interior
100
AcDbLine
 10
26.84999999999999
 20
8.249999999999998
 30
0.0
 11
26.54999999999998
 21
8.249999999999998
 31
0.0
  0
LINE
  5
C57
330
1180
100
AcDbEntity
  8
Interior
100
AcDbLine
 10
26.84999999999999
 20
7.949999999999999
 30
0.0
 11
26.54999999999998
 21
7.949999999999999
 31
0.0
  0
LINE
  5
C58
330
1180
100
AcDbEntity
  8
Interior
100
AcDbLine
 10
27.45
 20
8.249999999999998
 30
0.0
 11
27.15000000000001
 21
8.249999999999998
 31
0.0
  0
LINE
  5
C59
330
1180
100
AcDbEntity
  8
Interior
100
AcDbLine
 10
27.45
 20
7.949999999999999
 30
0.0
 11
27.15000000000001
 21
7.949999999999999
 31
0.0
  0
LINE
  5
C5A
330
1180
100
AcDbEntity
  8
Interior
100
AcDbLine
 10
27.44999999999999
 20
8.549999999999999
 30
0.0
 11
27.14999999999999
 21
8.549999999999999
 31
0.0
  0
LINE
  5
C5B
330
1180
100
AcDbEntity
  8
Interior
100
AcDbLine
 10
25.54999999999998
 20
8.249999999999998
 30
0.0
 11
25.54999999999998
 21
7.949999999999999
 31
0.0
  0
LINE
  5
C5C
330
1180
100
AcDbEntity
  8
Interior
100
AcDbLine
 10
25.54999999999998
 20
7.949999999999999
 30
0.0
 11
25.54999999999998
 21
7.649999999999999
 31
0.0
  0
LINE
  5
C5D
330
1180
100
AcDbEntity
  8
Interior
100
AcDbLine
 10
25.54999999999998
 20
8.549999999999999
 30
0.0
 11
25.54999999999998
 21
8.249999999999998
 31
0.0
  0
LINE
  5
C5E
330
1180
100
AcDbEntity
  8
Interior
100
AcDbLine
 10
26.54999999999998
 20
8.249999999999998
 30
0.0
 11
26.54999999999998
 21
7.949999999999999
 31
0.0
  0
LINE
  5
C5F
330
1180
100
AcDbEntity
  8
Interior
100
AcDbLine
 10
26.54999999999998
 20
7.949999999999999
 30
0.0
 11
26.54999999999998
 21
7.649999999999999
 31
0.0
  0
LINE
  5
C60
330
1180
100
AcDbEntity
  8
Interior
100
AcDbLine
 10
26.54999999999998
 20
8.549999999999999
 30
0.0
 11
26.54999999999998
 21
8.249999999999998
 31
0.0
  0
LINE
  5
C61
330
1180
100
AcDbEntity
  8
Interior
100
AcDbLine
 10
25.5
 20
7.299999999999999
 30
0.0
 11
27.5
 21
7.299999999999999
 31
0.0
  0
LWPOLYLINE
  5
D0C
330
1180
100
AcDbEntity
  8
Interior
100
AcDbPolyline
 90
        4
 70
   129
 43
0.0
 10
20.5
 20
16.75
 10
20.5
 20
17.25
 10
18.3
 20
17.25
 10
18.3
 20
16.75
  0
LWPOLYLINE
  5
D06
330
1180
100
AcDbEntity
  8
Interior
100
AcDbPolyline
 90
        4
 70
   129
 43
0.0
 10
20.5
 20
11.75
 10
20.5
 20
12.25
 10
18.3
 20
12.25
 10
18.3
 20
11.75
  0
LWPOLYLINE
  5
D0D
330
1180
100
AcDbEntity
  8
Interior
100
AcDbPolyline
 90
        4
 70
   129
 43
0.0
 10
22.7
 20
16.75
 10
22.7
 20
17.25
 10
20.5
 20
17.25
 10
20.5
 20
16.75
  0
LWPOLYLINE
  5
D07
330
1180
100
AcDbEntity
  8
Interior
100
AcDbPolyline
 90
        4
 70
   129
 43
0.0
 10
22.7
 20
11.75
 10
22.7
 20
12.25
 10
20.5
 20
12.25
 10
20.5
 20
11.75
  0
LINE
  5
C62
330
1180
100
AcDbEntity
  8
Interior
100
AcDbLine
 10
27.5
 20
7.299999999999999
 30
0.0
 11
27.5
 21
7.199999999999999
 31
0.0
  0
LINE
  5
C63
330
1180
100
AcDbEntity
  8
Interior
100
AcDbLine
 10
27.5
 20
7.199999999999999
 30
0.0
 11
25.5
 21
7.199999999999999
 31
0.0
  0
LINE
  5
C64
330
1180
100
AcDbEntity
  8
Interior
100
AcDbLine
 10
25.5
 20
7.199999999999999
 30
0.0
 11
25.5
 21
7.299999999999999
 31
0.0
  0
LWPOLYLINE
  5
CC9
330
1180
100
AcDbEntity
  8
Interior
100
AcDbPolyline
 90
        4
 70
   129
 43
0.0
 10
14.03223304703364
 20
20.26066017177983
 10
13.89081169079633
 20
20.40208152801714
 10
14.59791847198288
 20
21.10918830920369
 10
14.73933982822019
 20
20.96776695296638
  0
LWPOLYLINE
  5
CC5
330
1180
100
AcDbEntity
  8
Interior
100
AcDbPolyline
 90
        4
 70
   129
 43
0.0
 10
13.39999999999999
 20
17.0
 10
13.19999999999999
 20
17.0
 10
13.19999999999999
 20
18.0
 10
13.39999999999999
 20
18.0
  0
LWPOLYLINE
  5
CBB
330
1180
100
AcDbEntity
  8
Interior
100
AcDbPolyline
 90
        4
 70
   129
 43
0.0
 10
17.0
 20
21.7
 10
17.0
 20
21.9
 10
18.0
 20
21.9
 10
18.0
 20
21.7
  0
LWPOLYLINE
  5
D0E
330
1180
100
AcDbEntity
  8
Interior
100
AcDbPolyline
 90
        4
 70
   129
 43
0.0
 10
20.5
 20
17.69999999999999
 10
20.5
 20
17.44999999999999
 10
18.3
 20
17.44999999999999
 10
18.3
 20
17.69999999999999
  0
LWPOLYLINE
  5
D08
330
1180
100
AcDbEntity
  8
Interior
100
AcDbPolyline
 90
        4
 70
   129
 43
0.0
 10
20.5
 20
12.69999999999999
 10
20.5
 20
12.44999999999999
 10
18.3
 20
12.44999999999999
 10
18.3
 20
12.69999999999999
  0
LWPOLYLINE
  5
D0F
330
1180
100
AcDbEntity
  8
Interior
100
AcDbPolyline
 90
        4
 70
   129
 43
0.0
 10
22.7
 20
17.69999999999999
 10
22.7
 20
17.44999999999999
 10
20.5
 20
17.44999999999999
 10
20.5
 20
17.69999999999999
  0
LWPOLYLINE
  5
D09
330
1180
100
AcDbEntity
  8
Interior
100
AcDbPolyline
 90
        4
 70
   129
 43
0.0
 10
22.7
 20
12.69999999999999
 10
22.7
 20
12.44999999999999
 10
20.5
 20
12.44999999999999
 10
20.5
 20
12.69999999999999
  0
LWPOLYLINE
  5
D10
330
1180
100
AcDbEntity
  8
Interior
100
AcDbPolyline
 90
        4
 70
   129
 43
0.0
 10
20.5
 20
16.55
 10
20.5
 20
16.3
 10
18.3
 20
16.3
 10
18.3
 20
16.55
  0
LWPOLYLINE
  5
D0A
330
1180
100
AcDbEntity
  8
Interior
100
AcDbPolyline
 90
        4
 70
   129
 43
0.0
 10
20.5
 20
11.55
 10
20.5
 20
11.3
 10
18.3
 20
11.3
 10
18.3
 20
11.55
  0
LWPOLYLINE
  5
D11
330
1180
100
AcDbEntity
  8
Interior
100
AcDbPolyline
 90
        4
 70
   129
 43
0.0
 10
22.7
 20
16.55
 10
22.7
 20
16.3
 10
20.5
 20
16.3
 10
20.5
 20
16.55
  0
LWPOLYLINE
  5
D0B
330
1180
100
AcDbEntity
  8
Interior
100
AcDbPolyline
 90
        4
 70
   129
 43
0.0
 10
22.7
 20
11.55
 10
22.7
 20
11.3
 10
20.5
 20
11.3
 10
20.5
 20
11.55
  0
LINE
  5
BAC
330
1180
100
AcDbEntity
  8
Tent
100
AcDbLine
 10
13.0
 20
7.0
 30
0.0
 11
28.0
 21
7.0
 31
0.0
  0
LINE
  5
BAD
330
1180
100
AcDbEntity
  8
Tent
100
AcDbLine
 10
28.0
 20
7.0
 30
0.0
 11
28.0
 21
22.0
 31
0.0
  0
LINE
  5
BAE
330
1180
100
AcDbEntity
  8
Tent
100
AcDbLine
 10
28.0
 20
22.0
 30
0.0
 11
13.0
 21
22.0
 31
0.0
  0
LINE
  5
BAF
330
1180
100
AcDbEntity
  8
Tent
100
AcDbLine
 10
13.0
 20
22.0
 30
0.0
 11
13.0
 21
7.0
 31
0.0
  0
LINE
  5
1120
330
1180
100
AcDbEntity
  8
Interior
100
AcDbLine
 10
28.0
 20
16.0
 30
0.0
 11
25.0
 21
16.0
 31
0.0
  0
LINE
  5
1121
330
1180
100
AcDbEntity
  8
Interior
100
AcDbLine
 10
25.0
 20
16.0
 30
0.0
 11
25.0
 21
21.5
 31
0.0
  0
LINE
  5
1122
330
1180
100
AcDbEntity
  8
Interior
100
AcDbLine
 10
25.0
 20
21.5
 30
0.0
 11
25.5
 21
21.5
 31
0.0
  0
LINE
  5
1123
330
1180
100
AcDbEntity
  8
Interior
100
AcDbLine
 10
25.5
 20
21.5
 30
0.0
 11
25.5
 21
16.5
 31
0.0
  0
LINE
  5
1124
330
1180
100
AcDbEntity
  8
Interior
100
AcDbLine
 10
25.5
 20
16.5
 30
0.0
 11
28.0
 21
16.5
 31
0.0
  0
VIEWPORT
  5
124B
330
117C
100
AcDbEntity
 67
     1
  8
0
 62
   178
420
        0
100
AcDbViewport
 10
128.5
 20
97.5
 30
0.0
 40
314.226
 41
222.18
 68
     1
 69
     1
 12
128.5
 22
97.5
 13
0.0
 23
0.0
 14
10.0
 24
10.0
 15
10.0
 25
10.0
 16
0.0
 26
0.0
 36
1.0
 17
0.0
 27
0.0
 37
0.0
 42
50.0
 43
0.0
 44
0.0
 45
222.18
 50
0.0
 51
0.0
 72
   100
 90
   557152
  1

281
     0
 71
     1
 74
     0
110
0.0
120
0.0
130
0.0
111
1.0
121
0.0
131
0.0
112
0.0
122
1.0
132
0.0
 79
     0
146
0.0
170
     0
 61
     5
292
     1
282
     1
141
0.0
142
0.0
 63
   256
361
124C
  0
ENDSEC
  0
SECTION
  2
OBJECTS
  0
DICTIONARY
  5
116E
330
0
100
AcDbDictionary
281
     1
  3
ACAD_DETAILVIEWSTYLE
350
1259
  3
ACAD_GROUP
350
116F
  3
ACAD_LAYOUT
350
117B
  3
ACAD_MATERIAL
350
11A4
  3
ACAD_MLEADERSTYLE
350
11CC
  3
ACAD_MLINESTYLE
350
1178
  3
ACAD_PLOTSETTINGS
350
117A
  3
ACAD_PLOTSTYLENAME
350
1170
  3
ACAD_SCALELIST
350
11A8
  3
ACAD_SECTIONVIEWSTYLE
350
125A
  3
ACAD_TABLESTYLE
350
11CA
  3
ACAD_VISUALSTYLE
350
118B
  3
ACDB_RECOMPOSE_DATA
350
1256
  3
AcDbVariableDictionary
350
1252
  3
QCAD_OBJECTS
350
11D0
  0
SUN
  5
11CE
330
118A
100
AcDbSun
 90
        1
290
     0
 63
     7
421
 16777215
 40
1.0
291
     1
 91
  2455826
 92
 54000000
292
     0
 70
     2
 71
   256
280
     1
  0
SUN
  5
124C
330
124B
100
AcDbSun
 90
        1
290
     0
 63
     7
421
 16777215
 40
1.0
291
     1
 91
  2455826
 92
 54000000
292
     0
 70
     2
 71
   256
280
     1
  0
DICTIONARY
  5
1259
102
{ACAD_REACTORS
330
116E
102
}
330
116E
100
AcDbDictionary
281
     1
  0
DICTIONARY
  5
116F
102
{ACAD_REACTORS
330
116E
102
}
330
116E
100
AcDbDictionary
281
     1
  0
DICTIONARY
  5
117B
102
{ACAD_REACTORS
330
116E
102
}
330
116E
100
AcDbDictionary
281
     1
  3
Layout1
350
117F
  3
Model
350
1183
  0
DICTIONARY
  5
11A4
102
{ACAD_REACTORS
330
116E
102
}
330
116E
100
AcDbDictionary
281
     1
  3
ByBlock
350
11A6
  3
ByLayer
350
11A5
  3
Global
350
11A7
  0
DICTIONARY
  5
11CC
102
{ACAD_REACTORS
330
116E
102
}
330
116E
100
AcDbDictionary
281
     1
  3
Standard
350
11CD
  0
DICTIONARY
  5
1178
102
{ACAD_REACTORS
330
116E
102
}
330
116E
100
AcDbDictionary
281
     1
  3
Standard
350
1179
  0
DICTIONARY
  5
117A
102
{ACAD_REACTORS
330
116E
102
}
330
116E
100
AcDbDictionary
281
     1
  0
ACDBDICTIONARYWDFLT
  5
1170
102
{ACAD_REACTORS
330
116E
102
}
330
116E
100
AcDbDictionary
281
     1
  3
Normal
350
1171
100
AcDbDictionaryWithDefault
340
1171
  0
DICTIONARY
  5
11A8
102
{ACAD_REACTORS
330
116E
102
}
330
116E
100
AcDbDictionary
281
     1
  3
A0
350
11A9
  3
A1
350
11AA
  3
A2
350
11AB
  3
A3
350
11AC
  3
A4
350
11AD
  3
A5
350
11AE
  3
A6
350
11AF
  3
A7
350
11B0
  3
A8
350
11B1
  3
A9
350
11B2
  3
B0
350
11B3
  3
B1
350
11B4
  3
B2
350
11B5
  3
B3
350
11B6
  3
B4
350
11B7
  3
B5
350
11B8
  3
B6
350
11B9
  3
B7
350
11BA
  3
B8
350
11BB
  3
B9
350
11BC
  3
C0
350
11BD
  3
C1
350
11BE
  3
C2
350
11BF
  3
C3
350
11C0
  3
C4
350
11C1
  3
C5
350
11C2
  3
C6
350
11C3
  3
C7
350
11C4
  3
C8
350
11C5
  3
C9
350
11C6
  3
D0
350
11C7
  3
D1
350
11C8
  3
D2
350
11C9
  0
DICTIONARY
  5
125A
102
{ACAD_REACTORS
330
116E
102
}
330
116E
100
AcDbDictionary
281
     1
  0
DICTIONARY
  5
11CA
102
{ACAD_REACTORS
330
116E
102
}
330
116E
100
AcDbDictionary
281
     1
  3
Standard
350
11CB
  0
DICTIONARY
  5
118B
102
{ACAD_REACTORS
330
116E
102
}
330
116E
100
AcDbDictionary
281
     1
  3
2dWireframe
350
1190
  3
Basic
350
1193
  3
Brighten
350
1197
  3
ColorChange
350
119B
  3
Conceptual
350
1195
  3
Dim
350
1196
  3
EdgeColorOff
350
119E
  3
Facepattern
350
119A
  3
Flat
350
118C
  3
FlatWithEdges
350
118D
  3
Gouraud
350
118E
  3
GouraudWithEdges
350
118F
  3
Hidden
350
1192
  3
JitterOff
350
119C
  3
Linepattern
350
1199
  3
OverhangOff
350
119D
  3
Realistic
350
1194
  3
Shaded
350
11A3
  3
Shaded with edges
350
11A2
  3
Shades of Gray
350
119F
  3
Sketchy
350
11A0
  3
Thicken
350
1198
  3
Wireframe
350
1191
  3
X-Ray
350
11A1
  0
XRECORD
  5
1256
102
{ACAD_REACTORS
330
116E
102
}
330
116E
100
AcDbXrecord
280
     1
 90
        1
330
11CB
  0
DICTIONARY
  5
1252
102
{ACAD_REACTORS
330
116E
102
}
330
116E
100
AcDbDictionary
281
     1
  3
CANNOSCALE
350
1253
  3
CMLEADERSTYLE
350
1258
  3
CTABLESTYLE
350
1257
  0
DICTIONARY
  5
11D0
102
{ACAD_REACTORS
330
116E
102
}
330
116E
100
AcDbDictionary
281
     1
  3
ColorSettings/BackgroundColor
350
11D2
  3
ColorSettings/ColorMode
350
11D3
  3
DimensionSettings/AngularFormat
350
11D4
  3
DimensionSettings/AngularPrecision
350
11D5
  3
DimensionSettings/DimensionFont
350
11D6
  3
DimensionSettings/KeepProportions
350
11D7
  3
DimensionSettings/LinearFormat
350
11D8
  3
DimensionSettings/LinearPrecision
350
11D9
  3
Grid/DisplayGrid00
350
11DA
  3
Grid/DisplayGrid01
350
11DB
  3
Grid/DisplayGrid02
350
11DC
  3
Grid/DisplayGrid03
350
11DD
  3
Grid/GridSpacingX00
350
11DE
  3
Grid/GridSpacingX01
350
11DF
  3
Grid/GridSpacingX02
350
11E0
  3
Grid/GridSpacingX03
350
11E1
  3
Grid/GridSpacingY00
350
11E2
  3
Grid/GridSpacingY01
350
11E3
  3
Grid/GridSpacingY02
350
11E4
  3
Grid/GridSpacingY03
350
11E5
  3
Grid/IsometricGrid00
350
11E6
  3
Grid/IsometricGrid01
350
11E7
  3
Grid/IsometricGrid02
350
11E8
  3
Grid/IsometricGrid03
350
11E9
  3
Grid/IsometricProjection00
350
11EA
  3
Grid/IsometricProjection01
350
11EB
  3
Grid/IsometricProjection02
350
11EC
  3
Grid/IsometricProjection03
350
11ED
  3
Grid/MetaGridSpacingX00
350
11EE
  3
Grid/MetaGridSpacingX01
350
11EF
  3
Grid/MetaGridSpacingX02
350
11F0
  3
Grid/MetaGridSpacingX03
350
11F1
  3
Grid/MetaGridSpacingY00
350
11F2
  3
Grid/MetaGridSpacingY01
350
11F3
  3
Grid/MetaGridSpacingY02
350
11F4
  3
Grid/MetaGridSpacingY03
350
11F5
  3
MultiPageSettings/Columns
350
11F6
  3
MultiPageSettings/GlueMarginsBottom
350
11F7
  3
MultiPageSettings/GlueMarginsLeft
350
11F8
  3
MultiPageSettings/GlueMarginsRight
350
11F9
  3
MultiPageSettings/GlueMarginsTop
350
11FA
  3
MultiPageSettings/PrintCropMarks
350
11FB
  3
MultiPageSettings/Rows
350
11FC
  3
PageSettings/OffsetX
350
11FD
  3
PageSettings/OffsetY
350
11FE
  3
PageSettings/PageOrientation
350
11FF
  3
PageSettings/PaperHeight
350
1200
  3
PageSettings/PaperWidth
350
1201
  3
PageSettings/Scale
350
1202
  3
PageSettings/ShowPaperBorders
350
1203
  3
QCADVersion
350
1204
  3
UnitSettings/PaperUnit
350
1205
  3
ViewportCenter
350
1206
  3
ViewportHeight
350
1207
  3
ViewportWidth
350
1208
  0
LAYOUT
  5
117F
102
{ACAD_REACTORS
330
117B
102
}
330
117B
100
AcDbPlotSettings
  1

  2
none_device
  4
ISO_A4_(210.00_x_297.00_MM)
  6

 40
7.5
 41
20.0
 42
7.5
 43
20.0
 44
210.0
 45
297.0
 46
0.0
 47
0.0
 48
0.0
 49
0.0
140
0.0
141
0.0
142
1.0
143
1.0
 70
   688
 72
     1
 73
     1
 74
     5
  7

 75
    16
 76
     0
 77
     2
 78
   300
147
1.0
148
0.0
149
0.0
100
AcDbLayout
  1
Layout1
 70
     1
 71
     0
 10
-20.0
 20
-7.5
 11
277.0
 21
202.5
 12
0.0
 22
0.0
 32
0.0
 14
0.0
 24
0.0
 34
0.0
 15
0.0
 25
0.0
 35
0.0
146
0.0
 13
0.0
 23
0.0
 33
0.0
 16
1.0
 26
0.0
 36
0.0
 17
0.0
 27
1.0
 37
0.0
 76
     0
330
117C
331
124B
  0
LAYOUT
  5
1183
102
{ACAD_REACTORS
330
117B
102
}
330
117B
100
AcDbPlotSettings
  1

  2
none_device
  4
Letter_(8.50_x_11.00_Inches)
  6

 40
6.35
 41
6.35
 42
6.35000508
 43
6.35000508
 44
215.9
 45
279.4
 46
0.0
 47
0.0
 48
0.0
 49
0.0
140
0.0
141
0.0
142
1.0
143
1.0
 70
  1712
 72
     0
 73
     0
 74
     0
  7

 75
     0
 76
     0
 77
     2
 78
   300
147
1.0
148
0.0
149
0.0
100
AcDbLayout
  1
Model
 70
     1
 71
     0
 10
0.0
 20
0.0
 11
12.0
 21
9.0
 12
0.0
 22
0.0
 32
0.0
 14
1.000000000000000E+20
 24
1.000000000000000E+20
 34
1.000000000000000E+20
 15
-1.000000000000000E+20
 25
-1.000000000000000E+20
 35
-1.000000000000000E+20
146
0.0
 13
0.0
 23
0.0
 33
0.0
 16
1.0
 26
0.0
 36
0.0
 17
0.0
 27
1.0
 37
0.0
 76
     0
330
1180
331
118A
  0
MATERIAL
  5
11A6
102
{ACAD_REACTORS
330
11A4
102
}
330
11A4
100
AcDbMaterial
  1
ByBlock
 72
     1
 94
      127
  0
MATERIAL
  5
11A5
102
{ACAD_REACTORS
330
11A4
102
}
330
11A4
100
AcDbMaterial
  1
ByLayer
 72
     1
 94
      127
  0
MATERIAL
  5
11A7
102
{ACAD_REACTORS
330
11A4
102
}
330
11A4
100
AcDbMaterial
  1
Global
 72
     1
 94
      127
  0
MLEADERSTYLE
  5
11CD
102
{ACAD_REACTORS
330
11CC
102
}
330
11CC
100
AcDbMLeaderStyle
179
     2
170
     2
171
     1
172
     0
 90
        2
 40
0.0
 41
0.0
173
     1
 91
-1056964608
340
1175
 92
       -2
290
     1
 42
0.09
291
     1
 43
0.36
  3
Standard
341
0
 44
0.18
300

342
1173
174
     1
178
     6
175
     1
176
     0
 93
-1056964608
 45
0.18
292
     0
297
     0
 46
0.18
343
0
 94
-1056964608
 47
1.0
 49
1.0
140
1.0
293
     1
141
0.0
294
     1
177
     0
142
1.0
295
     0
296
     0
143
0.125
271
     0
272
     9
273
     9
298
     0
  0
MLINESTYLE
  5
1179
102
{ACAD_REACTORS
330
1178
102
}
330
1178
100
AcDbMlineStyle
  2
Standard
 70
     0
  3

 62
   256
 51
90.0
 52
90.0
 71
     2
 49
0.5
 62
   256
  6
BYLAYER
 49
-0.5
 62
   256
  6
BYLAYER
  0
ACDBPLACEHOLDER
  5
1171
102
{ACAD_REACTORS
330
1170
102
}
330
1170
  0
SCALE
  5
11A9
102
{ACAD_REACTORS
330
11A8
102
}
330
11A8
100
AcDbScale
 70
     0
300
1:1
140
1.0
141
1.0
290
     1
  0
SCALE
  5
11AA
102
{ACAD_REACTORS
330
11A8
102
}
330
11A8
100
AcDbScale
 70
     0
300
1:2
140
1.0
141
2.0
290
     0
  0
SCALE
  5
11AB
102
{ACAD_REACTORS
330
11A8
102
}
330
11A8
100
AcDbScale
 70
     0
300
1:4
140
1.0
141
4.0
290
     0
  0
SCALE
  5
11AC
102
{ACAD_REACTORS
330
11A8
102
}
330
11A8
100
AcDbScale
 70
     0
300
1:5
140
1.0
141
5.0
290
     0
  0
SCALE
  5
11AD
102
{ACAD_REACTORS
330
11A8
102
}
330
11A8
100
AcDbScale
 70
     0
300
1:8
140
1.0
141
8.0
290
     0
  0
SCALE
  5
11AE
102
{ACAD_REACTORS
330
11A8
102
}
330
11A8
100
AcDbScale
 70
     0
300
1:10
140
1.0
141
10.0
290
     0
  0
SCALE
  5
11AF
102
{ACAD_REACTORS
330
11A8
102
}
330
11A8
100
AcDbScale
 70
     0
300
1:16
140
1.0
141
16.0
290
     0
  0
SCALE
  5
11B0
102
{ACAD_REACTORS
330
11A8
102
}
330
11A8
100
AcDbScale
 70
     0
300
1:20
140
1.0
141
20.0
290
     0
  0
SCALE
  5
11B1
102
{ACAD_REACTORS
330
11A8
102
}
330
11A8
100
AcDbScale
 70
     0
300
1:30
140
1.0
141
30.0
290
     0
  0
SCALE
  5
11B2
102
{ACAD_REACTORS
330
11A8
102
}
330
11A8
100
AcDbScale
 70
     0
300
1:40
140
1.0
141
40.0
290
     0
  0
SCALE
  5
11B3
102
{ACAD_REACTORS
330
11A8
102
}
330
11A8
100
AcDbScale
 70
     0
300
1:50
140
1.0
141
50.0
290
     0
  0
SCALE
  5
11B4
102
{ACAD_REACTORS
330
11A8
102
}
330
11A8
100
AcDbScale
 70
     0
300
1:100
140
1.0
141
100.0
290
     0
  0
SCALE
  5
11B5
102
{ACAD_REACTORS
330
11A8
102
}
330
11A8
100
AcDbScale
 70
     0
300
2:1
140
2.0
141
1.0
290
     0
  0
SCALE
  5
11B6
102
{ACAD_REACTORS
330
11A8
102
}
330
11A8
100
AcDbScale
 70
     0
300
4:1
140
4.0
141
1.0
290
     0
  0
SCALE
  5
11B7
102
{ACAD_REACTORS
330
11A8
102
}
330
11A8
100
AcDbScale
 70
     0
300
8:1
140
8.0
141
1.0
290
     0
  0
SCALE
  5
11B8
102
{ACAD_REACTORS
330
11A8
102
}
330
11A8
100
AcDbScale
 70
     0
300
10:1
140
10.0
141
1.0
290
     0
  0
SCALE
  5
11B9
102
{ACAD_REACTORS
330
11A8
102
}
330
11A8
100
AcDbScale
 70
     0
300
100:1
140
100.0
141
1.0
290
     0
  0
SCALE
  5
11BA
102
{ACAD_REACTORS
330
11A8
102
}
330
11A8
100
AcDbScale
 70
     0
300
1/128" = 1'-0"
140
0.0078125
141
12.0
290
     0
  0
SCALE
  5
11BB
102
{ACAD_REACTORS
330
11A8
102
}
330
11A8
100
AcDbScale
 70
     0
300
1/64" = 1'-0"
140
0.015625
141
12.0
290
     0
  0
SCALE
  5
11BC
102
{ACAD_REACTORS
330
11A8
102
}
330
11A8
100
AcDbScale
 70
     0
300
1/32" = 1'-0"
140
0.03125
141
12.0
290
     0
  0
SCALE
  5
11BD
102
{ACAD_REACTORS
330
11A8
102
}
330
11A8
100
AcDbScale
 70
     0
300
1/16" = 1'-0"
140
0.0625
141
12.0
290
     0
  0
SCALE
  5
11BE
102
{ACAD_REACTORS
330
11A8
102
}
330
11A8
100
AcDbScale
 70
     0
300
3/32" = 1'-0"
140
0.09375
141
12.0
290
     0
  0
SCALE
  5
11BF
102
{ACAD_REACTORS
330
11A8
102
}
330
11A8
100
AcDbScale
 70
     0
300
1/8" = 1'-0"
140
0.125
141
12.0
290
     0
  0
SCALE
  5
11C0
102
{ACAD_REACTORS
330
11A8
102
}
330
11A8
100
AcDbScale
 70
     0
300
3/16" = 1'-0"
140
0.1875
141
12.0
290
     0
  0
SCALE
  5
11C1
102
{ACAD_REACTORS
330
11A8
102
}
330
11A8
100
AcDbScale
 70
     0
300
1/4" = 1'-0"
140
0.25
141
12.0
290
     0
  0
SCALE
  5
11C2
102
{ACAD_REACTORS
330
11A8
102
}
330
11A8
100
AcDbScale
 70
     0
300
3/8" = 1'-0"
140
0.375
141
12.0
290
     0
  0
SCALE
  5
11C3
102
{ACAD_REACTORS
330
11A8
102
}
330
11A8
100
AcDbScale
 70
     0
300
1/2" = 1'-0"
140
0.5
141
12.0
290
     0
  0
SCALE
  5
11C4
102
{ACAD_REACTORS
330
11A8
102
}
330
11A8
100
AcDbScale
 70
     0
300
3/4" = 1'-0"
140
0.75
141
12.0
290
     0
  0
SCALE
  5
11C5
102
{ACAD_REACTORS
330
11A8
102
}
330
11A8
100
AcDbScale
 70
     0
300
1" = 1'-0"
140
1.0
141
12.0
290
     0
  0
SCALE
  5
11C6
102
{ACAD_REACTORS
330
11A8
102
}
330
11A8
100
AcDbScale
 70
     0
300
1-1/2" = 1'-0"
140
1.5
141
12.0
290
     0
  0
SCALE
  5
11C7
102
{ACAD_REACTORS
330
11A8
102
}
330
11A8
100
AcDbScale
 70
     0
300
3" = 1'-0"
140
3.0
141
12.0
290
     0
  0
SCALE
  5
11C8
102
{ACAD_REACTORS
330
11A8
102
}
330
11A8
100
AcDbScale
 70
     0
300
6" = 1'-0"
140
6.0
141
12.0
290
     0
  0
SCALE
  5
11C9
102
{ACAD_REACTORS
330
11A8
102
}
330
11A8
100
AcDbScale
 70
     0
300
1'-0" = 1'-0"
140
12.0
141
12.0
290
     0
  0
TABLESTYLE
  5
11CB
102
{ACAD_REACTORS
330
11CA
102
}
102
{ACAD_XDICTIONARY
360
1254
102
}
330
11CA
100
AcDbTableStyle
  3
Standard
 70
     0
 71
     0
 40
0.06
 41
0.06
280
     0
281
     0
  7
Standard
140
0.18
170
     2
 62
     0
 63
   257
283
     0
 90
        4
 91
        0
  1

274
    -2
284
     1
 64
     0
275
    -2
285
     1
 65
     0
276
    -2
286
     1
 66
     0
277
    -2
287
     1
 67
     0
278
    -2
288
     1
 68
     0
279
    -2
289
     1
 69
     0
  7
Standard
140
0.25
170
     5
 62
     0
 63
   257
283
     0
 90
        4
 91
        0
  1

274
    -2
284
     1
 64
     0
275
    -2
285
     1
 65
     0
276
    -2
286
     1
 66
     0
277
    -2
287
     1
 67
     0
278
    -2
288
     1
 68
     0
279
    -2
289
     1
 69
     0
  7
Standard
140
0.18
170
     5
 62
     0
 63
   257
283
     0
 90
        4
 91
        0
  1

274
    -2
284
     1
 64
     0
275
    -2
285
     1
 65
     0
276
    -2
286
     1
 66
     0
277
    -2
287
     1
 67
     0
278
    -2
288
     1
 68
     0
279
    -2
289
     1
 69
     0
  0
VISUALSTYLE
  5
1190
102
{ACAD_REACTORS
330
118B
102
}
330
118B
100
AcDbVisualStyle
  2
2dWireframe
 70
     4
177
     3
291
     0
 70
    58
 90
        0
176
     1
 90
        2
176
     1
 90
        0
176
     1
 90
        0
176
     1
 40
0.6
176
     1
 40
30.0
176
     1
 62
     7
420
 16777215
176
     1
 90
        1
176
     1
 90
        4
176
     1
 62
     7
176
     1
 62
   257
176
     1
 90
        1
176
     1
 90
        1
176
     1
 40
1.0
176
     1
 90
        0
176
     1
 62
   257
176
     1
 40
1.0
176
     1
 90
        1
176
     1
 90
        6
176
     1
 90
        2
176
     1
 62
     7
176
     1
 90
        5
176
     1
 90
        0
176
     1
 90
        0
176
     1
290
     0
176
     1
 90
        1
176
     1
 40
0.0
176
     1
 90
        0
176
     1
290
     1
176
     1
290
     1
176
     1
290
     0
176
     1
290
     0
176
     1
290
     0
176
     1
290
     0
176
     1
290
     0
176
     1
290
     0
176
     1
290
     0
176
     1
 90
       50
176
     1
 40
0.0
176
     1
 40
1.0
176
     1
 90
        0
176
     1
 62
   178
420
        0
176
     1
 90
       50
176
     1
 90
        3
176
     1
 62
     5
420
      255
176
     1
290
     0
176
     1
 90
       50
176
     1
 90
       50
176
     1
 90
       50
176
     1
290
     0
176
     1
 90
       50
176
     1
 62
   256
176
     0
 40
1.0
176
     0
 90
        2
176
     1
  1
strokes_ogs.tif
176
     1
290
     0
176
     1
 40
1.0
176
     1
 40
1.0
176
     1
  0
VISUALSTYLE
  5
1193
102
{ACAD_REACTORS
330
118B
102
}
330
118B
100
AcDbVisualStyle
  2
Basic
 70
     7
177
     3
291
     1
 70
    58
 90
        1
176
     1
 90
        0
176
     1
 90
        1
176
     1
 90
        0
176
     1
 40
0.6
176
     1
 40
30.0
176
     1
 62
     7
420
 16777215
176
     1
 90
        0
176
     1
 90
        4
176
     1
 62
     7
176
     1
 62
   257
176
     1
 90
        1
176
     1
 90
        1
176
     1
 40
1.0
176
     1
 90
        8
176
     1
 62
     7
176
     1
 40
1.0
176
     1
 90
        1
176
     1
 90
        6
176
     1
 90
        2
176
     1
 62
     7
176
     1
 90
        5
176
     1
 90
        0
176
     1
 90
        0
176
     1
290
     0
176
     1
 90
        1
176
     1
 40
0.0
176
     1
 90
        0
176
     1
290
     0
176
     1
290
     1
176
     1
290
     1
176
     1
290
     0
176
     1
290
     0
176
     1
290
     0
176
     1
290
     0
176
     1
290
     0
176
     1
290
     0
176
     1
 90
       50
176
     1
 40
0.0
176
     1
 40
1.0
176
     1
 90
        0
176
     1
 62
   178
420
        0
176
     1
 90
       50
176
     1
 90
        3
176
     1
 62
     5
420
      255
176
     1
290
     0
176
     1
 90
       50
176
     1
 90
       50
176
     1
 90
       50
176
     1
290
     0
176
     1
 90
       50
176
     1
 62
   256
176
     0
 40
1.0
176
     0
 90
        2
176
     1
  1
strokes_ogs.tif
176
     1
290
     0
176
     1
 40
1.0
176
     1
 40
1.0
176
     1
  0
VISUALSTYLE
  5
1197
102
{ACAD_REACTORS
330
118B
102
}
330
118B
100
AcDbVisualStyle
  2
Brighten
 70
    12
177
     3
291
     1
 70
    58
 90
        2
176
     1
 90
        2
176
     1
 90
        0
176
     1
 90
        0
176
     1
 40
0.6
176
     1
 40
30.0
176
     1
 62
     7
420
 16777215
176
     1
 90
        1
176
     1
 90
        4
176
     1
 62
     7
176
     1
 62
   257
176
     1
 90
        1
176
     1
 90
        1
176
     1
 40
1.0
176
     1
 90
        8
176
     1
 62
     7
176
     1
 40
1.0
176
     1
 90
        1
176
     1
 90
        6
176
     1
 90
        2
176
     1
 62
     7
176
     1
 90
        5
176
     1
 90
        0
176
     1
 90
        0
176
     1
290
     0
176
     1
 90
        1
176
     1
 40
50.0
176
     1
 90
        0
176
     1
290
     0
176
     1
290
     1
176
     1
290
     1
176
     1
290
     0
176
     1
290
     0
176
     1
290
     0
176
     1
290
     0
176
     1
290
     0
176
     1
290
     0
176
     1
 90
       50
176
     1
 40
0.0
176
     1
 40
1.0
176
     1
 90
        0
176
     1
 62
   178
420
        0
176
     1
 90
       50
176
     1
 90
        3
176
     1
 62
     5
420
      255
176
     1
290
     0
176
     1
 90
       50
176
     1
 90
       50
176
     1
 90
       50
176
     1
290
     0
176
     1
 90
       50
176
     1
 62
   256
176
     0
 40
1.0
176
     0
 90
        2
176
     1
  1
strokes_ogs.tif
176
     1
290
     0
176
     1
 40
1.0
176
     1
 40
1.0
176
     1
  0
VISUALSTYLE
  5
119B
102
{ACAD_REACTORS
330
118B
102
}
330
118B
100
AcDbVisualStyle
  2
ColorChange
 70
    16
177
     3
291
     1
 70
    58
 90
        2
176
     1
 90
        2
176
     1
 90
        3
176
     1
 90
        0
176
     1
 40
0.6
176
     1
 40
30.0
176
     1
 62
     8
420
  8421504
176
     1
 90
        1
176
     1
 90
        4
176
     1
 62
     7
176
     1
 62
   257
176
     1
 90
        1
176
     1
 90
        1
176
     1
 40
1.0
176
     1
 90
        8
176
     1
 62
     8
420
  8421504
176
     1
 40
1.0
176
     1
 90
        1
176
     1
 90
        6
176
     1
 90
        2
176
     1
 62
     7
176
     1
 90
        5
176
     1
 90
        0
176
     1
 90
        0
176
     1
290
     0
176
     1
 90
        1
176
     1
 40
0.0
176
     1
 90
        0
176
     1
290
     0
176
     1
290
     1
176
     1
290
     1
176
     1
290
     0
176
     1
290
     0
176
     1
290
     0
176
     1
290
     0
176
     1
290
     0
176
     1
290
     0
176
     1
 90
       50
176
     1
 40
0.0
176
     1
 40
1.0
176
     1
 90
        0
176
     1
 62
   178
420
        0
176
     1
 90
       50
176
     1
 90
        3
176
     1
 62
     5
420
      255
176
     1
290
     0
176
     1
 90
       50
176
     1
 90
       50
176
     1
 90
       50
176
     1
290
     0
176
     1
 90
       50
176
     1
 62
   256
176
     0
 40
1.0
176
     0
 90
        2
176
     1
  1
strokes_ogs.tif
176
     1
290
     0
176
     1
 40
1.0
176
     1
 40
1.0
176
     1
  0
VISUALSTYLE
  5
1195
102
{ACAD_REACTORS
330
118B
102
}
330
118B
100
AcDbVisualStyle
  2
Conceptual
 70
     9
177
     3
291
     0
 70
    58
 90
        3
176
     1
 90
        2
176
     1
 90
        0
176
     1
 90
        0
176
     1
 40
0.6
176
     1
 40
30.0
176
     1
 62
     7
420
 16777215
176
     1
 90
        2
176
     1
 90
        2
176
     1
 62
     7
176
     1
 62
   257
176
     1
 90
        1
176
     1
 90
        1
176
     1
 40
179.0
176
     1
 90
        8
176
     1
 62
     7
176
     1
 40
1.0
176
     1
 90
        1
176
     1
 90
        6
176
     1
 90
        2
176
     1
 62
     7
176
     1
 90
        3
176
     1
 90
        0
176
     1
 90
        0
176
     1
290
     0
176
     1
 90
        1
176
     1
 40
0.0
176
     1
 90
        0
176
     1
290
     0
176
     1
290
     1
176
     1
290
     1
176
     1
290
     0
176
     1
290
     0
176
     1
290
     0
176
     1
290
     0
176
     1
290
     0
176
     1
290
     0
176
     1
 90
       50
176
     1
 40
0.0
176
     1
 40
1.0
176
     1
 90
        0
176
     1
 62
   178
420
        0
176
     1
 90
       50
176
     1
 90
        3
176
     1
 62
     5
420
      255
176
     1
290
     0
176
     1
 90
       50
176
     1
 90
       50
176
     1
 90
       50
176
     1
290
     0
176
     1
 90
       50
176
     1
 62
   256
176
     0
 40
1.0
176
     0
 90
        2
176
     1
  1
strokes_ogs.tif
176
     1
290
     0
176
     1
 40
1.0
176
     1
 40
1.0
176
     1
  0
VISUALSTYLE
  5
1196
102
{ACAD_REACTORS
330
118B
102
}
330
118B
100
AcDbVisualStyle
  2
Dim
 70
    11
177
     3
291
     1
 70
    58
 90
        2
176
     1
 90
        2
176
     1
 90
        0
176
     1
 90
        0
176
     1
 40
0.6
176
     1
 40
30.0
176
     1
 62
     7
420
 16777215
176
     1
 90
        1
176
     1
 90
        4
176
     1
 62
     7
176
     1
 62
   257
176
     1
 90
        1
176
     1
 90
        1
176
     1
 40
1.0
176
     1
 90
        8
176
     1
 62
     7
176
     1
 40
1.0
176
     1
 90
        1
176
     1
 90
        6
176
     1
 90
        2
176
     1
 62
     7
176
     1
 90
        5
176
     1
 90
        0
176
     1
 90
        0
176
     1
290
     0
176
     1
 90
        1
176
     1
 40
-50.0
176
     1
 90
        0
176
     1
290
     0
176
     1
290
     1
176
     1
290
     1
176
     1
290
     0
176
     1
290
     0
176
     1
290
     0
176
     1
290
     0
176
     1
290
     0
176
     1
290
     0
176
     1
 90
       50
176
     1
 40
0.0
176
     1
 40
1.0
176
     1
 90
        0
176
     1
 62
   178
420
        0
176
     1
 90
       50
176
     1
 90
        3
176
     1
 62
     5
420
      255
176
     1
290
     0
176
     1
 90
       50
176
     1
 90
       50
176
     1
 90
       50
176
     1
290
     0
176
     1
 90
       50
176
     1
 62
   256
176
     0
 40
1.0
176
     0
 90
        2
176
     1
  1
strokes_ogs.tif
176
     1
290
     0
176
     1
 40
1.0
176
     1
 40
1.0
176
     1
  0
VISUALSTYLE
  5
119E
102
{ACAD_REACTORS
330
118B
102
}
330
118B
100
AcDbVisualStyle
  2
EdgeColorOff
 70
    22
177
     3
291
     1
 70
    58
 90
        2
176
     0
 90
        2
176
     0
 90
        0
176
     0
 90
        0
176
     0
 40
0.6
176
     0
 40
30.0
176
     0
 62
     7
420
 16777215
176
     0
 90
        1
176
     0
 90
        4
176
     0
 62
     7
176
     0
 62
   257
176
     0
 90
        1
176
     0
 90
        1
176
     0
 40
1.0
176
     0
 90
        8
176
     2
 62
     7
176
     0
 40
1.0
176
     0
 90
        1
176
     0
 90
        6
176
     0
 90
        2
176
     0
 62
     7
176
     0
 90
        5
176
     0
 90
        0
176
     0
 90
        0
176
     0
290
     0
176
     0
 90
        1
176
     0
 40
0.0
176
     0
 90
        0
176
     0
290
     0
176
     0
290
     1
176
     0
290
     1
176
     0
290
     0
176
     0
290
     0
176
     0
290
     0
176
     0
290
     0
176
     0
290
     0
176
     0
290
     0
176
     0
 90
       50
176
     0
 40
0.0
176
     0
 40
1.0
176
     0
 90
        0
176
     0
 62
   178
420
        0
176
     0
 90
       50
176
     0
 90
        3
176
     0
 62
     5
420
      255
176
     0
290
     0
176
     0
 90
       50
176
     0
 90
       50
176
     0
 90
       50
176
     0
290
     0
176
     0
 90
       50
176
     0
 62
   256
176
     0
 40
1.0
176
     0
 90
        2
176
     0
  1
strokes_ogs.tif
176
     0
290
     0
176
     0
 40
1.0
176
     0
 40
1.0
176
     0
  0
VISUALSTYLE
  5
119A
102
{ACAD_REACTORS
330
118B
102
}
330
118B
100
AcDbVisualStyle
  2
Facepattern
 70
    15
177
     3
291
     1
 70
    58
 90
        2
176
     1
 90
        2
176
     1
 90
        0
176
     1
 90
        0
176
     1
 40
0.6
176
     1
 40
30.0
176
     1
 62
     7
420
 16777215
176
     1
 90
        1
176
     1
 90
        4
176
     1
 62
     7
176
     1
 62
   257
176
     1
 90
        1
176
     1
 90
        1
176
     1
 40
1.0
176
     1
 90
        8
176
     1
 62
     7
176
     1
 40
1.0
176
     1
 90
        1
176
     1
 90
        6
176
     1
 90
        2
176
     1
 62
     7
176
     1
 90
        5
176
     1
 90
        0
176
     1
 90
        0
176
     1
290
     0
176
     1
 90
        1
176
     1
 40
0.0
176
     1
 90
        0
176
     1
290
     0
176
     1
290
     1
176
     1
290
     1
176
     1
290
     0
176
     1
290
     0
176
     1
290
     0
176
     1
290
     0
176
     1
290
     0
176
     1
290
     0
176
     1
 90
       50
176
     1
 40
0.0
176
     1
 40
1.0
176
     1
 90
        0
176
     1
 62
   178
420
        0
176
     1
 90
       50
176
     1
 90
        3
176
     1
 62
     5
420
      255
176
     1
290
     0
176
     1
 90
       50
176
     1
 90
       50
176
     1
 90
       50
176
     1
290
     0
176
     1
 90
       50
176
     1
 62
   256
176
     0
 40
1.0
176
     0
 90
        2
176
     1
  1
strokes_ogs.tif
176
     1
290
     0
176
     1
 40
1.0
176
     1
 40
1.0
176
     1
  0
VISUALSTYLE
  5
118C
102
{ACAD_REACTORS
330
118B
102
}
330
118B
100
AcDbVisualStyle
  2
Flat
 70
     0
177
     3
291
     1
 70
    58
 90
        2
176
     1
 90
        1
176
     1
 90
        1
176
     1
 90
        2
176
     1
 40
0.6
176
     1
 40
30.0
176
     1
 62
     7
420
 16777215
176
     1
 90
        0
176
     1
 90
        0
176
     1
 62
     7
176
     1
 62
   257
176
     1
 90
        1
176
     1
 90
        1
176
     1
 40
1.0
176
     1
 90
        8
176
     1
 62
     7
176
     1
 40
1.0
176
     1
 90
        1
176
     1
 90
        6
176
     1
 90
        2
176
     1
 62
     7
176
     1
 90
        5
176
     1
 90
        0
176
     1
 90
        0
176
     1
290
     0
176
     1
 90
       13
176
     1
 40
0.0
176
     1
 90
        0
176
     1
290
     0
176
     1
290
     1
176
     1
290
     1
176
     1
290
     0
176
     1
290
     0
176
     1
290
     0
176
     1
290
     0
176
     1
290
     0
176
     1
290
     0
176
     1
 90
       50
176
     1
 40
0.0
176
     1
 40
1.0
176
     1
 90
        0
176
     1
 62
   178
420
        0
176
     1
 90
       50
176
     1
 90
        3
176
     1
 62
     5
420
      255
176
     1
290
     0
176
     1
 90
       50
176
     1
 90
       50
176
     1
 90
       50
176
     1
290
     0
176
     1
 90
       50
176
     1
 62
   256
176
     0
 40
1.0
176
     0
 90
        2
176
     1
  1
strokes_ogs.tif
176
     1
290
     0
176
     1
 40
1.0
176
     1
 40
1.0
176
     1
  0
VISUALSTYLE
  5
118D
102
{ACAD_REACTORS
330
118B
102
}
330
118B
100
AcDbVisualStyle
  2
FlatWithEdges
 70
     1
177
     3
291
     1
 70
    58
 90
        2
176
     1
 90
        1
176
     1
 90
        1
176
     1
 90
        2
176
     1
 40
0.6
176
     1
 40
30.0
176
     1
 62
     7
420
 16777215
176
     1
 90
        1
176
     1
 90
        0
176
     1
 62
     7
176
     1
 62
   257
176
     1
 90
        1
176
     1
 90
        1
176
     1
 40
1.0
176
     1
 90
        0
176
     1
 62
   257
176
     1
 40
1.0
176
     1
 90
        1
176
     1
 90
        6
176
     1
 90
        2
176
     1
 62
     7
176
     1
 90
        5
176
     1
 90
        0
176
     1
 90
        0
176
     1
290
     0
176
     1
 90
       13
176
     1
 40
0.0
176
     1
 90
        0
176
     1
290
     0
176
     1
290
     1
176
     1
290
     1
176
     1
290
     0
176
     1
290
     0
176
     1
290
     0
176
     1
290
     0
176
     1
290
     0
176
     1
290
     0
176
     1
 90
       50
176
     1
 40
0.0
176
     1
 40
1.0
176
     1
 90
        0
176
     1
 62
   178
420
        0
176
     1
 90
       50
176
     1
 90
        3
176
     1
 62
     5
420
      255
176
     1
290
     0
176
     1
 90
       50
176
     1
 90
       50
176
     1
 90
       50
176
     1
290
     0
176
     1
 90
       50
176
     1
 62
   256
176
     0
 40
1.0
176
     0
 90
        2
176
     1
  1
strokes_ogs.tif
176
     1
290
     0
176
     1
 40
1.0
176
     1
 40
1.0
176
     1
  0
VISUALSTYLE
  5
118E
102
{ACAD_REACTORS
330
118B
102
}
330
118B
100
AcDbVisualStyle
  2
Gouraud
 70
     2
177
     3
291
     1
 70
    58
 90
        2
176
     1
 90
        2
176
     1
 90
        1
176
     1
 90
        2
176
     1
 40
0.6
176
     1
 40
30.0
176
     1
 62
     7
420
 16777215
176
     1
 90
        0
176
     1
 90
        0
176
     1
 62
     7
176
     1
 62
   257
176
     1
 90
        1
176
     1
 90
        1
176
     1
 40
1.0
176
     1
 90
        0
176
     1
 62
     7
176
     1
 40
1.0
176
     1
 90
        1
176
     1
 90
        6
176
     1
 90
        2
176
     1
 62
     7
176
     1
 90
        5
176
     1
 90
        0
176
     1
 90
        0
176
     1
290
     0
176
     1
 90
       13
176
     1
 40
0.0
176
     1
 90
        0
176
     1
290
     0
176
     1
290
     1
176
     1
290
     1
176
     1
290
     0
176
     1
290
     0
176
     1
290
     0
176
     1
290
     0
176
     1
290
     0
176
     1
290
     0
176
     1
 90
       50
176
     1
 40
0.0
176
     1
 40
1.0
176
     1
 90
        0
176
     1
 62
   178
420
        0
176
     1
 90
       50
176
     1
 90
        3
176
     1
 62
     5
420
      255
176
     1
290
     0
176
     1
 90
       50
176
     1
 90
       50
176
     1
 90
       50
176
     1
290
     0
176
     1
 90
       50
176
     1
 62
   256
176
     0
 40
1.0
176
     0
 90
        2
176
     1
  1
strokes_ogs.tif
176
     1
290
     0
176
     1
 40
1.0
176
     1
 40
1.0
176
     1
  0
VISUALSTYLE
  5
118F
102
{ACAD_REACTORS
330
118B
102
}
330
118B
100
AcDbVisualStyle
  2
GouraudWithEdges
 70
     3
177
     3
291
     1
 70
    58
 90
        2
176
     1
 90
        2
176
     1
 90
        1
176
     1
 90
        2
176
     1
 40
0.6
176
     1
 40
30.0
176
     1
 62
     7
420
 16777215
176
     1
 90
        1
176
     1
 90
        0
176
     1
 62
     7
176
     1
 62
   257
176
     1
 90
        1
176
     1
 90
        1
176
     1
 40
1.0
176
     1
 90
        0
176
     1
 62
   257
176
     1
 40
1.0
176
     1
 90
        1
176
     1
 90
        6
176
     1
 90
        2
176
     1
 62
     7
176
     1
 90
        5
176
     1
 90
        0
176
     1
 90
        0
176
     1
290
     0
176
     1
 90
       13
176
     1
 40
0.0
176
     1
 90
        0
176
     1
290
     0
176
     1
290
     1
176
     1
290
     1
176
     1
290
     0
176
     1
290
     0
176
     1
290
     0
176
     1
290
     0
176
     1
290
     0
176
     1
290
     0
176
     1
 90
       50
176
     1
 40
0.0
176
     1
 40
1.0
176
     1
 90
        0
176
     1
 62
   178
420
        0
176
     1
 90
       50
176
     1
 90
        3
176
     1
 62
     5
420
      255
176
     1
290
     0
176
     1
 90
       50
176
     1
 90
       50
176
     1
 90
       50
176
     1
290
     0
176
     1
 90
       50
176
     1
 62
   256
176
     0
 40
1.0
176
     0
 90
        2
176
     1
  1
strokes_ogs.tif
176
     1
290
     0
176
     1
 40
1.0
176
     1
 40
1.0
176
     1
  0
VISUALSTYLE
  5
1192
102
{ACAD_REACTORS
330
118B
102
}
330
118B
100
AcDbVisualStyle
  2
Hidden
 70
     6
177
     3
291
     0
 70
    58
 90
        1
176
     1
 90
        2
176
     1
 90
        2
176
     1
 90
        0
176
     1
 40
0.6
176
     1
 40
30.0
176
     1
 62
     7
420
 16777215
176
     1
 90
        2
176
     1
 90
        2
176
     1
 62
     7
176
     1
 62
   257
176
     1
 90
        2
176
     1
 90
        1
176
     1
 40
40.0
176
     1
 90
        0
176
     1
 62
   257
176
     1
 40
1.0
176
     1
 90
        1
176
     1
 90
        6
176
     1
 90
        2
176
     1
 62
     7
176
     1
 90
        3
176
     1
 90
        0
176
     1
 90
        0
176
     1
290
     0
176
     1
 90
        1
176
     1
 40
0.0
176
     1
 90
        0
176
     1
290
     0
176
     1
290
     1
176
     1
290
     1
176
     1
290
     0
176
     1
290
     0
176
     1
290
     0
176
     1
290
     0
176
     1
290
     0
176
     1
290
     0
176
     1
 90
       50
176
     1
 40
0.0
176
     1
 40
1.0
176
     1
 90
        0
176
     1
 62
   178
420
        0
176
     1
 90
       50
176
     1
 90
        3
176
     1
 62
     5
420
      255
176
     1
290
     0
176
     1
 90
       50
176
     1
 90
       50
176
     1
 90
       50
176
     1
290
     0
176
     1
 90
       50
176
     1
 62
   256
176
     0
 40
1.0
176
     0
 90
        2
176
     1
  1
strokes_ogs.tif
176
     1
290
     0
176
     1
 40
1.0
176
     1
 40
1.0
176
     1
  0
VISUALSTYLE
  5
119C
102
{ACAD_REACTORS
330
118B
102
}
330
118B
100
AcDbVisualStyle
  2
JitterOff
 70
    20
177
     3
291
     1
 70
    58
 90
        2
176
     0
 90
        2
176
     0
 90
        0
176
     0
 90
        0
176
     0
 40
0.6
176
     0
 40
30.0
176
     0
 62
     7
420
 16777215
176
     0
 90
        1
176
     0
 90
        4
176
     0
 62
     7
176
     0
 62
   257
176
     0
 90
        1
176
     0
 90
        1
176
     0
 40
1.0
176
     0
 90
       10
176
     2
 62
     7
176
     0
 40
1.0
176
     0
 90
        1
176
     0
 90
        6
176
     0
 90
        2
176
     0
 62
     7
176
     0
 90
        5
176
     0
 90
        0
176
     0
 90
        0
176
     0
290
     0
176
     0
 90
        1
176
     0
 40
0.0
176
     0
 90
        0
176
     0
290
     0
176
     0
290
     1
176
     0
290
     1
176
     0
290
     0
176
     0
290
     0
176
     0
290
     0
176
     0
290
     0
176
     0
290
     0
176
     0
290
     0
176
     0
 90
       50
176
     0
 40
0.0
176
     0
 40
1.0
176
     0
 90
        0
176
     0
 62
   178
420
        0
176
     0
 90
       50
176
     0
 90
        3
176
     0
 62
     5
420
      255
176
     0
290
     0
176
     0
 90
       50
176
     0
 90
       50
176
     0
 90
       50
176
     0
290
     0
176
     0
 90
       50
176
     0
 62
   256
176
     0
 40
1.0
176
     0
 90
        2
176
     0
  1
strokes_ogs.tif
176
     0
290
     0
176
     0
 40
1.0
176
     0
 40
1.0
176
     0
  0
VISUALSTYLE
  5
1199
102
{ACAD_REACTORS
330
118B
102
}
330
118B
100
AcDbVisualStyle
  2
Linepattern
 70
    14
177
     3
291
     1
 70
    58
 90
        2
176
     1
 90
        2
176
     1
 90
        0
176
     1
 90
        0
176
     1
 40
0.6
176
     1
 40
30.0
176
     1
 62
     7
420
 16777215
176
     1
 90
        1
176
     1
 90
        4
176
     1
 62
     7
176
     1
 62
   257
176
     1
 90
        7
176
     1
 90
        7
176
     1
 40
1.0
176
     1
 90
        8
176
     1
 62
     7
176
     1
 40
1.0
176
     1
 90
        1
176
     1
 90
        6
176
     1
 90
        2
176
     1
 62
     7
176
     1
 90
        5
176
     1
 90
        0
176
     1
 90
        0
176
     1
290
     0
176
     1
 90
        1
176
     1
 40
0.0
176
     1
 90
        0
176
     1
290
     0
176
     1
290
     1
176
     1
290
     1
176
     1
290
     0
176
     1
290
     0
176
     1
290
     0
176
     1
290
     0
176
     1
290
     0
176
     1
290
     0
176
     1
 90
       50
176
     1
 40
0.0
176
     1
 40
1.0
176
     1
 90
        0
176
     1
 62
   178
420
        0
176
     1
 90
       50
176
     1
 90
        3
176
     1
 62
     5
420
      255
176
     1
290
     0
176
     1
 90
       50
176
     1
 90
       50
176
     1
 90
       50
176
     1
290
     0
176
     1
 90
       50
176
     1
 62
   256
176
     0
 40
1.0
176
     0
 90
        2
176
     1
  1
strokes_ogs.tif
176
     1
290
     0
176
     1
 40
1.0
176
     1
 40
1.0
176
     1
  0
VISUALSTYLE
  5
119D
102
{ACAD_REACTORS
330
118B
102
}
330
118B
100
AcDbVisualStyle
  2
OverhangOff
 70
    21
177
     3
291
     1
 70
    58
 90
        2
176
     0
 90
        2
176
     0
 90
        0
176
     0
 90
        0
176
     0
 40
0.6
176
     0
 40
30.0
176
     0
 62
     7
420
 16777215
176
     0
 90
        1
176
     0
 90
        4
176
     0
 62
     7
176
     0
 62
   257
176
     0
 90
        1
176
     0
 90
        1
176
     0
 40
1.0
176
     0
 90
        9
176
     2
 62
     7
176
     0
 40
1.0
176
     0
 90
        1
176
     0
 90
        6
176
     0
 90
        2
176
     0
 62
     7
176
     0
 90
        5
176
     0
 90
        0
176
     0
 90
        0
176
     0
290
     0
176
     0
 90
        1
176
     0
 40
0.0
176
     0
 90
        0
176
     0
290
     0
176
     0
290
     1
176
     0
290
     1
176
     0
290
     0
176
     0
290
     0
176
     0
290
     0
176
     0
290
     0
176
     0
290
     0
176
     0
290
     0
176
     0
 90
       50
176
     0
 40
0.0
176
     0
 40
1.0
176
     0
 90
        0
176
     0
 62
   178
420
        0
176
     0
 90
       50
176
     0
 90
        3
176
     0
 62
     5
420
      255
176
     0
290
     0
176
     0
 90
       50
176
     0
 90
       50
176
     0
 90
       50
176
     0
290
     0
176
     0
 90
       50
176
     0
 62
   256
176
     0
 40
1.0
176
     0
 90
        2
176
     0
  1
strokes_ogs.tif
176
     0
290
     0
176
     0
 40
1.0
176
     0
 40
1.0
176
     0
  0
VISUALSTYLE
  5
1194
102
{ACAD_REACTORS
330
118B
102
}
330
118B
100
AcDbVisualStyle
  2
Realistic
 70
     8
177
     3
291
     0
 70
    58
 90
        2
176
     1
 90
        3
176
     1
 90
        0
176
     1
 90
        2
176
     1
 40
0.6
176
     1
 40
30.0
176
     1
 62
     7
420
 16777215
176
     1
 90
        0
176
     1
 90
        0
176
     1
 62
     7
176
     1
 62
   257
176
     1
 90
        1
176
     1
 90
        1
176
     1
 40
1.0
176
     1
 90
        8
176
     1
 62
   257
176
     1
 40
1.0
176
     1
 90
        1
176
     1
 90
        6
176
     1
 90
        2
176
     1
 62
     7
176
     1
 90
        3
176
     1
 90
        0
176
     1
 90
        0
176
     1
290
     0
176
     1
 90
       13
176
     1
 40
0.0
176
     1
 90
        0
176
     1
290
     0
176
     1
290
     1
176
     1
290
     1
176
     1
290
     0
176
     1
290
     0
176
     1
290
     0
176
     1
290
     0
176
     1
290
     0
176
     1
290
     0
176
     1
 90
       50
176
     1
 40
0.0
176
     1
 40
1.0
176
     1
 90
        0
176
     1
 62
   178
420
        0
176
     1
 90
       50
176
     1
 90
        3
176
     1
 62
     5
420
      255
176
     1
290
     0
176
     1
 90
       50
176
     1
 90
       50
176
     1
 90
       50
176
     1
290
     0
176
     1
 90
       50
176
     1
 62
   256
176
     0
 40
1.0
176
     0
 90
        2
176
     1
  1
strokes_ogs.tif
176
     1
290
     0
176
     1
 40
1.0
176
     1
 40
1.0
176
     1
  0
VISUALSTYLE
  5
11A3
102
{ACAD_REACTORS
330
118B
102
}
330
118B
100
AcDbVisualStyle
  2
Shaded
 70
    27
177
     3
291
     0
 70
    58
 90
        2
176
     1
 90
        2
176
     1
 90
        1
176
     1
 90
        2
176
     1
 40
0.6
176
     1
 40
30.0
176
     1
 62
     7
420
 16777215
176
     1
 90
        0
176
     1
 90
        4
176
     1
 62
     7
176
     1
 62
   257
176
     1
 90
        1
176
     1
 90
        1
176
     1
 40
1.0
176
     1
 90
        8
176
     1
 62
   257
176
     1
 40
1.0
176
     1
 90
        1
176
     1
 90
        6
176
     1
 90
        2
176
     1
 62
     8
420
  7895160
176
     1
 90
        3
176
     1
 90
        0
176
     1
 90
        0
176
     1
290
     0
176
     1
 90
        5
176
     1
 40
0.0
176
     1
 90
        0
176
     1
290
     0
176
     1
290
     1
176
     1
290
     1
176
     1
290
     0
176
     1
290
     0
176
     1
290
     0
176
     1
290
     0
176
     1
290
     0
176
     1
290
     0
176
     1
 90
       50
176
     1
 40
0.0
176
     1
 40
1.0
176
     1
 90
        0
176
     1
 62
   178
420
        0
176
     1
 90
       50
176
     1
 90
        3
176
     1
 62
     5
420
      255
176
     1
290
     0
176
     1
 90
       50
176
     1
 90
       50
176
     1
 90
       50
176
     1
290
     0
176
     1
 90
       50
176
     1
 62
   256
176
     0
 40
1.0
176
     0
 90
        2
176
     1
  1
strokes_ogs.tif
176
     1
290
     0
176
     1
 40
1.0
176
     1
 40
1.0
176
     1
  0
VISUALSTYLE
  5
11A2
102
{ACAD_REACTORS
330
118B
102
}
330
118B
100
AcDbVisualStyle
  2
Shaded with edges
 70
    26
177
     3
291
     0
 70
    58
 90
        2
176
     1
 90
        2
176
     1
 90
        1
176
     1
 90
        2
176
     1
 40
0.6
176
     1
 40
30.0
176
     1
 62
     7
420
 16777215
176
     1
 90
        1
176
     1
 90
       10
176
     1
 62
     7
176
     1
 62
   257
176
     1
 90
        2
176
     1
 90
        1
176
     1
 40
1.0
176
     1
 90
        8
176
     1
 62
   257
176
     1
 40
1.0
176
     1
 90
        1
176
     1
 90
        6
176
     1
 90
        2
176
     1
 62
     7
176
     1
 90
        3
176
     1
 90
        0
176
     1
 90
        0
176
     1
290
     0
176
     1
 90
        5
176
     1
 40
0.0
176
     1
 90
        0
176
     1
290
     0
176
     1
290
     1
176
     1
290
     1
176
     1
290
     0
176
     1
290
     0
176
     1
290
     0
176
     1
290
     0
176
     1
290
     0
176
     1
290
     0
176
     1
 90
       50
176
     1
 40
0.0
176
     1
 40
1.0
176
     1
 90
        0
176
     1
 62
   178
420
        0
176
     1
 90
       50
176
     1
 90
        3
176
     1
 62
     5
420
      255
176
     1
290
     0
176
     1
 90
       50
176
     1
 90
       50
176
     1
 90
       50
176
     1
290
     0
176
     1
 90
       50
176
     1
 62
   256
176
     0
 40
1.0
176
     0
 90
        2
176
     1
  1
strokes_ogs.tif
176
     1
290
     0
176
     1
 40
1.0
176
     1
 40
1.0
176
     1
  0
VISUALSTYLE
  5
119F
102
{ACAD_REACTORS
330
118B
102
}
330
118B
100
AcDbVisualStyle
  2
Shades of Gray
 70
    23
177
     3
291
     0
 70
    58
 90
        2
176
     1
 90
        2
176
     1
 90
        3
176
     1
 90
        0
176
     1
 40
0.6
176
     1
 40
30.0
176
     1
 62
     7
420
 16777215
176
     1
 90
        2
176
     1
 90
        2
176
     1
 62
     7
176
     1
 62
     7
176
     1
 90
        1
176
     1
 90
        1
176
     1
 40
40.0
176
     1
 90
        8
176
     1
 62
     7
176
     1
 40
1.0
176
     1
 90
        1
176
     1
 90
        6
176
     1
 90
        2
176
     1
 62
     7
176
     1
 90
        3
176
     1
 90
        0
176
     1
 90
        0
176
     1
290
     0
176
     1
 90
        1
176
     1
 40
0.0
176
     1
 90
        0
176
     1
290
     0
176
     1
290
     1
176
     1
290
     1
176
     1
290
     0
176
     1
290
     0
176
     1
290
     0
176
     1
290
     0
176
     1
290
     0
176
     1
290
     0
176
     1
 90
       50
176
     1
 40
0.0
176
     1
 40
1.0
176
     1
 90
        0
176
     1
 62
   178
420
        0
176
     1
 90
       50
176
     1
 90
        3
176
     1
 62
     5
420
      255
176
     1
290
     0
176
     1
 90
       50
176
     1
 90
       50
176
     1
 90
       50
176
     1
290
     0
176
     1
 90
       50
176
     1
 62
   256
176
     0
 40
1.0
176
     0
 90
        2
176
     1
  1
strokes_ogs.tif
176
     1
290
     0
176
     1
 40
1.0
176
     1
 40
1.0
176
     1
  0
VISUALSTYLE
  5
11A0
102
{ACAD_REACTORS
330
118B
102
}
330
118B
100
AcDbVisualStyle
  2
Sketchy
 70
    24
177
     3
291
     0
 70
    58
 90
        1
176
     1
 90
        2
176
     1
 90
        2
176
     1
 90
        0
176
     1
 40
0.6
176
     1
 40
30.0
176
     1
 62
     7
420
 16777215
176
     1
 90
        2
176
     1
 90
        2
176
     1
 62
     7
176
     1
 62
     7
176
     1
 90
        1
176
     1
 90
        1
176
     1
 40
40.0
176
     1
 90
       11
176
     1
 62
     7
176
     1
 40
1.0
176
     1
 90
        1
176
     1
 90
        6
176
     1
 90
        2
176
     1
 62
     7
176
     1
 90
        6
176
     1
 90
        0
176
     1
 90
        0
176
     1
290
     0
176
     1
 90
        1
176
     1
 40
0.0
176
     1
 90
        0
176
     1
290
     0
176
     1
290
     1
176
     1
290
     1
176
     1
290
     0
176
     1
290
     0
176
     1
290
     0
176
     1
290
     0
176
     1
290
     0
176
     1
290
     0
176
     1
 90
       50
176
     1
 40
0.0
176
     1
 40
1.0
176
     1
 90
        0
176
     1
 62
   178
420
        0
176
     1
 90
       50
176
     1
 90
        3
176
     1
 62
     5
420
      255
176
     1
290
     0
176
     1
 90
       50
176
     1
 90
       50
176
     1
 90
       50
176
     1
290
     0
176
     1
 90
       50
176
     1
 62
   256
176
     0
 40
1.0
176
     0
 90
        2
176
     1
  1
strokes_ogs.tif
176
     1
290
     0
176
     1
 40
1.0
176
     1
 40
1.0
176
     1
  0
VISUALSTYLE
  5
1198
102
{ACAD_REACTORS
330
118B
102
}
330
118B
100
AcDbVisualStyle
  2
Thicken
 70
    13
177
     3
291
     1
 70
    58
 90
        2
176
     1
 90
        2
176
     1
 90
        0
176
     1
 90
        0
176
     1
 40
0.6
176
     1
 40
30.0
176
     1
 62
     7
420
 16777215
176
     1
 90
        1
176
     1
 90
        4
176
     1
 62
     7
176
     1
 62
   257
176
     1
 90
        1
176
     1
 90
        1
176
     1
 40
1.0
176
     1
 90
       12
176
     1
 62
     7
176
     1
 40
1.0
176
     1
 90
        1
176
     1
 90
        6
176
     1
 90
        2
176
     1
 62
     7
176
     1
 90
        5
176
     1
 90
        0
176
     1
 90
        0
176
     1
290
     0
176
     1
 90
        1
176
     1
 40
0.0
176
     1
 90
        0
176
     1
290
     0
176
     1
290
     1
176
     1
290
     1
176
     1
290
     0
176
     1
290
     0
176
     1
290
     0
176
     1
290
     0
176
     1
290
     0
176
     1
290
     0
176
     1
 90
       50
176
     1
 40
0.0
176
     1
 40
1.0
176
     1
 90
        0
176
     1
 62
   178
420
        0
176
     1
 90
       50
176
     1
 90
        3
176
     1
 62
     5
420
      255
176
     1
290
     0
176
     1
 90
       50
176
     1
 90
       50
176
     1
 90
       50
176
     1
290
     0
176
     1
 90
       50
176
     1
 62
   256
176
     0
 40
1.0
176
     0
 90
        2
176
     1
  1
strokes_ogs.tif
176
     1
290
     0
176
     1
 40
1.0
176
     1
 40
1.0
176
     1
  0
VISUALSTYLE
  5
1191
102
{ACAD_REACTORS
330
118B
102
}
330
118B
100
AcDbVisualStyle
  2
Wireframe
 70
     5
177
     3
291
     0
 70
    58
 90
        0
176
     1
 90
        2
176
     1
 90
        0
176
     1
 90
        0
176
     1
 40
0.6
176
     1
 40
30.0
176
     1
 62
     7
420
 16777215
176
     1
 90
        1
176
     1
 90
        4
176
     1
 62
     7
176
     1
 62
   257
176
     1
 90
        1
176
     1
 90
        1
176
     1
 40
1.0
176
     1
 90
        0
176
     1
 62
   257
176
     1
 40
1.0
176
     1
 90
        1
176
     1
 90
        6
176
     1
 90
        2
176
     1
 62
     7
176
     1
 90
        3
176
     1
 90
        0
176
     1
 90
        0
176
     1
290
     0
176
     1
 90
        1
176
     1
 40
0.0
176
     1
 90
        0
176
     1
290
     0
176
     1
290
     1
176
     1
290
     1
176
     1
290
     0
176
     1
290
     0
176
     1
290
     0
176
     1
290
     0
176
     1
290
     0
176
     1
290
     0
176
     1
 90
       50
176
     1
 40
0.0
176
     1
 40
1.0
176
     1
 90
        0
176
     1
 62
   178
420
        0
176
     1
 90
       50
176
     1
 90
        3
176
     1
 62
     5
420
      255
176
     1
290
     0
176
     1
 90
       50
176
     1
 90
       50
176
     1
 90
       50
176
     1
290
     0
176
     1
 90
       50
176
     1
 62
   256
176
     0
 40
1.0
176
     0
 90
        2
176
     1
  1
strokes_ogs.tif
176
     1
290
     0
176
     1
 40
1.0
176
     1
 40
1.0
176
     1
  0
VISUALSTYLE
  5
11A1
102
{ACAD_REACTORS
330
118B
102
}
330
118B
100
AcDbVisualStyle
  2
X-Ray
 70
    25
177
     3
291
     0
 70
    58
 90
        2
176
     1
 90
        2
176
     1
 90
        1
176
     1
 90
        1
176
     1
 40
0.5
176
     1
 40
30.0
176
     1
 62
     7
420
 16777215
176
     1
 90
        1
176
     1
 90
        0
176
     1
 62
     7
176
     1
 62
   257
176
     1
 90
        1
176
     1
 90
        1
176
     1
 40
1.0
176
     1
 90
        8
176
     1
 62
     7
176
     1
 40
1.0
176
     1
 90
        1
176
     1
 90
        6
176
     1
 90
        2
176
     1
 62
     7
176
     1
 90
        3
176
     1
 90
        0
176
     1
 90
        0
176
     1
290
     0
176
     1
 90
       13
176
     1
 40
0.0
176
     1
 90
        0
176
     1
290
     0
176
     1
290
     1
176
     1
290
     1
176
     1
290
     0
176
     1
290
     0
176
     1
290
     0
176
     1
290
     0
176
     1
290
     0
176
     1
290
     0
176
     1
 90
       50
176
     1
 40
0.0
176
     1
 40
1.0
176
     1
 90
        0
176
     1
 62
   178
420
        0
176
     1
 90
       50
176
     1
 90
        3
176
     1
 62
     5
420
      255
176
     1
290
     0
176
     1
 90
       50
176
     1
 90
       50
176
     1
 90
       50
176
     1
290
     0
176
     1
 90
       50
176
     1
 62
   256
176
     0
 40
1.0
176
     0
 90
        2
176
     1
  1
strokes_ogs.tif
176
     1
290
     0
176
     1
 40
1.0
176
     1
 40
1.0
176
     1
  0
DICTIONARYVAR
  5
1253
102
{ACAD_REACTORS
330
1252
102
}
330
1252
100
DictionaryVariables
280
     0
  1
1:1
  0
DICTIONARYVAR
  5
1258
102
{ACAD_REACTORS
330
1252
102
}
330
1252
100
DictionaryVariables
280
     0
  1
Standard
  0
DICTIONARYVAR
  5
1257
102
{ACAD_REACTORS
330
1252
102
}
330
1252
100
DictionaryVariables
280
     0
  1
Standard
  0
XRECORD
  5
11D2
102
{ACAD_REACTORS
330
11D0
102
}
330
11D0
100
AcDbXrecord
280
     1
1000
#ffffff
  0
XRECORD
  5
11D3
102
{ACAD_REACTORS
330
11D0
102
}
330
11D0
100
AcDbXrecord
280
     1
1000
FullColor
  0
XRECORD
  5
11D4
102
{ACAD_REACTORS
330
11D0
102
}
330
11D0
100
AcDbXrecord
280
     1
 90
        0
  0
XRECORD
  5
11D5
102
{ACAD_REACTORS
330
11D0
102
}
330
11D0
100
AcDbXrecord
280
     1
 90
        0
  0
XRECORD
  5
11D6
102
{ACAD_REACTORS
330
11D0
102
}
330
11D0
100
AcDbXrecord
280
     1
1000
Standard
  0
XRECORD
  5
11D7
102
{ACAD_REACTORS
330
11D0
102
}
330
11D0
100
AcDbXrecord
280
     1
290
     1
  0
XRECORD
  5
11D8
102
{ACAD_REACTORS
330
11D0
102
}
330
11D0
100
AcDbXrecord
280
     1
 90
        2
  0
XRECORD
  5
11D9
102
{ACAD_REACTORS
330
11D0
102
}
330
11D0
100
AcDbXrecord
280
     1
 90
        4
  0
XRECORD
  5
11DA
102
{ACAD_REACTORS
330
11D0
102
}
330
11D0
100
AcDbXrecord
280
     1
290
     1
  0
XRECORD
  5
11DB
102
{ACAD_REACTORS
330
11D0
102
}
330
11D0
100
AcDbXrecord
280
     1
290
     1
  0
XRECORD
  5
11DC
102
{ACAD_REACTORS
330
11D0
102
}
330
11D0
100
AcDbXrecord
280
     1
290
     1
  0
XRECORD
  5
11DD
102
{ACAD_REACTORS
330
11D0
102
}
330
11D0
100
AcDbXrecord
280
     1
290
     1
  0
XRECORD
  5
11DE
102
{ACAD_REACTORS
330
11D0
102
}
330
11D0
100
AcDbXrecord
280
     1
1000
auto
  0
XRECORD
  5
11DF
102
{ACAD_REACTORS
330
11D0
102
}
330
11D0
100
AcDbXrecord
280
     1
1000
auto
  0
XRECORD
  5
11E0
102
{ACAD_REACTORS
330
11D0
102
}
330
11D0
100
AcDbXrecord
280
     1
1000
auto
  0
XRECORD
  5
11E1
102
{ACAD_REACTORS
330
11D0
102
}
330
11D0
100
AcDbXrecord
280
     1
1000
auto
  0
XRECORD
  5
11E2
102
{ACAD_REACTORS
330
11D0
102
}
330
11D0
100
AcDbXrecord
280
     1
1000
auto
  0
XRECORD
  5
11E3
102
{ACAD_REACTORS
330
11D0
102
}
330
11D0
100
AcDbXrecord
280
     1
1000
auto
  0
XRECORD
  5
11E4
102
{ACAD_REACTORS
330
11D0
102
}
330
11D0
100
AcDbXrecord
280
     1
1000
auto
  0
XRECORD
  5
11E5
102
{ACAD_REACTORS
330
11D0
102
}
330
11D0
100
AcDbXrecord
280
     1
1000
auto
  0
XRECORD
  5
11E6
102
{ACAD_REACTORS
330
11D0
102
}
330
11D0
100
AcDbXrecord
280
     1
290
     0
  0
XRECORD
  5
11E7
102
{ACAD_REACTORS
330
11D0
102
}
330
11D0
100
AcDbXrecord
280
     1
290
     0
  0
XRECORD
  5
11E8
102
{ACAD_REACTORS
330
11D0
102
}
330
11D0
100
AcDbXrecord
280
     1
290
     0
  0
XRECORD
  5
11E9
102
{ACAD_REACTORS
330
11D0
102
}
330
11D0
100
AcDbXrecord
280
     1
290
     0
  0
XRECORD
  5
11EA
102
{ACAD_REACTORS
330
11D0
102
}
330
11D0
100
AcDbXrecord
280
     1
 90
        0
  0
XRECORD
  5
11EB
102
{ACAD_REACTORS
330
11D0
102
}
330
11D0
100
AcDbXrecord
280
     1
 90
        0
  0
XRECORD
  5
11EC
102
{ACAD_REACTORS
330
11D0
102
}
330
11D0
100
AcDbXrecord
280
     1
 90
        0
  0
XRECORD
  5
11ED
102
{ACAD_REACTORS
330
11D0
102
}
330
11D0
100
AcDbXrecord
280
     1
 90
        0
  0
XRECORD
  5
11EE
102
{ACAD_REACTORS
330
11D0
102
}
330
11D0
100
AcDbXrecord
280
     1
1000
auto
  0
XRECORD
  5
11EF
102
{ACAD_REACTORS
330
11D0
102
}
330
11D0
100
AcDbXrecord
280
     1
1000
auto
  0
XRECORD
  5
11F0
102
{ACAD_REACTORS
330
11D0
102
}
330
11D0
100
AcDbXrecord
280
     1
1000
auto
  0
XRECORD
  5
11F1
102
{ACAD_REACTORS
330
11D0
102
}
330
11D0
100
AcDbXrecord
280
     1
1000
auto
  0
XRECORD
  5
11F2
102
{ACAD_REACTORS
330
11D0
102
}
330
11D0
100
AcDbXrecord
280
     1
1000
auto
  0
XRECORD
  5
11F3
102
{ACAD_REACTORS
330
11D0
102
}
330
11D0
100
AcDbXrecord
280
     1
1000
auto
  0
XRECORD
  5
11F4
102
{ACAD_REACTORS
330
11D0
102
}
330
11D0
100
AcDbXrecord
280
     1
1000
auto
  0
XRECORD
  5
11F5
102
{ACAD_REACTORS
330
11D0
102
}
330
11D0
100
AcDbXrecord
280
     1
1000
auto
  0
XRECORD
  5
11F6
102
{ACAD_REACTORS
330
11D0
102
}
330
11D0
100
AcDbXrecord
280
     1
 90
        1
  0
XRECORD
  5
11F7
102
{ACAD_REACTORS
330
11D0
102
}
330
11D0
100
AcDbXrecord
280
     1
 40
10.0
  0
XRECORD
  5
11F8
102
{ACAD_REACTORS
330
11D0
102
}
330
11D0
100
AcDbXrecord
280
     1
 40
10.0
  0
XRECORD
  5
11F9
102
{ACAD_REACTORS
330
11D0
102
}
330
11D0
100
AcDbXrecord
280
     1
 40
10.0
  0
XRECORD
  5
11FA
102
{ACAD_REACTORS
330
11D0
102
}
330
11D0
100
AcDbXrecord
280
     1
 40
10.0
  0
XRECORD
  5
11FB
102
{ACAD_REACTORS
330
11D0
102
}
330
11D0
100
AcDbXrecord
280
     1
290
     0
  0
XRECORD
  5
11FC
102
{ACAD_REACTORS
330
11D0
102
}
330
11D0
100
AcDbXrecord
280
     1
 90
        1
  0
XRECORD
  5
11FD
102
{ACAD_REACTORS
330
11D0
102
}
330
11D0
100
AcDbXrecord
280
     1
 40
-0.9999999999999964
  0
XRECORD
  5
11FE
102
{ACAD_REACTORS
330
11D0
102
}
330
11D0
100
AcDbXrecord
280
     1
 40
-1.850000000000001
  0
XRECORD
  5
11FF
102
{ACAD_REACTORS
330
11D0
102
}
330
11D0
100
AcDbXrecord
280
     1
1000
Landscape
  0
XRECORD
  5
1200
102
{ACAD_REACTORS
330
11D0
102
}
330
11D0
100
AcDbXrecord
280
     1
 40
420.0
  0
XRECORD
  5
1201
102
{ACAD_REACTORS
330
11D0
102
}
330
11D0
100
AcDbXrecord
280
     1
 40
297.0
  0
XRECORD
  5
1202
102
{ACAD_REACTORS
330
11D0
102
}
330
11D0
100
AcDbXrecord
280
     1
1000
0.009999999999999997
  0
XRECORD
  5
1203
102
{ACAD_REACTORS
330
11D0
102
}
330
11D0
100
AcDbXrecord
280
     1
290
     1
  0
XRECORD
  5
1204
102
{ACAD_REACTORS
330
11D0
102
}
330
11D0
100
AcDbXrecord
280
     1
1000
3.15.5
  0
XRECORD
  5
1205
102
{ACAD_REACTORS
330
11D0
102
}
330
11D0
100
AcDbXrecord
280
     1
 90
        4
  0
XRECORD
  5
1206
102
{ACAD_REACTORS
330
11D0
102
}
330
11D0
100
AcDbXrecord
280
     1
  0
XRECORD
  5
1207
102
{ACAD_REACTORS
330
11D0
102
}
330
11D0
100
AcDbXrecord
280
     1
 40
57.24571372064278
  0
XRECORD
  5
1208
102
{ACAD_REACTORS
330
11D0
102
}
330
11D0
100
AcDbXrecord
280
     1
 40
88.56758269468482
  0
DICTIONARY
  5
1254
330
11CB
100
AcDbDictionary
280
     1
281
     1
  3
ACAD_ROUNDTRIP_2008_TABLESTYLE_CELLSTYLEMAP
360
1255
  0
CELLSTYLEMAP
  5
1255
102
{ACAD_REACTORS
330
1254
102
}
330
1254
100
AcDbCellStyleMap
 90
        3
300
CELLSTYLE
  1
TABLEFORMAT_BEGIN
 90
        5
170
     1
 91
        0
 92
    32768
 62
   257
 93
        1
300
CONTENTFORMAT
  1
CONTENTFORMAT_BEGIN
 90
        0
 91
        0
 92
        4
 93
        0
300

 40
0.0
140
1.0
 94
        5
 62
     0
340
1173
144
0.25
309
CONTENTFORMAT_END
171
     1
301
MARGIN
  1
CELLMARGIN_BEGIN
 40
0.06
 40
0.06
 40
0.06
 40
0.06
 40
0.06
 40
0.06
309
CELLMARGIN_END
 94
        6
 95
        1
302
GRIDFORMAT
  1
GRIDFORMAT_BEGIN
 90
        0
 91
        1
 62
     0
 92
       -2
340
1175
 93
        0
 40
0.045
309
GRIDFORMAT_END
 95
        2
302
GRIDFORMAT
  1
GRIDFORMAT_BEGIN
 90
        0
 91
        1
 62
     0
 92
       -2
340
1175
 93
        0
 40
0.045
309
GRIDFORMAT_END
 95
        4
302
GRIDFORMAT
  1
GRIDFORMAT_BEGIN
 90
        0
 91
        1
 62
     0
 92
       -2
340
1175
 93
        0
 40
0.045
309
GRIDFORMAT_END
 95
        8
302
GRIDFORMAT
  1
GRIDFORMAT_BEGIN
 90
        0
 91
        1
 62
     0
 92
       -2
340
1175
 93
        0
 40
0.045
309
GRIDFORMAT_END
 95
       16
302
GRIDFORMAT
  1
GRIDFORMAT_BEGIN
 90
        0
 91
        1
 62
     0
 92
       -2
340
1175
 93
        0
 40
0.045
309
GRIDFORMAT_END
 95
       32
302
GRIDFORMAT
  1
GRIDFORMAT_BEGIN
 90
        0
 91
        1
 62
     0
 92
       -2
340
1175
 93
        0
 40
0.045
309
GRIDFORMAT_END
309
TABLEFORMAT_END
  1
CELLSTYLE_BEGIN
 90
        1
 91
        1
300
_TITLE
309
CELLSTYLE_END
300
CELLSTYLE
  1
TABLEFORMAT_BEGIN
 90
        5
170
     1
 91
        0
 92
        0
 62
   257
 93
        1
300
CONTENTFORMAT
  1
CONTENTFORMAT_BEGIN
 90
        0
 91
        0
 92
        4
 93
        0
300

 40
0.0
140
1.0
 94
        5
 62
     0
340
1173
144
0.18
309
CONTENTFORMAT_END
171
     1
301
MARGIN
  1
CELLMARGIN_BEGIN
 40
0.06
 40
0.06
 40
0.06
 40
0.06
 40
0.06
 40
0.06
309
CELLMARGIN_END
 94
        6
 95
        1
302
GRIDFORMAT
  1
GRIDFORMAT_BEGIN
 90
        0
 91
        1
 62
     0
 92
       -2
340
1175
 93
        0
 40
0.045
309
GRIDFORMAT_END
 95
        2
302
GRIDFORMAT
  1
GRIDFORMAT_BEGIN
 90
        0
 91
        1
 62
     0
 92
       -2
340
1175
 93
        0
 40
0.045
309
GRIDFORMAT_END
 95
        4
302
GRIDFORMAT
  1
GRIDFORMAT_BEGIN
 90
        0
 91
        1
 62
     0
 92
       -2
340
1175
 93
        0
 40
0.045
309
GRIDFORMAT_END
 95
        8
302
GRIDFORMAT
  1
GRIDFORMAT_BEGIN
 90
        0
 91
        1
 62
     0
 92
       -2
340
1175
 93
        0
 40
0.045
309
GRIDFORMAT_END
 95
       16
302
GRIDFORMAT
  1
GRIDFORMAT_BEGIN
 90
        0
 91
        1
 62
     0
 92
       -2
340
1175
 93
        0
 40
0.045
309
GRIDFORMAT_END
 95
       32
302
GRIDFORMAT
  1
GRIDFORMAT_BEGIN
 90
        0
 91
        1
 62
     0
 92
       -2
340
1175
 93
        0
 40
0.045
309
GRIDFORMAT_END
309
TABLEFORMAT_END
  1
CELLSTYLE_BEGIN
 90
        2
 91
        1
300
_HEADER
309
CELLSTYLE_END
300
CELLSTYLE
  1
TABLEFORMAT_BEGIN
 90
        5
170
     1
 91
        0
 92
        0
 62
   257
 93
        1
300
CONTENTFORMAT
  1
CONTENTFORMAT_BEGIN
 90
        0
 91
        0
 92
        4
 93
        0
300

 40
0.0
140
1.0
 94
        2
 62
     0
340
1173
144
0.18
309
CONTENTFORMAT_END
171
     1
301
MARGIN
  1
CELLMARGIN_BEGIN
 40
0.06
 40
0.06
 40
0.06
 40
0.06
 40
0.06
 40
0.06
309
CELLMARGIN_END
 94
        6
 95
        1
302
GRIDFORMAT
  1
GRIDFORMAT_BEGIN
 90
        0
 91
        1
 62
     0
 92
       -2
340
1175
 93
        0
 40
0.045
309
GRIDFORMAT_END
 95
        2
302
GRIDFORMAT
  1
GRIDFORMAT_BEGIN
 90
        0
 91
        1
 62
     0
 92
       -2
340
1175
 93
        0
 40
0.045
309
GRIDFORMAT_END
 95
        4
302
GRIDFORMAT
  1
GRIDFORMAT_BEGIN
 90
        0
 91
        1
 62
     0
 92
       -2
340
1175
 93
        0
 40
0.045
309
GRIDFORMAT_END
 95
        8
302
GRIDFORMAT
  1
GRIDFORMAT_BEGIN
 90
        0
 91
        1
 62
     0
 92
       -2
340
1175
 93
        0
 40
0.045
309
GRIDFORMAT_END
 95
       16
302
GRIDFORMAT
  1
GRIDFORMAT_BEGIN
 90
        0
 91
        1
 62
     0
 92
       -2
340
1175
 93
        0
 40
0.045
309
GRIDFORMAT_END
 95
       32
302
GRIDFORMAT
  1
GRIDFORMAT_BEGIN
 90
        0
 91
        1
 62
     0
 92
       -2
340
1175
 93
        0
 40
0.045
309
GRIDFORMAT_END
309
TABLEFORMAT_END
  1
CELLSTYLE_BEGIN
 90
        3
 91
        2
300
_DATA
309
CELLSTYLE_END
  0
ENDSEC
  0
EOF
